<?xml version="1.0" encoding="UTF-8" standalone="no"?>
<!DOCTYPE svg PUBLIC "-//W3C//DTD SVG 1.1//EN"
 "http://www.w3.org/Graphics/SVG/1.1/DTD/svg11.dtd">
<!-- Generated by graphviz version 2.38.0 (20140413.2041)
 -->
<!-- Title: %3 Pages: 1 -->
<svg width="1219pt" height="402pt"
 viewBox="0.00 0.00 1218.58 402.32" xmlns="http://www.w3.org/2000/svg" xmlns:xlink="http://www.w3.org/1999/xlink">
<g id="graph0" class="graph" transform="scale(1 1) rotate(0) translate(4 398.316)">
<title>%3</title>
<polygon fill="white" stroke="none" points="-4,4 -4,-398.316 1214.58,-398.316 1214.58,4 -4,4"/>
<!-- &#45;1 -->
<g id="node1" class="node"><title>&#45;1</title>
<polygon fill="lightgray" stroke="black" points="24,-193.43 0,-193.43 0,-175.43 24,-175.43 24,-193.43"/>
<text text-anchor="middle" x="12" y="-182.23" font-family="Times,serif" font-size="9.00">&#45;1</text>
</g>
<!-- 44652 -->
<g id="node31" class="node"><title>44652</title>
<ellipse fill="white" stroke="black" cx="41" cy="-93.2756" rx="27.6545" ry="27.6545"/>
<text text-anchor="middle" x="41" y="-91.0756" font-family="Times,serif" font-size="9.00">44652</text>
</g>
<!-- &#45;1&#45;&gt;44652 -->
<g id="edge1" class="edge"><title>&#45;1&#45;&gt;44652</title>
<path fill="none" stroke="red" stroke-width="0.200001" d="M14.6763,-175.202C18.0755,-164.752 24.1571,-146.056 29.619,-129.264"/>
<polygon fill="red" stroke="red" stroke-width="0.200001" points="32.9733,-130.267 32.7383,-119.675 26.3166,-128.101 32.9733,-130.267"/>
</g>
<!-- &#45;2 -->
<g id="node2" class="node"><title>&#45;2</title>
<polygon fill="lightgray" stroke="black" points="226,-375.739 202,-375.739 202,-357.739 226,-357.739 226,-375.739"/>
<text text-anchor="middle" x="214" y="-364.539" font-family="Times,serif" font-size="9.00">&#45;2</text>
</g>
<!-- &#45;3 -->
<g id="node3" class="node"><title>&#45;3</title>
<polygon fill="lightgray" stroke="black" points="268,-375.739 244,-375.739 244,-357.739 268,-357.739 268,-375.739"/>
<text text-anchor="middle" x="256" y="-364.539" font-family="Times,serif" font-size="9.00">&#45;3</text>
</g>
<!-- &#45;4 -->
<g id="node4" class="node"><title>&#45;4</title>
<polygon fill="lightgray" stroke="black" points="310,-375.739 286,-375.739 286,-357.739 310,-357.739 310,-375.739"/>
<text text-anchor="middle" x="298" y="-364.539" font-family="Times,serif" font-size="9.00">&#45;4</text>
</g>
<!-- &#45;5 -->
<g id="node5" class="node"><title>&#45;5</title>
<polygon fill="lightgray" stroke="black" points="352,-375.739 328,-375.739 328,-357.739 352,-357.739 352,-375.739"/>
<text text-anchor="middle" x="340" y="-364.539" font-family="Times,serif" font-size="9.00">&#45;5</text>
</g>
<!-- &#45;6 -->
<g id="node6" class="node"><title>&#45;6</title>
<polygon fill="lightgray" stroke="black" points="394,-375.739 370,-375.739 370,-357.739 394,-357.739 394,-375.739"/>
<text text-anchor="middle" x="382" y="-364.539" font-family="Times,serif" font-size="9.00">&#45;6</text>
</g>
<!-- &#45;7 -->
<g id="node7" class="node"><title>&#45;7</title>
<polygon fill="lightgray" stroke="black" points="93,-284.584 69,-284.584 69,-266.584 93,-266.584 93,-284.584"/>
<text text-anchor="middle" x="81" y="-273.384" font-family="Times,serif" font-size="9.00">&#45;7</text>
</g>
<!-- 51243 -->
<g id="node30" class="node"><title>51243</title>
<ellipse fill="white" stroke="black" cx="70" cy="-184.43" rx="27.6545" ry="27.6545"/>
<text text-anchor="middle" x="70" y="-182.23" font-family="Times,serif" font-size="9.00">51243</text>
</g>
<!-- &#45;7&#45;&gt;51243 -->
<g id="edge3" class="edge"><title>&#45;7&#45;&gt;51243</title>
<path fill="none" stroke="green" stroke-width="0.656927" d="M79.9849,-266.357C78.734,-256.218 76.5255,-238.318 74.503,-221.927"/>
<polygon fill="green" stroke="green" stroke-width="0.656927" points="77.9763,-221.494 73.278,-211.998 71.029,-222.351 77.9763,-221.494"/>
</g>
<!-- 51317 -->
<g id="node34" class="node"><title>51317</title>
<ellipse fill="white" stroke="black" cx="143" cy="-184.43" rx="27.6545" ry="27.6545"/>
<text text-anchor="middle" x="143" y="-182.23" font-family="Times,serif" font-size="9.00">51317</text>
</g>
<!-- &#45;7&#45;&gt;51317 -->
<g id="edge11" class="edge"><title>&#45;7&#45;&gt;51317</title>
<path fill="none" stroke="green" stroke-width="1.00417" d="M86.7217,-266.357C94.6564,-254.947 109.428,-233.706 121.847,-215.848"/>
<polygon fill="green" stroke="green" stroke-width="1.00417" points="124.878,-217.619 127.714,-207.411 119.131,-213.623 124.878,-217.619"/>
</g>
<!-- &#45;8 -->
<g id="node8" class="node"><title>&#45;8</title>
<polygon fill="lightgray" stroke="black" points="436,-375.739 412,-375.739 412,-357.739 436,-357.739 436,-375.739"/>
<text text-anchor="middle" x="424" y="-364.539" font-family="Times,serif" font-size="9.00">&#45;8</text>
</g>
<!-- &#45;9 -->
<g id="node9" class="node"><title>&#45;9</title>
<polygon fill="lightgray" stroke="black" points="478,-375.739 454,-375.739 454,-357.739 478,-357.739 478,-375.739"/>
<text text-anchor="middle" x="466" y="-364.539" font-family="Times,serif" font-size="9.00">&#45;9</text>
</g>
<!-- &#45;10 -->
<g id="node10" class="node"><title>&#45;10</title>
<polygon fill="lightgray" stroke="black" points="136.5,-375.739 107.5,-375.739 107.5,-357.739 136.5,-357.739 136.5,-375.739"/>
<text text-anchor="middle" x="122" y="-364.539" font-family="Times,serif" font-size="9.00">&#45;10</text>
</g>
<!-- 377 -->
<g id="node35" class="node"><title>377</title>
<ellipse fill="white" stroke="black" cx="146" cy="-275.584" rx="21.4286" ry="21.4286"/>
<text text-anchor="middle" x="146" y="-273.384" font-family="Times,serif" font-size="9.00">377</text>
</g>
<!-- &#45;10&#45;&gt;377 -->
<g id="edge2" class="edge"><title>&#45;10&#45;&gt;377</title>
<path fill="none" stroke="green" stroke-width="0.516358" d="M124.215,-357.511C127.334,-345.926 133.18,-324.206 138.032,-306.182"/>
<polygon fill="green" stroke="green" stroke-width="0.516358" points="141.454,-306.937 140.674,-296.371 134.694,-305.117 141.454,-306.937"/>
</g>
<!-- &#45;11 -->
<g id="node11" class="node"><title>&#45;11</title>
<polygon fill="lightgray" stroke="black" points="525.5,-375.739 496.5,-375.739 496.5,-357.739 525.5,-357.739 525.5,-375.739"/>
<text text-anchor="middle" x="511" y="-364.539" font-family="Times,serif" font-size="9.00">&#45;11</text>
</g>
<!-- &#45;12 -->
<g id="node12" class="node"><title>&#45;12</title>
<polygon fill="lightgray" stroke="black" points="572.5,-375.739 543.5,-375.739 543.5,-357.739 572.5,-357.739 572.5,-375.739"/>
<text text-anchor="middle" x="558" y="-364.539" font-family="Times,serif" font-size="9.00">&#45;12</text>
</g>
<!-- 50002 -->
<g id="node33" class="node"><title>50002</title>
<ellipse fill="white" stroke="black" cx="558" cy="-275.584" rx="27.6545" ry="27.6545"/>
<text text-anchor="middle" x="558" y="-273.384" font-family="Times,serif" font-size="9.00">50002</text>
</g>
<!-- &#45;12&#45;&gt;50002 -->
<g id="edge9" class="edge"><title>&#45;12&#45;&gt;50002</title>
<path fill="none" stroke="red" stroke-width="0.487231" d="M558,-357.511C558,-347.539 558,-330.058 558,-313.889"/>
<polygon fill="red" stroke="red" stroke-width="0.487231" points="561.5,-313.545 558,-303.545 554.5,-313.545 561.5,-313.545"/>
</g>
<!-- &#45;13 -->
<g id="node13" class="node"><title>&#45;13</title>
<polygon fill="lightgray" stroke="black" points="183.5,-375.739 154.5,-375.739 154.5,-357.739 183.5,-357.739 183.5,-375.739"/>
<text text-anchor="middle" x="169" y="-364.539" font-family="Times,serif" font-size="9.00">&#45;13</text>
</g>
<!-- &#45;13&#45;&gt;377 -->
<g id="edge8" class="edge"><title>&#45;13&#45;&gt;377</title>
<path fill="none" stroke="green" stroke-width="0.227297" d="M166.877,-357.511C163.889,-345.926 158.285,-324.206 153.636,-306.182"/>
<polygon fill="green" stroke="green" stroke-width="0.227297" points="156.992,-305.179 151.104,-296.371 150.213,-306.928 156.992,-305.179"/>
</g>
<!-- &#45;14 -->
<g id="node14" class="node"><title>&#45;14</title>
<polygon fill="lightgray" stroke="black" points="619.5,-375.739 590.5,-375.739 590.5,-357.739 619.5,-357.739 619.5,-375.739"/>
<text text-anchor="middle" x="605" y="-364.539" font-family="Times,serif" font-size="9.00">&#45;14</text>
</g>
<!-- &#45;15 -->
<g id="node15" class="node"><title>&#45;15</title>
<polygon fill="lightgray" stroke="black" points="666.5,-375.739 637.5,-375.739 637.5,-357.739 666.5,-357.739 666.5,-375.739"/>
<text text-anchor="middle" x="652" y="-364.539" font-family="Times,serif" font-size="9.00">&#45;15</text>
</g>
<!-- &#45;16 -->
<g id="node16" class="node"><title>&#45;16</title>
<polygon fill="lightgray" stroke="black" points="713.5,-375.739 684.5,-375.739 684.5,-357.739 713.5,-357.739 713.5,-375.739"/>
<text text-anchor="middle" x="699" y="-364.539" font-family="Times,serif" font-size="9.00">&#45;16</text>
</g>
<!-- &#45;17 -->
<g id="node17" class="node"><title>&#45;17</title>
<polygon fill="lightgray" stroke="black" points="217.5,-284.584 188.5,-284.584 188.5,-266.584 217.5,-266.584 217.5,-284.584"/>
<text text-anchor="middle" x="203" y="-273.384" font-family="Times,serif" font-size="9.00">&#45;17</text>
</g>
<!-- 2 -->
<g id="node27" class="node"><title>2</title>
<ellipse fill="lightblue" stroke="black" cx="203" cy="-184.43" rx="14.7" ry="14.7"/>
<text text-anchor="middle" x="203" y="-182.23" font-family="Times,serif" font-size="9.00">2</text>
</g>
<!-- &#45;17&#45;&gt;2 -->
<g id="edge5" class="edge"><title>&#45;17&#45;&gt;2</title>
<path fill="none" stroke="green" stroke-width="0.673399" d="M203,-266.357C203,-253.6 203,-228.556 203,-209.689"/>
<polygon fill="green" stroke="green" stroke-width="0.673399" points="206.5,-209.434 203,-199.434 199.5,-209.434 206.5,-209.434"/>
</g>
<!-- &#45;18 -->
<g id="node18" class="node"><title>&#45;18</title>
<polygon fill="lightgray" stroke="black" points="760.5,-375.739 731.5,-375.739 731.5,-357.739 760.5,-357.739 760.5,-375.739"/>
<text text-anchor="middle" x="746" y="-364.539" font-family="Times,serif" font-size="9.00">&#45;18</text>
</g>
<!-- &#45;19 -->
<g id="node19" class="node"><title>&#45;19</title>
<polygon fill="lightgray" stroke="black" points="807.5,-375.739 778.5,-375.739 778.5,-357.739 807.5,-357.739 807.5,-375.739"/>
<text text-anchor="middle" x="793" y="-364.539" font-family="Times,serif" font-size="9.00">&#45;19</text>
</g>
<!-- &#45;20 -->
<g id="node20" class="node"><title>&#45;20</title>
<polygon fill="lightgray" stroke="black" points="854.5,-375.739 825.5,-375.739 825.5,-357.739 854.5,-357.739 854.5,-375.739"/>
<text text-anchor="middle" x="840" y="-364.539" font-family="Times,serif" font-size="9.00">&#45;20</text>
</g>
<!-- &#45;21 -->
<g id="node21" class="node"><title>&#45;21</title>
<polygon fill="lightgray" stroke="black" points="901.5,-375.739 872.5,-375.739 872.5,-357.739 901.5,-357.739 901.5,-375.739"/>
<text text-anchor="middle" x="887" y="-364.539" font-family="Times,serif" font-size="9.00">&#45;21</text>
</g>
<!-- &#45;22 -->
<g id="node22" class="node"><title>&#45;22</title>
<polygon fill="lightgray" stroke="black" points="948.5,-375.739 919.5,-375.739 919.5,-357.739 948.5,-357.739 948.5,-375.739"/>
<text text-anchor="middle" x="934" y="-364.539" font-family="Times,serif" font-size="9.00">&#45;22</text>
</g>
<!-- &#45;23 -->
<g id="node23" class="node"><title>&#45;23</title>
<polygon fill="lightgray" stroke="black" points="995.5,-375.739 966.5,-375.739 966.5,-357.739 995.5,-357.739 995.5,-375.739"/>
<text text-anchor="middle" x="981" y="-364.539" font-family="Times,serif" font-size="9.00">&#45;23</text>
</g>
<!-- &#45;24 -->
<g id="node24" class="node"><title>&#45;24</title>
<polygon fill="lightgray" stroke="black" points="1042.5,-375.739 1013.5,-375.739 1013.5,-357.739 1042.5,-357.739 1042.5,-375.739"/>
<text text-anchor="middle" x="1028" y="-364.539" font-family="Times,serif" font-size="9.00">&#45;24</text>
</g>
<!-- 0 -->
<g id="node25" class="node"><title>0</title>
<ellipse fill="lightblue" stroke="black" cx="1075" cy="-366.739" rx="14.7" ry="14.7"/>
<text text-anchor="middle" x="1075" y="-364.539" font-family="Times,serif" font-size="9.00">0</text>
</g>
<!-- 1 -->
<g id="node26" class="node"><title>1</title>
<ellipse fill="lightblue" stroke="black" cx="41" cy="-14.8492" rx="14.7" ry="14.7"/>
<text text-anchor="middle" x="41" y="-12.6492" font-family="Times,serif" font-size="9.00">1</text>
</g>
<!-- 3 -->
<g id="node28" class="node"><title>3</title>
<ellipse fill="lightblue" stroke="black" cx="1123" cy="-366.739" rx="14.7" ry="14.7"/>
<text text-anchor="middle" x="1123" y="-364.539" font-family="Times,serif" font-size="9.00">3</text>
</g>
<!-- 50629 -->
<g id="node29" class="node"><title>50629</title>
<ellipse fill="white" stroke="black" cx="1183" cy="-366.739" rx="27.6545" ry="27.6545"/>
<text text-anchor="middle" x="1183" y="-364.539" font-family="Times,serif" font-size="9.00">50629</text>
</g>
<!-- 45453 -->
<g id="node32" class="node"><title>45453</title>
<ellipse fill="white" stroke="black" cx="1183" cy="-275.584" rx="27.6545" ry="27.6545"/>
<text text-anchor="middle" x="1183" y="-273.384" font-family="Times,serif" font-size="9.00">45453</text>
</g>
<!-- 50629&#45;&gt;45453 -->
<g id="edge7" class="edge"><title>50629&#45;&gt;45453</title>
<path fill="none" stroke="green" stroke-width="0.678116" stroke-dasharray="1,5" d="M1183,-338.989C1183,-330.967 1183,-322.023 1183,-313.468"/>
<polygon fill="green" stroke="green" stroke-width="0.678116" points="1186.5,-313.315 1183,-303.315 1179.5,-313.315 1186.5,-313.315"/>
</g>
<!-- 51243&#45;&gt;44652 -->
<g id="edge12" class="edge"><title>51243&#45;&gt;44652</title>
<path fill="none" stroke="green" stroke-width="0.45588" d="M61.612,-157.643C58.7316,-148.788 55.4574,-138.722 52.38,-129.261"/>
<polygon fill="green" stroke="green" stroke-width="0.45588" points="55.6907,-128.124 49.269,-119.697 49.034,-130.289 55.6907,-128.124"/>
</g>
<!-- 44652&#45;&gt;1 -->
<g id="edge4" class="edge"><title>44652&#45;&gt;1</title>
<path fill="none" stroke="red" stroke-width="0.712074" d="M41,-65.5454C41,-57.165 41,-47.9724 41,-39.7969"/>
<polygon fill="red" stroke="red" stroke-width="0.712074" points="44.5001,-39.7892 41,-29.7893 37.5001,-39.7893 44.5001,-39.7892"/>
</g>
<!-- 377&#45;&gt;2 -->
<g id="edge10" class="edge"><title>377&#45;&gt;2</title>
<path fill="none" stroke="red" stroke-width="1.27475" d="M156.99,-257.394C166.401,-242.675 179.971,-221.45 189.936,-205.864"/>
<polygon fill="red" stroke="red" stroke-width="1.27475" points="192.89,-207.741 195.328,-197.431 186.992,-203.971 192.89,-207.741"/>
</g>
<!-- 377&#45;&gt;51317 -->
<g id="edge6" class="edge"><title>377&#45;&gt;51317</title>
<path fill="none" stroke="green" stroke-width="0.43138" d="M145.319,-254.354C145,-244.854 144.608,-233.227 144.239,-222.247"/>
<polygon fill="green" stroke="green" stroke-width="0.43138" points="147.729,-221.886 143.894,-212.009 140.733,-222.122 147.729,-221.886"/>
</g>
</g>
</svg>
