<?xml version="1.0" encoding="UTF-8" standalone="no"?>
<!DOCTYPE svg PUBLIC "-//W3C//DTD SVG 1.1//EN"
 "http://www.w3.org/Graphics/SVG/1.1/DTD/svg11.dtd">
<!-- Generated by graphviz version 2.38.0 (20140413.2041)
 -->
<!-- Title: %3 Pages: 1 -->
<svg width="1543pt" height="493pt"
 viewBox="0.00 0.00 1542.58 493.47" xmlns="http://www.w3.org/2000/svg" xmlns:xlink="http://www.w3.org/1999/xlink">
<g id="graph0" class="graph" transform="scale(1 1) rotate(0) translate(4 489.47)">
<title>%3</title>
<polygon fill="white" stroke="none" points="-4,4 -4,-489.47 1538.58,-489.47 1538.58,4 -4,4"/>
<!-- &#45;1 -->
<g id="node1" class="node"><title>&#45;1</title>
<polygon fill="lightgray" stroke="black" points="24,-466.893 0,-466.893 0,-448.893 24,-448.893 24,-466.893"/>
<text text-anchor="middle" x="12" y="-455.693" font-family="Times,serif" font-size="9.00">&#45;1</text>
</g>
<!-- 377 -->
<g id="node45" class="node"><title>377</title>
<ellipse fill="white" stroke="black" cx="47" cy="-366.739" rx="21.4286" ry="21.4286"/>
<text text-anchor="middle" x="47" y="-364.539" font-family="Times,serif" font-size="9.00">377</text>
</g>
<!-- &#45;1&#45;&gt;377 -->
<g id="edge11" class="edge"><title>&#45;1&#45;&gt;377</title>
<path fill="none" stroke="green" stroke-width="0.189066" d="M15.23,-448.665C19.8777,-436.826 28.6806,-414.403 35.8436,-396.157"/>
<polygon fill="green" stroke="green" stroke-width="0.189066" points="39.1167,-397.397 39.5131,-386.81 32.6008,-394.839 39.1167,-397.397"/>
</g>
<!-- &#45;2 -->
<g id="node2" class="node"><title>&#45;2</title>
<polygon fill="lightgray" stroke="black" points="171,-466.893 147,-466.893 147,-448.893 171,-448.893 171,-466.893"/>
<text text-anchor="middle" x="159" y="-455.693" font-family="Times,serif" font-size="9.00">&#45;2</text>
</g>
<!-- &#45;3 -->
<g id="node3" class="node"><title>&#45;3</title>
<polygon fill="lightgray" stroke="black" points="213,-466.893 189,-466.893 189,-448.893 213,-448.893 213,-466.893"/>
<text text-anchor="middle" x="201" y="-455.693" font-family="Times,serif" font-size="9.00">&#45;3</text>
</g>
<!-- &#45;4 -->
<g id="node4" class="node"><title>&#45;4</title>
<polygon fill="lightgray" stroke="black" points="255,-466.893 231,-466.893 231,-448.893 255,-448.893 255,-466.893"/>
<text text-anchor="middle" x="243" y="-455.693" font-family="Times,serif" font-size="9.00">&#45;4</text>
</g>
<!-- &#45;5 -->
<g id="node5" class="node"><title>&#45;5</title>
<polygon fill="lightgray" stroke="black" points="297,-466.893 273,-466.893 273,-448.893 297,-448.893 297,-466.893"/>
<text text-anchor="middle" x="285" y="-455.693" font-family="Times,serif" font-size="9.00">&#45;5</text>
</g>
<!-- &#45;6 -->
<g id="node6" class="node"><title>&#45;6</title>
<polygon fill="lightgray" stroke="black" points="339,-466.893 315,-466.893 315,-448.893 339,-448.893 339,-466.893"/>
<text text-anchor="middle" x="327" y="-455.693" font-family="Times,serif" font-size="9.00">&#45;6</text>
</g>
<!-- &#45;7 -->
<g id="node7" class="node"><title>&#45;7</title>
<polygon fill="lightgray" stroke="black" points="381,-466.893 357,-466.893 357,-448.893 381,-448.893 381,-466.893"/>
<text text-anchor="middle" x="369" y="-455.693" font-family="Times,serif" font-size="9.00">&#45;7</text>
</g>
<!-- 66244 -->
<g id="node38" class="node"><title>66244</title>
<ellipse fill="white" stroke="black" cx="367" cy="-366.739" rx="27.6545" ry="27.6545"/>
<text text-anchor="middle" x="367" y="-364.539" font-family="Times,serif" font-size="9.00">66244</text>
</g>
<!-- &#45;7&#45;&gt;66244 -->
<g id="edge16" class="edge"><title>&#45;7&#45;&gt;66244</title>
<path fill="none" stroke="red" stroke-width="0.362289" d="M368.815,-448.665C368.592,-438.693 368.2,-421.212 367.837,-405.043"/>
<polygon fill="red" stroke="red" stroke-width="0.362289" points="371.328,-404.619 367.605,-394.7 364.33,-404.776 371.328,-404.619"/>
</g>
<!-- 63558 -->
<g id="node39" class="node"><title>63558</title>
<ellipse fill="white" stroke="black" cx="444" cy="-275.584" rx="27.6545" ry="27.6545"/>
<text text-anchor="middle" x="444" y="-273.384" font-family="Times,serif" font-size="9.00">63558</text>
</g>
<!-- &#45;7&#45;&gt;63558 -->
<g id="edge7" class="edge"><title>&#45;7&#45;&gt;63558</title>
<path fill="none" stroke="red" stroke-width="0.288711" stroke-dasharray="1,5" d="M374.258,-448.643C381.589,-436.905 394.991,-414.559 404,-394.316 415.981,-367.395 426.558,-335.711 433.821,-311.997"/>
<polygon fill="red" stroke="red" stroke-width="0.288711" points="437.192,-312.944 436.726,-302.359 430.489,-310.924 437.192,-312.944"/>
</g>
<!-- &#45;8 -->
<g id="node8" class="node"><title>&#45;8</title>
<polygon fill="lightgray" stroke="black" points="444,-466.893 420,-466.893 420,-448.893 444,-448.893 444,-466.893"/>
<text text-anchor="middle" x="432" y="-455.693" font-family="Times,serif" font-size="9.00">&#45;8</text>
</g>
<!-- &#45;9 -->
<g id="node9" class="node"><title>&#45;9</title>
<polygon fill="lightgray" stroke="black" points="497,-466.893 473,-466.893 473,-448.893 497,-448.893 497,-466.893"/>
<text text-anchor="middle" x="485" y="-455.693" font-family="Times,serif" font-size="9.00">&#45;9</text>
</g>
<!-- &#45;10 -->
<g id="node10" class="node"><title>&#45;10</title>
<polygon fill="lightgray" stroke="black" points="71.5,-466.893 42.5,-466.893 42.5,-448.893 71.5,-448.893 71.5,-466.893"/>
<text text-anchor="middle" x="57" y="-455.693" font-family="Times,serif" font-size="9.00">&#45;10</text>
</g>
<!-- &#45;10&#45;&gt;377 -->
<g id="edge15" class="edge"><title>&#45;10&#45;&gt;377</title>
<path fill="none" stroke="red" stroke-width="0.294194" d="M56.0771,-448.665C54.7918,-437.206 52.3943,-415.831 50.386,-397.926"/>
<polygon fill="red" stroke="red" stroke-width="0.294194" points="53.8527,-397.433 49.2598,-387.886 46.8963,-398.213 53.8527,-397.433"/>
</g>
<!-- &#45;11 -->
<g id="node11" class="node"><title>&#45;11</title>
<polygon fill="lightgray" stroke="black" points="108.5,-284.584 79.5,-284.584 79.5,-266.584 108.5,-266.584 108.5,-284.584"/>
<text text-anchor="middle" x="94" y="-273.384" font-family="Times,serif" font-size="9.00">&#45;11</text>
</g>
<!-- 65421 -->
<g id="node31" class="node"><title>65421</title>
<ellipse fill="white" stroke="black" cx="70" cy="-184.43" rx="27.6545" ry="27.6545"/>
<text text-anchor="middle" x="70" y="-182.23" font-family="Times,serif" font-size="9.00">65421</text>
</g>
<!-- &#45;11&#45;&gt;65421 -->
<g id="edge22" class="edge"><title>&#45;11&#45;&gt;65421</title>
<path fill="none" stroke="red" stroke-width="0.269631" d="M91.7852,-266.357C89.0175,-256.076 84.1012,-237.813 79.6385,-221.235"/>
<polygon fill="red" stroke="red" stroke-width="0.269631" points="82.921,-219.964 76.9418,-211.217 76.1616,-221.783 82.921,-219.964"/>
</g>
<!-- &#45;12 -->
<g id="node12" class="node"><title>&#45;12</title>
<polygon fill="lightgray" stroke="black" points="549.5,-466.893 520.5,-466.893 520.5,-448.893 549.5,-448.893 549.5,-466.893"/>
<text text-anchor="middle" x="535" y="-455.693" font-family="Times,serif" font-size="9.00">&#45;12</text>
</g>
<!-- &#45;13 -->
<g id="node13" class="node"><title>&#45;13</title>
<polygon fill="lightgray" stroke="black" points="128.5,-466.893 99.5,-466.893 99.5,-448.893 128.5,-448.893 128.5,-466.893"/>
<text text-anchor="middle" x="114" y="-455.693" font-family="Times,serif" font-size="9.00">&#45;13</text>
</g>
<!-- 56323 -->
<g id="node30" class="node"><title>56323</title>
<ellipse fill="white" stroke="black" cx="114" cy="-366.739" rx="27.6545" ry="27.6545"/>
<text text-anchor="middle" x="114" y="-364.539" font-family="Times,serif" font-size="9.00">56323</text>
</g>
<!-- &#45;13&#45;&gt;56323 -->
<g id="edge9" class="edge"><title>&#45;13&#45;&gt;56323</title>
<path fill="none" stroke="green" stroke-width="0.401671" d="M114,-448.665C114,-438.693 114,-421.212 114,-405.043"/>
<polygon fill="green" stroke="green" stroke-width="0.401671" points="117.5,-404.7 114,-394.7 110.5,-404.7 117.5,-404.7"/>
</g>
<!-- &#45;13&#45;&gt;377 -->
<g id="edge20" class="edge"><title>&#45;13&#45;&gt;377</title>
<path fill="none" stroke="red" stroke-width="0.343662" d="M107.817,-448.665C98.3215,-436.03 79.7663,-411.339 65.6363,-392.537"/>
<polygon fill="red" stroke="red" stroke-width="0.343662" points="68.3097,-390.269 59.504,-384.377 62.7137,-394.474 68.3097,-390.269"/>
</g>
<!-- 65915 -->
<g id="node46" class="node"><title>65915</title>
<ellipse fill="white" stroke="black" cx="187" cy="-366.739" rx="27.6545" ry="27.6545"/>
<text text-anchor="middle" x="187" y="-364.539" font-family="Times,serif" font-size="9.00">65915</text>
</g>
<!-- &#45;13&#45;&gt;65915 -->
<g id="edge17" class="edge"><title>&#45;13&#45;&gt;65915</title>
<path fill="none" stroke="green" stroke-width="0.246129" d="M120.737,-448.665C130.348,-436.927 148.478,-414.785 163.348,-396.625"/>
<polygon fill="green" stroke="green" stroke-width="0.246129" points="166.281,-398.568 169.908,-388.613 160.864,-394.133 166.281,-398.568"/>
</g>
<!-- &#45;14 -->
<g id="node14" class="node"><title>&#45;14</title>
<polygon fill="lightgray" stroke="black" points="599.5,-466.893 570.5,-466.893 570.5,-448.893 599.5,-448.893 599.5,-466.893"/>
<text text-anchor="middle" x="585" y="-455.693" font-family="Times,serif" font-size="9.00">&#45;14</text>
</g>
<!-- 53310 -->
<g id="node36" class="node"><title>53310</title>
<ellipse fill="white" stroke="black" cx="586" cy="-366.739" rx="27.6545" ry="27.6545"/>
<text text-anchor="middle" x="586" y="-364.539" font-family="Times,serif" font-size="9.00">53310</text>
</g>
<!-- &#45;14&#45;&gt;53310 -->
<g id="edge12" class="edge"><title>&#45;14&#45;&gt;53310</title>
<path fill="none" stroke="green" stroke-width="0.257004" d="M585.092,-448.665C585.204,-438.693 585.4,-421.212 585.582,-405.043"/>
<polygon fill="green" stroke="green" stroke-width="0.257004" points="589.085,-404.738 585.698,-394.7 582.086,-404.66 589.085,-404.738"/>
</g>
<!-- &#45;15 -->
<g id="node15" class="node"><title>&#45;15</title>
<polygon fill="lightgray" stroke="black" points="480.5,-375.739 451.5,-375.739 451.5,-357.739 480.5,-357.739 480.5,-375.739"/>
<text text-anchor="middle" x="466" y="-364.539" font-family="Times,serif" font-size="9.00">&#45;15</text>
</g>
<!-- &#45;15&#45;&gt;63558 -->
<g id="edge3" class="edge"><title>&#45;15&#45;&gt;63558</title>
<path fill="none" stroke="red" stroke-width="0.332158" stroke-dasharray="1,5" d="M463.97,-357.511C461.45,-347.301 456.989,-329.22 452.921,-312.735"/>
<polygon fill="red" stroke="red" stroke-width="0.332158" points="456.253,-311.631 450.459,-302.761 449.457,-313.309 456.253,-311.631"/>
</g>
<!-- &#45;16 -->
<g id="node16" class="node"><title>&#45;16</title>
<polygon fill="lightgray" stroke="black" points="672.5,-375.739 643.5,-375.739 643.5,-357.739 672.5,-357.739 672.5,-375.739"/>
<text text-anchor="middle" x="658" y="-364.539" font-family="Times,serif" font-size="9.00">&#45;16</text>
</g>
<!-- 61569 -->
<g id="node29" class="node"><title>61569</title>
<ellipse fill="white" stroke="black" cx="688" cy="-275.584" rx="27.6545" ry="27.6545"/>
<text text-anchor="middle" x="688" y="-273.384" font-family="Times,serif" font-size="9.00">61569</text>
</g>
<!-- &#45;16&#45;&gt;61569 -->
<g id="edge8" class="edge"><title>&#45;16&#45;&gt;61569</title>
<path fill="none" stroke="red" stroke-width="0.23749" d="M660.769,-357.511C664.285,-347.061 670.576,-328.364 676.227,-311.573"/>
<polygon fill="red" stroke="red" stroke-width="0.23749" points="679.581,-312.577 679.453,-301.983 672.947,-310.345 679.581,-312.577"/>
</g>
<!-- &#45;17 -->
<g id="node17" class="node"><title>&#45;17</title>
<polygon fill="lightgray" stroke="black" points="792.5,-466.893 763.5,-466.893 763.5,-448.893 792.5,-448.893 792.5,-466.893"/>
<text text-anchor="middle" x="778" y="-455.693" font-family="Times,serif" font-size="9.00">&#45;17</text>
</g>
<!-- &#45;18 -->
<g id="node18" class="node"><title>&#45;18</title>
<polygon fill="lightgray" stroke="black" points="527.5,-375.739 498.5,-375.739 498.5,-357.739 527.5,-357.739 527.5,-375.739"/>
<text text-anchor="middle" x="513" y="-364.539" font-family="Times,serif" font-size="9.00">&#45;18</text>
</g>
<!-- &#45;18&#45;&gt;63558 -->
<g id="edge18" class="edge"><title>&#45;18&#45;&gt;63558</title>
<path fill="none" stroke="green" stroke-width="0.129068" stroke-dasharray="1,5" d="M506.632,-357.511C497.606,-345.848 480.629,-323.912 466.625,-305.818"/>
<polygon fill="green" stroke="green" stroke-width="0.129068" points="469.328,-303.592 460.44,-297.826 463.792,-307.876 469.328,-303.592"/>
</g>
<!-- &#45;19 -->
<g id="node19" class="node"><title>&#45;19</title>
<polygon fill="lightgray" stroke="black" points="839.5,-466.893 810.5,-466.893 810.5,-448.893 839.5,-448.893 839.5,-466.893"/>
<text text-anchor="middle" x="825" y="-455.693" font-family="Times,serif" font-size="9.00">&#45;19</text>
</g>
<!-- &#45;20 -->
<g id="node20" class="node"><title>&#45;20</title>
<polygon fill="lightgray" stroke="black" points="886.5,-466.893 857.5,-466.893 857.5,-448.893 886.5,-448.893 886.5,-466.893"/>
<text text-anchor="middle" x="872" y="-455.693" font-family="Times,serif" font-size="9.00">&#45;20</text>
</g>
<!-- &#45;21 -->
<g id="node21" class="node"><title>&#45;21</title>
<polygon fill="lightgray" stroke="black" points="933.5,-466.893 904.5,-466.893 904.5,-448.893 933.5,-448.893 933.5,-466.893"/>
<text text-anchor="middle" x="919" y="-455.693" font-family="Times,serif" font-size="9.00">&#45;21</text>
</g>
<!-- &#45;22 -->
<g id="node22" class="node"><title>&#45;22</title>
<polygon fill="lightgray" stroke="black" points="980.5,-466.893 951.5,-466.893 951.5,-448.893 980.5,-448.893 980.5,-466.893"/>
<text text-anchor="middle" x="966" y="-455.693" font-family="Times,serif" font-size="9.00">&#45;22</text>
</g>
<!-- &#45;23 -->
<g id="node23" class="node"><title>&#45;23</title>
<polygon fill="lightgray" stroke="black" points="1027.5,-466.893 998.5,-466.893 998.5,-448.893 1027.5,-448.893 1027.5,-466.893"/>
<text text-anchor="middle" x="1013" y="-455.693" font-family="Times,serif" font-size="9.00">&#45;23</text>
</g>
<!-- &#45;24 -->
<g id="node24" class="node"><title>&#45;24</title>
<polygon fill="lightgray" stroke="black" points="1074.5,-466.893 1045.5,-466.893 1045.5,-448.893 1074.5,-448.893 1074.5,-466.893"/>
<text text-anchor="middle" x="1060" y="-455.693" font-family="Times,serif" font-size="9.00">&#45;24</text>
</g>
<!-- 0 -->
<g id="node25" class="node"><title>0</title>
<ellipse fill="lightblue" stroke="black" cx="1107" cy="-457.893" rx="14.7" ry="14.7"/>
<text text-anchor="middle" x="1107" y="-455.693" font-family="Times,serif" font-size="9.00">0</text>
</g>
<!-- 1 -->
<g id="node26" class="node"><title>1</title>
<ellipse fill="lightblue" stroke="black" cx="70" cy="-14.8492" rx="14.7" ry="14.7"/>
<text text-anchor="middle" x="70" y="-12.6492" font-family="Times,serif" font-size="9.00">1</text>
</g>
<!-- 2 -->
<g id="node27" class="node"><title>2</title>
<ellipse fill="lightblue" stroke="black" cx="47" cy="-275.584" rx="14.7" ry="14.7"/>
<text text-anchor="middle" x="47" y="-273.384" font-family="Times,serif" font-size="9.00">2</text>
</g>
<!-- 2&#45;&gt;65421 -->
<g id="edge19" class="edge"><title>2&#45;&gt;65421</title>
<path fill="none" stroke="green" stroke-width="0.753437" d="M50.4932,-261.044C53.2235,-250.46 57.1492,-235.243 60.7642,-221.231"/>
<polygon fill="green" stroke="green" stroke-width="0.753437" points="64.2109,-221.881 63.3199,-211.324 57.4328,-220.132 64.2109,-221.881"/>
</g>
<!-- 3 -->
<g id="node28" class="node"><title>3</title>
<ellipse fill="lightblue" stroke="black" cx="1155" cy="-457.893" rx="14.7" ry="14.7"/>
<text text-anchor="middle" x="1155" y="-455.693" font-family="Times,serif" font-size="9.00">3</text>
</g>
<!-- 65421&#45;&gt;1 -->
<g id="edge14" class="edge"><title>65421&#45;&gt;1</title>
<path fill="none" stroke="red" stroke-width="0.154172" stroke-dasharray="1,5" d="M65.3499,-157.03C63.6121,-145.902 61.8537,-132.786 61,-120.853 59.2507,-96.4023 58.8136,-90.1138 61,-65.6985 61.7635,-57.1719 63.2477,-47.9221 64.7941,-39.7319"/>
<polygon fill="red" stroke="red" stroke-width="0.154172" points="68.2661,-40.2195 66.8074,-29.7255 61.4036,-38.8387 68.2661,-40.2195"/>
</g>
<!-- 66359 -->
<g id="node35" class="node"><title>66359</title>
<ellipse fill="white" stroke="black" cx="98" cy="-93.2756" rx="27.6545" ry="27.6545"/>
<text text-anchor="middle" x="98" y="-91.0756" font-family="Times,serif" font-size="9.00">66359</text>
</g>
<!-- 65421&#45;&gt;66359 -->
<g id="edge2" class="edge"><title>65421&#45;&gt;66359</title>
<path fill="none" stroke="green" stroke-width="0.597474" d="M78.0988,-157.643C80.8798,-148.788 84.0411,-138.722 87.0124,-129.261"/>
<polygon fill="green" stroke="green" stroke-width="0.597474" points="90.3589,-130.286 90.0161,-119.697 83.6805,-128.189 90.3589,-130.286"/>
</g>
<!-- 60179 -->
<g id="node32" class="node"><title>60179</title>
<ellipse fill="white" stroke="black" cx="1215" cy="-457.893" rx="27.6545" ry="27.6545"/>
<text text-anchor="middle" x="1215" y="-455.693" font-family="Times,serif" font-size="9.00">60179</text>
</g>
<!-- 63152 -->
<g id="node33" class="node"><title>63152</title>
<ellipse fill="white" stroke="black" cx="645" cy="-457.893" rx="27.6545" ry="27.6545"/>
<text text-anchor="middle" x="645" y="-455.693" font-family="Times,serif" font-size="9.00">63152</text>
</g>
<!-- 63152&#45;&gt;53310 -->
<g id="edge5" class="edge"><title>63152&#45;&gt;53310</title>
<path fill="none" stroke="green" stroke-width="0.54482" d="M630.112,-434.396C622.985,-423.626 614.335,-410.555 606.59,-398.852"/>
<polygon fill="green" stroke="green" stroke-width="0.54482" points="609.321,-396.637 600.883,-390.229 603.483,-400.5 609.321,-396.637"/>
</g>
<!-- 65974 -->
<g id="node34" class="node"><title>65974</title>
<ellipse fill="white" stroke="black" cx="718" cy="-457.893" rx="27.6545" ry="27.6545"/>
<text text-anchor="middle" x="718" y="-455.693" font-family="Times,serif" font-size="9.00">65974</text>
</g>
<!-- 65261 -->
<g id="node44" class="node"><title>65261</title>
<ellipse fill="white" stroke="black" cx="718" cy="-366.739" rx="27.6545" ry="27.6545"/>
<text text-anchor="middle" x="718" y="-364.539" font-family="Times,serif" font-size="9.00">65261</text>
</g>
<!-- 65974&#45;&gt;65261 -->
<g id="edge4" class="edge"><title>65974&#45;&gt;65261</title>
<path fill="none" stroke="red" stroke-width="0.431582" d="M718,-430.144C718,-422.122 718,-413.177 718,-404.622"/>
<polygon fill="red" stroke="red" stroke-width="0.431582" points="721.5,-404.469 718,-394.469 714.5,-404.469 721.5,-404.469"/>
</g>
<!-- 66359&#45;&gt;1 -->
<g id="edge6" class="edge"><title>66359&#45;&gt;1</title>
<path fill="none" stroke="green" stroke-width="0.70744" d="M88.8318,-67.2508C85.448,-58.0149 81.6351,-47.6074 78.3296,-38.5851"/>
<polygon fill="green" stroke="green" stroke-width="0.70744" points="81.5897,-37.3092 74.8632,-29.1235 75.017,-39.7172 81.5897,-37.3092"/>
</g>
<!-- 59203 -->
<g id="node37" class="node"><title>59203</title>
<ellipse fill="white" stroke="black" cx="1288" cy="-457.893" rx="27.6545" ry="27.6545"/>
<text text-anchor="middle" x="1288" y="-455.693" font-family="Times,serif" font-size="9.00">59203</text>
</g>
<!-- 66244&#45;&gt;63558 -->
<g id="edge13" class="edge"><title>66244&#45;&gt;63558</title>
<path fill="none" stroke="green" stroke-width="1.18674" d="M384.859,-345.061C395.16,-333.133 408.261,-317.965 419.513,-304.937"/>
<polygon fill="green" stroke="green" stroke-width="1.18674" points="422.35,-307.006 426.238,-297.15 417.053,-302.43 422.35,-307.006"/>
</g>
<!-- 62928 -->
<g id="node40" class="node"><title>62928</title>
<ellipse fill="white" stroke="black" cx="1361" cy="-457.893" rx="27.6545" ry="27.6545"/>
<text text-anchor="middle" x="1361" y="-455.693" font-family="Times,serif" font-size="9.00">62928</text>
</g>
<!-- 58961 -->
<g id="node41" class="node"><title>58961</title>
<ellipse fill="white" stroke="black" cx="1434" cy="-457.893" rx="27.6545" ry="27.6545"/>
<text text-anchor="middle" x="1434" y="-455.693" font-family="Times,serif" font-size="9.00">58961</text>
</g>
<!-- 63964 -->
<g id="node42" class="node"><title>63964</title>
<ellipse fill="white" stroke="black" cx="1507" cy="-457.893" rx="27.6545" ry="27.6545"/>
<text text-anchor="middle" x="1507" y="-455.693" font-family="Times,serif" font-size="9.00">63964</text>
</g>
<!-- 64997 -->
<g id="node43" class="node"><title>64997</title>
<ellipse fill="white" stroke="black" cx="187" cy="-275.584" rx="27.6545" ry="27.6545"/>
<text text-anchor="middle" x="187" y="-273.384" font-family="Times,serif" font-size="9.00">64997</text>
</g>
<!-- 65261&#45;&gt;61569 -->
<g id="edge1" class="edge"><title>65261&#45;&gt;61569</title>
<path fill="none" stroke="red" stroke-width="0.386576" d="M709.483,-340.429C706.475,-331.488 703.036,-321.267 699.804,-311.663"/>
<polygon fill="red" stroke="red" stroke-width="0.386576" points="703.044,-310.319 696.538,-301.957 696.41,-312.551 703.044,-310.319"/>
</g>
<!-- 377&#45;&gt;2 -->
<g id="edge10" class="edge"><title>377&#45;&gt;2</title>
<path fill="none" stroke="green" stroke-width="1.04466" d="M47,-345.508C47,-332.293 47,-314.959 47,-300.981"/>
<polygon fill="green" stroke="green" stroke-width="1.04466" points="50.5001,-300.633 47,-290.633 43.5001,-300.633 50.5001,-300.633"/>
</g>
<!-- 65915&#45;&gt;64997 -->
<g id="edge21" class="edge"><title>65915&#45;&gt;64997</title>
<path fill="none" stroke="red" stroke-width="0.113526" d="M187,-338.989C187,-330.967 187,-322.023 187,-313.468"/>
<polygon fill="red" stroke="red" stroke-width="0.113526" points="190.5,-313.315 187,-303.315 183.5,-313.315 190.5,-313.315"/>
</g>
</g>
</svg>
