<?xml version="1.0" encoding="UTF-8" standalone="no"?>
<!DOCTYPE svg PUBLIC "-//W3C//DTD SVG 1.1//EN"
 "http://www.w3.org/Graphics/SVG/1.1/DTD/svg11.dtd">
<!-- Generated by graphviz version 2.38.0 (20140413.2041)
 -->
<!-- Title: %3 Pages: 1 -->
<svg width="1218pt" height="182pt"
 viewBox="0.00 0.00 1217.85 181.82" xmlns="http://www.w3.org/2000/svg" xmlns:xlink="http://www.w3.org/1999/xlink">
<g id="graph0" class="graph" transform="scale(1 1) rotate(0) translate(4 177.823)">
<title>%3</title>
<polygon fill="white" stroke="none" points="-4,4 -4,-177.823 1213.85,-177.823 1213.85,4 -4,4"/>
<!-- &#45;1 -->
<g id="node1" class="node"><title>&#45;1</title>
<polygon fill="lightgray" stroke="black" points="24,-167.974 0,-167.974 0,-149.974 24,-149.974 24,-167.974"/>
<text text-anchor="middle" x="12" y="-156.774" font-family="Times,serif" font-size="9.00">&#45;1</text>
</g>
<!-- &#45;2 -->
<g id="node2" class="node"><title>&#45;2</title>
<polygon fill="lightgray" stroke="black" points="66,-167.974 42,-167.974 42,-149.974 66,-149.974 66,-167.974"/>
<text text-anchor="middle" x="54" y="-156.774" font-family="Times,serif" font-size="9.00">&#45;2</text>
</g>
<!-- &#45;3 -->
<g id="node3" class="node"><title>&#45;3</title>
<polygon fill="lightgray" stroke="black" points="108,-167.974 84,-167.974 84,-149.974 108,-149.974 108,-167.974"/>
<text text-anchor="middle" x="96" y="-156.774" font-family="Times,serif" font-size="9.00">&#45;3</text>
</g>
<!-- &#45;4 -->
<g id="node4" class="node"><title>&#45;4</title>
<polygon fill="lightgray" stroke="black" points="150,-167.974 126,-167.974 126,-149.974 150,-149.974 150,-167.974"/>
<text text-anchor="middle" x="138" y="-156.774" font-family="Times,serif" font-size="9.00">&#45;4</text>
</g>
<!-- &#45;5 -->
<g id="node5" class="node"><title>&#45;5</title>
<polygon fill="lightgray" stroke="black" points="192,-167.974 168,-167.974 168,-149.974 192,-149.974 192,-167.974"/>
<text text-anchor="middle" x="180" y="-156.774" font-family="Times,serif" font-size="9.00">&#45;5</text>
</g>
<!-- &#45;6 -->
<g id="node6" class="node"><title>&#45;6</title>
<polygon fill="lightgray" stroke="black" points="234,-167.974 210,-167.974 210,-149.974 234,-149.974 234,-167.974"/>
<text text-anchor="middle" x="222" y="-156.774" font-family="Times,serif" font-size="9.00">&#45;6</text>
</g>
<!-- &#45;7 -->
<g id="node7" class="node"><title>&#45;7</title>
<polygon fill="lightgray" stroke="black" points="276,-167.974 252,-167.974 252,-149.974 276,-149.974 276,-167.974"/>
<text text-anchor="middle" x="264" y="-156.774" font-family="Times,serif" font-size="9.00">&#45;7</text>
</g>
<!-- &#45;8 -->
<g id="node8" class="node"><title>&#45;8</title>
<polygon fill="lightgray" stroke="black" points="318,-167.974 294,-167.974 294,-149.974 318,-149.974 318,-167.974"/>
<text text-anchor="middle" x="306" y="-156.774" font-family="Times,serif" font-size="9.00">&#45;8</text>
</g>
<!-- &#45;9 -->
<g id="node9" class="node"><title>&#45;9</title>
<polygon fill="lightgray" stroke="black" points="360,-167.974 336,-167.974 336,-149.974 360,-149.974 360,-167.974"/>
<text text-anchor="middle" x="348" y="-156.774" font-family="Times,serif" font-size="9.00">&#45;9</text>
</g>
<!-- &#45;10 -->
<g id="node10" class="node"><title>&#45;10</title>
<polygon fill="lightgray" stroke="black" points="407.5,-167.974 378.5,-167.974 378.5,-149.974 407.5,-149.974 407.5,-167.974"/>
<text text-anchor="middle" x="393" y="-156.774" font-family="Times,serif" font-size="9.00">&#45;10</text>
</g>
<!-- 2 -->
<g id="node27" class="node"><title>2</title>
<ellipse fill="lightblue" stroke="black" cx="416" cy="-14.8492" rx="14.7" ry="14.7"/>
<text text-anchor="middle" x="416" y="-12.6492" font-family="Times,serif" font-size="9.00">2</text>
</g>
<!-- &#45;10&#45;&gt;2 -->
<g id="edge2" class="edge"><title>&#45;10&#45;&gt;2</title>
<path fill="none" stroke="red" stroke-width="1.17204" d="M394.302,-149.926C397.683,-129.034 406.843,-72.4358 412.117,-39.8431"/>
<polygon fill="red" stroke="red" stroke-width="1.17204" points="415.6,-40.2272 413.743,-29.7965 408.69,-39.1089 415.6,-40.2272"/>
</g>
<!-- 334 -->
<g id="node29" class="node"><title>334</title>
<ellipse fill="white" stroke="black" cx="441" cy="-86.9117" rx="21.4286" ry="21.4286"/>
<text text-anchor="middle" x="441" y="-84.7117" font-family="Times,serif" font-size="9.00">334</text>
</g>
<!-- &#45;10&#45;&gt;334 -->
<g id="edge4" class="edge"><title>&#45;10&#45;&gt;334</title>
<path fill="none" stroke="green" stroke-width="0.203891" d="M398.506,-149.937C404.589,-141.059 414.692,-126.312 423.521,-113.424"/>
<polygon fill="green" stroke="green" stroke-width="0.203891" points="426.601,-115.122 429.365,-104.894 420.826,-111.166 426.601,-115.122"/>
</g>
<!-- &#45;11 -->
<g id="node11" class="node"><title>&#45;11</title>
<polygon fill="lightgray" stroke="black" points="502.5,-167.974 473.5,-167.974 473.5,-149.974 502.5,-149.974 502.5,-167.974"/>
<text text-anchor="middle" x="488" y="-156.774" font-family="Times,serif" font-size="9.00">&#45;11</text>
</g>
<!-- &#45;12 -->
<g id="node12" class="node"><title>&#45;12</title>
<polygon fill="lightgray" stroke="black" points="549.5,-167.974 520.5,-167.974 520.5,-149.974 549.5,-149.974 549.5,-167.974"/>
<text text-anchor="middle" x="535" y="-156.774" font-family="Times,serif" font-size="9.00">&#45;12</text>
</g>
<!-- &#45;13 -->
<g id="node13" class="node"><title>&#45;13</title>
<polygon fill="lightgray" stroke="black" points="596.5,-167.974 567.5,-167.974 567.5,-149.974 596.5,-149.974 596.5,-167.974"/>
<text text-anchor="middle" x="582" y="-156.774" font-family="Times,serif" font-size="9.00">&#45;13</text>
</g>
<!-- &#45;14 -->
<g id="node14" class="node"><title>&#45;14</title>
<polygon fill="lightgray" stroke="black" points="643.5,-167.974 614.5,-167.974 614.5,-149.974 643.5,-149.974 643.5,-167.974"/>
<text text-anchor="middle" x="629" y="-156.774" font-family="Times,serif" font-size="9.00">&#45;14</text>
</g>
<!-- &#45;15 -->
<g id="node15" class="node"><title>&#45;15</title>
<polygon fill="lightgray" stroke="black" points="690.5,-167.974 661.5,-167.974 661.5,-149.974 690.5,-149.974 690.5,-167.974"/>
<text text-anchor="middle" x="676" y="-156.774" font-family="Times,serif" font-size="9.00">&#45;15</text>
</g>
<!-- &#45;16 -->
<g id="node16" class="node"><title>&#45;16</title>
<polygon fill="lightgray" stroke="black" points="737.5,-167.974 708.5,-167.974 708.5,-149.974 737.5,-149.974 737.5,-167.974"/>
<text text-anchor="middle" x="723" y="-156.774" font-family="Times,serif" font-size="9.00">&#45;16</text>
</g>
<!-- &#45;17 -->
<g id="node17" class="node"><title>&#45;17</title>
<polygon fill="lightgray" stroke="black" points="784.5,-167.974 755.5,-167.974 755.5,-149.974 784.5,-149.974 784.5,-167.974"/>
<text text-anchor="middle" x="770" y="-156.774" font-family="Times,serif" font-size="9.00">&#45;17</text>
</g>
<!-- &#45;18 -->
<g id="node18" class="node"><title>&#45;18</title>
<polygon fill="lightgray" stroke="black" points="455.5,-167.974 426.5,-167.974 426.5,-149.974 455.5,-149.974 455.5,-167.974"/>
<text text-anchor="middle" x="441" y="-156.774" font-family="Times,serif" font-size="9.00">&#45;18</text>
</g>
<!-- &#45;18&#45;&gt;334 -->
<g id="edge1" class="edge"><title>&#45;18&#45;&gt;334</title>
<path fill="none" stroke="green" stroke-width="0.18186" d="M441,-149.937C441,-142.232 441,-130.105 441,-118.61"/>
<polygon fill="green" stroke="green" stroke-width="0.18186" points="444.5,-118.377 441,-108.377 437.5,-118.377 444.5,-118.377"/>
</g>
<!-- &#45;19 -->
<g id="node19" class="node"><title>&#45;19</title>
<polygon fill="lightgray" stroke="black" points="831.5,-167.974 802.5,-167.974 802.5,-149.974 831.5,-149.974 831.5,-167.974"/>
<text text-anchor="middle" x="817" y="-156.774" font-family="Times,serif" font-size="9.00">&#45;19</text>
</g>
<!-- &#45;20 -->
<g id="node20" class="node"><title>&#45;20</title>
<polygon fill="lightgray" stroke="black" points="878.5,-167.974 849.5,-167.974 849.5,-149.974 878.5,-149.974 878.5,-167.974"/>
<text text-anchor="middle" x="864" y="-156.774" font-family="Times,serif" font-size="9.00">&#45;20</text>
</g>
<!-- &#45;21 -->
<g id="node21" class="node"><title>&#45;21</title>
<polygon fill="lightgray" stroke="black" points="925.5,-167.974 896.5,-167.974 896.5,-149.974 925.5,-149.974 925.5,-167.974"/>
<text text-anchor="middle" x="911" y="-156.774" font-family="Times,serif" font-size="9.00">&#45;21</text>
</g>
<!-- &#45;22 -->
<g id="node22" class="node"><title>&#45;22</title>
<polygon fill="lightgray" stroke="black" points="972.5,-167.974 943.5,-167.974 943.5,-149.974 972.5,-149.974 972.5,-167.974"/>
<text text-anchor="middle" x="958" y="-156.774" font-family="Times,serif" font-size="9.00">&#45;22</text>
</g>
<!-- &#45;23 -->
<g id="node23" class="node"><title>&#45;23</title>
<polygon fill="lightgray" stroke="black" points="1019.5,-167.974 990.5,-167.974 990.5,-149.974 1019.5,-149.974 1019.5,-167.974"/>
<text text-anchor="middle" x="1005" y="-156.774" font-family="Times,serif" font-size="9.00">&#45;23</text>
</g>
<!-- &#45;24 -->
<g id="node24" class="node"><title>&#45;24</title>
<polygon fill="lightgray" stroke="black" points="1066.5,-167.974 1037.5,-167.974 1037.5,-149.974 1066.5,-149.974 1066.5,-167.974"/>
<text text-anchor="middle" x="1052" y="-156.774" font-family="Times,serif" font-size="9.00">&#45;24</text>
</g>
<!-- 0 -->
<g id="node25" class="node"><title>0</title>
<ellipse fill="lightblue" stroke="black" cx="1099" cy="-158.974" rx="14.7" ry="14.7"/>
<text text-anchor="middle" x="1099" y="-156.774" font-family="Times,serif" font-size="9.00">0</text>
</g>
<!-- 1 -->
<g id="node26" class="node"><title>1</title>
<ellipse fill="lightblue" stroke="black" cx="1147" cy="-158.974" rx="14.7" ry="14.7"/>
<text text-anchor="middle" x="1147" y="-156.774" font-family="Times,serif" font-size="9.00">1</text>
</g>
<!-- 3 -->
<g id="node28" class="node"><title>3</title>
<ellipse fill="lightblue" stroke="black" cx="1195" cy="-158.974" rx="14.7" ry="14.7"/>
<text text-anchor="middle" x="1195" y="-156.774" font-family="Times,serif" font-size="9.00">3</text>
</g>
<!-- 334&#45;&gt;2 -->
<g id="edge3" class="edge"><title>334&#45;&gt;2</title>
<path fill="none" stroke="red" stroke-width="1.28506" d="M434.169,-66.7668C431.059,-58.0533 427.357,-47.6762 424.107,-38.5704"/>
<polygon fill="red" stroke="red" stroke-width="1.28506" points="427.345,-37.2284 420.688,-28.9863 420.752,-39.581 427.345,-37.2284"/>
</g>
</g>
</svg>
