<?xml version="1.0" encoding="UTF-8" standalone="no"?>
<!DOCTYPE svg PUBLIC "-//W3C//DTD SVG 1.1//EN"
 "http://www.w3.org/Graphics/SVG/1.1/DTD/svg11.dtd">
<!-- Generated by graphviz version 2.38.0 (20140413.2041)
 -->
<!-- Title: %3 Pages: 1 -->
<svg width="1165pt" height="390pt"
 viewBox="0.00 0.00 1164.79 389.59" xmlns="http://www.w3.org/2000/svg" xmlns:xlink="http://www.w3.org/1999/xlink">
<g id="graph0" class="graph" transform="scale(1 1) rotate(0) translate(4 385.588)">
<title>%3</title>
<polygon fill="white" stroke="none" points="-4,4 -4,-385.588 1160.79,-385.588 1160.79,4 -4,4"/>
<!-- &#45;1 -->
<g id="node1" class="node"><title>&#45;1</title>
<polygon fill="lightgray" stroke="black" points="42.5772,-369.375 18.5772,-369.375 18.5772,-351.375 42.5772,-351.375 42.5772,-369.375"/>
<text text-anchor="middle" x="30.5772" y="-358.175" font-family="Times,serif" font-size="9.00">&#45;1</text>
</g>
<!-- 50080 -->
<g id="node30" class="node"><title>50080</title>
<ellipse fill="white" stroke="black" cx="27.5772" cy="-184.43" rx="27.6545" ry="27.6545"/>
<text text-anchor="middle" x="27.5772" y="-182.23" font-family="Times,serif" font-size="9.00">50080</text>
</g>
<!-- &#45;1&#45;&gt;50080 -->
<g id="edge3" class="edge"><title>&#45;1&#45;&gt;50080</title>
<path fill="none" stroke="green" stroke-width="0.173817" stroke-dasharray="1,5" d="M28.2333,-351.082C25.2884,-340.193 20.3997,-320.429 18.5772,-303.161 15.7037,-275.937 18.2774,-245.077 21.3971,-221.784"/>
<polygon fill="green" stroke="green" stroke-width="0.173817" points="24.8947,-222.051 22.8513,-211.655 17.9657,-221.056 24.8947,-222.051"/>
</g>
<!-- 50642 -->
<g id="node33" class="node"><title>50642</title>
<ellipse fill="white" stroke="black" cx="55.5772" cy="-275.584" rx="27.6545" ry="27.6545"/>
<text text-anchor="middle" x="55.5772" y="-273.384" font-family="Times,serif" font-size="9.00">50642</text>
</g>
<!-- &#45;1&#45;&gt;50642 -->
<g id="edge15" class="edge"><title>&#45;1&#45;&gt;50642</title>
<path fill="none" stroke="green" stroke-width="0.44173" d="M33.0657,-351.134C35.8353,-341.962 40.4972,-326.523 44.8626,-312.067"/>
<polygon fill="green" stroke="green" stroke-width="0.44173" points="48.2702,-312.89 47.8105,-302.305 41.5691,-310.866 48.2702,-312.89"/>
</g>
<!-- &#45;2 -->
<g id="node2" class="node"><title>&#45;2</title>
<polygon fill="lightgray" stroke="black" points="137.577,-369.375 113.577,-369.375 113.577,-351.375 137.577,-351.375 137.577,-369.375"/>
<text text-anchor="middle" x="125.577" y="-358.175" font-family="Times,serif" font-size="9.00">&#45;2</text>
</g>
<!-- &#45;3 -->
<g id="node3" class="node"><title>&#45;3</title>
<polygon fill="lightgray" stroke="black" points="170.577,-102.276 146.577,-102.276 146.577,-84.2756 170.577,-84.2756 170.577,-102.276"/>
<text text-anchor="middle" x="158.577" y="-91.0756" font-family="Times,serif" font-size="9.00">&#45;3</text>
</g>
<!-- 3 -->
<g id="node28" class="node"><title>3</title>
<ellipse fill="lightblue" stroke="black" cx="129.577" cy="-14.8492" rx="14.7" ry="14.7"/>
<text text-anchor="middle" x="129.577" y="-12.6492" font-family="Times,serif" font-size="9.00">3</text>
</g>
<!-- &#45;3&#45;&gt;3 -->
<g id="edge13" class="edge"><title>&#45;3&#45;&gt;3</title>
<path fill="none" stroke="green" stroke-width="0.314551" stroke-dasharray="1,5" d="M155.474,-84.0967C151.374,-73.2935 143.992,-53.8386 138.156,-38.4569"/>
<polygon fill="green" stroke="green" stroke-width="0.314551" points="141.413,-37.1768 134.593,-29.069 134.869,-39.6603 141.413,-37.1768"/>
</g>
<!-- &#45;4 -->
<g id="node4" class="node"><title>&#45;4</title>
<polygon fill="lightgray" stroke="black" points="179.577,-369.375 155.577,-369.375 155.577,-351.375 179.577,-351.375 179.577,-369.375"/>
<text text-anchor="middle" x="167.577" y="-358.175" font-family="Times,serif" font-size="9.00">&#45;4</text>
</g>
<!-- &#45;5 -->
<g id="node5" class="node"><title>&#45;5</title>
<polygon fill="lightgray" stroke="black" points="221.577,-369.375 197.577,-369.375 197.577,-351.375 221.577,-351.375 221.577,-369.375"/>
<text text-anchor="middle" x="209.577" y="-358.175" font-family="Times,serif" font-size="9.00">&#45;5</text>
</g>
<!-- &#45;6 -->
<g id="node6" class="node"><title>&#45;6</title>
<polygon fill="lightgray" stroke="black" points="263.577,-369.375 239.577,-369.375 239.577,-351.375 263.577,-351.375 263.577,-369.375"/>
<text text-anchor="middle" x="251.577" y="-358.175" font-family="Times,serif" font-size="9.00">&#45;6</text>
</g>
<!-- &#45;7 -->
<g id="node7" class="node"><title>&#45;7</title>
<polygon fill="lightgray" stroke="black" points="305.577,-369.375 281.577,-369.375 281.577,-351.375 305.577,-351.375 305.577,-369.375"/>
<text text-anchor="middle" x="293.577" y="-358.175" font-family="Times,serif" font-size="9.00">&#45;7</text>
</g>
<!-- &#45;8 -->
<g id="node8" class="node"><title>&#45;8</title>
<polygon fill="lightgray" stroke="black" points="347.577,-369.375 323.577,-369.375 323.577,-351.375 347.577,-351.375 347.577,-369.375"/>
<text text-anchor="middle" x="335.577" y="-358.175" font-family="Times,serif" font-size="9.00">&#45;8</text>
</g>
<!-- &#45;9 -->
<g id="node9" class="node"><title>&#45;9</title>
<polygon fill="lightgray" stroke="black" points="389.577,-369.375 365.577,-369.375 365.577,-351.375 389.577,-351.375 389.577,-369.375"/>
<text text-anchor="middle" x="377.577" y="-358.175" font-family="Times,serif" font-size="9.00">&#45;9</text>
</g>
<!-- &#45;10 -->
<g id="node10" class="node"><title>&#45;10</title>
<polygon fill="lightgray" stroke="black" points="447.077,-284.584 418.077,-284.584 418.077,-266.584 447.077,-266.584 447.077,-284.584"/>
<text text-anchor="middle" x="432.577" y="-273.384" font-family="Times,serif" font-size="9.00">&#45;10</text>
</g>
<!-- 2 -->
<g id="node27" class="node"><title>2</title>
<ellipse fill="lightblue" stroke="black" cx="462.577" cy="-184.43" rx="14.7" ry="14.7"/>
<text text-anchor="middle" x="462.577" y="-182.23" font-family="Times,serif" font-size="9.00">2</text>
</g>
<!-- &#45;10&#45;&gt;2 -->
<g id="edge2" class="edge"><title>&#45;10&#45;&gt;2</title>
<path fill="none" stroke="red" stroke-width="0.80427" d="M435.346,-266.357C439.727,-253.336 448.417,-227.511 454.807,-208.523"/>
<polygon fill="red" stroke="red" stroke-width="0.80427" points="458.206,-209.395 458.078,-198.801 451.571,-207.163 458.206,-209.395"/>
</g>
<!-- &#45;11 -->
<g id="node11" class="node"><title>&#45;11</title>
<polygon fill="lightgray" stroke="black" points="625.077,-369.375 596.077,-369.375 596.077,-351.375 625.077,-351.375 625.077,-369.375"/>
<text text-anchor="middle" x="610.577" y="-358.175" font-family="Times,serif" font-size="9.00">&#45;11</text>
</g>
<!-- &#45;12 -->
<g id="node12" class="node"><title>&#45;12</title>
<polygon fill="lightgray" stroke="black" points="437.077,-369.375 408.077,-369.375 408.077,-351.375 437.077,-351.375 437.077,-369.375"/>
<text text-anchor="middle" x="422.577" y="-358.175" font-family="Times,serif" font-size="9.00">&#45;12</text>
</g>
<!-- 49598 -->
<g id="node36" class="node"><title>49598</title>
<ellipse fill="white" stroke="black" cx="492.577" cy="-275.584" rx="27.6545" ry="27.6545"/>
<text text-anchor="middle" x="492.577" y="-273.384" font-family="Times,serif" font-size="9.00">49598</text>
</g>
<!-- &#45;12&#45;&gt;49598 -->
<g id="edge10" class="edge"><title>&#45;12&#45;&gt;49598</title>
<path fill="none" stroke="red" stroke-width="0.151052" d="M429.545,-351.134C438.579,-340.449 454.805,-321.258 468.531,-305.024"/>
<polygon fill="red" stroke="red" stroke-width="0.151052" points="471.242,-307.238 475.026,-297.342 465.897,-302.719 471.242,-307.238"/>
</g>
<!-- &#45;13 -->
<g id="node13" class="node"><title>&#45;13</title>
<polygon fill="lightgray" stroke="black" points="672.077,-369.375 643.077,-369.375 643.077,-351.375 672.077,-351.375 672.077,-369.375"/>
<text text-anchor="middle" x="657.577" y="-358.175" font-family="Times,serif" font-size="9.00">&#45;13</text>
</g>
<!-- &#45;14 -->
<g id="node14" class="node"><title>&#45;14</title>
<polygon fill="lightgray" stroke="black" points="484.077,-369.375 455.077,-369.375 455.077,-351.375 484.077,-351.375 484.077,-369.375"/>
<text text-anchor="middle" x="469.577" y="-358.175" font-family="Times,serif" font-size="9.00">&#45;14</text>
</g>
<!-- &#45;14&#45;&gt;49598 -->
<g id="edge14" class="edge"><title>&#45;14&#45;&gt;49598</title>
<path fill="none" stroke="red" stroke-width="0.623903" d="M471.867,-351.134C474.415,-341.962 478.704,-326.523 482.72,-312.067"/>
<polygon fill="red" stroke="red" stroke-width="0.623903" points="486.127,-312.877 485.432,-302.305 479.383,-311.003 486.127,-312.877"/>
</g>
<!-- &#45;15 -->
<g id="node15" class="node"><title>&#45;15</title>
<polygon fill="lightgray" stroke="black" points="531.077,-369.375 502.077,-369.375 502.077,-351.375 531.077,-351.375 531.077,-369.375"/>
<text text-anchor="middle" x="516.577" y="-358.175" font-family="Times,serif" font-size="9.00">&#45;15</text>
</g>
<!-- &#45;15&#45;&gt;49598 -->
<g id="edge9" class="edge"><title>&#45;15&#45;&gt;49598</title>
<path fill="none" stroke="red" stroke-width="0.178666" d="M514.188,-351.134C511.529,-341.962 507.054,-326.523 502.863,-312.067"/>
<polygon fill="red" stroke="red" stroke-width="0.178666" points="506.179,-310.935 500.033,-302.305 499.456,-312.884 506.179,-310.935"/>
</g>
<!-- &#45;16 -->
<g id="node16" class="node"><title>&#45;16</title>
<polygon fill="lightgray" stroke="black" points="719.077,-369.375 690.077,-369.375 690.077,-351.375 719.077,-351.375 719.077,-369.375"/>
<text text-anchor="middle" x="704.577" y="-358.175" font-family="Times,serif" font-size="9.00">&#45;16</text>
</g>
<!-- &#45;17 -->
<g id="node17" class="node"><title>&#45;17</title>
<polygon fill="lightgray" stroke="black" points="766.077,-369.375 737.077,-369.375 737.077,-351.375 766.077,-351.375 766.077,-369.375"/>
<text text-anchor="middle" x="751.577" y="-358.175" font-family="Times,serif" font-size="9.00">&#45;17</text>
</g>
<!-- &#45;18 -->
<g id="node18" class="node"><title>&#45;18</title>
<polygon fill="lightgray" stroke="black" points="813.077,-369.375 784.077,-369.375 784.077,-351.375 813.077,-351.375 813.077,-369.375"/>
<text text-anchor="middle" x="798.577" y="-358.175" font-family="Times,serif" font-size="9.00">&#45;18</text>
</g>
<!-- &#45;19 -->
<g id="node19" class="node"><title>&#45;19</title>
<polygon fill="lightgray" stroke="black" points="860.077,-369.375 831.077,-369.375 831.077,-351.375 860.077,-351.375 860.077,-369.375"/>
<text text-anchor="middle" x="845.577" y="-358.175" font-family="Times,serif" font-size="9.00">&#45;19</text>
</g>
<!-- &#45;20 -->
<g id="node20" class="node"><title>&#45;20</title>
<polygon fill="lightgray" stroke="black" points="907.077,-369.375 878.077,-369.375 878.077,-351.375 907.077,-351.375 907.077,-369.375"/>
<text text-anchor="middle" x="892.577" y="-358.175" font-family="Times,serif" font-size="9.00">&#45;20</text>
</g>
<!-- &#45;21 -->
<g id="node21" class="node"><title>&#45;21</title>
<polygon fill="lightgray" stroke="black" points="954.077,-369.375 925.077,-369.375 925.077,-351.375 954.077,-351.375 954.077,-369.375"/>
<text text-anchor="middle" x="939.577" y="-358.175" font-family="Times,serif" font-size="9.00">&#45;21</text>
</g>
<!-- &#45;22 -->
<g id="node22" class="node"><title>&#45;22</title>
<polygon fill="lightgray" stroke="black" points="578.077,-369.375 549.077,-369.375 549.077,-351.375 578.077,-351.375 578.077,-369.375"/>
<text text-anchor="middle" x="563.577" y="-358.175" font-family="Times,serif" font-size="9.00">&#45;22</text>
</g>
<!-- &#45;22&#45;&gt;49598 -->
<g id="edge11" class="edge"><title>&#45;22&#45;&gt;49598</title>
<path fill="none" stroke="red" stroke-width="0.180487" d="M556.51,-351.134C547.286,-340.378 530.672,-321.005 516.692,-304.704"/>
<polygon fill="red" stroke="red" stroke-width="0.180487" points="519.252,-302.312 510.085,-297 513.938,-306.869 519.252,-302.312"/>
</g>
<!-- &#45;23 -->
<g id="node23" class="node"><title>&#45;23</title>
<polygon fill="lightgray" stroke="black" points="1001.08,-369.375 972.077,-369.375 972.077,-351.375 1001.08,-351.375 1001.08,-369.375"/>
<text text-anchor="middle" x="986.577" y="-358.175" font-family="Times,serif" font-size="9.00">&#45;23</text>
</g>
<!-- &#45;24 -->
<g id="node24" class="node"><title>&#45;24</title>
<polygon fill="lightgray" stroke="black" points="95.0772,-369.375 66.0772,-369.375 66.0772,-351.375 95.0772,-351.375 95.0772,-369.375"/>
<text text-anchor="middle" x="80.5772" y="-358.175" font-family="Times,serif" font-size="9.00">&#45;24</text>
</g>
<!-- 49956 -->
<g id="node29" class="node"><title>49956</title>
<ellipse fill="white" stroke="black" cx="128.577" cy="-275.584" rx="27.6545" ry="27.6545"/>
<text text-anchor="middle" x="128.577" y="-273.384" font-family="Times,serif" font-size="9.00">49956</text>
</g>
<!-- &#45;24&#45;&gt;49956 -->
<g id="edge16" class="edge"><title>&#45;24&#45;&gt;49956</title>
<path fill="none" stroke="green" stroke-width="0.776777" stroke-dasharray="1,5" d="M85.3551,-351.134C91.1036,-341.219 101.098,-323.98 110.029,-308.576"/>
<polygon fill="green" stroke="green" stroke-width="0.776777" points="113.137,-310.194 115.125,-299.787 107.081,-306.683 113.137,-310.194"/>
</g>
<!-- &#45;24&#45;&gt;50642 -->
<g id="edge12" class="edge"><title>&#45;24&#45;&gt;50642</title>
<path fill="none" stroke="red" stroke-width="0.285392" d="M78.0887,-351.134C75.3191,-341.962 70.6571,-326.523 66.2918,-312.067"/>
<polygon fill="red" stroke="red" stroke-width="0.285392" points="69.5853,-310.866 63.3439,-302.305 62.8841,-312.89 69.5853,-310.866"/>
</g>
<!-- 0 -->
<g id="node25" class="node"><title>0</title>
<ellipse fill="lightblue" stroke="black" cx="1033.58" cy="-360.375" rx="14.7" ry="14.7"/>
<text text-anchor="middle" x="1033.58" y="-358.175" font-family="Times,serif" font-size="9.00">0</text>
</g>
<!-- 1 -->
<g id="node26" class="node"><title>1</title>
<ellipse fill="lightblue" stroke="black" cx="1081.58" cy="-360.375" rx="14.7" ry="14.7"/>
<text text-anchor="middle" x="1081.58" y="-358.175" font-family="Times,serif" font-size="9.00">1</text>
</g>
<!-- 50170 -->
<g id="node35" class="node"><title>50170</title>
<ellipse fill="white" stroke="black" cx="100.577" cy="-93.2756" rx="27.6545" ry="27.6545"/>
<text text-anchor="middle" x="100.577" y="-91.0756" font-family="Times,serif" font-size="9.00">50170</text>
</g>
<!-- 50080&#45;&gt;50170 -->
<g id="edge4" class="edge"><title>50080&#45;&gt;50170</title>
<path fill="none" stroke="red" stroke-width="0.254279" d="M44.8771,-162.302C54.4229,-150.643 66.4181,-135.994 76.8297,-123.278"/>
<polygon fill="red" stroke="red" stroke-width="0.254279" points="79.7741,-125.207 83.4014,-115.252 74.358,-120.772 79.7741,-125.207"/>
</g>
<!-- 47490 -->
<g id="node31" class="node"><title>47490</title>
<ellipse fill="white" stroke="black" cx="100.577" cy="-184.43" rx="27.6545" ry="27.6545"/>
<text text-anchor="middle" x="100.577" y="-182.23" font-family="Times,serif" font-size="9.00">47490</text>
</g>
<!-- 47490&#45;&gt;50170 -->
<g id="edge5" class="edge"><title>47490&#45;&gt;50170</title>
<path fill="none" stroke="red" stroke-width="0.292242" d="M100.577,-156.681C100.577,-148.659 100.577,-139.714 100.577,-131.159"/>
<polygon fill="red" stroke="red" stroke-width="0.292242" points="104.077,-131.006 100.577,-121.006 97.0773,-131.006 104.077,-131.006"/>
</g>
<!-- 44652 -->
<g id="node32" class="node"><title>44652</title>
<ellipse fill="white" stroke="black" cx="173.577" cy="-184.43" rx="27.6545" ry="27.6545"/>
<text text-anchor="middle" x="173.577" y="-182.23" font-family="Times,serif" font-size="9.00">44652</text>
</g>
<!-- 44652&#45;&gt;50170 -->
<g id="edge6" class="edge"><title>44652&#45;&gt;50170</title>
<path fill="none" stroke="red" stroke-width="0.369633" d="M156.277,-162.302C146.731,-150.643 134.736,-135.994 124.325,-123.278"/>
<polygon fill="red" stroke="red" stroke-width="0.369633" points="126.796,-120.772 117.753,-115.252 121.38,-125.207 126.796,-120.772"/>
</g>
<!-- 50642&#45;&gt;50080 -->
<g id="edge1" class="edge"><title>50642&#45;&gt;50080</title>
<path fill="none" stroke="red" stroke-width="0.335547" d="M47.4784,-248.797C44.6974,-239.942 41.536,-229.876 38.5647,-220.415"/>
<polygon fill="red" stroke="red" stroke-width="0.335547" points="41.8966,-219.343 35.561,-210.851 35.2182,-221.441 41.8966,-219.343"/>
</g>
<!-- 377 -->
<g id="node34" class="node"><title>377</title>
<ellipse fill="white" stroke="black" cx="1135.58" cy="-360.375" rx="21.4286" ry="21.4286"/>
<text text-anchor="middle" x="1135.58" y="-358.175" font-family="Times,serif" font-size="9.00">377</text>
</g>
<!-- 50170&#45;&gt;3 -->
<g id="edge8" class="edge"><title>50170&#45;&gt;3</title>
<path fill="none" stroke="green" stroke-width="0.190207" stroke-dasharray="1,5" d="M110.073,-67.2508C113.577,-58.0149 117.527,-47.6074 120.95,-38.5851"/>
<polygon fill="green" stroke="green" stroke-width="0.190207" points="124.265,-39.7148 124.54,-29.1235 117.72,-37.2313 124.265,-39.7148"/>
</g>
<!-- 49598&#45;&gt;2 -->
<g id="edge7" class="edge"><title>49598&#45;&gt;2</title>
<path fill="none" stroke="green" stroke-width="0.358802" d="M484.061,-249.275C479.73,-236.405 474.506,-220.881 470.294,-208.364"/>
<polygon fill="green" stroke="green" stroke-width="0.358802" points="473.543,-207.043 467.036,-198.681 466.908,-209.275 473.543,-207.043"/>
</g>
</g>
</svg>
