<?xml version="1.0" encoding="UTF-8" standalone="no"?>
<!DOCTYPE svg PUBLIC "-//W3C//DTD SVG 1.1//EN"
 "http://www.w3.org/Graphics/SVG/1.1/DTD/svg11.dtd">
<!-- Generated by graphviz version 2.38.0 (20140413.2041)
 -->
<!-- Title: %3 Pages: 1 -->
<svg width="1452pt" height="209pt"
 viewBox="0.00 0.00 1451.75 208.69" xmlns="http://www.w3.org/2000/svg" xmlns:xlink="http://www.w3.org/1999/xlink">
<g id="graph0" class="graph" transform="scale(1 1) rotate(0) translate(4 204.693)">
<title>%3</title>
<polygon fill="white" stroke="none" points="-4,4 -4,-204.693 1447.75,-204.693 1447.75,4 -4,4"/>
<!-- &#45;1 -->
<g id="node1" class="node"><title>&#45;1</title>
<polygon fill="lightgray" stroke="black" points="24,-184.945 0,-184.945 0,-166.945 24,-166.945 24,-184.945"/>
<text text-anchor="middle" x="12" y="-173.745" font-family="Times,serif" font-size="9.00">&#45;1</text>
</g>
<!-- &#45;2 -->
<g id="node2" class="node"><title>&#45;2</title>
<polygon fill="lightgray" stroke="black" points="66,-184.945 42,-184.945 42,-166.945 66,-166.945 66,-184.945"/>
<text text-anchor="middle" x="54" y="-173.745" font-family="Times,serif" font-size="9.00">&#45;2</text>
</g>
<!-- &#45;3 -->
<g id="node3" class="node"><title>&#45;3</title>
<polygon fill="lightgray" stroke="black" points="108,-184.945 84,-184.945 84,-166.945 108,-166.945 108,-184.945"/>
<text text-anchor="middle" x="96" y="-173.745" font-family="Times,serif" font-size="9.00">&#45;3</text>
</g>
<!-- &#45;4 -->
<g id="node4" class="node"><title>&#45;4</title>
<polygon fill="lightgray" stroke="black" points="150,-184.945 126,-184.945 126,-166.945 150,-166.945 150,-184.945"/>
<text text-anchor="middle" x="138" y="-173.745" font-family="Times,serif" font-size="9.00">&#45;4</text>
</g>
<!-- &#45;5 -->
<g id="node5" class="node"><title>&#45;5</title>
<polygon fill="lightgray" stroke="black" points="192,-184.945 168,-184.945 168,-166.945 192,-166.945 192,-184.945"/>
<text text-anchor="middle" x="180" y="-173.745" font-family="Times,serif" font-size="9.00">&#45;5</text>
</g>
<!-- &#45;6 -->
<g id="node6" class="node"><title>&#45;6</title>
<polygon fill="lightgray" stroke="black" points="349,-184.945 325,-184.945 325,-166.945 349,-166.945 349,-184.945"/>
<text text-anchor="middle" x="337" y="-173.745" font-family="Times,serif" font-size="9.00">&#45;6</text>
</g>
<!-- 0 -->
<g id="node25" class="node"><title>0</title>
<ellipse fill="lightblue" stroke="black" cx="292" cy="-90.4472" rx="14.7" ry="14.7"/>
<text text-anchor="middle" x="292" y="-88.2472" font-family="Times,serif" font-size="9.00">0</text>
</g>
<!-- &#45;6&#45;&gt;0 -->
<g id="edge6" class="edge"><title>&#45;6&#45;&gt;0</title>
<path fill="none" stroke="green" stroke-width="0.224921" d="M332.685,-166.939C326.04,-154.609 313.075,-130.552 303.56,-112.897"/>
<polygon fill="green" stroke="green" stroke-width="0.224921" points="306.516,-111.004 298.691,-103.862 300.354,-114.325 306.516,-111.004"/>
</g>
<!-- 377 -->
<g id="node33" class="node"><title>377</title>
<ellipse fill="white" stroke="black" cx="363" cy="-90.4472" rx="21.4286" ry="21.4286"/>
<text text-anchor="middle" x="363" y="-88.2472" font-family="Times,serif" font-size="9.00">377</text>
</g>
<!-- &#45;6&#45;&gt;377 -->
<g id="edge10" class="edge"><title>&#45;6&#45;&gt;377</title>
<path fill="none" stroke="red" stroke-width="1.81261" d="M339.493,-166.939C342.798,-156.325 348.809,-137.02 353.925,-120.59"/>
<polygon fill="red" stroke="red" stroke-width="1.81261" points="357.332,-121.423 356.963,-110.834 350.648,-119.342 357.332,-121.423"/>
</g>
<!-- &#45;7 -->
<g id="node7" class="node"><title>&#45;7</title>
<polygon fill="lightgray" stroke="black" points="504,-184.945 480,-184.945 480,-166.945 504,-166.945 504,-184.945"/>
<text text-anchor="middle" x="492" y="-173.745" font-family="Times,serif" font-size="9.00">&#45;7</text>
</g>
<!-- &#45;8 -->
<g id="node8" class="node"><title>&#45;8</title>
<polygon fill="lightgray" stroke="black" points="546,-184.945 522,-184.945 522,-166.945 546,-166.945 546,-184.945"/>
<text text-anchor="middle" x="534" y="-173.745" font-family="Times,serif" font-size="9.00">&#45;8</text>
</g>
<!-- &#45;9 -->
<g id="node9" class="node"><title>&#45;9</title>
<polygon fill="lightgray" stroke="black" points="588,-184.945 564,-184.945 564,-166.945 588,-166.945 588,-184.945"/>
<text text-anchor="middle" x="576" y="-173.745" font-family="Times,serif" font-size="9.00">&#45;9</text>
</g>
<!-- &#45;10 -->
<g id="node10" class="node"><title>&#45;10</title>
<polygon fill="lightgray" stroke="black" points="396.5,-184.945 367.5,-184.945 367.5,-166.945 396.5,-166.945 396.5,-184.945"/>
<text text-anchor="middle" x="382" y="-173.745" font-family="Times,serif" font-size="9.00">&#45;10</text>
</g>
<!-- &#45;10&#45;&gt;377 -->
<g id="edge1" class="edge"><title>&#45;10&#45;&gt;377</title>
<path fill="none" stroke="green" stroke-width="1.32233" d="M380.178,-166.939C377.816,-156.559 373.563,-137.867 369.88,-121.681"/>
<polygon fill="green" stroke="green" stroke-width="1.32233" points="373.199,-120.492 367.567,-111.518 366.373,-122.046 373.199,-120.492"/>
</g>
<!-- &#45;11 -->
<g id="node11" class="node"><title>&#45;11</title>
<polygon fill="lightgray" stroke="black" points="635.5,-184.945 606.5,-184.945 606.5,-166.945 635.5,-166.945 635.5,-184.945"/>
<text text-anchor="middle" x="621" y="-173.745" font-family="Times,serif" font-size="9.00">&#45;11</text>
</g>
<!-- &#45;12 -->
<g id="node12" class="node"><title>&#45;12</title>
<polygon fill="lightgray" stroke="black" points="682.5,-184.945 653.5,-184.945 653.5,-166.945 682.5,-166.945 682.5,-184.945"/>
<text text-anchor="middle" x="668" y="-173.745" font-family="Times,serif" font-size="9.00">&#45;12</text>
</g>
<!-- &#45;13 -->
<g id="node13" class="node"><title>&#45;13</title>
<polygon fill="lightgray" stroke="black" points="729.5,-184.945 700.5,-184.945 700.5,-166.945 729.5,-166.945 729.5,-184.945"/>
<text text-anchor="middle" x="715" y="-173.745" font-family="Times,serif" font-size="9.00">&#45;13</text>
</g>
<!-- &#45;14 -->
<g id="node14" class="node"><title>&#45;14</title>
<polygon fill="lightgray" stroke="black" points="461.5,-184.945 432.5,-184.945 432.5,-166.945 461.5,-166.945 461.5,-184.945"/>
<text text-anchor="middle" x="447" y="-173.745" font-family="Times,serif" font-size="9.00">&#45;14</text>
</g>
<!-- 2 -->
<g id="node27" class="node"><title>2</title>
<ellipse fill="lightblue" stroke="black" cx="412" cy="-14.8492" rx="14.7" ry="14.7"/>
<text text-anchor="middle" x="412" y="-12.6492" font-family="Times,serif" font-size="9.00">2</text>
</g>
<!-- &#45;14&#45;&gt;2 -->
<g id="edge4" class="edge"><title>&#45;14&#45;&gt;2</title>
<path fill="none" stroke="red" stroke-width="0.311111" d="M444.638,-166.873C441.338,-155.436 435.27,-133.827 431,-115.196 425.114,-89.5153 419.601,-59.8122 416.046,-39.6225"/>
<polygon fill="red" stroke="red" stroke-width="0.311111" points="419.488,-38.9902 414.328,-29.7372 412.592,-40.1889 419.488,-38.9902"/>
</g>
<!-- 1525 -->
<g id="node32" class="node"><title>1525</title>
<ellipse fill="white" stroke="black" cx="465" cy="-90.4472" rx="25" ry="25"/>
<text text-anchor="middle" x="465" y="-88.2472" font-family="Times,serif" font-size="9.00">1525</text>
</g>
<!-- &#45;14&#45;&gt;1525 -->
<g id="edge7" class="edge"><title>&#45;14&#45;&gt;1525</title>
<path fill="none" stroke="red" stroke-width="0.158437" d="M448.726,-166.939C450.819,-157.228 454.481,-140.244 457.801,-124.842"/>
<polygon fill="red" stroke="red" stroke-width="0.158437" points="461.228,-125.554 459.914,-115.041 454.385,-124.079 461.228,-125.554"/>
</g>
<!-- &#45;15 -->
<g id="node15" class="node"><title>&#45;15</title>
<polygon fill="lightgray" stroke="black" points="776.5,-184.945 747.5,-184.945 747.5,-166.945 776.5,-166.945 776.5,-184.945"/>
<text text-anchor="middle" x="762" y="-173.745" font-family="Times,serif" font-size="9.00">&#45;15</text>
</g>
<!-- &#45;16 -->
<g id="node16" class="node"><title>&#45;16</title>
<polygon fill="lightgray" stroke="black" points="823.5,-184.945 794.5,-184.945 794.5,-166.945 823.5,-166.945 823.5,-184.945"/>
<text text-anchor="middle" x="809" y="-173.745" font-family="Times,serif" font-size="9.00">&#45;16</text>
</g>
<!-- &#45;17 -->
<g id="node17" class="node"><title>&#45;17</title>
<polygon fill="lightgray" stroke="black" points="870.5,-184.945 841.5,-184.945 841.5,-166.945 870.5,-166.945 870.5,-184.945"/>
<text text-anchor="middle" x="856" y="-173.745" font-family="Times,serif" font-size="9.00">&#45;17</text>
</g>
<!-- &#45;18 -->
<g id="node18" class="node"><title>&#45;18</title>
<polygon fill="lightgray" stroke="black" points="917.5,-184.945 888.5,-184.945 888.5,-166.945 917.5,-166.945 917.5,-184.945"/>
<text text-anchor="middle" x="903" y="-173.745" font-family="Times,serif" font-size="9.00">&#45;18</text>
</g>
<!-- &#45;19 -->
<g id="node19" class="node"><title>&#45;19</title>
<polygon fill="lightgray" stroke="black" points="964.5,-184.945 935.5,-184.945 935.5,-166.945 964.5,-166.945 964.5,-184.945"/>
<text text-anchor="middle" x="950" y="-173.745" font-family="Times,serif" font-size="9.00">&#45;19</text>
</g>
<!-- &#45;20 -->
<g id="node20" class="node"><title>&#45;20</title>
<polygon fill="lightgray" stroke="black" points="1011.5,-184.945 982.5,-184.945 982.5,-166.945 1011.5,-166.945 1011.5,-184.945"/>
<text text-anchor="middle" x="997" y="-173.745" font-family="Times,serif" font-size="9.00">&#45;20</text>
</g>
<!-- &#45;21 -->
<g id="node21" class="node"><title>&#45;21</title>
<polygon fill="lightgray" stroke="black" points="1058.5,-184.945 1029.5,-184.945 1029.5,-166.945 1058.5,-166.945 1058.5,-184.945"/>
<text text-anchor="middle" x="1044" y="-173.745" font-family="Times,serif" font-size="9.00">&#45;21</text>
</g>
<!-- &#45;22 -->
<g id="node22" class="node"><title>&#45;22</title>
<polygon fill="lightgray" stroke="black" points="1105.5,-184.945 1076.5,-184.945 1076.5,-166.945 1105.5,-166.945 1105.5,-184.945"/>
<text text-anchor="middle" x="1091" y="-173.745" font-family="Times,serif" font-size="9.00">&#45;22</text>
</g>
<!-- &#45;23 -->
<g id="node23" class="node"><title>&#45;23</title>
<polygon fill="lightgray" stroke="black" points="306.5,-184.945 277.5,-184.945 277.5,-166.945 306.5,-166.945 306.5,-184.945"/>
<text text-anchor="middle" x="292" y="-173.745" font-family="Times,serif" font-size="9.00">&#45;23</text>
</g>
<!-- &#45;23&#45;&gt;0 -->
<g id="edge9" class="edge"><title>&#45;23&#45;&gt;0</title>
<path fill="none" stroke="green" stroke-width="0.302646" d="M292,-166.939C292,-155.175 292,-132.737 292,-115.368"/>
<polygon fill="green" stroke="green" stroke-width="0.302646" points="295.5,-115.349 292,-105.349 288.5,-115.349 295.5,-115.349"/>
</g>
<!-- &#45;24 -->
<g id="node24" class="node"><title>&#45;24</title>
<polygon fill="lightgray" stroke="black" points="1152.5,-184.945 1123.5,-184.945 1123.5,-166.945 1152.5,-166.945 1152.5,-184.945"/>
<text text-anchor="middle" x="1138" y="-173.745" font-family="Times,serif" font-size="9.00">&#45;24</text>
</g>
<!-- 1 -->
<g id="node26" class="node"><title>1</title>
<ellipse fill="lightblue" stroke="black" cx="1185" cy="-175.945" rx="14.7" ry="14.7"/>
<text text-anchor="middle" x="1185" y="-173.745" font-family="Times,serif" font-size="9.00">1</text>
</g>
<!-- 3 -->
<g id="node28" class="node"><title>3</title>
<ellipse fill="lightblue" stroke="black" cx="1233" cy="-175.945" rx="14.7" ry="14.7"/>
<text text-anchor="middle" x="1233" y="-173.745" font-family="Times,serif" font-size="9.00">3</text>
</g>
<!-- 1120 -->
<g id="node29" class="node"><title>1120</title>
<ellipse fill="white" stroke="black" cx="235" cy="-175.945" rx="25" ry="25"/>
<text text-anchor="middle" x="235" y="-173.745" font-family="Times,serif" font-size="9.00">1120</text>
</g>
<!-- 1120&#45;&gt;0 -->
<g id="edge2" class="edge"><title>1120&#45;&gt;0</title>
<path fill="none" stroke="red" stroke-width="0.886374" d="M248.508,-155.157C257.496,-141.991 269.264,-124.753 278.292,-111.527"/>
<polygon fill="red" stroke="red" stroke-width="0.886374" points="281.289,-113.345 284.037,-103.112 275.508,-109.398 281.289,-113.345"/>
</g>
<!-- 1503 -->
<g id="node35" class="node"><title>1503</title>
<ellipse fill="white" stroke="black" cx="234" cy="-90.4472" rx="25" ry="25"/>
<text text-anchor="middle" x="234" y="-88.2472" font-family="Times,serif" font-size="9.00">1503</text>
</g>
<!-- 1120&#45;&gt;1503 -->
<g id="edge3" class="edge"><title>1120&#45;&gt;1503</title>
<path fill="none" stroke="red" stroke-width="0.105062" d="M234.711,-150.794C234.616,-142.85 234.508,-133.865 234.406,-125.335"/>
<polygon fill="red" stroke="red" stroke-width="0.105062" points="237.905,-125.213 234.285,-115.256 230.905,-125.297 237.905,-125.213"/>
</g>
<!-- 1454 -->
<g id="node30" class="node"><title>1454</title>
<ellipse fill="white" stroke="black" cx="1291" cy="-175.945" rx="25" ry="25"/>
<text text-anchor="middle" x="1291" y="-173.745" font-family="Times,serif" font-size="9.00">1454</text>
</g>
<!-- 916 -->
<g id="node31" class="node"><title>916</title>
<ellipse fill="white" stroke="black" cx="1355" cy="-175.945" rx="21.4286" ry="21.4286"/>
<text text-anchor="middle" x="1355" y="-173.745" font-family="Times,serif" font-size="9.00">916</text>
</g>
<!-- 1525&#45;&gt;2 -->
<g id="edge8" class="edge"><title>1525&#45;&gt;2</title>
<path fill="none" stroke="green" stroke-width="0.481567" d="M450.797,-69.7243C443.227,-59.2125 433.937,-46.3122 426.346,-35.7706"/>
<polygon fill="green" stroke="green" stroke-width="0.481567" points="429.128,-33.6442 420.444,-27.5746 423.447,-37.7348 429.128,-33.6442"/>
</g>
<!-- 377&#45;&gt;2 -->
<g id="edge5" class="edge"><title>377&#45;&gt;2</title>
<path fill="none" stroke="red" stroke-width="0.603902" d="M374.365,-72.3774C381.593,-61.5212 390.986,-47.4125 398.58,-36.0062"/>
<polygon fill="red" stroke="red" stroke-width="0.603902" points="401.58,-37.8153 404.209,-27.5517 395.753,-33.936 401.58,-37.8153"/>
</g>
<!-- 1150 -->
<g id="node34" class="node"><title>1150</title>
<ellipse fill="white" stroke="black" cx="1419" cy="-175.945" rx="25" ry="25"/>
<text text-anchor="middle" x="1419" y="-173.745" font-family="Times,serif" font-size="9.00">1150</text>
</g>
</g>
</svg>
