<?xml version="1.0" encoding="UTF-8" standalone="no"?>
<!DOCTYPE svg PUBLIC "-//W3C//DTD SVG 1.1//EN"
 "http://www.w3.org/Graphics/SVG/1.1/DTD/svg11.dtd">
<!-- Generated by graphviz version 2.38.0 (20140413.2041)
 -->
<!-- Title: %3 Pages: 1 -->
<svg width="1578pt" height="493pt"
 viewBox="0.00 0.00 1577.58 493.47" xmlns="http://www.w3.org/2000/svg" xmlns:xlink="http://www.w3.org/1999/xlink">
<g id="graph0" class="graph" transform="scale(1 1) rotate(0) translate(4 489.47)">
<title>%3</title>
<polygon fill="white" stroke="none" points="-4,4 -4,-489.47 1573.58,-489.47 1573.58,4 -4,4"/>
<!-- &#45;1 -->
<g id="node1" class="node"><title>&#45;1</title>
<polygon fill="lightgray" stroke="black" points="24,-466.893 0,-466.893 0,-448.893 24,-448.893 24,-466.893"/>
<text text-anchor="middle" x="12" y="-455.693" font-family="Times,serif" font-size="9.00">&#45;1</text>
</g>
<!-- 377 -->
<g id="node46" class="node"><title>377</title>
<ellipse fill="white" stroke="black" cx="47" cy="-366.739" rx="21.4286" ry="21.4286"/>
<text text-anchor="middle" x="47" y="-364.539" font-family="Times,serif" font-size="9.00">377</text>
</g>
<!-- &#45;1&#45;&gt;377 -->
<g id="edge12" class="edge"><title>&#45;1&#45;&gt;377</title>
<path fill="none" stroke="green" stroke-width="0.306048" d="M15.23,-448.665C19.8777,-436.826 28.6806,-414.403 35.8436,-396.157"/>
<polygon fill="green" stroke="green" stroke-width="0.306048" points="39.1167,-397.397 39.5131,-386.81 32.6008,-394.839 39.1167,-397.397"/>
</g>
<!-- &#45;2 -->
<g id="node2" class="node"><title>&#45;2</title>
<polygon fill="lightgray" stroke="black" points="199,-466.893 175,-466.893 175,-448.893 199,-448.893 199,-466.893"/>
<text text-anchor="middle" x="187" y="-455.693" font-family="Times,serif" font-size="9.00">&#45;2</text>
</g>
<!-- 65915 -->
<g id="node47" class="node"><title>65915</title>
<ellipse fill="white" stroke="black" cx="187" cy="-366.739" rx="27.6545" ry="27.6545"/>
<text text-anchor="middle" x="187" y="-364.539" font-family="Times,serif" font-size="9.00">65915</text>
</g>
<!-- &#45;2&#45;&gt;65915 -->
<g id="edge15" class="edge"><title>&#45;2&#45;&gt;65915</title>
<path fill="none" stroke="green" stroke-width="0.294578" d="M187,-448.665C187,-438.693 187,-421.212 187,-405.043"/>
<polygon fill="green" stroke="green" stroke-width="0.294578" points="190.5,-404.7 187,-394.7 183.5,-404.7 190.5,-404.7"/>
</g>
<!-- &#45;3 -->
<g id="node3" class="node"><title>&#45;3</title>
<polygon fill="lightgray" stroke="black" points="241,-466.893 217,-466.893 217,-448.893 241,-448.893 241,-466.893"/>
<text text-anchor="middle" x="229" y="-455.693" font-family="Times,serif" font-size="9.00">&#45;3</text>
</g>
<!-- &#45;4 -->
<g id="node4" class="node"><title>&#45;4</title>
<polygon fill="lightgray" stroke="black" points="283,-466.893 259,-466.893 259,-448.893 283,-448.893 283,-466.893"/>
<text text-anchor="middle" x="271" y="-455.693" font-family="Times,serif" font-size="9.00">&#45;4</text>
</g>
<!-- &#45;5 -->
<g id="node5" class="node"><title>&#45;5</title>
<polygon fill="lightgray" stroke="black" points="325,-466.893 301,-466.893 301,-448.893 325,-448.893 325,-466.893"/>
<text text-anchor="middle" x="313" y="-455.693" font-family="Times,serif" font-size="9.00">&#45;5</text>
</g>
<!-- &#45;6 -->
<g id="node6" class="node"><title>&#45;6</title>
<polygon fill="lightgray" stroke="black" points="367,-466.893 343,-466.893 343,-448.893 367,-448.893 367,-466.893"/>
<text text-anchor="middle" x="355" y="-455.693" font-family="Times,serif" font-size="9.00">&#45;6</text>
</g>
<!-- &#45;7 -->
<g id="node7" class="node"><title>&#45;7</title>
<polygon fill="lightgray" stroke="black" points="409,-466.893 385,-466.893 385,-448.893 409,-448.893 409,-466.893"/>
<text text-anchor="middle" x="397" y="-455.693" font-family="Times,serif" font-size="9.00">&#45;7</text>
</g>
<!-- 66244 -->
<g id="node39" class="node"><title>66244</title>
<ellipse fill="white" stroke="black" cx="369" cy="-366.739" rx="27.6545" ry="27.6545"/>
<text text-anchor="middle" x="369" y="-364.539" font-family="Times,serif" font-size="9.00">66244</text>
</g>
<!-- &#45;7&#45;&gt;66244 -->
<g id="edge5" class="edge"><title>&#45;7&#45;&gt;66244</title>
<path fill="none" stroke="red" stroke-width="0.108189" d="M394.416,-448.665C391.134,-438.215 385.262,-419.518 379.989,-402.727"/>
<polygon fill="red" stroke="red" stroke-width="0.108189" points="383.312,-401.629 376.977,-393.138 376.634,-403.727 383.312,-401.629"/>
</g>
<!-- 63558 -->
<g id="node40" class="node"><title>63558</title>
<ellipse fill="white" stroke="black" cx="425" cy="-275.584" rx="27.6545" ry="27.6545"/>
<text text-anchor="middle" x="425" y="-273.384" font-family="Times,serif" font-size="9.00">63558</text>
</g>
<!-- &#45;7&#45;&gt;63558 -->
<g id="edge8" class="edge"><title>&#45;7&#45;&gt;63558</title>
<path fill="none" stroke="red" stroke-width="0.273806" stroke-dasharray="1,5" d="M398.276,-448.677C401.933,-425.128 412.618,-356.32 419.317,-313.179"/>
<polygon fill="red" stroke="red" stroke-width="0.273806" points="422.811,-313.49 420.887,-303.071 415.894,-312.416 422.811,-313.49"/>
</g>
<!-- &#45;8 -->
<g id="node8" class="node"><title>&#45;8</title>
<polygon fill="lightgray" stroke="black" points="451,-466.893 427,-466.893 427,-448.893 451,-448.893 451,-466.893"/>
<text text-anchor="middle" x="439" y="-455.693" font-family="Times,serif" font-size="9.00">&#45;8</text>
</g>
<!-- &#45;9 -->
<g id="node9" class="node"><title>&#45;9</title>
<polygon fill="lightgray" stroke="black" points="493,-466.893 469,-466.893 469,-448.893 493,-448.893 493,-466.893"/>
<text text-anchor="middle" x="481" y="-455.693" font-family="Times,serif" font-size="9.00">&#45;9</text>
</g>
<!-- &#45;10 -->
<g id="node10" class="node"><title>&#45;10</title>
<polygon fill="lightgray" stroke="black" points="71.5,-466.893 42.5,-466.893 42.5,-448.893 71.5,-448.893 71.5,-466.893"/>
<text text-anchor="middle" x="57" y="-455.693" font-family="Times,serif" font-size="9.00">&#45;10</text>
</g>
<!-- &#45;10&#45;&gt;377 -->
<g id="edge17" class="edge"><title>&#45;10&#45;&gt;377</title>
<path fill="none" stroke="red" stroke-width="0.369131" d="M56.0771,-448.665C54.7918,-437.206 52.3943,-415.831 50.386,-397.926"/>
<polygon fill="red" stroke="red" stroke-width="0.369131" points="53.8527,-397.433 49.2598,-387.886 46.8963,-398.213 53.8527,-397.433"/>
</g>
<!-- &#45;11 -->
<g id="node11" class="node"><title>&#45;11</title>
<polygon fill="lightgray" stroke="black" points="108.5,-284.584 79.5,-284.584 79.5,-266.584 108.5,-266.584 108.5,-284.584"/>
<text text-anchor="middle" x="94" y="-273.384" font-family="Times,serif" font-size="9.00">&#45;11</text>
</g>
<!-- 65421 -->
<g id="node31" class="node"><title>65421</title>
<ellipse fill="white" stroke="black" cx="80" cy="-184.43" rx="27.6545" ry="27.6545"/>
<text text-anchor="middle" x="80" y="-182.23" font-family="Times,serif" font-size="9.00">65421</text>
</g>
<!-- &#45;11&#45;&gt;65421 -->
<g id="edge24" class="edge"><title>&#45;11&#45;&gt;65421</title>
<path fill="none" stroke="red" stroke-width="0.128685" d="M92.708,-266.357C91.116,-256.218 88.3051,-238.318 85.7311,-221.927"/>
<polygon fill="red" stroke="red" stroke-width="0.128685" points="89.181,-221.334 84.172,-211.998 82.2658,-222.42 89.181,-221.334"/>
</g>
<!-- &#45;12 -->
<g id="node12" class="node"><title>&#45;12</title>
<polygon fill="lightgray" stroke="black" points="540.5,-466.893 511.5,-466.893 511.5,-448.893 540.5,-448.893 540.5,-466.893"/>
<text text-anchor="middle" x="526" y="-455.693" font-family="Times,serif" font-size="9.00">&#45;12</text>
</g>
<!-- &#45;13 -->
<g id="node13" class="node"><title>&#45;13</title>
<polygon fill="lightgray" stroke="black" points="128.5,-466.893 99.5,-466.893 99.5,-448.893 128.5,-448.893 128.5,-466.893"/>
<text text-anchor="middle" x="114" y="-455.693" font-family="Times,serif" font-size="9.00">&#45;13</text>
</g>
<!-- 56323 -->
<g id="node30" class="node"><title>56323</title>
<ellipse fill="white" stroke="black" cx="114" cy="-366.739" rx="27.6545" ry="27.6545"/>
<text text-anchor="middle" x="114" y="-364.539" font-family="Times,serif" font-size="9.00">56323</text>
</g>
<!-- &#45;13&#45;&gt;56323 -->
<g id="edge10" class="edge"><title>&#45;13&#45;&gt;56323</title>
<path fill="none" stroke="green" stroke-width="0.129828" d="M114,-448.665C114,-438.693 114,-421.212 114,-405.043"/>
<polygon fill="green" stroke="green" stroke-width="0.129828" points="117.5,-404.7 114,-394.7 110.5,-404.7 117.5,-404.7"/>
</g>
<!-- &#45;13&#45;&gt;377 -->
<g id="edge21" class="edge"><title>&#45;13&#45;&gt;377</title>
<path fill="none" stroke="red" stroke-width="0.242141" d="M107.817,-448.665C98.3215,-436.03 79.7663,-411.339 65.6363,-392.537"/>
<polygon fill="red" stroke="red" stroke-width="0.242141" points="68.3097,-390.269 59.504,-384.377 62.7137,-394.474 68.3097,-390.269"/>
</g>
<!-- &#45;13&#45;&gt;65915 -->
<g id="edge19" class="edge"><title>&#45;13&#45;&gt;65915</title>
<path fill="none" stroke="green" stroke-width="0.110482" d="M120.737,-448.665C130.348,-436.927 148.478,-414.785 163.348,-396.625"/>
<polygon fill="green" stroke="green" stroke-width="0.110482" points="166.281,-398.568 169.908,-388.613 160.864,-394.133 166.281,-398.568"/>
</g>
<!-- &#45;14 -->
<g id="node14" class="node"><title>&#45;14</title>
<polygon fill="lightgray" stroke="black" points="587.5,-466.893 558.5,-466.893 558.5,-448.893 587.5,-448.893 587.5,-466.893"/>
<text text-anchor="middle" x="573" y="-455.693" font-family="Times,serif" font-size="9.00">&#45;14</text>
</g>
<!-- 53310 -->
<g id="node37" class="node"><title>53310</title>
<ellipse fill="white" stroke="black" cx="579" cy="-366.739" rx="27.6545" ry="27.6545"/>
<text text-anchor="middle" x="579" y="-364.539" font-family="Times,serif" font-size="9.00">53310</text>
</g>
<!-- &#45;14&#45;&gt;53310 -->
<g id="edge13" class="edge"><title>&#45;14&#45;&gt;53310</title>
<path fill="none" stroke="green" stroke-width="0.466152" d="M573.554,-448.665C574.23,-438.623 575.418,-420.964 576.513,-404.7"/>
<polygon fill="green" stroke="green" stroke-width="0.466152" points="580.033,-404.519 577.212,-394.307 573.048,-404.049 580.033,-404.519"/>
</g>
<!-- &#45;15 -->
<g id="node15" class="node"><title>&#45;15</title>
<polygon fill="lightgray" stroke="black" points="482.5,-375.739 453.5,-375.739 453.5,-357.739 482.5,-357.739 482.5,-375.739"/>
<text text-anchor="middle" x="468" y="-364.539" font-family="Times,serif" font-size="9.00">&#45;15</text>
</g>
<!-- &#45;15&#45;&gt;63558 -->
<g id="edge3" class="edge"><title>&#45;15&#45;&gt;63558</title>
<path fill="none" stroke="green" stroke-width="0.361828" stroke-dasharray="1,5" d="M464.032,-357.511C458.839,-346.745 449.425,-327.226 441.144,-310.056"/>
<polygon fill="green" stroke="green" stroke-width="0.361828" points="444.19,-308.315 436.693,-300.828 437.885,-311.356 444.19,-308.315"/>
</g>
<!-- &#45;16 -->
<g id="node16" class="node"><title>&#45;16</title>
<polygon fill="lightgray" stroke="black" points="660.5,-375.739 631.5,-375.739 631.5,-357.739 660.5,-357.739 660.5,-375.739"/>
<text text-anchor="middle" x="646" y="-364.539" font-family="Times,serif" font-size="9.00">&#45;16</text>
</g>
<!-- 61569 -->
<g id="node29" class="node"><title>61569</title>
<ellipse fill="white" stroke="black" cx="676" cy="-275.584" rx="27.6545" ry="27.6545"/>
<text text-anchor="middle" x="676" y="-273.384" font-family="Times,serif" font-size="9.00">61569</text>
</g>
<!-- &#45;16&#45;&gt;61569 -->
<g id="edge9" class="edge"><title>&#45;16&#45;&gt;61569</title>
<path fill="none" stroke="green" stroke-width="0.100217" d="M648.769,-357.511C652.285,-347.061 658.576,-328.364 664.227,-311.573"/>
<polygon fill="green" stroke="green" stroke-width="0.100217" points="667.581,-312.577 667.453,-301.983 660.947,-310.345 667.581,-312.577"/>
</g>
<!-- &#45;17 -->
<g id="node17" class="node"><title>&#45;17</title>
<polygon fill="lightgray" stroke="black" points="780.5,-466.893 751.5,-466.893 751.5,-448.893 780.5,-448.893 780.5,-466.893"/>
<text text-anchor="middle" x="766" y="-455.693" font-family="Times,serif" font-size="9.00">&#45;17</text>
</g>
<!-- &#45;18 -->
<g id="node18" class="node"><title>&#45;18</title>
<polygon fill="lightgray" stroke="black" points="827.5,-466.893 798.5,-466.893 798.5,-448.893 827.5,-448.893 827.5,-466.893"/>
<text text-anchor="middle" x="813" y="-455.693" font-family="Times,serif" font-size="9.00">&#45;18</text>
</g>
<!-- &#45;19 -->
<g id="node19" class="node"><title>&#45;19</title>
<polygon fill="lightgray" stroke="black" points="874.5,-466.893 845.5,-466.893 845.5,-448.893 874.5,-448.893 874.5,-466.893"/>
<text text-anchor="middle" x="860" y="-455.693" font-family="Times,serif" font-size="9.00">&#45;19</text>
</g>
<!-- &#45;20 -->
<g id="node20" class="node"><title>&#45;20</title>
<polygon fill="lightgray" stroke="black" points="921.5,-466.893 892.5,-466.893 892.5,-448.893 921.5,-448.893 921.5,-466.893"/>
<text text-anchor="middle" x="907" y="-455.693" font-family="Times,serif" font-size="9.00">&#45;20</text>
</g>
<!-- &#45;21 -->
<g id="node21" class="node"><title>&#45;21</title>
<polygon fill="lightgray" stroke="black" points="968.5,-466.893 939.5,-466.893 939.5,-448.893 968.5,-448.893 968.5,-466.893"/>
<text text-anchor="middle" x="954" y="-455.693" font-family="Times,serif" font-size="9.00">&#45;21</text>
</g>
<!-- &#45;22 -->
<g id="node22" class="node"><title>&#45;22</title>
<polygon fill="lightgray" stroke="black" points="1015.5,-466.893 986.5,-466.893 986.5,-448.893 1015.5,-448.893 1015.5,-466.893"/>
<text text-anchor="middle" x="1001" y="-455.693" font-family="Times,serif" font-size="9.00">&#45;22</text>
</g>
<!-- &#45;23 -->
<g id="node23" class="node"><title>&#45;23</title>
<polygon fill="lightgray" stroke="black" points="1062.5,-466.893 1033.5,-466.893 1033.5,-448.893 1062.5,-448.893 1062.5,-466.893"/>
<text text-anchor="middle" x="1048" y="-455.693" font-family="Times,serif" font-size="9.00">&#45;23</text>
</g>
<!-- &#45;24 -->
<g id="node24" class="node"><title>&#45;24</title>
<polygon fill="lightgray" stroke="black" points="1109.5,-466.893 1080.5,-466.893 1080.5,-448.893 1109.5,-448.893 1109.5,-466.893"/>
<text text-anchor="middle" x="1095" y="-455.693" font-family="Times,serif" font-size="9.00">&#45;24</text>
</g>
<!-- 0 -->
<g id="node25" class="node"><title>0</title>
<ellipse fill="lightblue" stroke="black" cx="1142" cy="-457.893" rx="14.7" ry="14.7"/>
<text text-anchor="middle" x="1142" y="-455.693" font-family="Times,serif" font-size="9.00">0</text>
</g>
<!-- 1 -->
<g id="node26" class="node"><title>1</title>
<ellipse fill="lightblue" stroke="black" cx="80" cy="-14.8492" rx="14.7" ry="14.7"/>
<text text-anchor="middle" x="80" y="-12.6492" font-family="Times,serif" font-size="9.00">1</text>
</g>
<!-- 2 -->
<g id="node27" class="node"><title>2</title>
<ellipse fill="lightblue" stroke="black" cx="47" cy="-275.584" rx="14.7" ry="14.7"/>
<text text-anchor="middle" x="47" y="-273.384" font-family="Times,serif" font-size="9.00">2</text>
</g>
<!-- 2&#45;&gt;65421 -->
<g id="edge20" class="edge"><title>2&#45;&gt;65421</title>
<path fill="none" stroke="green" stroke-width="0.810221" d="M51.8693,-261.429C55.8898,-250.567 61.7848,-234.641 67.1411,-220.17"/>
<polygon fill="green" stroke="green" stroke-width="0.810221" points="70.5446,-221.058 70.7336,-210.465 63.9799,-218.628 70.5446,-221.058"/>
</g>
<!-- 3 -->
<g id="node28" class="node"><title>3</title>
<ellipse fill="lightblue" stroke="black" cx="1190" cy="-457.893" rx="14.7" ry="14.7"/>
<text text-anchor="middle" x="1190" y="-455.693" font-family="Times,serif" font-size="9.00">3</text>
</g>
<!-- 65421&#45;&gt;1 -->
<g id="edge16" class="edge"><title>65421&#45;&gt;1</title>
<path fill="none" stroke="green" stroke-width="0.124639" stroke-dasharray="1,5" d="M75.3499,-157.03C73.6121,-145.902 71.8537,-132.786 71,-120.853 69.2507,-96.4023 68.8136,-90.1138 71,-65.6985 71.7635,-57.1719 73.2477,-47.9221 74.7941,-39.7319"/>
<polygon fill="green" stroke="green" stroke-width="0.124639" points="78.2661,-40.2195 76.8074,-29.7255 71.4036,-38.8387 78.2661,-40.2195"/>
</g>
<!-- 66359 -->
<g id="node36" class="node"><title>66359</title>
<ellipse fill="white" stroke="black" cx="108" cy="-93.2756" rx="27.6545" ry="27.6545"/>
<text text-anchor="middle" x="108" y="-91.0756" font-family="Times,serif" font-size="9.00">66359</text>
</g>
<!-- 65421&#45;&gt;66359 -->
<g id="edge2" class="edge"><title>65421&#45;&gt;66359</title>
<path fill="none" stroke="green" stroke-width="0.392788" d="M88.0988,-157.643C90.8798,-148.788 94.0411,-138.722 97.0124,-129.261"/>
<polygon fill="green" stroke="green" stroke-width="0.392788" points="100.359,-130.286 100.016,-119.697 93.6805,-128.189 100.359,-130.286"/>
</g>
<!-- 60179 -->
<g id="node32" class="node"><title>60179</title>
<ellipse fill="white" stroke="black" cx="1250" cy="-457.893" rx="27.6545" ry="27.6545"/>
<text text-anchor="middle" x="1250" y="-455.693" font-family="Times,serif" font-size="9.00">60179</text>
</g>
<!-- 66472 -->
<g id="node33" class="node"><title>66472</title>
<ellipse fill="white" stroke="black" cx="160" cy="-275.584" rx="27.6545" ry="27.6545"/>
<text text-anchor="middle" x="160" y="-273.384" font-family="Times,serif" font-size="9.00">66472</text>
</g>
<!-- 64997 -->
<g id="node44" class="node"><title>64997</title>
<ellipse fill="white" stroke="black" cx="173" cy="-184.43" rx="27.6545" ry="27.6545"/>
<text text-anchor="middle" x="173" y="-182.23" font-family="Times,serif" font-size="9.00">64997</text>
</g>
<!-- 66472&#45;&gt;64997 -->
<g id="edge14" class="edge"><title>66472&#45;&gt;64997</title>
<path fill="none" stroke="red" stroke-width="0.310366" d="M163.9,-247.835C165.094,-239.651 166.427,-230.507 167.697,-221.796"/>
<polygon fill="red" stroke="red" stroke-width="0.310366" points="171.168,-222.254 169.147,-211.853 164.241,-221.243 171.168,-222.254"/>
</g>
<!-- 63152 -->
<g id="node34" class="node"><title>63152</title>
<ellipse fill="white" stroke="black" cx="633" cy="-457.893" rx="27.6545" ry="27.6545"/>
<text text-anchor="middle" x="633" y="-455.693" font-family="Times,serif" font-size="9.00">63152</text>
</g>
<!-- 63152&#45;&gt;53310 -->
<g id="edge6" class="edge"><title>63152&#45;&gt;53310</title>
<path fill="none" stroke="red" stroke-width="0.253099" d="M619.094,-433.934C612.732,-423.43 605.091,-410.814 598.193,-399.426"/>
<polygon fill="red" stroke="red" stroke-width="0.253099" points="601.034,-397.36 592.859,-390.62 595.046,-400.987 601.034,-397.36"/>
</g>
<!-- 65974 -->
<g id="node35" class="node"><title>65974</title>
<ellipse fill="white" stroke="black" cx="706" cy="-457.893" rx="27.6545" ry="27.6545"/>
<text text-anchor="middle" x="706" y="-455.693" font-family="Times,serif" font-size="9.00">65974</text>
</g>
<!-- 65261 -->
<g id="node45" class="node"><title>65261</title>
<ellipse fill="white" stroke="black" cx="706" cy="-366.739" rx="27.6545" ry="27.6545"/>
<text text-anchor="middle" x="706" y="-364.539" font-family="Times,serif" font-size="9.00">65261</text>
</g>
<!-- 65974&#45;&gt;65261 -->
<g id="edge4" class="edge"><title>65974&#45;&gt;65261</title>
<path fill="none" stroke="red" stroke-width="0.389475" d="M706,-430.144C706,-422.122 706,-413.177 706,-404.622"/>
<polygon fill="red" stroke="red" stroke-width="0.389475" points="709.5,-404.469 706,-394.469 702.5,-404.469 709.5,-404.469"/>
</g>
<!-- 66359&#45;&gt;1 -->
<g id="edge7" class="edge"><title>66359&#45;&gt;1</title>
<path fill="none" stroke="green" stroke-width="0.725277" d="M98.8318,-67.2508C95.448,-58.0149 91.6351,-47.6074 88.3296,-38.5851"/>
<polygon fill="green" stroke="green" stroke-width="0.725277" points="91.5897,-37.3092 84.8632,-29.1235 85.017,-39.7172 91.5897,-37.3092"/>
</g>
<!-- 59203 -->
<g id="node38" class="node"><title>59203</title>
<ellipse fill="white" stroke="black" cx="1323" cy="-457.893" rx="27.6545" ry="27.6545"/>
<text text-anchor="middle" x="1323" y="-455.693" font-family="Times,serif" font-size="9.00">59203</text>
</g>
<!-- 66244&#45;&gt;63558 -->
<g id="edge18" class="edge"><title>66244&#45;&gt;63558</title>
<path fill="none" stroke="red" stroke-width="0.174491" d="M383.421,-342.779C390.019,-332.276 397.943,-319.66 405.096,-308.272"/>
<polygon fill="red" stroke="red" stroke-width="0.174491" points="408.272,-309.796 410.627,-299.466 402.345,-306.072 408.272,-309.796"/>
</g>
<!-- 62928 -->
<g id="node41" class="node"><title>62928</title>
<ellipse fill="white" stroke="black" cx="1396" cy="-457.893" rx="27.6545" ry="27.6545"/>
<text text-anchor="middle" x="1396" y="-455.693" font-family="Times,serif" font-size="9.00">62928</text>
</g>
<!-- 58961 -->
<g id="node42" class="node"><title>58961</title>
<ellipse fill="white" stroke="black" cx="1469" cy="-457.893" rx="27.6545" ry="27.6545"/>
<text text-anchor="middle" x="1469" y="-455.693" font-family="Times,serif" font-size="9.00">58961</text>
</g>
<!-- 63964 -->
<g id="node43" class="node"><title>63964</title>
<ellipse fill="white" stroke="black" cx="1542" cy="-457.893" rx="27.6545" ry="27.6545"/>
<text text-anchor="middle" x="1542" y="-455.693" font-family="Times,serif" font-size="9.00">63964</text>
</g>
<!-- 65261&#45;&gt;61569 -->
<g id="edge1" class="edge"><title>65261&#45;&gt;61569</title>
<path fill="none" stroke="red" stroke-width="0.323432" d="M697.483,-340.429C694.475,-331.488 691.036,-321.267 687.804,-311.663"/>
<polygon fill="red" stroke="red" stroke-width="0.323432" points="691.044,-310.319 684.538,-301.957 684.41,-312.551 691.044,-310.319"/>
</g>
<!-- 377&#45;&gt;2 -->
<g id="edge11" class="edge"><title>377&#45;&gt;2</title>
<path fill="none" stroke="green" stroke-width="1.31855" d="M47,-345.508C47,-332.293 47,-314.959 47,-300.981"/>
<polygon fill="green" stroke="green" stroke-width="1.31855" points="50.5001,-300.633 47,-290.633 43.5001,-300.633 50.5001,-300.633"/>
</g>
<!-- 65915&#45;&gt;66472 -->
<g id="edge23" class="edge"><title>65915&#45;&gt;66472</title>
<path fill="none" stroke="green" stroke-width="0.279906" d="M179.19,-339.952C176.56,-331.265 173.576,-321.414 170.759,-312.111"/>
<polygon fill="green" stroke="green" stroke-width="0.279906" points="174.04,-310.87 167.792,-302.313 167.341,-312.899 174.04,-310.87"/>
</g>
<!-- 65915&#45;&gt;64997 -->
<g id="edge22" class="edge"><title>65915&#45;&gt;64997</title>
<path fill="none" stroke="green" stroke-width="0.281916" stroke-dasharray="1,5" d="M193.145,-339.821C197.902,-315.836 202.79,-279.271 197,-248.007 195.211,-238.345 191.99,-228.247 188.477,-219.053"/>
<polygon fill="green" stroke="green" stroke-width="0.281916" points="191.603,-217.448 184.604,-209.495 185.116,-220.077 191.603,-217.448"/>
</g>
</g>
</svg>
