<?xml version="1.0" encoding="UTF-8" standalone="no"?>
<!DOCTYPE svg PUBLIC "-//W3C//DTD SVG 1.1//EN"
 "http://www.w3.org/Graphics/SVG/1.1/DTD/svg11.dtd">
<!-- Generated by graphviz version 2.38.0 (20140413.2041)
 -->
<!-- Title: %3 Pages: 1 -->
<svg width="1184pt" height="195pt"
 viewBox="0.00 0.00 1184.21 194.55" xmlns="http://www.w3.org/2000/svg" xmlns:xlink="http://www.w3.org/1999/xlink">
<g id="graph0" class="graph" transform="scale(1 1) rotate(0) translate(4 190.551)">
<title>%3</title>
<polygon fill="white" stroke="none" points="-4,4 -4,-190.551 1180.21,-190.551 1180.21,4 -4,4"/>
<!-- &#45;1 -->
<g id="node1" class="node"><title>&#45;1</title>
<polygon fill="lightgray" stroke="black" points="24,-174.338 0,-174.338 0,-156.338 24,-156.338 24,-174.338"/>
<text text-anchor="middle" x="12" y="-163.138" font-family="Times,serif" font-size="9.00">&#45;1</text>
</g>
<!-- &#45;2 -->
<g id="node2" class="node"><title>&#45;2</title>
<polygon fill="lightgray" stroke="black" points="66,-174.338 42,-174.338 42,-156.338 66,-156.338 66,-174.338"/>
<text text-anchor="middle" x="54" y="-163.138" font-family="Times,serif" font-size="9.00">&#45;2</text>
</g>
<!-- &#45;3 -->
<g id="node3" class="node"><title>&#45;3</title>
<polygon fill="lightgray" stroke="black" points="108,-174.338 84,-174.338 84,-156.338 108,-156.338 108,-174.338"/>
<text text-anchor="middle" x="96" y="-163.138" font-family="Times,serif" font-size="9.00">&#45;3</text>
</g>
<!-- &#45;4 -->
<g id="node4" class="node"><title>&#45;4</title>
<polygon fill="lightgray" stroke="black" points="150,-174.338 126,-174.338 126,-156.338 150,-156.338 150,-174.338"/>
<text text-anchor="middle" x="138" y="-163.138" font-family="Times,serif" font-size="9.00">&#45;4</text>
</g>
<!-- &#45;5 -->
<g id="node5" class="node"><title>&#45;5</title>
<polygon fill="lightgray" stroke="black" points="192,-174.338 168,-174.338 168,-156.338 192,-156.338 192,-174.338"/>
<text text-anchor="middle" x="180" y="-163.138" font-family="Times,serif" font-size="9.00">&#45;5</text>
</g>
<!-- &#45;6 -->
<g id="node6" class="node"><title>&#45;6</title>
<polygon fill="lightgray" stroke="black" points="234,-174.338 210,-174.338 210,-156.338 234,-156.338 234,-174.338"/>
<text text-anchor="middle" x="222" y="-163.138" font-family="Times,serif" font-size="9.00">&#45;6</text>
</g>
<!-- 377 -->
<g id="node30" class="node"><title>377</title>
<ellipse fill="white" stroke="black" cx="244" cy="-86.9117" rx="21.4286" ry="21.4286"/>
<text text-anchor="middle" x="244" y="-84.7117" font-family="Times,serif" font-size="9.00">377</text>
</g>
<!-- &#45;6&#45;&gt;377 -->
<g id="edge5" class="edge"><title>&#45;6&#45;&gt;377</title>
<path fill="none" stroke="red" stroke-width="1.0508" d="M224.354,-156.159C227.03,-146.863 231.55,-131.161 235.58,-117.161"/>
<polygon fill="red" stroke="red" stroke-width="1.0508" points="238.992,-117.961 238.395,-107.383 232.265,-116.024 238.992,-117.961"/>
</g>
<!-- &#45;7 -->
<g id="node7" class="node"><title>&#45;7</title>
<polygon fill="lightgray" stroke="black" points="324,-174.338 300,-174.338 300,-156.338 324,-156.338 324,-174.338"/>
<text text-anchor="middle" x="312" y="-163.138" font-family="Times,serif" font-size="9.00">&#45;7</text>
</g>
<!-- &#45;8 -->
<g id="node8" class="node"><title>&#45;8</title>
<polygon fill="lightgray" stroke="black" points="366,-174.338 342,-174.338 342,-156.338 366,-156.338 366,-174.338"/>
<text text-anchor="middle" x="354" y="-163.138" font-family="Times,serif" font-size="9.00">&#45;8</text>
</g>
<!-- &#45;9 -->
<g id="node9" class="node"><title>&#45;9</title>
<polygon fill="lightgray" stroke="black" points="408,-174.338 384,-174.338 384,-156.338 408,-156.338 408,-174.338"/>
<text text-anchor="middle" x="396" y="-163.138" font-family="Times,serif" font-size="9.00">&#45;9</text>
</g>
<!-- &#45;10 -->
<g id="node10" class="node"><title>&#45;10</title>
<polygon fill="lightgray" stroke="black" points="281.5,-174.338 252.5,-174.338 252.5,-156.338 281.5,-156.338 281.5,-174.338"/>
<text text-anchor="middle" x="267" y="-163.138" font-family="Times,serif" font-size="9.00">&#45;10</text>
</g>
<!-- &#45;10&#45;&gt;377 -->
<g id="edge3" class="edge"><title>&#45;10&#45;&gt;377</title>
<path fill="none" stroke="green" stroke-width="0.764172" d="M264.539,-156.159C261.741,-146.863 257.016,-131.161 252.802,-117.161"/>
<polygon fill="green" stroke="green" stroke-width="0.764172" points="256.093,-115.95 249.86,-107.383 249.39,-117.967 256.093,-115.95"/>
</g>
<!-- &#45;11 -->
<g id="node11" class="node"><title>&#45;11</title>
<polygon fill="lightgray" stroke="black" points="455.5,-174.338 426.5,-174.338 426.5,-156.338 455.5,-156.338 455.5,-174.338"/>
<text text-anchor="middle" x="441" y="-163.138" font-family="Times,serif" font-size="9.00">&#45;11</text>
</g>
<!-- &#45;12 -->
<g id="node12" class="node"><title>&#45;12</title>
<polygon fill="lightgray" stroke="black" points="312.5,-95.9117 283.5,-95.9117 283.5,-77.9117 312.5,-77.9117 312.5,-95.9117"/>
<text text-anchor="middle" x="298" y="-84.7117" font-family="Times,serif" font-size="9.00">&#45;12</text>
</g>
<!-- 2 -->
<g id="node27" class="node"><title>2</title>
<ellipse fill="lightblue" stroke="black" cx="298" cy="-14.8492" rx="14.7" ry="14.7"/>
<text text-anchor="middle" x="298" y="-12.6492" font-family="Times,serif" font-size="9.00">2</text>
</g>
<!-- &#45;12&#45;&gt;2 -->
<g id="edge2" class="edge"><title>&#45;12&#45;&gt;2</title>
<path fill="none" stroke="green" stroke-width="0.129009" d="M298,-77.8746C298,-68.7202 298,-53.3256 298,-40.1641"/>
<polygon fill="green" stroke="green" stroke-width="0.129009" points="301.5,-39.8196 298,-29.8197 294.5,-39.8197 301.5,-39.8196"/>
</g>
<!-- &#45;13 -->
<g id="node13" class="node"><title>&#45;13</title>
<polygon fill="lightgray" stroke="black" points="359.5,-95.9117 330.5,-95.9117 330.5,-77.9117 359.5,-77.9117 359.5,-95.9117"/>
<text text-anchor="middle" x="345" y="-84.7117" font-family="Times,serif" font-size="9.00">&#45;13</text>
</g>
<!-- &#45;13&#45;&gt;2 -->
<g id="edge4" class="edge"><title>&#45;13&#45;&gt;2</title>
<path fill="none" stroke="red" stroke-width="0.484674" d="M339.609,-77.8746C332.804,-67.7318 320.861,-49.9283 311.511,-35.9895"/>
<polygon fill="red" stroke="red" stroke-width="0.484674" points="314.298,-33.8618 305.82,-27.5071 308.485,-37.7615 314.298,-33.8618"/>
</g>
<!-- &#45;14 -->
<g id="node14" class="node"><title>&#45;14</title>
<polygon fill="lightgray" stroke="black" points="502.5,-174.338 473.5,-174.338 473.5,-156.338 502.5,-156.338 502.5,-174.338"/>
<text text-anchor="middle" x="488" y="-163.138" font-family="Times,serif" font-size="9.00">&#45;14</text>
</g>
<!-- &#45;15 -->
<g id="node15" class="node"><title>&#45;15</title>
<polygon fill="lightgray" stroke="black" points="549.5,-174.338 520.5,-174.338 520.5,-156.338 549.5,-156.338 549.5,-174.338"/>
<text text-anchor="middle" x="535" y="-163.138" font-family="Times,serif" font-size="9.00">&#45;15</text>
</g>
<!-- &#45;16 -->
<g id="node16" class="node"><title>&#45;16</title>
<polygon fill="lightgray" stroke="black" points="596.5,-174.338 567.5,-174.338 567.5,-156.338 596.5,-156.338 596.5,-174.338"/>
<text text-anchor="middle" x="582" y="-163.138" font-family="Times,serif" font-size="9.00">&#45;16</text>
</g>
<!-- &#45;17 -->
<g id="node17" class="node"><title>&#45;17</title>
<polygon fill="lightgray" stroke="black" points="643.5,-174.338 614.5,-174.338 614.5,-156.338 643.5,-156.338 643.5,-174.338"/>
<text text-anchor="middle" x="629" y="-163.138" font-family="Times,serif" font-size="9.00">&#45;17</text>
</g>
<!-- &#45;18 -->
<g id="node18" class="node"><title>&#45;18</title>
<polygon fill="lightgray" stroke="black" points="690.5,-174.338 661.5,-174.338 661.5,-156.338 690.5,-156.338 690.5,-174.338"/>
<text text-anchor="middle" x="676" y="-163.138" font-family="Times,serif" font-size="9.00">&#45;18</text>
</g>
<!-- &#45;19 -->
<g id="node19" class="node"><title>&#45;19</title>
<polygon fill="lightgray" stroke="black" points="737.5,-174.338 708.5,-174.338 708.5,-156.338 737.5,-156.338 737.5,-174.338"/>
<text text-anchor="middle" x="723" y="-163.138" font-family="Times,serif" font-size="9.00">&#45;19</text>
</g>
<!-- &#45;20 -->
<g id="node20" class="node"><title>&#45;20</title>
<polygon fill="lightgray" stroke="black" points="784.5,-174.338 755.5,-174.338 755.5,-156.338 784.5,-156.338 784.5,-174.338"/>
<text text-anchor="middle" x="770" y="-163.138" font-family="Times,serif" font-size="9.00">&#45;20</text>
</g>
<!-- &#45;21 -->
<g id="node21" class="node"><title>&#45;21</title>
<polygon fill="lightgray" stroke="black" points="831.5,-174.338 802.5,-174.338 802.5,-156.338 831.5,-156.338 831.5,-174.338"/>
<text text-anchor="middle" x="817" y="-163.138" font-family="Times,serif" font-size="9.00">&#45;21</text>
</g>
<!-- &#45;22 -->
<g id="node22" class="node"><title>&#45;22</title>
<polygon fill="lightgray" stroke="black" points="878.5,-174.338 849.5,-174.338 849.5,-156.338 878.5,-156.338 878.5,-174.338"/>
<text text-anchor="middle" x="864" y="-163.138" font-family="Times,serif" font-size="9.00">&#45;22</text>
</g>
<!-- &#45;23 -->
<g id="node23" class="node"><title>&#45;23</title>
<polygon fill="lightgray" stroke="black" points="925.5,-174.338 896.5,-174.338 896.5,-156.338 925.5,-156.338 925.5,-174.338"/>
<text text-anchor="middle" x="911" y="-163.138" font-family="Times,serif" font-size="9.00">&#45;23</text>
</g>
<!-- &#45;24 -->
<g id="node24" class="node"><title>&#45;24</title>
<polygon fill="lightgray" stroke="black" points="972.5,-174.338 943.5,-174.338 943.5,-156.338 972.5,-156.338 972.5,-174.338"/>
<text text-anchor="middle" x="958" y="-163.138" font-family="Times,serif" font-size="9.00">&#45;24</text>
</g>
<!-- 0 -->
<g id="node25" class="node"><title>0</title>
<ellipse fill="lightblue" stroke="black" cx="1005" cy="-165.338" rx="14.7" ry="14.7"/>
<text text-anchor="middle" x="1005" y="-163.138" font-family="Times,serif" font-size="9.00">0</text>
</g>
<!-- 1 -->
<g id="node26" class="node"><title>1</title>
<ellipse fill="lightblue" stroke="black" cx="1053" cy="-165.338" rx="14.7" ry="14.7"/>
<text text-anchor="middle" x="1053" y="-163.138" font-family="Times,serif" font-size="9.00">1</text>
</g>
<!-- 3 -->
<g id="node28" class="node"><title>3</title>
<ellipse fill="lightblue" stroke="black" cx="1101" cy="-165.338" rx="14.7" ry="14.7"/>
<text text-anchor="middle" x="1101" y="-163.138" font-family="Times,serif" font-size="9.00">3</text>
</g>
<!-- 760 -->
<g id="node29" class="node"><title>760</title>
<ellipse fill="white" stroke="black" cx="1155" cy="-165.338" rx="21.4286" ry="21.4286"/>
<text text-anchor="middle" x="1155" y="-163.138" font-family="Times,serif" font-size="9.00">760</text>
</g>
<!-- 377&#45;&gt;2 -->
<g id="edge1" class="edge"><title>377&#45;&gt;2</title>
<path fill="none" stroke="red" stroke-width="1.42839" d="M256.524,-69.6619C264.49,-59.3272 274.842,-45.8962 283.211,-35.0379"/>
<polygon fill="red" stroke="red" stroke-width="1.42839" points="286.081,-37.0467 289.414,-26.9896 280.537,-32.7734 286.081,-37.0467"/>
</g>
</g>
</svg>
