<?xml version="1.0" encoding="UTF-8" standalone="no"?>
<!DOCTYPE svg PUBLIC "-//W3C//DTD SVG 1.1//EN"
 "http://www.w3.org/Graphics/SVG/1.1/DTD/svg11.dtd">
<!-- Generated by graphviz version 2.38.0 (20140413.2041)
 -->
<!-- Title: %3 Pages: 1 -->
<svg width="1173pt" height="182pt"
 viewBox="0.00 0.00 1172.85 181.82" xmlns="http://www.w3.org/2000/svg" xmlns:xlink="http://www.w3.org/1999/xlink">
<g id="graph0" class="graph" transform="scale(1 1) rotate(0) translate(4 177.823)">
<title>%3</title>
<polygon fill="white" stroke="none" points="-4,4 -4,-177.823 1168.85,-177.823 1168.85,4 -4,4"/>
<!-- &#45;1 -->
<g id="node1" class="node"><title>&#45;1</title>
<polygon fill="lightgray" stroke="black" points="24,-167.974 0,-167.974 0,-149.974 24,-149.974 24,-167.974"/>
<text text-anchor="middle" x="12" y="-156.774" font-family="Times,serif" font-size="9.00">&#45;1</text>
</g>
<!-- &#45;2 -->
<g id="node2" class="node"><title>&#45;2</title>
<polygon fill="lightgray" stroke="black" points="66,-167.974 42,-167.974 42,-149.974 66,-149.974 66,-167.974"/>
<text text-anchor="middle" x="54" y="-156.774" font-family="Times,serif" font-size="9.00">&#45;2</text>
</g>
<!-- &#45;3 -->
<g id="node3" class="node"><title>&#45;3</title>
<polygon fill="lightgray" stroke="black" points="108,-167.974 84,-167.974 84,-149.974 108,-149.974 108,-167.974"/>
<text text-anchor="middle" x="96" y="-156.774" font-family="Times,serif" font-size="9.00">&#45;3</text>
</g>
<!-- &#45;4 -->
<g id="node4" class="node"><title>&#45;4</title>
<polygon fill="lightgray" stroke="black" points="150,-167.974 126,-167.974 126,-149.974 150,-149.974 150,-167.974"/>
<text text-anchor="middle" x="138" y="-156.774" font-family="Times,serif" font-size="9.00">&#45;4</text>
</g>
<!-- &#45;5 -->
<g id="node5" class="node"><title>&#45;5</title>
<polygon fill="lightgray" stroke="black" points="192,-167.974 168,-167.974 168,-149.974 192,-149.974 192,-167.974"/>
<text text-anchor="middle" x="180" y="-156.774" font-family="Times,serif" font-size="9.00">&#45;5</text>
</g>
<!-- &#45;6 -->
<g id="node6" class="node"><title>&#45;6</title>
<polygon fill="lightgray" stroke="black" points="234,-167.974 210,-167.974 210,-149.974 234,-149.974 234,-167.974"/>
<text text-anchor="middle" x="222" y="-156.774" font-family="Times,serif" font-size="9.00">&#45;6</text>
</g>
<!-- 377 -->
<g id="node29" class="node"><title>377</title>
<ellipse fill="white" stroke="black" cx="222" cy="-86.9117" rx="21.4286" ry="21.4286"/>
<text text-anchor="middle" x="222" y="-84.7117" font-family="Times,serif" font-size="9.00">377</text>
</g>
<!-- &#45;6&#45;&gt;377 -->
<g id="edge4" class="edge"><title>&#45;6&#45;&gt;377</title>
<path fill="none" stroke="red" stroke-width="0.525918" d="M222,-149.937C222,-142.232 222,-130.105 222,-118.61"/>
<polygon fill="red" stroke="red" stroke-width="0.525918" points="225.5,-118.377 222,-108.377 218.5,-118.377 225.5,-118.377"/>
</g>
<!-- &#45;7 -->
<g id="node7" class="node"><title>&#45;7</title>
<polygon fill="lightgray" stroke="black" points="326,-167.974 302,-167.974 302,-149.974 326,-149.974 326,-167.974"/>
<text text-anchor="middle" x="314" y="-156.774" font-family="Times,serif" font-size="9.00">&#45;7</text>
</g>
<!-- &#45;8 -->
<g id="node8" class="node"><title>&#45;8</title>
<polygon fill="lightgray" stroke="black" points="368,-167.974 344,-167.974 344,-149.974 368,-149.974 368,-167.974"/>
<text text-anchor="middle" x="356" y="-156.774" font-family="Times,serif" font-size="9.00">&#45;8</text>
</g>
<!-- &#45;9 -->
<g id="node9" class="node"><title>&#45;9</title>
<polygon fill="lightgray" stroke="black" points="410,-167.974 386,-167.974 386,-149.974 410,-149.974 410,-167.974"/>
<text text-anchor="middle" x="398" y="-156.774" font-family="Times,serif" font-size="9.00">&#45;9</text>
</g>
<!-- &#45;10 -->
<g id="node10" class="node"><title>&#45;10</title>
<polygon fill="lightgray" stroke="black" points="283.5,-167.974 254.5,-167.974 254.5,-149.974 283.5,-149.974 283.5,-167.974"/>
<text text-anchor="middle" x="269" y="-156.774" font-family="Times,serif" font-size="9.00">&#45;10</text>
</g>
<!-- 2 -->
<g id="node27" class="node"><title>2</title>
<ellipse fill="lightblue" stroke="black" cx="271" cy="-14.8492" rx="14.7" ry="14.7"/>
<text text-anchor="middle" x="271" y="-12.6492" font-family="Times,serif" font-size="9.00">2</text>
</g>
<!-- &#45;10&#45;&gt;2 -->
<g id="edge2" class="edge"><title>&#45;10&#45;&gt;2</title>
<path fill="none" stroke="red" stroke-width="0.171514" d="M269.113,-149.926C269.407,-129.034 270.204,-72.4358 270.662,-39.8431"/>
<polygon fill="red" stroke="red" stroke-width="0.171514" points="274.163,-39.8448 270.804,-29.7965 267.163,-39.7462 274.163,-39.8448"/>
</g>
<!-- &#45;10&#45;&gt;377 -->
<g id="edge1" class="edge"><title>&#45;10&#45;&gt;377</title>
<path fill="none" stroke="green" stroke-width="0.491497" d="M263.609,-149.937C257.653,-141.059 247.76,-126.312 239.115,-113.424"/>
<polygon fill="green" stroke="green" stroke-width="0.491497" points="241.87,-111.249 233.392,-104.894 236.057,-115.149 241.87,-111.249"/>
</g>
<!-- &#45;11 -->
<g id="node11" class="node"><title>&#45;11</title>
<polygon fill="lightgray" stroke="black" points="457.5,-167.974 428.5,-167.974 428.5,-149.974 457.5,-149.974 457.5,-167.974"/>
<text text-anchor="middle" x="443" y="-156.774" font-family="Times,serif" font-size="9.00">&#45;11</text>
</g>
<!-- &#45;12 -->
<g id="node12" class="node"><title>&#45;12</title>
<polygon fill="lightgray" stroke="black" points="504.5,-167.974 475.5,-167.974 475.5,-149.974 504.5,-149.974 504.5,-167.974"/>
<text text-anchor="middle" x="490" y="-156.774" font-family="Times,serif" font-size="9.00">&#45;12</text>
</g>
<!-- &#45;13 -->
<g id="node13" class="node"><title>&#45;13</title>
<polygon fill="lightgray" stroke="black" points="551.5,-167.974 522.5,-167.974 522.5,-149.974 551.5,-149.974 551.5,-167.974"/>
<text text-anchor="middle" x="537" y="-156.774" font-family="Times,serif" font-size="9.00">&#45;13</text>
</g>
<!-- &#45;14 -->
<g id="node14" class="node"><title>&#45;14</title>
<polygon fill="lightgray" stroke="black" points="598.5,-167.974 569.5,-167.974 569.5,-149.974 598.5,-149.974 598.5,-167.974"/>
<text text-anchor="middle" x="584" y="-156.774" font-family="Times,serif" font-size="9.00">&#45;14</text>
</g>
<!-- &#45;15 -->
<g id="node15" class="node"><title>&#45;15</title>
<polygon fill="lightgray" stroke="black" points="645.5,-167.974 616.5,-167.974 616.5,-149.974 645.5,-149.974 645.5,-167.974"/>
<text text-anchor="middle" x="631" y="-156.774" font-family="Times,serif" font-size="9.00">&#45;15</text>
</g>
<!-- &#45;16 -->
<g id="node16" class="node"><title>&#45;16</title>
<polygon fill="lightgray" stroke="black" points="692.5,-167.974 663.5,-167.974 663.5,-149.974 692.5,-149.974 692.5,-167.974"/>
<text text-anchor="middle" x="678" y="-156.774" font-family="Times,serif" font-size="9.00">&#45;16</text>
</g>
<!-- &#45;17 -->
<g id="node17" class="node"><title>&#45;17</title>
<polygon fill="lightgray" stroke="black" points="739.5,-167.974 710.5,-167.974 710.5,-149.974 739.5,-149.974 739.5,-167.974"/>
<text text-anchor="middle" x="725" y="-156.774" font-family="Times,serif" font-size="9.00">&#45;17</text>
</g>
<!-- &#45;18 -->
<g id="node18" class="node"><title>&#45;18</title>
<polygon fill="lightgray" stroke="black" points="786.5,-167.974 757.5,-167.974 757.5,-149.974 786.5,-149.974 786.5,-167.974"/>
<text text-anchor="middle" x="772" y="-156.774" font-family="Times,serif" font-size="9.00">&#45;18</text>
</g>
<!-- &#45;19 -->
<g id="node19" class="node"><title>&#45;19</title>
<polygon fill="lightgray" stroke="black" points="833.5,-167.974 804.5,-167.974 804.5,-149.974 833.5,-149.974 833.5,-167.974"/>
<text text-anchor="middle" x="819" y="-156.774" font-family="Times,serif" font-size="9.00">&#45;19</text>
</g>
<!-- &#45;20 -->
<g id="node20" class="node"><title>&#45;20</title>
<polygon fill="lightgray" stroke="black" points="880.5,-167.974 851.5,-167.974 851.5,-149.974 880.5,-149.974 880.5,-167.974"/>
<text text-anchor="middle" x="866" y="-156.774" font-family="Times,serif" font-size="9.00">&#45;20</text>
</g>
<!-- &#45;21 -->
<g id="node21" class="node"><title>&#45;21</title>
<polygon fill="lightgray" stroke="black" points="927.5,-167.974 898.5,-167.974 898.5,-149.974 927.5,-149.974 927.5,-167.974"/>
<text text-anchor="middle" x="913" y="-156.774" font-family="Times,serif" font-size="9.00">&#45;21</text>
</g>
<!-- &#45;22 -->
<g id="node22" class="node"><title>&#45;22</title>
<polygon fill="lightgray" stroke="black" points="328.5,-95.9117 299.5,-95.9117 299.5,-77.9117 328.5,-77.9117 328.5,-95.9117"/>
<text text-anchor="middle" x="314" y="-84.7117" font-family="Times,serif" font-size="9.00">&#45;22</text>
</g>
<!-- &#45;22&#45;&gt;2 -->
<g id="edge5" class="edge"><title>&#45;22&#45;&gt;2</title>
<path fill="none" stroke="green" stroke-width="0.167778" stroke-dasharray="1,5" d="M309.067,-77.8746C302.973,-67.9452 292.373,-50.6741 283.904,-36.8744"/>
<polygon fill="green" stroke="green" stroke-width="0.167778" points="286.676,-34.7002 278.462,-28.0082 280.71,-38.3618 286.676,-34.7002"/>
</g>
<!-- &#45;23 -->
<g id="node23" class="node"><title>&#45;23</title>
<polygon fill="lightgray" stroke="black" points="974.5,-167.974 945.5,-167.974 945.5,-149.974 974.5,-149.974 974.5,-167.974"/>
<text text-anchor="middle" x="960" y="-156.774" font-family="Times,serif" font-size="9.00">&#45;23</text>
</g>
<!-- &#45;24 -->
<g id="node24" class="node"><title>&#45;24</title>
<polygon fill="lightgray" stroke="black" points="1021.5,-167.974 992.5,-167.974 992.5,-149.974 1021.5,-149.974 1021.5,-167.974"/>
<text text-anchor="middle" x="1007" y="-156.774" font-family="Times,serif" font-size="9.00">&#45;24</text>
</g>
<!-- 0 -->
<g id="node25" class="node"><title>0</title>
<ellipse fill="lightblue" stroke="black" cx="1054" cy="-158.974" rx="14.7" ry="14.7"/>
<text text-anchor="middle" x="1054" y="-156.774" font-family="Times,serif" font-size="9.00">0</text>
</g>
<!-- 1 -->
<g id="node26" class="node"><title>1</title>
<ellipse fill="lightblue" stroke="black" cx="1102" cy="-158.974" rx="14.7" ry="14.7"/>
<text text-anchor="middle" x="1102" y="-156.774" font-family="Times,serif" font-size="9.00">1</text>
</g>
<!-- 3 -->
<g id="node28" class="node"><title>3</title>
<ellipse fill="lightblue" stroke="black" cx="1150" cy="-158.974" rx="14.7" ry="14.7"/>
<text text-anchor="middle" x="1150" y="-156.774" font-family="Times,serif" font-size="9.00">3</text>
</g>
<!-- 377&#45;&gt;2 -->
<g id="edge3" class="edge"><title>377&#45;&gt;2</title>
<path fill="none" stroke="red" stroke-width="1.45953" d="M233.862,-68.9515C240.784,-59.0535 249.56,-46.5049 256.843,-36.0917"/>
<polygon fill="red" stroke="red" stroke-width="1.45953" points="259.911,-37.8113 262.774,-27.6107 254.175,-33.7995 259.911,-37.8113"/>
</g>
</g>
</svg>
