<?xml version="1.0" encoding="UTF-8" standalone="no"?>
<!DOCTYPE svg PUBLIC "-//W3C//DTD SVG 1.1//EN"
 "http://www.w3.org/Graphics/SVG/1.1/DTD/svg11.dtd">
<!-- Generated by graphviz version 2.38.0 (20140413.2041)
 -->
<!-- Title: %3 Pages: 1 -->
<svg width="1170pt" height="260pt"
 viewBox="0.00 0.00 1169.85 260.25" xmlns="http://www.w3.org/2000/svg" xmlns:xlink="http://www.w3.org/1999/xlink">
<g id="graph0" class="graph" transform="scale(1 1) rotate(0) translate(4 256.25)">
<title>%3</title>
<polygon fill="white" stroke="none" points="-4,4 -4,-256.25 1165.85,-256.25 1165.85,4 -4,4"/>
<!-- &#45;1 -->
<g id="node1" class="node"><title>&#45;1</title>
<polygon fill="lightgray" stroke="black" points="24,-246.401 0,-246.401 0,-228.401 24,-228.401 24,-246.401"/>
<text text-anchor="middle" x="12" y="-235.201" font-family="Times,serif" font-size="9.00">&#45;1</text>
</g>
<!-- &#45;2 -->
<g id="node2" class="node"><title>&#45;2</title>
<polygon fill="lightgray" stroke="black" points="66,-246.401 42,-246.401 42,-228.401 66,-228.401 66,-246.401"/>
<text text-anchor="middle" x="54" y="-235.201" font-family="Times,serif" font-size="9.00">&#45;2</text>
</g>
<!-- &#45;3 -->
<g id="node3" class="node"><title>&#45;3</title>
<polygon fill="lightgray" stroke="black" points="108,-246.401 84,-246.401 84,-228.401 108,-228.401 108,-246.401"/>
<text text-anchor="middle" x="96" y="-235.201" font-family="Times,serif" font-size="9.00">&#45;3</text>
</g>
<!-- &#45;4 -->
<g id="node4" class="node"><title>&#45;4</title>
<polygon fill="lightgray" stroke="black" points="150,-246.401 126,-246.401 126,-228.401 150,-228.401 150,-246.401"/>
<text text-anchor="middle" x="138" y="-235.201" font-family="Times,serif" font-size="9.00">&#45;4</text>
</g>
<!-- &#45;5 -->
<g id="node5" class="node"><title>&#45;5</title>
<polygon fill="lightgray" stroke="black" points="192,-246.401 168,-246.401 168,-228.401 192,-228.401 192,-246.401"/>
<text text-anchor="middle" x="180" y="-235.201" font-family="Times,serif" font-size="9.00">&#45;5</text>
</g>
<!-- &#45;6 -->
<g id="node6" class="node"><title>&#45;6</title>
<polygon fill="lightgray" stroke="black" points="234,-246.401 210,-246.401 210,-228.401 234,-228.401 234,-246.401"/>
<text text-anchor="middle" x="222" y="-235.201" font-family="Times,serif" font-size="9.00">&#45;6</text>
</g>
<!-- 411 -->
<g id="node30" class="node"><title>411</title>
<ellipse fill="white" stroke="black" cx="243" cy="-165.338" rx="21.4286" ry="21.4286"/>
<text text-anchor="middle" x="243" y="-163.138" font-family="Times,serif" font-size="9.00">411</text>
</g>
<!-- &#45;6&#45;&gt;411 -->
<g id="edge4" class="edge"><title>&#45;6&#45;&gt;411</title>
<path fill="none" stroke="green" stroke-width="0.389199" d="M224.409,-228.363C226.816,-220.332 230.663,-207.498 234.234,-195.583"/>
<polygon fill="green" stroke="green" stroke-width="0.389199" points="237.613,-196.499 237.132,-185.916 230.908,-194.49 237.613,-196.499"/>
</g>
<!-- &#45;7 -->
<g id="node7" class="node"><title>&#45;7</title>
<polygon fill="lightgray" stroke="black" points="318,-246.401 294,-246.401 294,-228.401 318,-228.401 318,-246.401"/>
<text text-anchor="middle" x="306" y="-235.201" font-family="Times,serif" font-size="9.00">&#45;7</text>
</g>
<!-- &#45;8 -->
<g id="node8" class="node"><title>&#45;8</title>
<polygon fill="lightgray" stroke="black" points="276,-246.401 252,-246.401 252,-228.401 276,-228.401 276,-246.401"/>
<text text-anchor="middle" x="264" y="-235.201" font-family="Times,serif" font-size="9.00">&#45;8</text>
</g>
<!-- &#45;8&#45;&gt;411 -->
<g id="edge5" class="edge"><title>&#45;8&#45;&gt;411</title>
<path fill="none" stroke="green" stroke-width="0.328109" d="M261.591,-228.363C259.184,-220.332 255.337,-207.498 251.766,-195.583"/>
<polygon fill="green" stroke="green" stroke-width="0.328109" points="255.092,-194.49 248.868,-185.916 248.387,-196.499 255.092,-194.49"/>
</g>
<!-- &#45;9 -->
<g id="node9" class="node"><title>&#45;9</title>
<polygon fill="lightgray" stroke="black" points="360,-246.401 336,-246.401 336,-228.401 360,-228.401 360,-246.401"/>
<text text-anchor="middle" x="348" y="-235.201" font-family="Times,serif" font-size="9.00">&#45;9</text>
</g>
<!-- &#45;10 -->
<g id="node10" class="node"><title>&#45;10</title>
<polygon fill="lightgray" stroke="black" points="311.5,-174.338 282.5,-174.338 282.5,-156.338 311.5,-156.338 311.5,-174.338"/>
<text text-anchor="middle" x="297" y="-163.138" font-family="Times,serif" font-size="9.00">&#45;10</text>
</g>
<!-- 377 -->
<g id="node29" class="node"><title>377</title>
<ellipse fill="white" stroke="black" cx="270" cy="-86.9117" rx="21.4286" ry="21.4286"/>
<text text-anchor="middle" x="270" y="-84.7117" font-family="Times,serif" font-size="9.00">377</text>
</g>
<!-- &#45;10&#45;&gt;377 -->
<g id="edge2" class="edge"><title>&#45;10&#45;&gt;377</title>
<path fill="none" stroke="green" stroke-width="0.757764" d="M294.111,-156.159C290.805,-146.801 285.205,-130.952 280.234,-116.881"/>
<polygon fill="green" stroke="green" stroke-width="0.757764" points="283.399,-115.331 276.768,-107.068 276.799,-117.663 283.399,-115.331"/>
</g>
<!-- &#45;11 -->
<g id="node11" class="node"><title>&#45;11</title>
<polygon fill="lightgray" stroke="black" points="407.5,-246.401 378.5,-246.401 378.5,-228.401 407.5,-228.401 407.5,-246.401"/>
<text text-anchor="middle" x="393" y="-235.201" font-family="Times,serif" font-size="9.00">&#45;11</text>
</g>
<!-- &#45;12 -->
<g id="node12" class="node"><title>&#45;12</title>
<polygon fill="lightgray" stroke="black" points="454.5,-246.401 425.5,-246.401 425.5,-228.401 454.5,-228.401 454.5,-246.401"/>
<text text-anchor="middle" x="440" y="-235.201" font-family="Times,serif" font-size="9.00">&#45;12</text>
</g>
<!-- &#45;13 -->
<g id="node13" class="node"><title>&#45;13</title>
<polygon fill="lightgray" stroke="black" points="501.5,-246.401 472.5,-246.401 472.5,-228.401 501.5,-228.401 501.5,-246.401"/>
<text text-anchor="middle" x="487" y="-235.201" font-family="Times,serif" font-size="9.00">&#45;13</text>
</g>
<!-- &#45;14 -->
<g id="node14" class="node"><title>&#45;14</title>
<polygon fill="lightgray" stroke="black" points="548.5,-246.401 519.5,-246.401 519.5,-228.401 548.5,-228.401 548.5,-246.401"/>
<text text-anchor="middle" x="534" y="-235.201" font-family="Times,serif" font-size="9.00">&#45;14</text>
</g>
<!-- &#45;15 -->
<g id="node15" class="node"><title>&#45;15</title>
<polygon fill="lightgray" stroke="black" points="595.5,-246.401 566.5,-246.401 566.5,-228.401 595.5,-228.401 595.5,-246.401"/>
<text text-anchor="middle" x="581" y="-235.201" font-family="Times,serif" font-size="9.00">&#45;15</text>
</g>
<!-- &#45;16 -->
<g id="node16" class="node"><title>&#45;16</title>
<polygon fill="lightgray" stroke="black" points="642.5,-246.401 613.5,-246.401 613.5,-228.401 642.5,-228.401 642.5,-246.401"/>
<text text-anchor="middle" x="628" y="-235.201" font-family="Times,serif" font-size="9.00">&#45;16</text>
</g>
<!-- &#45;17 -->
<g id="node17" class="node"><title>&#45;17</title>
<polygon fill="lightgray" stroke="black" points="689.5,-246.401 660.5,-246.401 660.5,-228.401 689.5,-228.401 689.5,-246.401"/>
<text text-anchor="middle" x="675" y="-235.201" font-family="Times,serif" font-size="9.00">&#45;17</text>
</g>
<!-- &#45;18 -->
<g id="node18" class="node"><title>&#45;18</title>
<polygon fill="lightgray" stroke="black" points="736.5,-246.401 707.5,-246.401 707.5,-228.401 736.5,-228.401 736.5,-246.401"/>
<text text-anchor="middle" x="722" y="-235.201" font-family="Times,serif" font-size="9.00">&#45;18</text>
</g>
<!-- &#45;19 -->
<g id="node19" class="node"><title>&#45;19</title>
<polygon fill="lightgray" stroke="black" points="783.5,-246.401 754.5,-246.401 754.5,-228.401 783.5,-228.401 783.5,-246.401"/>
<text text-anchor="middle" x="769" y="-235.201" font-family="Times,serif" font-size="9.00">&#45;19</text>
</g>
<!-- &#45;20 -->
<g id="node20" class="node"><title>&#45;20</title>
<polygon fill="lightgray" stroke="black" points="830.5,-246.401 801.5,-246.401 801.5,-228.401 830.5,-228.401 830.5,-246.401"/>
<text text-anchor="middle" x="816" y="-235.201" font-family="Times,serif" font-size="9.00">&#45;20</text>
</g>
<!-- &#45;21 -->
<g id="node21" class="node"><title>&#45;21</title>
<polygon fill="lightgray" stroke="black" points="877.5,-246.401 848.5,-246.401 848.5,-228.401 877.5,-228.401 877.5,-246.401"/>
<text text-anchor="middle" x="863" y="-235.201" font-family="Times,serif" font-size="9.00">&#45;21</text>
</g>
<!-- &#45;22 -->
<g id="node22" class="node"><title>&#45;22</title>
<polygon fill="lightgray" stroke="black" points="924.5,-246.401 895.5,-246.401 895.5,-228.401 924.5,-228.401 924.5,-246.401"/>
<text text-anchor="middle" x="910" y="-235.201" font-family="Times,serif" font-size="9.00">&#45;22</text>
</g>
<!-- &#45;23 -->
<g id="node23" class="node"><title>&#45;23</title>
<polygon fill="lightgray" stroke="black" points="971.5,-246.401 942.5,-246.401 942.5,-228.401 971.5,-228.401 971.5,-246.401"/>
<text text-anchor="middle" x="957" y="-235.201" font-family="Times,serif" font-size="9.00">&#45;23</text>
</g>
<!-- &#45;24 -->
<g id="node24" class="node"><title>&#45;24</title>
<polygon fill="lightgray" stroke="black" points="1018.5,-246.401 989.5,-246.401 989.5,-228.401 1018.5,-228.401 1018.5,-246.401"/>
<text text-anchor="middle" x="1004" y="-235.201" font-family="Times,serif" font-size="9.00">&#45;24</text>
</g>
<!-- 0 -->
<g id="node25" class="node"><title>0</title>
<ellipse fill="lightblue" stroke="black" cx="1051" cy="-237.401" rx="14.7" ry="14.7"/>
<text text-anchor="middle" x="1051" y="-235.201" font-family="Times,serif" font-size="9.00">0</text>
</g>
<!-- 1 -->
<g id="node26" class="node"><title>1</title>
<ellipse fill="lightblue" stroke="black" cx="1099" cy="-237.401" rx="14.7" ry="14.7"/>
<text text-anchor="middle" x="1099" y="-235.201" font-family="Times,serif" font-size="9.00">1</text>
</g>
<!-- 2 -->
<g id="node27" class="node"><title>2</title>
<ellipse fill="lightblue" stroke="black" cx="270" cy="-14.8492" rx="14.7" ry="14.7"/>
<text text-anchor="middle" x="270" y="-12.6492" font-family="Times,serif" font-size="9.00">2</text>
</g>
<!-- 3 -->
<g id="node28" class="node"><title>3</title>
<ellipse fill="lightblue" stroke="black" cx="1147" cy="-237.401" rx="14.7" ry="14.7"/>
<text text-anchor="middle" x="1147" y="-235.201" font-family="Times,serif" font-size="9.00">3</text>
</g>
<!-- 377&#45;&gt;2 -->
<g id="edge1" class="edge"><title>377&#45;&gt;2</title>
<path fill="none" stroke="red" stroke-width="1.41635" d="M270,-65.6467C270,-57.6662 270,-48.4341 270,-40.1031"/>
<polygon fill="red" stroke="red" stroke-width="1.41635" points="273.5,-39.8511 270,-29.8512 266.5,-39.8512 273.5,-39.8511"/>
</g>
<!-- 411&#45;&gt;377 -->
<g id="edge3" class="edge"><title>411&#45;&gt;377</title>
<path fill="none" stroke="red" stroke-width="0.236631" d="M249.813,-145.052C252.851,-136.454 256.493,-126.144 259.842,-116.664"/>
<polygon fill="red" stroke="red" stroke-width="0.236631" points="263.158,-117.786 263.189,-107.191 256.558,-115.454 263.158,-117.786"/>
</g>
</g>
</svg>
