<?xml version="1.0" encoding="UTF-8" standalone="no"?>
<!DOCTYPE svg PUBLIC "-//W3C//DTD SVG 1.1//EN"
 "http://www.w3.org/Graphics/SVG/1.1/DTD/svg11.dtd">
<!-- Generated by graphviz version 2.38.0 (20140413.2041)
 -->
<!-- Title: %3 Pages: 1 -->
<svg width="1231pt" height="245pt"
 viewBox="0.00 0.00 1230.79 245.46" xmlns="http://www.w3.org/2000/svg" xmlns:xlink="http://www.w3.org/1999/xlink">
<g id="graph0" class="graph" transform="scale(1 1) rotate(0) translate(4 241.463)">
<title>%3</title>
<polygon fill="white" stroke="none" points="-4,4 -4,-241.463 1226.79,-241.463 1226.79,4 -4,4"/>
<!-- &#45;1 -->
<g id="node1" class="node"><title>&#45;1</title>
<polygon fill="lightgray" stroke="black" points="39.5772,-218.886 15.5772,-218.886 15.5772,-200.886 39.5772,-200.886 39.5772,-218.886"/>
<text text-anchor="middle" x="27.5772" y="-207.686" font-family="Times,serif" font-size="9.00">&#45;1</text>
</g>
<!-- 50080 -->
<g id="node29" class="node"><title>50080</title>
<ellipse fill="white" stroke="black" cx="27.5772" cy="-118.731" rx="27.6545" ry="27.6545"/>
<text text-anchor="middle" x="27.5772" y="-116.531" font-family="Times,serif" font-size="9.00">50080</text>
</g>
<!-- &#45;1&#45;&gt;50080 -->
<g id="edge3" class="edge"><title>&#45;1&#45;&gt;50080</title>
<path fill="none" stroke="green" stroke-width="0.244569" d="M27.5772,-200.658C27.5772,-190.686 27.5772,-173.205 27.5772,-157.036"/>
<polygon fill="green" stroke="green" stroke-width="0.244569" points="31.0773,-156.692 27.5772,-146.692 24.0773,-156.692 31.0773,-156.692"/>
</g>
<!-- &#45;2 -->
<g id="node2" class="node"><title>&#45;2</title>
<polygon fill="lightgray" stroke="black" points="81.5772,-218.886 57.5772,-218.886 57.5772,-200.886 81.5772,-200.886 81.5772,-218.886"/>
<text text-anchor="middle" x="69.5772" y="-207.686" font-family="Times,serif" font-size="9.00">&#45;2</text>
</g>
<!-- &#45;3 -->
<g id="node3" class="node"><title>&#45;3</title>
<polygon fill="lightgray" stroke="black" points="123.577,-218.886 99.5772,-218.886 99.5772,-200.886 123.577,-200.886 123.577,-218.886"/>
<text text-anchor="middle" x="111.577" y="-207.686" font-family="Times,serif" font-size="9.00">&#45;3</text>
</g>
<!-- 3 -->
<g id="node28" class="node"><title>3</title>
<ellipse fill="lightblue" stroke="black" cx="140.577" cy="-118.731" rx="14.7" ry="14.7"/>
<text text-anchor="middle" x="140.577" y="-116.531" font-family="Times,serif" font-size="9.00">3</text>
</g>
<!-- &#45;3&#45;&gt;3 -->
<g id="edge4" class="edge"><title>&#45;3&#45;&gt;3</title>
<path fill="none" stroke="red" stroke-width="1.58973" stroke-dasharray="1,5" d="M114.253,-200.658C118.489,-187.637 126.889,-161.813 133.066,-142.824"/>
<polygon fill="red" stroke="red" stroke-width="1.58973" points="136.463,-143.695 136.228,-133.103 129.806,-141.53 136.463,-143.695"/>
</g>
<!-- &#45;4 -->
<g id="node4" class="node"><title>&#45;4</title>
<polygon fill="lightgray" stroke="black" points="239.577,-218.886 215.577,-218.886 215.577,-200.886 239.577,-200.886 239.577,-218.886"/>
<text text-anchor="middle" x="227.577" y="-207.686" font-family="Times,serif" font-size="9.00">&#45;4</text>
</g>
<!-- &#45;5 -->
<g id="node5" class="node"><title>&#45;5</title>
<polygon fill="lightgray" stroke="black" points="281.577,-218.886 257.577,-218.886 257.577,-200.886 281.577,-200.886 281.577,-218.886"/>
<text text-anchor="middle" x="269.577" y="-207.686" font-family="Times,serif" font-size="9.00">&#45;5</text>
</g>
<!-- &#45;6 -->
<g id="node6" class="node"><title>&#45;6</title>
<polygon fill="lightgray" stroke="black" points="323.577,-218.886 299.577,-218.886 299.577,-200.886 323.577,-200.886 323.577,-218.886"/>
<text text-anchor="middle" x="311.577" y="-207.686" font-family="Times,serif" font-size="9.00">&#45;6</text>
</g>
<!-- &#45;7 -->
<g id="node7" class="node"><title>&#45;7</title>
<polygon fill="lightgray" stroke="black" points="310.577,-127.731 286.577,-127.731 286.577,-109.731 310.577,-109.731 310.577,-127.731"/>
<text text-anchor="middle" x="298.577" y="-116.531" font-family="Times,serif" font-size="9.00">&#45;7</text>
</g>
<!-- 2 -->
<g id="node27" class="node"><title>2</title>
<ellipse fill="lightblue" stroke="black" cx="356.577" cy="-27.5772" rx="14.7" ry="14.7"/>
<text text-anchor="middle" x="356.577" y="-25.3772" font-family="Times,serif" font-size="9.00">2</text>
</g>
<!-- &#45;7&#45;&gt;2 -->
<g id="edge5" class="edge"><title>&#45;7&#45;&gt;2</title>
<path fill="none" stroke="green" stroke-width="0.178557" d="M303.93,-109.504C312.799,-95.8712 330.797,-68.2042 343.264,-49.0415"/>
<polygon fill="green" stroke="green" stroke-width="0.178557" points="346.356,-50.7071 348.875,-40.4162 340.488,-46.8899 346.356,-50.7071"/>
</g>
<!-- &#45;8 -->
<g id="node8" class="node"><title>&#45;8</title>
<polygon fill="lightgray" stroke="black" points="413.577,-218.886 389.577,-218.886 389.577,-200.886 413.577,-200.886 413.577,-218.886"/>
<text text-anchor="middle" x="401.577" y="-207.686" font-family="Times,serif" font-size="9.00">&#45;8</text>
</g>
<!-- &#45;9 -->
<g id="node9" class="node"><title>&#45;9</title>
<polygon fill="lightgray" stroke="black" points="455.577,-218.886 431.577,-218.886 431.577,-200.886 455.577,-200.886 455.577,-218.886"/>
<text text-anchor="middle" x="443.577" y="-207.686" font-family="Times,serif" font-size="9.00">&#45;9</text>
</g>
<!-- &#45;10 -->
<g id="node10" class="node"><title>&#45;10</title>
<polygon fill="lightgray" stroke="black" points="431.077,-127.731 402.077,-127.731 402.077,-109.731 431.077,-109.731 431.077,-127.731"/>
<text text-anchor="middle" x="416.577" y="-116.531" font-family="Times,serif" font-size="9.00">&#45;10</text>
</g>
<!-- &#45;10&#45;&gt;2 -->
<g id="edge1" class="edge"><title>&#45;10&#45;&gt;2</title>
<path fill="none" stroke="red" stroke-width="0.642105" d="M411.04,-109.504C401.824,-95.8092 383.076,-67.9524 370.174,-48.7807"/>
<polygon fill="red" stroke="red" stroke-width="0.642105" points="373.032,-46.7582 364.545,-40.4162 367.224,-50.6666 373.032,-46.7582"/>
</g>
<!-- 50170 -->
<g id="node33" class="node"><title>50170</title>
<ellipse fill="white" stroke="black" cx="446.577" cy="-27.5772" rx="27.6545" ry="27.6545"/>
<text text-anchor="middle" x="446.577" y="-25.3772" font-family="Times,serif" font-size="9.00">50170</text>
</g>
<!-- &#45;10&#45;&gt;50170 -->
<g id="edge8" class="edge"><title>&#45;10&#45;&gt;50170</title>
<path fill="none" stroke="red" stroke-width="0.177655" d="M419.346,-109.504C422.862,-99.0537 429.153,-80.357 434.804,-63.5657"/>
<polygon fill="red" stroke="red" stroke-width="0.177655" points="438.158,-64.5702 438.031,-53.9761 431.524,-62.3377 438.158,-64.5702"/>
</g>
<!-- &#45;11 -->
<g id="node11" class="node"><title>&#45;11</title>
<polygon fill="lightgray" stroke="black" points="503.077,-218.886 474.077,-218.886 474.077,-200.886 503.077,-200.886 503.077,-218.886"/>
<text text-anchor="middle" x="488.577" y="-207.686" font-family="Times,serif" font-size="9.00">&#45;11</text>
</g>
<!-- &#45;12 -->
<g id="node12" class="node"><title>&#45;12</title>
<polygon fill="lightgray" stroke="black" points="550.077,-218.886 521.077,-218.886 521.077,-200.886 550.077,-200.886 550.077,-218.886"/>
<text text-anchor="middle" x="535.577" y="-207.686" font-family="Times,serif" font-size="9.00">&#45;12</text>
</g>
<!-- &#45;13 -->
<g id="node13" class="node"><title>&#45;13</title>
<polygon fill="lightgray" stroke="black" points="597.077,-218.886 568.077,-218.886 568.077,-200.886 597.077,-200.886 597.077,-218.886"/>
<text text-anchor="middle" x="582.577" y="-207.686" font-family="Times,serif" font-size="9.00">&#45;13</text>
</g>
<!-- &#45;14 -->
<g id="node14" class="node"><title>&#45;14</title>
<polygon fill="lightgray" stroke="black" points="371.077,-218.886 342.077,-218.886 342.077,-200.886 371.077,-200.886 371.077,-218.886"/>
<text text-anchor="middle" x="356.577" y="-207.686" font-family="Times,serif" font-size="9.00">&#45;14</text>
</g>
<!-- 49598 -->
<g id="node34" class="node"><title>49598</title>
<ellipse fill="white" stroke="black" cx="356.577" cy="-118.731" rx="27.6545" ry="27.6545"/>
<text text-anchor="middle" x="356.577" y="-116.531" font-family="Times,serif" font-size="9.00">49598</text>
</g>
<!-- &#45;14&#45;&gt;49598 -->
<g id="edge9" class="edge"><title>&#45;14&#45;&gt;49598</title>
<path fill="none" stroke="red" stroke-width="0.27175" d="M356.577,-200.658C356.577,-190.686 356.577,-173.205 356.577,-157.036"/>
<polygon fill="red" stroke="red" stroke-width="0.27175" points="360.077,-156.692 356.577,-146.692 353.077,-156.692 360.077,-156.692"/>
</g>
<!-- &#45;15 -->
<g id="node15" class="node"><title>&#45;15</title>
<polygon fill="lightgray" stroke="black" points="644.077,-218.886 615.077,-218.886 615.077,-200.886 644.077,-200.886 644.077,-218.886"/>
<text text-anchor="middle" x="629.577" y="-207.686" font-family="Times,serif" font-size="9.00">&#45;15</text>
</g>
<!-- &#45;16 -->
<g id="node16" class="node"><title>&#45;16</title>
<polygon fill="lightgray" stroke="black" points="691.077,-218.886 662.077,-218.886 662.077,-200.886 691.077,-200.886 691.077,-218.886"/>
<text text-anchor="middle" x="676.577" y="-207.686" font-family="Times,serif" font-size="9.00">&#45;16</text>
</g>
<!-- &#45;17 -->
<g id="node17" class="node"><title>&#45;17</title>
<polygon fill="lightgray" stroke="black" points="738.077,-218.886 709.077,-218.886 709.077,-200.886 738.077,-200.886 738.077,-218.886"/>
<text text-anchor="middle" x="723.577" y="-207.686" font-family="Times,serif" font-size="9.00">&#45;17</text>
</g>
<!-- &#45;18 -->
<g id="node18" class="node"><title>&#45;18</title>
<polygon fill="lightgray" stroke="black" points="785.077,-218.886 756.077,-218.886 756.077,-200.886 785.077,-200.886 785.077,-218.886"/>
<text text-anchor="middle" x="770.577" y="-207.686" font-family="Times,serif" font-size="9.00">&#45;18</text>
</g>
<!-- &#45;19 -->
<g id="node19" class="node"><title>&#45;19</title>
<polygon fill="lightgray" stroke="black" points="832.077,-218.886 803.077,-218.886 803.077,-200.886 832.077,-200.886 832.077,-218.886"/>
<text text-anchor="middle" x="817.577" y="-207.686" font-family="Times,serif" font-size="9.00">&#45;19</text>
</g>
<!-- &#45;20 -->
<g id="node20" class="node"><title>&#45;20</title>
<polygon fill="lightgray" stroke="black" points="879.077,-218.886 850.077,-218.886 850.077,-200.886 879.077,-200.886 879.077,-218.886"/>
<text text-anchor="middle" x="864.577" y="-207.686" font-family="Times,serif" font-size="9.00">&#45;20</text>
</g>
<!-- &#45;21 -->
<g id="node21" class="node"><title>&#45;21</title>
<polygon fill="lightgray" stroke="black" points="926.077,-218.886 897.077,-218.886 897.077,-200.886 926.077,-200.886 926.077,-218.886"/>
<text text-anchor="middle" x="911.577" y="-207.686" font-family="Times,serif" font-size="9.00">&#45;21</text>
</g>
<!-- &#45;22 -->
<g id="node22" class="node"><title>&#45;22</title>
<polygon fill="lightgray" stroke="black" points="973.077,-218.886 944.077,-218.886 944.077,-200.886 973.077,-200.886 973.077,-218.886"/>
<text text-anchor="middle" x="958.577" y="-207.686" font-family="Times,serif" font-size="9.00">&#45;22</text>
</g>
<!-- &#45;23 -->
<g id="node23" class="node"><title>&#45;23</title>
<polygon fill="lightgray" stroke="black" points="1020.08,-218.886 991.077,-218.886 991.077,-200.886 1020.08,-200.886 1020.08,-218.886"/>
<text text-anchor="middle" x="1005.58" y="-207.686" font-family="Times,serif" font-size="9.00">&#45;23</text>
</g>
<!-- &#45;24 -->
<g id="node24" class="node"><title>&#45;24</title>
<polygon fill="lightgray" stroke="black" points="1067.08,-218.886 1038.08,-218.886 1038.08,-200.886 1067.08,-200.886 1067.08,-218.886"/>
<text text-anchor="middle" x="1052.58" y="-207.686" font-family="Times,serif" font-size="9.00">&#45;24</text>
</g>
<!-- 0 -->
<g id="node25" class="node"><title>0</title>
<ellipse fill="lightblue" stroke="black" cx="1099.58" cy="-209.886" rx="14.7" ry="14.7"/>
<text text-anchor="middle" x="1099.58" y="-207.686" font-family="Times,serif" font-size="9.00">0</text>
</g>
<!-- 1 -->
<g id="node26" class="node"><title>1</title>
<ellipse fill="lightblue" stroke="black" cx="1147.58" cy="-209.886" rx="14.7" ry="14.7"/>
<text text-anchor="middle" x="1147.58" y="-207.686" font-family="Times,serif" font-size="9.00">1</text>
</g>
<!-- 47490 -->
<g id="node30" class="node"><title>47490</title>
<ellipse fill="white" stroke="black" cx="169.577" cy="-209.886" rx="27.6545" ry="27.6545"/>
<text text-anchor="middle" x="169.577" y="-207.686" font-family="Times,serif" font-size="9.00">47490</text>
</g>
<!-- 47490&#45;&gt;3 -->
<g id="edge2" class="edge"><title>47490&#45;&gt;3</title>
<path fill="none" stroke="red" stroke-width="0.208281" stroke-dasharray="1,5" d="M161.189,-183.099C157.033,-170.322 152.057,-155.025 148.036,-142.662"/>
<polygon fill="red" stroke="red" stroke-width="0.208281" points="151.343,-141.513 144.921,-133.086 144.686,-143.679 151.343,-141.513"/>
</g>
<!-- 44652 -->
<g id="node31" class="node"><title>44652</title>
<ellipse fill="white" stroke="black" cx="476.577" cy="-118.731" rx="27.6545" ry="27.6545"/>
<text text-anchor="middle" x="476.577" y="-116.531" font-family="Times,serif" font-size="9.00">44652</text>
</g>
<!-- 44652&#45;&gt;50170 -->
<g id="edge6" class="edge"><title>44652&#45;&gt;50170</title>
<path fill="none" stroke="green" stroke-width="0.738099" d="M468.061,-92.4219C465.052,-83.4812 461.613,-73.2601 458.381,-63.6558"/>
<polygon fill="green" stroke="green" stroke-width="0.738099" points="461.622,-62.3116 455.115,-53.95 454.987,-64.5441 461.622,-62.3116"/>
</g>
<!-- 377 -->
<g id="node32" class="node"><title>377</title>
<ellipse fill="white" stroke="black" cx="1201.58" cy="-209.886" rx="21.4286" ry="21.4286"/>
<text text-anchor="middle" x="1201.58" y="-207.686" font-family="Times,serif" font-size="9.00">377</text>
</g>
<!-- 49598&#45;&gt;2 -->
<g id="edge7" class="edge"><title>49598&#45;&gt;2</title>
<path fill="none" stroke="green" stroke-width="0.299458" d="M356.577,-90.9823C356.577,-78.8087 356.577,-64.5113 356.577,-52.6751"/>
<polygon fill="green" stroke="green" stroke-width="0.299458" points="360.077,-52.6286 356.577,-42.6286 353.077,-52.6287 360.077,-52.6286"/>
</g>
</g>
</svg>
