<?xml version="1.0" encoding="UTF-8" standalone="no"?>
<!DOCTYPE svg PUBLIC "-//W3C//DTD SVG 1.1//EN"
 "http://www.w3.org/Graphics/SVG/1.1/DTD/svg11.dtd">
<!-- Generated by graphviz version 2.38.0 (20140413.2041)
 -->
<!-- Title: %3 Pages: 1 -->
<svg width="1202pt" height="390pt"
 viewBox="0.00 0.00 1201.58 389.59" xmlns="http://www.w3.org/2000/svg" xmlns:xlink="http://www.w3.org/1999/xlink">
<g id="graph0" class="graph" transform="scale(1 1) rotate(0) translate(4 385.588)">
<title>%3</title>
<polygon fill="white" stroke="none" points="-4,4 -4,-385.588 1197.58,-385.588 1197.58,4 -4,4"/>
<!-- &#45;1 -->
<g id="node1" class="node"><title>&#45;1</title>
<polygon fill="lightgray" stroke="black" points="24,-271.856 0,-271.856 0,-253.856 24,-253.856 24,-271.856"/>
<text text-anchor="middle" x="12" y="-260.656" font-family="Times,serif" font-size="9.00">&#45;1</text>
</g>
<!-- 44652 -->
<g id="node31" class="node"><title>44652</title>
<ellipse fill="white" stroke="black" cx="41" cy="-171.702" rx="27.6545" ry="27.6545"/>
<text text-anchor="middle" x="41" y="-169.502" font-family="Times,serif" font-size="9.00">44652</text>
</g>
<!-- &#45;1&#45;&gt;44652 -->
<g id="edge1" class="edge"><title>&#45;1&#45;&gt;44652</title>
<path fill="none" stroke="green" stroke-width="0.190019" d="M14.6763,-253.629C18.0755,-243.179 24.1571,-224.482 29.619,-207.691"/>
<polygon fill="green" stroke="green" stroke-width="0.190019" points="32.9733,-208.693 32.7383,-198.101 26.3166,-206.528 32.9733,-208.693"/>
</g>
<!-- &#45;2 -->
<g id="node2" class="node"><title>&#45;2</title>
<polygon fill="lightgray" stroke="black" points="183,-363.011 159,-363.011 159,-345.011 183,-345.011 183,-363.011"/>
<text text-anchor="middle" x="171" y="-351.811" font-family="Times,serif" font-size="9.00">&#45;2</text>
</g>
<!-- &#45;3 -->
<g id="node3" class="node"><title>&#45;3</title>
<polygon fill="lightgray" stroke="black" points="225,-363.011 201,-363.011 201,-345.011 225,-345.011 225,-363.011"/>
<text text-anchor="middle" x="213" y="-351.811" font-family="Times,serif" font-size="9.00">&#45;3</text>
</g>
<!-- &#45;4 -->
<g id="node4" class="node"><title>&#45;4</title>
<polygon fill="lightgray" stroke="black" points="267,-363.011 243,-363.011 243,-345.011 267,-345.011 267,-363.011"/>
<text text-anchor="middle" x="255" y="-351.811" font-family="Times,serif" font-size="9.00">&#45;4</text>
</g>
<!-- &#45;5 -->
<g id="node5" class="node"><title>&#45;5</title>
<polygon fill="lightgray" stroke="black" points="309,-363.011 285,-363.011 285,-345.011 309,-345.011 309,-363.011"/>
<text text-anchor="middle" x="297" y="-351.811" font-family="Times,serif" font-size="9.00">&#45;5</text>
</g>
<!-- &#45;6 -->
<g id="node6" class="node"><title>&#45;6</title>
<polygon fill="lightgray" stroke="black" points="351,-363.011 327,-363.011 327,-345.011 351,-345.011 351,-363.011"/>
<text text-anchor="middle" x="339" y="-351.811" font-family="Times,serif" font-size="9.00">&#45;6</text>
</g>
<!-- &#45;7 -->
<g id="node7" class="node"><title>&#45;7</title>
<polygon fill="lightgray" stroke="black" points="141,-363.011 117,-363.011 117,-345.011 141,-345.011 141,-363.011"/>
<text text-anchor="middle" x="129" y="-351.811" font-family="Times,serif" font-size="9.00">&#45;7</text>
</g>
<!-- 51243 -->
<g id="node30" class="node"><title>51243</title>
<ellipse fill="white" stroke="black" cx="70" cy="-262.856" rx="27.6545" ry="27.6545"/>
<text text-anchor="middle" x="70" y="-260.656" font-family="Times,serif" font-size="9.00">51243</text>
</g>
<!-- &#45;7&#45;&gt;51243 -->
<g id="edge3" class="edge"><title>&#45;7&#45;&gt;51243</title>
<path fill="none" stroke="green" stroke-width="0.774529" d="M123.555,-344.783C116.053,-333.447 102.13,-312.408 90.3603,-294.623"/>
<polygon fill="green" stroke="green" stroke-width="0.774529" points="93.2305,-292.618 84.793,-286.21 87.393,-296.481 93.2305,-292.618"/>
</g>
<!-- 51317 -->
<g id="node35" class="node"><title>51317</title>
<ellipse fill="white" stroke="black" cx="143" cy="-262.856" rx="27.6545" ry="27.6545"/>
<text text-anchor="middle" x="143" y="-260.656" font-family="Times,serif" font-size="9.00">51317</text>
</g>
<!-- &#45;7&#45;&gt;51317 -->
<g id="edge11" class="edge"><title>&#45;7&#45;&gt;51317</title>
<path fill="none" stroke="green" stroke-width="0.68621" d="M130.292,-344.783C131.884,-334.645 134.695,-316.745 137.269,-300.353"/>
<polygon fill="green" stroke="green" stroke-width="0.68621" points="140.734,-300.846 138.828,-290.425 133.819,-299.76 140.734,-300.846"/>
</g>
<!-- &#45;8 -->
<g id="node8" class="node"><title>&#45;8</title>
<polygon fill="lightgray" stroke="black" points="393,-363.011 369,-363.011 369,-345.011 393,-345.011 393,-363.011"/>
<text text-anchor="middle" x="381" y="-351.811" font-family="Times,serif" font-size="9.00">&#45;8</text>
</g>
<!-- &#45;9 -->
<g id="node9" class="node"><title>&#45;9</title>
<polygon fill="lightgray" stroke="black" points="435,-363.011 411,-363.011 411,-345.011 435,-345.011 435,-363.011"/>
<text text-anchor="middle" x="423" y="-351.811" font-family="Times,serif" font-size="9.00">&#45;9</text>
</g>
<!-- &#45;10 -->
<g id="node10" class="node"><title>&#45;10</title>
<polygon fill="lightgray" stroke="black" points="115.5,-180.702 86.5,-180.702 86.5,-162.702 115.5,-162.702 115.5,-180.702"/>
<text text-anchor="middle" x="101" y="-169.502" font-family="Times,serif" font-size="9.00">&#45;10</text>
</g>
<!-- 377 -->
<g id="node36" class="node"><title>377</title>
<ellipse fill="white" stroke="black" cx="101" cy="-86.9117" rx="21.4286" ry="21.4286"/>
<text text-anchor="middle" x="101" y="-84.7117" font-family="Times,serif" font-size="9.00">377</text>
</g>
<!-- &#45;10&#45;&gt;377 -->
<g id="edge2" class="edge"><title>&#45;10&#45;&gt;377</title>
<path fill="none" stroke="green" stroke-width="0.243291" d="M101,-162.461C101,-152.292 101,-134.42 101,-118.724"/>
<polygon fill="green" stroke="green" stroke-width="0.243291" points="104.5,-118.327 101,-108.327 97.5001,-118.327 104.5,-118.327"/>
</g>
<!-- &#45;11 -->
<g id="node11" class="node"><title>&#45;11</title>
<polygon fill="lightgray" stroke="black" points="482.5,-363.011 453.5,-363.011 453.5,-345.011 482.5,-345.011 482.5,-363.011"/>
<text text-anchor="middle" x="468" y="-351.811" font-family="Times,serif" font-size="9.00">&#45;11</text>
</g>
<!-- &#45;12 -->
<g id="node12" class="node"><title>&#45;12</title>
<polygon fill="lightgray" stroke="black" points="529.5,-363.011 500.5,-363.011 500.5,-345.011 529.5,-345.011 529.5,-363.011"/>
<text text-anchor="middle" x="515" y="-351.811" font-family="Times,serif" font-size="9.00">&#45;12</text>
</g>
<!-- 50002 -->
<g id="node34" class="node"><title>50002</title>
<ellipse fill="white" stroke="black" cx="515" cy="-262.856" rx="27.6545" ry="27.6545"/>
<text text-anchor="middle" x="515" y="-260.656" font-family="Times,serif" font-size="9.00">50002</text>
</g>
<!-- &#45;12&#45;&gt;50002 -->
<g id="edge13" class="edge"><title>&#45;12&#45;&gt;50002</title>
<path fill="none" stroke="red" stroke-width="0.257454" d="M515,-344.783C515,-334.811 515,-317.33 515,-301.161"/>
<polygon fill="red" stroke="red" stroke-width="0.257454" points="518.5,-300.817 515,-290.817 511.5,-300.817 518.5,-300.817"/>
</g>
<!-- &#45;13 -->
<g id="node13" class="node"><title>&#45;13</title>
<polygon fill="lightgray" stroke="black" points="162.5,-180.702 133.5,-180.702 133.5,-162.702 162.5,-162.702 162.5,-180.702"/>
<text text-anchor="middle" x="148" y="-169.502" font-family="Times,serif" font-size="9.00">&#45;13</text>
</g>
<!-- &#45;13&#45;&gt;377 -->
<g id="edge10" class="edge"><title>&#45;13&#45;&gt;377</title>
<path fill="none" stroke="green" stroke-width="0.238506" d="M143.322,-162.461C137.013,-151.349 125.483,-131.039 116.049,-114.421"/>
<polygon fill="green" stroke="green" stroke-width="0.238506" points="119.051,-112.619 111.07,-105.65 112.963,-116.074 119.051,-112.619"/>
</g>
<!-- &#45;14 -->
<g id="node14" class="node"><title>&#45;14</title>
<polygon fill="lightgray" stroke="black" points="576.5,-363.011 547.5,-363.011 547.5,-345.011 576.5,-345.011 576.5,-363.011"/>
<text text-anchor="middle" x="562" y="-351.811" font-family="Times,serif" font-size="9.00">&#45;14</text>
</g>
<!-- &#45;15 -->
<g id="node15" class="node"><title>&#45;15</title>
<polygon fill="lightgray" stroke="black" points="623.5,-363.011 594.5,-363.011 594.5,-345.011 623.5,-345.011 623.5,-363.011"/>
<text text-anchor="middle" x="609" y="-351.811" font-family="Times,serif" font-size="9.00">&#45;15</text>
</g>
<!-- &#45;16 -->
<g id="node16" class="node"><title>&#45;16</title>
<polygon fill="lightgray" stroke="black" points="84.5,-363.011 55.5,-363.011 55.5,-345.011 84.5,-345.011 84.5,-363.011"/>
<text text-anchor="middle" x="70" y="-351.811" font-family="Times,serif" font-size="9.00">&#45;16</text>
</g>
<!-- &#45;16&#45;&gt;51243 -->
<g id="edge8" class="edge"><title>&#45;16&#45;&gt;51243</title>
<path fill="none" stroke="red" stroke-width="0.291685" d="M70,-344.783C70,-334.811 70,-317.33 70,-301.161"/>
<polygon fill="red" stroke="red" stroke-width="0.291685" points="73.5001,-300.817 70,-290.817 66.5001,-300.817 73.5001,-300.817"/>
</g>
<!-- &#45;17 -->
<g id="node17" class="node"><title>&#45;17</title>
<polygon fill="lightgray" stroke="black" points="169.5,-95.9117 140.5,-95.9117 140.5,-77.9117 169.5,-77.9117 169.5,-95.9117"/>
<text text-anchor="middle" x="155" y="-84.7117" font-family="Times,serif" font-size="9.00">&#45;17</text>
</g>
<!-- 2 -->
<g id="node27" class="node"><title>2</title>
<ellipse fill="lightblue" stroke="black" cx="128" cy="-14.8492" rx="14.7" ry="14.7"/>
<text text-anchor="middle" x="128" y="-12.6492" font-family="Times,serif" font-size="9.00">2</text>
</g>
<!-- &#45;17&#45;&gt;2 -->
<g id="edge6" class="edge"><title>&#45;17&#45;&gt;2</title>
<path fill="none" stroke="red" stroke-width="0.305169" d="M151.903,-77.8746C148.238,-68.3653 141.979,-52.1224 136.784,-38.6437"/>
<polygon fill="red" stroke="red" stroke-width="0.305169" points="139.942,-37.1051 133.08,-29.0326 133.411,-39.6223 139.942,-37.1051"/>
</g>
<!-- &#45;18 -->
<g id="node18" class="node"><title>&#45;18</title>
<polygon fill="lightgray" stroke="black" points="670.5,-363.011 641.5,-363.011 641.5,-345.011 670.5,-345.011 670.5,-363.011"/>
<text text-anchor="middle" x="656" y="-351.811" font-family="Times,serif" font-size="9.00">&#45;18</text>
</g>
<!-- &#45;19 -->
<g id="node19" class="node"><title>&#45;19</title>
<polygon fill="lightgray" stroke="black" points="717.5,-363.011 688.5,-363.011 688.5,-345.011 717.5,-345.011 717.5,-363.011"/>
<text text-anchor="middle" x="703" y="-351.811" font-family="Times,serif" font-size="9.00">&#45;19</text>
</g>
<!-- &#45;20 -->
<g id="node20" class="node"><title>&#45;20</title>
<polygon fill="lightgray" stroke="black" points="764.5,-363.011 735.5,-363.011 735.5,-345.011 764.5,-345.011 764.5,-363.011"/>
<text text-anchor="middle" x="750" y="-351.811" font-family="Times,serif" font-size="9.00">&#45;20</text>
</g>
<!-- &#45;21 -->
<g id="node21" class="node"><title>&#45;21</title>
<polygon fill="lightgray" stroke="black" points="811.5,-363.011 782.5,-363.011 782.5,-345.011 811.5,-345.011 811.5,-363.011"/>
<text text-anchor="middle" x="797" y="-351.811" font-family="Times,serif" font-size="9.00">&#45;21</text>
</g>
<!-- &#45;22 -->
<g id="node22" class="node"><title>&#45;22</title>
<polygon fill="lightgray" stroke="black" points="858.5,-363.011 829.5,-363.011 829.5,-345.011 858.5,-345.011 858.5,-363.011"/>
<text text-anchor="middle" x="844" y="-351.811" font-family="Times,serif" font-size="9.00">&#45;22</text>
</g>
<!-- &#45;23 -->
<g id="node23" class="node"><title>&#45;23</title>
<polygon fill="lightgray" stroke="black" points="905.5,-363.011 876.5,-363.011 876.5,-345.011 905.5,-345.011 905.5,-363.011"/>
<text text-anchor="middle" x="891" y="-351.811" font-family="Times,serif" font-size="9.00">&#45;23</text>
</g>
<!-- &#45;24 -->
<g id="node24" class="node"><title>&#45;24</title>
<polygon fill="lightgray" stroke="black" points="952.5,-363.011 923.5,-363.011 923.5,-345.011 952.5,-345.011 952.5,-363.011"/>
<text text-anchor="middle" x="938" y="-351.811" font-family="Times,serif" font-size="9.00">&#45;24</text>
</g>
<!-- 0 -->
<g id="node25" class="node"><title>0</title>
<ellipse fill="lightblue" stroke="black" cx="985" cy="-354.011" rx="14.7" ry="14.7"/>
<text text-anchor="middle" x="985" y="-351.811" font-family="Times,serif" font-size="9.00">0</text>
</g>
<!-- 1 -->
<g id="node26" class="node"><title>1</title>
<ellipse fill="lightblue" stroke="black" cx="41" cy="-86.9117" rx="14.7" ry="14.7"/>
<text text-anchor="middle" x="41" y="-84.7117" font-family="Times,serif" font-size="9.00">1</text>
</g>
<!-- 3 -->
<g id="node28" class="node"><title>3</title>
<ellipse fill="lightblue" stroke="black" cx="1033" cy="-354.011" rx="14.7" ry="14.7"/>
<text text-anchor="middle" x="1033" y="-351.811" font-family="Times,serif" font-size="9.00">3</text>
</g>
<!-- 50629 -->
<g id="node29" class="node"><title>50629</title>
<ellipse fill="white" stroke="black" cx="1093" cy="-354.011" rx="27.6545" ry="27.6545"/>
<text text-anchor="middle" x="1093" y="-351.811" font-family="Times,serif" font-size="9.00">50629</text>
</g>
<!-- 45453 -->
<g id="node32" class="node"><title>45453</title>
<ellipse fill="white" stroke="black" cx="1129" cy="-262.856" rx="27.6545" ry="27.6545"/>
<text text-anchor="middle" x="1129" y="-260.656" font-family="Times,serif" font-size="9.00">45453</text>
</g>
<!-- 50629&#45;&gt;45453 -->
<g id="edge9" class="edge"><title>50629&#45;&gt;45453</title>
<path fill="none" stroke="green" stroke-width="0.433089" stroke-dasharray="1,5" d="M1103.03,-328.176C1106.78,-318.884 1111.11,-308.156 1115.15,-298.158"/>
<polygon fill="green" stroke="green" stroke-width="0.433089" points="1118.4,-299.45 1118.9,-288.867 1111.91,-296.829 1118.4,-299.45"/>
</g>
<!-- 51243&#45;&gt;44652 -->
<g id="edge14" class="edge"><title>51243&#45;&gt;44652</title>
<path fill="none" stroke="green" stroke-width="0.465486" d="M61.612,-236.069C58.7316,-227.214 55.4574,-217.148 52.38,-207.687"/>
<polygon fill="green" stroke="green" stroke-width="0.465486" points="55.6907,-206.55 49.269,-198.123 49.034,-208.716 55.6907,-206.55"/>
</g>
<!-- 44652&#45;&gt;1 -->
<g id="edge4" class="edge"><title>44652&#45;&gt;1</title>
<path fill="none" stroke="red" stroke-width="0.388773" d="M41,-144.051C41,-133.776 41,-122.106 41,-112.078"/>
<polygon fill="red" stroke="red" stroke-width="0.388773" points="44.5001,-111.985 41,-101.985 37.5001,-111.985 44.5001,-111.985"/>
</g>
<!-- 44652&#45;&gt;377 -->
<g id="edge7" class="edge"><title>44652&#45;&gt;377</title>
<path fill="none" stroke="green" stroke-width="0.153814" d="M56.7643,-148.95C64.788,-137.878 74.5804,-124.366 82.9103,-112.873"/>
<polygon fill="green" stroke="green" stroke-width="0.153814" points="85.9073,-114.701 88.9415,-104.55 80.2393,-110.594 85.9073,-114.701"/>
</g>
<!-- 51378 -->
<g id="node33" class="node"><title>51378</title>
<ellipse fill="white" stroke="black" cx="1166" cy="-354.011" rx="27.6545" ry="27.6545"/>
<text text-anchor="middle" x="1166" y="-351.811" font-family="Times,serif" font-size="9.00">51378</text>
</g>
<!-- 51378&#45;&gt;45453 -->
<g id="edge5" class="edge"><title>51378&#45;&gt;45453</title>
<path fill="none" stroke="red" stroke-width="0.508271" d="M1155.69,-328.176C1151.8,-318.805 1147.31,-307.976 1143.13,-297.907"/>
<polygon fill="red" stroke="red" stroke-width="0.508271" points="1146.32,-296.452 1139.25,-288.558 1139.85,-299.135 1146.32,-296.452"/>
</g>
<!-- 377&#45;&gt;2 -->
<g id="edge12" class="edge"><title>377&#45;&gt;2</title>
<path fill="none" stroke="red" stroke-width="1.38337" d="M108.378,-66.7668C111.736,-58.0533 115.735,-47.6762 119.244,-38.5704"/>
<polygon fill="red" stroke="red" stroke-width="1.38337" points="122.607,-39.576 122.937,-28.9863 116.075,-37.0588 122.607,-39.576"/>
</g>
</g>
</svg>
