<?xml version="1.0" encoding="UTF-8" standalone="no"?>
<!DOCTYPE svg PUBLIC "-//W3C//DTD SVG 1.1//EN"
 "http://www.w3.org/Graphics/SVG/1.1/DTD/svg11.dtd">
<!-- Generated by graphviz version 2.38.0 (20140413.2041)
 -->
<!-- Title: %3 Pages: 1 -->
<svg width="1218pt" height="182pt"
 viewBox="0.00 0.00 1217.85 181.82" xmlns="http://www.w3.org/2000/svg" xmlns:xlink="http://www.w3.org/1999/xlink">
<g id="graph0" class="graph" transform="scale(1 1) rotate(0) translate(4 177.823)">
<title>%3</title>
<polygon fill="white" stroke="none" points="-4,4 -4,-177.823 1213.85,-177.823 1213.85,4 -4,4"/>
<!-- &#45;1 -->
<g id="node1" class="node"><title>&#45;1</title>
<polygon fill="lightgray" stroke="black" points="24,-167.974 0,-167.974 0,-149.974 24,-149.974 24,-167.974"/>
<text text-anchor="middle" x="12" y="-156.774" font-family="Times,serif" font-size="9.00">&#45;1</text>
</g>
<!-- &#45;2 -->
<g id="node2" class="node"><title>&#45;2</title>
<polygon fill="lightgray" stroke="black" points="66,-167.974 42,-167.974 42,-149.974 66,-149.974 66,-167.974"/>
<text text-anchor="middle" x="54" y="-156.774" font-family="Times,serif" font-size="9.00">&#45;2</text>
</g>
<!-- &#45;3 -->
<g id="node3" class="node"><title>&#45;3</title>
<polygon fill="lightgray" stroke="black" points="108,-167.974 84,-167.974 84,-149.974 108,-149.974 108,-167.974"/>
<text text-anchor="middle" x="96" y="-156.774" font-family="Times,serif" font-size="9.00">&#45;3</text>
</g>
<!-- &#45;4 -->
<g id="node4" class="node"><title>&#45;4</title>
<polygon fill="lightgray" stroke="black" points="150,-167.974 126,-167.974 126,-149.974 150,-149.974 150,-167.974"/>
<text text-anchor="middle" x="138" y="-156.774" font-family="Times,serif" font-size="9.00">&#45;4</text>
</g>
<!-- &#45;5 -->
<g id="node5" class="node"><title>&#45;5</title>
<polygon fill="lightgray" stroke="black" points="192,-167.974 168,-167.974 168,-149.974 192,-149.974 192,-167.974"/>
<text text-anchor="middle" x="180" y="-156.774" font-family="Times,serif" font-size="9.00">&#45;5</text>
</g>
<!-- &#45;6 -->
<g id="node6" class="node"><title>&#45;6</title>
<polygon fill="lightgray" stroke="black" points="234,-167.974 210,-167.974 210,-149.974 234,-149.974 234,-167.974"/>
<text text-anchor="middle" x="222" y="-156.774" font-family="Times,serif" font-size="9.00">&#45;6</text>
</g>
<!-- 377 -->
<g id="node29" class="node"><title>377</title>
<ellipse fill="white" stroke="black" cx="244" cy="-86.9117" rx="21.4286" ry="21.4286"/>
<text text-anchor="middle" x="244" y="-84.7117" font-family="Times,serif" font-size="9.00">377</text>
</g>
<!-- &#45;6&#45;&gt;377 -->
<g id="edge3" class="edge"><title>&#45;6&#45;&gt;377</title>
<path fill="none" stroke="red" stroke-width="0.3647" d="M224.524,-149.937C227.046,-141.906 231.075,-129.072 234.817,-117.156"/>
<polygon fill="red" stroke="red" stroke-width="0.3647" points="238.196,-118.078 237.853,-107.489 231.517,-115.981 238.196,-118.078"/>
</g>
<!-- &#45;7 -->
<g id="node7" class="node"><title>&#45;7</title>
<polygon fill="lightgray" stroke="black" points="324,-167.974 300,-167.974 300,-149.974 324,-149.974 324,-167.974"/>
<text text-anchor="middle" x="312" y="-156.774" font-family="Times,serif" font-size="9.00">&#45;7</text>
</g>
<!-- &#45;8 -->
<g id="node8" class="node"><title>&#45;8</title>
<polygon fill="lightgray" stroke="black" points="366,-167.974 342,-167.974 342,-149.974 366,-149.974 366,-167.974"/>
<text text-anchor="middle" x="354" y="-156.774" font-family="Times,serif" font-size="9.00">&#45;8</text>
</g>
<!-- &#45;9 -->
<g id="node9" class="node"><title>&#45;9</title>
<polygon fill="lightgray" stroke="black" points="408,-167.974 384,-167.974 384,-149.974 408,-149.974 408,-167.974"/>
<text text-anchor="middle" x="396" y="-156.774" font-family="Times,serif" font-size="9.00">&#45;9</text>
</g>
<!-- &#45;10 -->
<g id="node10" class="node"><title>&#45;10</title>
<polygon fill="lightgray" stroke="black" points="281.5,-167.974 252.5,-167.974 252.5,-149.974 281.5,-149.974 281.5,-167.974"/>
<text text-anchor="middle" x="267" y="-156.774" font-family="Times,serif" font-size="9.00">&#45;10</text>
</g>
<!-- &#45;10&#45;&gt;377 -->
<g id="edge2" class="edge"><title>&#45;10&#45;&gt;377</title>
<path fill="none" stroke="green" stroke-width="0.582854" d="M264.362,-149.937C261.707,-141.85 257.453,-128.892 253.518,-116.907"/>
<polygon fill="green" stroke="green" stroke-width="0.582854" points="256.775,-115.605 250.33,-107.196 250.124,-117.788 256.775,-115.605"/>
</g>
<!-- &#45;11 -->
<g id="node11" class="node"><title>&#45;11</title>
<polygon fill="lightgray" stroke="black" points="455.5,-167.974 426.5,-167.974 426.5,-149.974 455.5,-149.974 455.5,-167.974"/>
<text text-anchor="middle" x="441" y="-156.774" font-family="Times,serif" font-size="9.00">&#45;11</text>
</g>
<!-- &#45;12 -->
<g id="node12" class="node"><title>&#45;12</title>
<polygon fill="lightgray" stroke="black" points="502.5,-167.974 473.5,-167.974 473.5,-149.974 502.5,-149.974 502.5,-167.974"/>
<text text-anchor="middle" x="488" y="-156.774" font-family="Times,serif" font-size="9.00">&#45;12</text>
</g>
<!-- &#45;13 -->
<g id="node13" class="node"><title>&#45;13</title>
<polygon fill="lightgray" stroke="black" points="549.5,-167.974 520.5,-167.974 520.5,-149.974 549.5,-149.974 549.5,-167.974"/>
<text text-anchor="middle" x="535" y="-156.774" font-family="Times,serif" font-size="9.00">&#45;13</text>
</g>
<!-- &#45;14 -->
<g id="node14" class="node"><title>&#45;14</title>
<polygon fill="lightgray" stroke="black" points="596.5,-167.974 567.5,-167.974 567.5,-149.974 596.5,-149.974 596.5,-167.974"/>
<text text-anchor="middle" x="582" y="-156.774" font-family="Times,serif" font-size="9.00">&#45;14</text>
</g>
<!-- &#45;15 -->
<g id="node15" class="node"><title>&#45;15</title>
<polygon fill="lightgray" stroke="black" points="643.5,-167.974 614.5,-167.974 614.5,-149.974 643.5,-149.974 643.5,-167.974"/>
<text text-anchor="middle" x="629" y="-156.774" font-family="Times,serif" font-size="9.00">&#45;15</text>
</g>
<!-- &#45;16 -->
<g id="node16" class="node"><title>&#45;16</title>
<polygon fill="lightgray" stroke="black" points="690.5,-167.974 661.5,-167.974 661.5,-149.974 690.5,-149.974 690.5,-167.974"/>
<text text-anchor="middle" x="676" y="-156.774" font-family="Times,serif" font-size="9.00">&#45;16</text>
</g>
<!-- &#45;17 -->
<g id="node17" class="node"><title>&#45;17</title>
<polygon fill="lightgray" stroke="black" points="737.5,-167.974 708.5,-167.974 708.5,-149.974 737.5,-149.974 737.5,-167.974"/>
<text text-anchor="middle" x="723" y="-156.774" font-family="Times,serif" font-size="9.00">&#45;17</text>
</g>
<!-- &#45;18 -->
<g id="node18" class="node"><title>&#45;18</title>
<polygon fill="lightgray" stroke="black" points="784.5,-167.974 755.5,-167.974 755.5,-149.974 784.5,-149.974 784.5,-167.974"/>
<text text-anchor="middle" x="770" y="-156.774" font-family="Times,serif" font-size="9.00">&#45;18</text>
</g>
<!-- &#45;19 -->
<g id="node19" class="node"><title>&#45;19</title>
<polygon fill="lightgray" stroke="black" points="831.5,-167.974 802.5,-167.974 802.5,-149.974 831.5,-149.974 831.5,-167.974"/>
<text text-anchor="middle" x="817" y="-156.774" font-family="Times,serif" font-size="9.00">&#45;19</text>
</g>
<!-- &#45;20 -->
<g id="node20" class="node"><title>&#45;20</title>
<polygon fill="lightgray" stroke="black" points="878.5,-167.974 849.5,-167.974 849.5,-149.974 878.5,-149.974 878.5,-167.974"/>
<text text-anchor="middle" x="864" y="-156.774" font-family="Times,serif" font-size="9.00">&#45;20</text>
</g>
<!-- &#45;21 -->
<g id="node21" class="node"><title>&#45;21</title>
<polygon fill="lightgray" stroke="black" points="925.5,-167.974 896.5,-167.974 896.5,-149.974 925.5,-149.974 925.5,-167.974"/>
<text text-anchor="middle" x="911" y="-156.774" font-family="Times,serif" font-size="9.00">&#45;21</text>
</g>
<!-- &#45;22 -->
<g id="node22" class="node"><title>&#45;22</title>
<polygon fill="lightgray" stroke="black" points="972.5,-167.974 943.5,-167.974 943.5,-149.974 972.5,-149.974 972.5,-167.974"/>
<text text-anchor="middle" x="958" y="-156.774" font-family="Times,serif" font-size="9.00">&#45;22</text>
</g>
<!-- &#45;23 -->
<g id="node23" class="node"><title>&#45;23</title>
<polygon fill="lightgray" stroke="black" points="1019.5,-167.974 990.5,-167.974 990.5,-149.974 1019.5,-149.974 1019.5,-167.974"/>
<text text-anchor="middle" x="1005" y="-156.774" font-family="Times,serif" font-size="9.00">&#45;23</text>
</g>
<!-- &#45;24 -->
<g id="node24" class="node"><title>&#45;24</title>
<polygon fill="lightgray" stroke="black" points="1066.5,-167.974 1037.5,-167.974 1037.5,-149.974 1066.5,-149.974 1066.5,-167.974"/>
<text text-anchor="middle" x="1052" y="-156.774" font-family="Times,serif" font-size="9.00">&#45;24</text>
</g>
<!-- 0 -->
<g id="node25" class="node"><title>0</title>
<ellipse fill="lightblue" stroke="black" cx="1099" cy="-158.974" rx="14.7" ry="14.7"/>
<text text-anchor="middle" x="1099" y="-156.774" font-family="Times,serif" font-size="9.00">0</text>
</g>
<!-- 1 -->
<g id="node26" class="node"><title>1</title>
<ellipse fill="lightblue" stroke="black" cx="1147" cy="-158.974" rx="14.7" ry="14.7"/>
<text text-anchor="middle" x="1147" y="-156.774" font-family="Times,serif" font-size="9.00">1</text>
</g>
<!-- 2 -->
<g id="node27" class="node"><title>2</title>
<ellipse fill="lightblue" stroke="black" cx="244" cy="-14.8492" rx="14.7" ry="14.7"/>
<text text-anchor="middle" x="244" y="-12.6492" font-family="Times,serif" font-size="9.00">2</text>
</g>
<!-- 3 -->
<g id="node28" class="node"><title>3</title>
<ellipse fill="lightblue" stroke="black" cx="1195" cy="-158.974" rx="14.7" ry="14.7"/>
<text text-anchor="middle" x="1195" y="-156.774" font-family="Times,serif" font-size="9.00">3</text>
</g>
<!-- 377&#45;&gt;2 -->
<g id="edge1" class="edge"><title>377&#45;&gt;2</title>
<path fill="none" stroke="red" stroke-width="1.23075" d="M244,-65.6467C244,-57.6662 244,-48.4341 244,-40.1031"/>
<polygon fill="red" stroke="red" stroke-width="1.23075" points="247.5,-39.8511 244,-29.8512 240.5,-39.8512 247.5,-39.8511"/>
</g>
</g>
</svg>
