<?xml version="1.0" encoding="UTF-8" standalone="no"?>
<!DOCTYPE svg PUBLIC "-//W3C//DTD SVG 1.1//EN"
 "http://www.w3.org/Graphics/SVG/1.1/DTD/svg11.dtd">
<!-- Generated by graphviz version 2.38.0 (20140413.2041)
 -->
<!-- Title: %3 Pages: 1 -->
<svg width="1217pt" height="182pt"
 viewBox="0.00 0.00 1216.85 181.82" xmlns="http://www.w3.org/2000/svg" xmlns:xlink="http://www.w3.org/1999/xlink">
<g id="graph0" class="graph" transform="scale(1 1) rotate(0) translate(4 177.823)">
<title>%3</title>
<polygon fill="white" stroke="none" points="-4,4 -4,-177.823 1212.85,-177.823 1212.85,4 -4,4"/>
<!-- &#45;1 -->
<g id="node1" class="node"><title>&#45;1</title>
<polygon fill="lightgray" stroke="black" points="24,-167.974 0,-167.974 0,-149.974 24,-149.974 24,-167.974"/>
<text text-anchor="middle" x="12" y="-156.774" font-family="Times,serif" font-size="9.00">&#45;1</text>
</g>
<!-- &#45;2 -->
<g id="node2" class="node"><title>&#45;2</title>
<polygon fill="lightgray" stroke="black" points="66,-167.974 42,-167.974 42,-149.974 66,-149.974 66,-167.974"/>
<text text-anchor="middle" x="54" y="-156.774" font-family="Times,serif" font-size="9.00">&#45;2</text>
</g>
<!-- &#45;3 -->
<g id="node3" class="node"><title>&#45;3</title>
<polygon fill="lightgray" stroke="black" points="108,-167.974 84,-167.974 84,-149.974 108,-149.974 108,-167.974"/>
<text text-anchor="middle" x="96" y="-156.774" font-family="Times,serif" font-size="9.00">&#45;3</text>
</g>
<!-- &#45;4 -->
<g id="node4" class="node"><title>&#45;4</title>
<polygon fill="lightgray" stroke="black" points="150,-167.974 126,-167.974 126,-149.974 150,-149.974 150,-167.974"/>
<text text-anchor="middle" x="138" y="-156.774" font-family="Times,serif" font-size="9.00">&#45;4</text>
</g>
<!-- &#45;5 -->
<g id="node5" class="node"><title>&#45;5</title>
<polygon fill="lightgray" stroke="black" points="192,-167.974 168,-167.974 168,-149.974 192,-149.974 192,-167.974"/>
<text text-anchor="middle" x="180" y="-156.774" font-family="Times,serif" font-size="9.00">&#45;5</text>
</g>
<!-- &#45;6 -->
<g id="node6" class="node"><title>&#45;6</title>
<polygon fill="lightgray" stroke="black" points="234,-167.974 210,-167.974 210,-149.974 234,-149.974 234,-167.974"/>
<text text-anchor="middle" x="222" y="-156.774" font-family="Times,serif" font-size="9.00">&#45;6</text>
</g>
<!-- &#45;7 -->
<g id="node7" class="node"><title>&#45;7</title>
<polygon fill="lightgray" stroke="black" points="276,-167.974 252,-167.974 252,-149.974 276,-149.974 276,-167.974"/>
<text text-anchor="middle" x="264" y="-156.774" font-family="Times,serif" font-size="9.00">&#45;7</text>
</g>
<!-- &#45;8 -->
<g id="node8" class="node"><title>&#45;8</title>
<polygon fill="lightgray" stroke="black" points="318,-167.974 294,-167.974 294,-149.974 318,-149.974 318,-167.974"/>
<text text-anchor="middle" x="306" y="-156.774" font-family="Times,serif" font-size="9.00">&#45;8</text>
</g>
<!-- &#45;9 -->
<g id="node9" class="node"><title>&#45;9</title>
<polygon fill="lightgray" stroke="black" points="360,-167.974 336,-167.974 336,-149.974 360,-149.974 360,-167.974"/>
<text text-anchor="middle" x="348" y="-156.774" font-family="Times,serif" font-size="9.00">&#45;9</text>
</g>
<!-- &#45;10 -->
<g id="node10" class="node"><title>&#45;10</title>
<polygon fill="lightgray" stroke="black" points="407.5,-167.974 378.5,-167.974 378.5,-149.974 407.5,-149.974 407.5,-167.974"/>
<text text-anchor="middle" x="393" y="-156.774" font-family="Times,serif" font-size="9.00">&#45;10</text>
</g>
<!-- 2 -->
<g id="node27" class="node"><title>2</title>
<ellipse fill="lightblue" stroke="black" cx="392" cy="-14.8492" rx="14.7" ry="14.7"/>
<text text-anchor="middle" x="392" y="-12.6492" font-family="Times,serif" font-size="9.00">2</text>
</g>
<!-- &#45;10&#45;&gt;2 -->
<g id="edge1" class="edge"><title>&#45;10&#45;&gt;2</title>
<path fill="none" stroke="red" stroke-width="1.16008" stroke-dasharray="1,5" d="M391.724,-149.885C390.242,-140.046 387.887,-122.917 387,-108.125 385.871,-89.3025 386.058,-84.5311 387,-65.6985 387.423,-57.2423 388.247,-48.0093 389.106,-39.813"/>
<polygon fill="red" stroke="red" stroke-width="1.16008" points="392.594,-40.1144 390.225,-29.7879 385.638,-39.338 392.594,-40.1144"/>
</g>
<!-- 334 -->
<g id="node29" class="node"><title>334</title>
<ellipse fill="white" stroke="black" cx="417" cy="-86.9117" rx="21.4286" ry="21.4286"/>
<text text-anchor="middle" x="417" y="-84.7117" font-family="Times,serif" font-size="9.00">334</text>
</g>
<!-- &#45;10&#45;&gt;334 -->
<g id="edge3" class="edge"><title>&#45;10&#45;&gt;334</title>
<path fill="none" stroke="green" stroke-width="0.305934" d="M395.753,-149.937C398.523,-141.85 402.962,-128.892 407.068,-116.907"/>
<polygon fill="green" stroke="green" stroke-width="0.305934" points="410.465,-117.79 410.394,-107.196 403.842,-115.522 410.465,-117.79"/>
</g>
<!-- &#45;11 -->
<g id="node11" class="node"><title>&#45;11</title>
<polygon fill="lightgray" stroke="black" points="454.5,-167.974 425.5,-167.974 425.5,-149.974 454.5,-149.974 454.5,-167.974"/>
<text text-anchor="middle" x="440" y="-156.774" font-family="Times,serif" font-size="9.00">&#45;11</text>
</g>
<!-- &#45;12 -->
<g id="node12" class="node"><title>&#45;12</title>
<polygon fill="lightgray" stroke="black" points="501.5,-167.974 472.5,-167.974 472.5,-149.974 501.5,-149.974 501.5,-167.974"/>
<text text-anchor="middle" x="487" y="-156.774" font-family="Times,serif" font-size="9.00">&#45;12</text>
</g>
<!-- &#45;13 -->
<g id="node13" class="node"><title>&#45;13</title>
<polygon fill="lightgray" stroke="black" points="548.5,-167.974 519.5,-167.974 519.5,-149.974 548.5,-149.974 548.5,-167.974"/>
<text text-anchor="middle" x="534" y="-156.774" font-family="Times,serif" font-size="9.00">&#45;13</text>
</g>
<!-- &#45;14 -->
<g id="node14" class="node"><title>&#45;14</title>
<polygon fill="lightgray" stroke="black" points="595.5,-167.974 566.5,-167.974 566.5,-149.974 595.5,-149.974 595.5,-167.974"/>
<text text-anchor="middle" x="581" y="-156.774" font-family="Times,serif" font-size="9.00">&#45;14</text>
</g>
<!-- &#45;15 -->
<g id="node15" class="node"><title>&#45;15</title>
<polygon fill="lightgray" stroke="black" points="642.5,-167.974 613.5,-167.974 613.5,-149.974 642.5,-149.974 642.5,-167.974"/>
<text text-anchor="middle" x="628" y="-156.774" font-family="Times,serif" font-size="9.00">&#45;15</text>
</g>
<!-- &#45;16 -->
<g id="node16" class="node"><title>&#45;16</title>
<polygon fill="lightgray" stroke="black" points="689.5,-167.974 660.5,-167.974 660.5,-149.974 689.5,-149.974 689.5,-167.974"/>
<text text-anchor="middle" x="675" y="-156.774" font-family="Times,serif" font-size="9.00">&#45;16</text>
</g>
<!-- &#45;17 -->
<g id="node17" class="node"><title>&#45;17</title>
<polygon fill="lightgray" stroke="black" points="736.5,-167.974 707.5,-167.974 707.5,-149.974 736.5,-149.974 736.5,-167.974"/>
<text text-anchor="middle" x="722" y="-156.774" font-family="Times,serif" font-size="9.00">&#45;17</text>
</g>
<!-- &#45;18 -->
<g id="node18" class="node"><title>&#45;18</title>
<polygon fill="lightgray" stroke="black" points="783.5,-167.974 754.5,-167.974 754.5,-149.974 783.5,-149.974 783.5,-167.974"/>
<text text-anchor="middle" x="769" y="-156.774" font-family="Times,serif" font-size="9.00">&#45;18</text>
</g>
<!-- &#45;19 -->
<g id="node19" class="node"><title>&#45;19</title>
<polygon fill="lightgray" stroke="black" points="830.5,-167.974 801.5,-167.974 801.5,-149.974 830.5,-149.974 830.5,-167.974"/>
<text text-anchor="middle" x="816" y="-156.774" font-family="Times,serif" font-size="9.00">&#45;19</text>
</g>
<!-- &#45;20 -->
<g id="node20" class="node"><title>&#45;20</title>
<polygon fill="lightgray" stroke="black" points="877.5,-167.974 848.5,-167.974 848.5,-149.974 877.5,-149.974 877.5,-167.974"/>
<text text-anchor="middle" x="863" y="-156.774" font-family="Times,serif" font-size="9.00">&#45;20</text>
</g>
<!-- &#45;21 -->
<g id="node21" class="node"><title>&#45;21</title>
<polygon fill="lightgray" stroke="black" points="924.5,-167.974 895.5,-167.974 895.5,-149.974 924.5,-149.974 924.5,-167.974"/>
<text text-anchor="middle" x="910" y="-156.774" font-family="Times,serif" font-size="9.00">&#45;21</text>
</g>
<!-- &#45;22 -->
<g id="node22" class="node"><title>&#45;22</title>
<polygon fill="lightgray" stroke="black" points="971.5,-167.974 942.5,-167.974 942.5,-149.974 971.5,-149.974 971.5,-167.974"/>
<text text-anchor="middle" x="957" y="-156.774" font-family="Times,serif" font-size="9.00">&#45;22</text>
</g>
<!-- &#45;23 -->
<g id="node23" class="node"><title>&#45;23</title>
<polygon fill="lightgray" stroke="black" points="1018.5,-167.974 989.5,-167.974 989.5,-149.974 1018.5,-149.974 1018.5,-167.974"/>
<text text-anchor="middle" x="1004" y="-156.774" font-family="Times,serif" font-size="9.00">&#45;23</text>
</g>
<!-- &#45;24 -->
<g id="node24" class="node"><title>&#45;24</title>
<polygon fill="lightgray" stroke="black" points="1065.5,-167.974 1036.5,-167.974 1036.5,-149.974 1065.5,-149.974 1065.5,-167.974"/>
<text text-anchor="middle" x="1051" y="-156.774" font-family="Times,serif" font-size="9.00">&#45;24</text>
</g>
<!-- 0 -->
<g id="node25" class="node"><title>0</title>
<ellipse fill="lightblue" stroke="black" cx="1098" cy="-158.974" rx="14.7" ry="14.7"/>
<text text-anchor="middle" x="1098" y="-156.774" font-family="Times,serif" font-size="9.00">0</text>
</g>
<!-- 1 -->
<g id="node26" class="node"><title>1</title>
<ellipse fill="lightblue" stroke="black" cx="1146" cy="-158.974" rx="14.7" ry="14.7"/>
<text text-anchor="middle" x="1146" y="-156.774" font-family="Times,serif" font-size="9.00">1</text>
</g>
<!-- 3 -->
<g id="node28" class="node"><title>3</title>
<ellipse fill="lightblue" stroke="black" cx="1194" cy="-158.974" rx="14.7" ry="14.7"/>
<text text-anchor="middle" x="1194" y="-156.774" font-family="Times,serif" font-size="9.00">3</text>
</g>
<!-- 334&#45;&gt;2 -->
<g id="edge2" class="edge"><title>334&#45;&gt;2</title>
<path fill="none" stroke="red" stroke-width="1.32124" d="M410.169,-66.7668C407.059,-58.0533 403.357,-47.6762 400.107,-38.5704"/>
<polygon fill="red" stroke="red" stroke-width="1.32124" points="403.345,-37.2284 396.688,-28.9863 396.752,-39.581 403.345,-37.2284"/>
</g>
</g>
</svg>
