<?xml version="1.0" encoding="UTF-8" standalone="no"?>
<!DOCTYPE svg PUBLIC "-//W3C//DTD SVG 1.1//EN"
 "http://www.w3.org/Graphics/SVG/1.1/DTD/svg11.dtd">
<!-- Generated by graphviz version 2.38.0 (20140413.2041)
 -->
<!-- Title: %3 Pages: 1 -->
<svg width="640pt" height="451pt"
 viewBox="0.00 0.00 639.62 450.66" xmlns="http://www.w3.org/2000/svg" xmlns:xlink="http://www.w3.org/1999/xlink">
<g id="graph0" class="graph" transform="scale(1 1) rotate(0) translate(4 446.659)">
<title>%3</title>
<polygon fill="white" stroke="none" points="-4,4 -4,-446.659 635.62,-446.659 635.62,4 -4,4"/>
<!-- URL -->
<g id="node1" class="node"><title>URL</title>
<ellipse fill="lightblue" stroke="black" cx="248" cy="-24.7487" rx="25" ry="25"/>
<text text-anchor="middle" x="248" y="-22.5487" font-family="Times New Roman,serif" font-size="9.00">URL</text>
</g>
<!-- L10 -->
<g id="node2" class="node"><title>L10</title>
<polygon fill="lightgray" stroke="black" points="270.5,-442.659 239.5,-442.659 239.5,-424.659 270.5,-424.659 270.5,-442.659"/>
<text text-anchor="middle" x="255" y="-431.459" font-family="Times New Roman,serif" font-size="9.00">L10</text>
</g>
<!-- 13743 -->
<g id="node19" class="node"><title>13743</title>
<ellipse fill="white" stroke="black" cx="255" cy="-361.082" rx="27.6545" ry="27.6545"/>
<text text-anchor="middle" x="255" y="-358.882" font-family="Times New Roman,serif" font-size="9.00">13743</text>
</g>
<!-- L10&#45;&gt;13743 -->
<g id="edge38" class="edge"><title>L10&#45;&gt;13743</title>
<path fill="none" stroke="green" stroke-width="0.46446" d="M255,-424.563C255,-418.113 255,-408.589 255,-398.91"/>
<polygon fill="green" stroke="green" stroke-width="0.46446" points="258.5,-398.89 255,-388.89 251.5,-398.89 258.5,-398.89"/>
</g>
<!-- L5 -->
<g id="node3" class="node"><title>L5</title>
<polygon fill="lightgray" stroke="black" points="419,-370.082 393,-370.082 393,-352.082 419,-352.082 419,-370.082"/>
<text text-anchor="middle" x="406" y="-358.882" font-family="Times New Roman,serif" font-size="9.00">L5</text>
</g>
<!-- 159 -->
<g id="node17" class="node"><title>159</title>
<ellipse fill="white" stroke="black" cx="120" cy="-276.291" rx="21.4286" ry="21.4286"/>
<text text-anchor="middle" x="120" y="-274.091" font-family="Times New Roman,serif" font-size="9.00">159</text>
</g>
<!-- L5&#45;&gt;159 -->
<g id="edge20" class="edge"><title>L5&#45;&gt;159</title>
<path fill="none" stroke="green" stroke-width="0.493448" d="M401.324,-351.778C397.471,-345.732 391.44,-337.869 384,-333.505 307.605,-288.692 274.128,-318.152 188,-297.505 175.402,-294.484 161.676,-290.534 149.877,-286.927"/>
<polygon fill="green" stroke="green" stroke-width="0.493448" points="150.668,-283.508 140.08,-283.878 148.588,-290.191 150.668,-283.508"/>
</g>
<!-- 13815 -->
<g id="node23" class="node"><title>13815</title>
<ellipse fill="white" stroke="black" cx="543" cy="-191.501" rx="27.6545" ry="27.6545"/>
<text text-anchor="middle" x="543" y="-189.301" font-family="Times New Roman,serif" font-size="9.00">13815</text>
</g>
<!-- L5&#45;&gt;13815 -->
<g id="edge22" class="edge"><title>L5&#45;&gt;13815</title>
<path fill="none" stroke="green" stroke-width="0.4" d="M411.077,-351.894C415.054,-346.067 421.064,-338.428 428,-333.505 465.496,-306.885 495.637,-332.894 525,-297.505 540.599,-278.704 544.893,-251.352 545.395,-229.277"/>
<polygon fill="green" stroke="green" stroke-width="0.4" points="548.895,-229.235 545.379,-219.241 541.895,-229.247 548.895,-229.235"/>
</g>
<!-- L3 -->
<g id="node4" class="node"><title>L3</title>
<polygon fill="lightgray" stroke="black" points="223,-285.291 197,-285.291 197,-267.291 223,-267.291 223,-285.291"/>
<text text-anchor="middle" x="210" y="-274.091" font-family="Times New Roman,serif" font-size="9.00">L3</text>
</g>
<!-- 97 -->
<g id="node21" class="node"><title>97</title>
<ellipse fill="white" stroke="black" cx="223" cy="-191.501" rx="18.2703" ry="18.2703"/>
<text text-anchor="middle" x="223" y="-189.301" font-family="Times New Roman,serif" font-size="9.00">97</text>
</g>
<!-- L3&#45;&gt;97 -->
<g id="edge13" class="edge"><title>L3&#45;&gt;97</title>
<path fill="none" stroke="green" stroke-width="0.429452" d="M211.294,-267.05C213.001,-256.18 216.09,-236.507 218.667,-220.099"/>
<polygon fill="green" stroke="green" stroke-width="0.429452" points="222.172,-220.335 220.266,-209.913 215.257,-219.249 222.172,-220.335"/>
</g>
<!-- L2 -->
<g id="node5" class="node"><title>L2</title>
<polygon fill="lightgray" stroke="black" points="324,-442.659 298,-442.659 298,-424.659 324,-424.659 324,-442.659"/>
<text text-anchor="middle" x="311" y="-431.459" font-family="Times New Roman,serif" font-size="9.00">L2</text>
</g>
<!-- L2&#45;&gt;159 -->
<g id="edge7" class="edge"><title>L2&#45;&gt;159</title>
<path fill="none" stroke="red" stroke-width="0.454792" d="M311.993,-424.536C313.79,-405.927 315.451,-359.796 292,-333.505 256.35,-293.537 227.803,-314.458 177,-297.505 167.955,-294.486 158.153,-291.065 149.271,-287.908"/>
<polygon fill="red" stroke="red" stroke-width="0.454792" points="150.316,-284.564 139.722,-284.49 147.957,-291.155 150.316,-284.564"/>
</g>
<!-- L2&#45;&gt;13743 -->
<g id="edge6" class="edge"><title>L2&#45;&gt;13743</title>
<path fill="none" stroke="green" stroke-width="0.543167" d="M304.576,-424.563C298.134,-416.443 287.824,-403.45 278.271,-391.41"/>
<polygon fill="green" stroke="green" stroke-width="0.543167" points="280.793,-388.957 271.835,-383.299 275.309,-393.308 280.793,-388.957"/>
</g>
<!-- 110 -->
<g id="node22" class="node"><title>110</title>
<ellipse fill="white" stroke="black" cx="374" cy="-106.711" rx="21.4286" ry="21.4286"/>
<text text-anchor="middle" x="374" y="-104.511" font-family="Times New Roman,serif" font-size="9.00">110</text>
</g>
<!-- L2&#45;&gt;110 -->
<g id="edge19" class="edge"><title>L2&#45;&gt;110</title>
<path fill="none" stroke="green" stroke-width="0.30462" d="M324.261,-432.071C375.088,-428.996 557.633,-410.178 618,-297.505 647.15,-243.097 626.36,-204.676 580,-163.924 530.227,-120.172 449.52,-110.113 405.349,-108.026"/>
<polygon fill="green" stroke="green" stroke-width="0.30462" points="405.327,-104.523 395.206,-107.658 405.073,-111.518 405.327,-104.523"/>
</g>
<!-- RGC -->
<g id="node6" class="node"><title>RGC</title>
<polygon fill="lightgray" stroke="black" points="608.5,-285.291 573.5,-285.291 573.5,-267.291 608.5,-267.291 608.5,-285.291"/>
<text text-anchor="middle" x="591" y="-274.091" font-family="Times New Roman,serif" font-size="9.00">RGC</text>
</g>
<!-- RGC&#45;&gt;13815 -->
<g id="edge30" class="edge"><title>RGC&#45;&gt;13815</title>
<path fill="none" stroke="green" stroke-width="0.483536" d="M586.222,-267.05C580.474,-257.135 570.479,-239.897 561.548,-224.492"/>
<polygon fill="green" stroke="green" stroke-width="0.483536" points="564.496,-222.599 556.452,-215.704 558.44,-226.111 564.496,-222.599"/>
</g>
<!-- LRS -->
<g id="node7" class="node"><title>LRS</title>
<polygon fill="lightgray" stroke="black" points="136,-370.082 104,-370.082 104,-352.082 136,-352.082 136,-370.082"/>
<text text-anchor="middle" x="120" y="-358.882" font-family="Times New Roman,serif" font-size="9.00">LRS</text>
</g>
<!-- LRS&#45;&gt;159 -->
<g id="edge8" class="edge"><title>LRS&#45;&gt;159</title>
<path fill="none" stroke="red" stroke-width="0.293434" d="M120,-351.841C120,-341.672 120,-323.8 120,-308.104"/>
<polygon fill="red" stroke="red" stroke-width="0.293434" points="123.5,-307.707 120,-297.707 116.5,-307.707 123.5,-307.707"/>
</g>
<!-- LRA -->
<g id="node8" class="node"><title>LRA</title>
<polygon fill="lightgray" stroke="black" points="472.5,-370.082 437.5,-370.082 437.5,-352.082 472.5,-352.082 472.5,-370.082"/>
<text text-anchor="middle" x="455" y="-358.882" font-family="Times New Roman,serif" font-size="9.00">LRA</text>
</g>
<!-- LRA&#45;&gt;URL -->
<g id="edge10" class="edge"><title>LRA&#45;&gt;URL</title>
<path fill="none" stroke="red" stroke-width="0.329362" stroke-dasharray="1,5" d="M472.651,-359.414C507.47,-357.028 584.521,-346.219 618,-297.505 644.724,-258.62 584.284,-168.313 580,-163.924 495.557,-77.4106 348.906,-42.7187 282.47,-30.9507"/>
<polygon fill="red" stroke="red" stroke-width="0.329362" points="282.964,-27.4845 272.518,-29.2545 281.788,-34.385 282.964,-27.4845"/>
</g>
<!-- LRA&#45;&gt;159 -->
<g id="edge25" class="edge"><title>LRA&#45;&gt;159</title>
<path fill="none" stroke="green" stroke-width="0.4" d="M448.884,-351.702C443.957,-345.617 436.473,-337.737 428,-333.505 331.505,-285.312 293.286,-320.928 188,-297.505 175.354,-294.691 161.62,-290.777 149.827,-287.142"/>
<polygon fill="green" stroke="green" stroke-width="0.4" points="150.629,-283.725 140.039,-284.054 148.522,-290.401 150.629,-283.725"/>
</g>
<!-- LRA&#45;&gt;97 -->
<g id="edge11" class="edge"><title>LRA&#45;&gt;97</title>
<path fill="none" stroke="green" stroke-width="0.432772" d="M448.452,-351.854C443.412,-346.008 435.978,-338.362 428,-333.505 384.062,-306.754 361.145,-325.516 318,-297.505 315.658,-295.984 268.753,-243.692 241.745,-213.489"/>
<polygon fill="green" stroke="green" stroke-width="0.432772" points="244.3,-211.097 235.027,-205.973 239.082,-215.762 244.3,-211.097"/>
</g>
<!-- URS -->
<g id="node9" class="node"><title>URS</title>
<polygon fill="lightgray" stroke="black" points="361,-285.291 327,-285.291 327,-267.291 361,-267.291 361,-285.291"/>
<text text-anchor="middle" x="344" y="-274.091" font-family="Times New Roman,serif" font-size="9.00">URS</text>
</g>
<!-- URS&#45;&gt;URL -->
<g id="edge26" class="edge"><title>URS&#45;&gt;URL</title>
<path fill="none" stroke="green" stroke-width="0.576317" d="M339.897,-267.009C334.572,-256.132 325.118,-236.381 318,-219.078 295.06,-163.319 271.919,-96.9778 258.828,-58.2917"/>
<polygon fill="green" stroke="green" stroke-width="0.576317" points="262.076,-56.9697 255.566,-48.6103 255.442,-59.2044 262.076,-56.9697"/>
</g>
<!-- 425 -->
<g id="node18" class="node"><title>425</title>
<ellipse fill="white" stroke="black" cx="400" cy="-191.501" rx="21.4286" ry="21.4286"/>
<text text-anchor="middle" x="400" y="-189.301" font-family="Times New Roman,serif" font-size="9.00">425</text>
</g>
<!-- URS&#45;&gt;425 -->
<g id="edge14" class="edge"><title>URS&#45;&gt;425</title>
<path fill="none" stroke="red" stroke-width="0.210591" stroke-dasharray="1,5" d="M349.574,-267.05C357.254,-255.696 371.431,-234.738 382.801,-217.929"/>
<polygon fill="red" stroke="red" stroke-width="0.210591" points="385.738,-219.833 388.441,-209.589 379.939,-215.911 385.738,-219.833"/>
</g>
<!-- URS&#45;&gt;110 -->
<g id="edge2" class="edge"><title>URS&#45;&gt;110</title>
<path fill="none" stroke="green" stroke-width="0.478366" d="M339.978,-267.193C331.243,-248.449 312.376,-200.858 326,-163.924 330.976,-150.433 340.791,-137.983 350.257,-128.247"/>
<polygon fill="green" stroke="green" stroke-width="0.478366" points="352.932,-130.528 357.673,-121.053 348.059,-125.504 352.932,-130.528"/>
</g>
<!-- URA -->
<g id="node10" class="node"><title>URA</title>
<polygon fill="lightgray" stroke="black" points="375,-370.082 339,-370.082 339,-352.082 375,-352.082 375,-370.082"/>
<text text-anchor="middle" x="357" y="-358.882" font-family="Times New Roman,serif" font-size="9.00">URA</text>
</g>
<!-- URA&#45;&gt;159 -->
<g id="edge36" class="edge"><title>URA&#45;&gt;159</title>
<path fill="none" stroke="green" stroke-width="0.6" d="M349.359,-351.874C343.315,-345.879 334.36,-338.036 325,-333.505 255.487,-299.85 227.11,-325.159 155,-297.505 152.08,-296.385 149.117,-295.043 146.213,-293.589"/>
<polygon fill="green" stroke="green" stroke-width="0.6" points="147.721,-290.425 137.267,-288.703 144.366,-296.568 147.721,-290.425"/>
</g>
<!-- URA&#45;&gt;97 -->
<g id="edge34" class="edge"><title>URA&#45;&gt;97</title>
<path fill="none" stroke="green" stroke-width="0.25465" d="M349.295,-352.003C343.217,-346.076 334.248,-338.261 325,-333.505 269.014,-304.711 226.446,-347.358 188,-297.505 168.854,-272.678 188.329,-236.845 204.974,-214.12"/>
<polygon fill="green" stroke="green" stroke-width="0.25465" points="207.815,-216.166 211.128,-206.103 202.263,-211.904 207.815,-216.166"/>
</g>
<!-- LLS -->
<g id="node11" class="node"><title>LLS</title>
<polygon fill="lightgray" stroke="black" points="465,-285.291 433,-285.291 433,-267.291 465,-267.291 465,-285.291"/>
<text text-anchor="middle" x="449" y="-274.091" font-family="Times New Roman,serif" font-size="9.00">LLS</text>
</g>
<!-- LLS&#45;&gt;425 -->
<g id="edge21" class="edge"><title>LLS&#45;&gt;425</title>
<path fill="none" stroke="green" stroke-width="0.426817" d="M444.123,-267.05C437.546,-255.938 425.525,-235.628 415.689,-219.01"/>
<polygon fill="green" stroke="green" stroke-width="0.426817" points="418.604,-217.062 410.499,-210.239 412.58,-220.628 418.604,-217.062"/>
</g>
<!-- LLS&#45;&gt;110 -->
<g id="edge29" class="edge"><title>LLS&#45;&gt;110</title>
<path fill="none" stroke="red" stroke-width="0.6" d="M449.245,-267.216C449.493,-248.118 448.164,-199.135 430,-163.924 422.53,-149.442 410.007,-136.342 398.695,-126.438"/>
<polygon fill="red" stroke="red" stroke-width="0.6" points="400.683,-123.538 390.762,-119.817 396.197,-128.912 400.683,-123.538"/>
</g>
<!-- LLA -->
<g id="node12" class="node"><title>LLA</title>
<polygon fill="lightgray" stroke="black" points="93,-442.659 59,-442.659 59,-424.659 93,-424.659 93,-442.659"/>
<text text-anchor="middle" x="76" y="-431.459" font-family="Times New Roman,serif" font-size="9.00">LLA</text>
</g>
<!-- LLA&#45;&gt;URL -->
<g id="edge18" class="edge"><title>LLA&#45;&gt;URL</title>
<path fill="none" stroke="green" stroke-width="0.6" d="M68.7128,-424.593C49.6906,-402.669 0,-339.449 0,-277.291 0,-277.291 0,-277.291 0,-190.501 0,-88.9722 145.992,-46.254 213.951,-31.8689"/>
<polygon fill="green" stroke="green" stroke-width="0.6" points="214.667,-35.295 223.769,-29.8734 213.272,-28.4353 214.667,-35.295"/>
</g>
<!-- LLA&#45;&gt;159 -->
<g id="edge23" class="edge"><title>LLA&#45;&gt;159</title>
<path fill="none" stroke="red" stroke-width="0.317823" stroke-dasharray="1,5" d="M76.916,-424.537C78.986,-407.408 84.6675,-366.452 95,-333.505 98.0044,-323.925 102.173,-313.801 106.246,-304.824"/>
<polygon fill="red" stroke="red" stroke-width="0.317823" points="109.488,-306.154 110.568,-295.614 103.151,-303.18 109.488,-306.154"/>
</g>
<!-- LLA&#45;&gt;13743 -->
<g id="edge32" class="edge"><title>LLA&#45;&gt;13743</title>
<path fill="none" stroke="red" stroke-width="0.509838" d="M93.4457,-429.284C121.123,-423.498 176.328,-410.186 219,-388.659 221.246,-387.526 223.499,-386.255 225.722,-384.898"/>
<polygon fill="red" stroke="red" stroke-width="0.509838" points="227.675,-387.803 234.068,-379.355 223.801,-381.972 227.675,-387.803"/>
</g>
<!-- 14019 -->
<g id="node20" class="node"><title>14019</title>
<ellipse fill="white" stroke="black" cx="182" cy="-361.082" rx="27.6545" ry="27.6545"/>
<text text-anchor="middle" x="182" y="-358.882" font-family="Times New Roman,serif" font-size="9.00">14019</text>
</g>
<!-- LLA&#45;&gt;14019 -->
<g id="edge17" class="edge"><title>LLA&#45;&gt;14019</title>
<path fill="none" stroke="green" stroke-width="0.4" d="M89.1106,-424.599C103.095,-415.932 125.825,-401.645 145,-388.659 147.177,-387.184 149.413,-385.644 151.656,-384.081"/>
<polygon fill="green" stroke="green" stroke-width="0.4" points="154.081,-386.653 160.228,-378.024 150.042,-380.936 154.081,-386.653"/>
</g>
<!-- LLA&#45;&gt;110 -->
<g id="edge16" class="edge"><title>LLA&#45;&gt;110</title>
<path fill="none" stroke="green" stroke-width="0.465797" stroke-dasharray="1,5" d="M74.445,-424.578C69.8068,-398.228 58.2739,-313.159 90,-255.078 142.107,-159.685 280.488,-124.022 342.807,-112.512"/>
<polygon fill="green" stroke="green" stroke-width="0.465797" points="343.585,-115.929 352.827,-110.75 342.372,-109.035 343.585,-115.929"/>
</g>
<!-- ULS -->
<g id="node13" class="node"><title>ULS</title>
<polygon fill="lightgray" stroke="black" points="516.5,-285.291 483.5,-285.291 483.5,-267.291 516.5,-267.291 516.5,-285.291"/>
<text text-anchor="middle" x="500" y="-274.091" font-family="Times New Roman,serif" font-size="9.00">ULS</text>
</g>
<!-- ULS&#45;&gt;425 -->
<g id="edge12" class="edge"><title>ULS&#45;&gt;425</title>
<path fill="none" stroke="red" stroke-width="0.300914" d="M490.046,-267.05C474.782,-254.413 445.147,-229.878 424.045,-212.408"/>
<polygon fill="red" stroke="red" stroke-width="0.300914" points="426.081,-209.55 416.147,-205.869 421.617,-214.942 426.081,-209.55"/>
</g>
<!-- ULS&#45;&gt;110 -->
<g id="edge4" class="edge"><title>ULS&#45;&gt;110</title>
<path fill="none" stroke="green" stroke-width="0.287728" stroke-dasharray="1,5" d="M498.121,-267.233C493.264,-247.75 478.762,-197.247 452,-163.924 438.154,-146.684 417.752,-132.234 401.287,-122.303"/>
<polygon fill="green" stroke="green" stroke-width="0.287728" points="403.015,-119.26 392.611,-117.262 399.498,-125.312 403.015,-119.26"/>
</g>
<!-- ULS&#45;&gt;13815 -->
<g id="edge9" class="edge"><title>ULS&#45;&gt;13815</title>
<path fill="none" stroke="red" stroke-width="0.323997" d="M504.28,-267.05C509.311,-257.364 517.973,-240.686 525.83,-225.559"/>
<polygon fill="red" stroke="red" stroke-width="0.323997" points="529.076,-226.904 530.579,-216.416 522.864,-223.677 529.076,-226.904"/>
</g>
<!-- LGC -->
<g id="node14" class="node"><title>LGC</title>
<polygon fill="lightgray" stroke="black" points="414.5,-285.291 379.5,-285.291 379.5,-267.291 414.5,-267.291 414.5,-285.291"/>
<text text-anchor="middle" x="397" y="-274.091" font-family="Times New Roman,serif" font-size="9.00">LGC</text>
</g>
<!-- LGC&#45;&gt;425 -->
<g id="edge28" class="edge"><title>LGC&#45;&gt;425</title>
<path fill="none" stroke="green" stroke-width="0.382804" d="M397.299,-267.05C397.667,-256.882 398.315,-239.01 398.883,-223.314"/>
<polygon fill="green" stroke="green" stroke-width="0.382804" points="402.396,-223.036 399.26,-212.916 395.4,-222.783 402.396,-223.036"/>
</g>
<!-- Vx -->
<g id="node15" class="node"><title>Vx</title>
<polygon fill="lightgray" stroke="black" points="361,-200.501 335,-200.501 335,-182.501 361,-182.501 361,-200.501"/>
<text text-anchor="middle" x="348" y="-189.301" font-family="Times New Roman,serif" font-size="9.00">Vx</text>
</g>
<!-- Vx&#45;&gt;110 -->
<g id="edge33" class="edge"><title>Vx&#45;&gt;110</title>
<path fill="none" stroke="green" stroke-width="0.533374" d="M350.588,-182.26C353.907,-171.693 359.838,-152.806 364.9,-136.687"/>
<polygon fill="green" stroke="green" stroke-width="0.533374" points="368.251,-137.698 367.908,-127.108 361.573,-135.6 368.251,-137.698"/>
</g>
<!-- hav -->
<g id="node16" class="node"><title>hav</title>
<polygon fill="lightgray" stroke="black" points="270.5,-285.291 241.5,-285.291 241.5,-267.291 270.5,-267.291 270.5,-285.291"/>
<text text-anchor="middle" x="256" y="-274.091" font-family="Times New Roman,serif" font-size="9.00">hav</text>
</g>
<!-- hav&#45;&gt;97 -->
<g id="edge3" class="edge"><title>hav&#45;&gt;97</title>
<path fill="none" stroke="green" stroke-width="0.6" d="M252.715,-267.05C248.218,-255.768 239.941,-235.002 233.262,-218.247"/>
<polygon fill="green" stroke="green" stroke-width="0.6" points="236.509,-216.941 229.555,-208.947 230.007,-219.533 236.509,-216.941"/>
</g>
<!-- 159&#45;&gt;URL -->
<g id="edge31" class="edge"><title>159&#45;&gt;URL</title>
<path fill="none" stroke="green" stroke-width="0.543321" d="M129.412,-256.942C151.207,-214.452 205.331,-108.935 232.262,-56.4314"/>
<polygon fill="green" stroke="green" stroke-width="0.543321" points="235.51,-57.7671 236.96,-47.2719 229.282,-54.5722 235.51,-57.7671"/>
</g>
<!-- 159&#45;&gt;97 -->
<g id="edge39" class="edge"><title>159&#45;&gt;97</title>
<path fill="none" stroke="green" stroke-width="0.4" stroke-dasharray="1,5" d="M136.094,-262.355C153.541,-248.331 181.496,-225.861 200.974,-210.206"/>
<polygon fill="green" stroke="green" stroke-width="0.4" points="203.4,-212.746 209.002,-203.753 199.015,-207.29 203.4,-212.746"/>
</g>
<!-- 425&#45;&gt;110 -->
<g id="edge5" class="edge"><title>425&#45;&gt;110</title>
<path fill="none" stroke="red" stroke-width="0.464522" d="M393.838,-170.881C390.665,-160.777 386.732,-148.253 383.207,-137.027"/>
<polygon fill="red" stroke="red" stroke-width="0.464522" points="386.453,-135.682 380.117,-127.19 379.774,-137.779 386.453,-135.682"/>
</g>
<!-- 13743&#45;&gt;159 -->
<g id="edge27" class="edge"><title>13743&#45;&gt;159</title>
<path fill="none" stroke="green" stroke-width="0.3134" d="M233.604,-343.617C228.871,-340.165 223.827,-336.627 219,-333.505 191.598,-315.779 183.353,-313.666 155,-297.505 152.342,-295.99 149.575,-294.405 146.812,-292.817"/>
<polygon fill="green" stroke="green" stroke-width="0.3134" points="148.555,-289.782 138.143,-287.822 145.06,-295.847 148.555,-289.782"/>
</g>
<!-- 14019&#45;&gt;159 -->
<g id="edge37" class="edge"><title>14019&#45;&gt;159</title>
<path fill="none" stroke="green" stroke-width="0.346674" d="M165.71,-338.33C157.28,-327.072 146.96,-313.292 138.261,-301.676"/>
<polygon fill="green" stroke="green" stroke-width="0.346674" points="141.059,-299.573 132.263,-293.667 135.456,-303.769 141.059,-299.573"/>
</g>
<!-- 97&#45;&gt;URL -->
<g id="edge1" class="edge"><title>97&#45;&gt;URL</title>
<path fill="none" stroke="green" stroke-width="0.330977" d="M225.628,-173.181C229.707,-146.302 237.635,-94.0529 242.874,-59.5287"/>
<polygon fill="green" stroke="green" stroke-width="0.330977" points="246.366,-59.8431 244.406,-49.4311 239.446,-58.7928 246.366,-59.8431"/>
</g>
<!-- 97&#45;&gt;110 -->
<g id="edge24" class="edge"><title>97&#45;&gt;110</title>
<path fill="none" stroke="green" stroke-width="0.4" d="M238.874,-181.798C264.401,-167.801 314.896,-140.116 346.411,-122.837"/>
<polygon fill="green" stroke="green" stroke-width="0.4" points="348.448,-125.712 355.534,-117.835 345.083,-119.574 348.448,-125.712"/>
</g>
<!-- 110&#45;&gt;URL -->
<g id="edge35" class="edge"><title>110&#45;&gt;URL</title>
<path fill="none" stroke="red" stroke-width="0.50582" d="M356.48,-94.5923C336.004,-81.5978 301.803,-59.8932 277.274,-44.3267"/>
<polygon fill="red" stroke="red" stroke-width="0.50582" points="279.037,-41.3 268.718,-38.8968 275.286,-47.2103 279.037,-41.3"/>
</g>
<!-- 13815&#45;&gt;110 -->
<g id="edge15" class="edge"><title>13815&#45;&gt;110</title>
<path fill="none" stroke="green" stroke-width="0.487859" d="M520.257,-175.254C514.114,-171.373 507.394,-167.338 501,-163.924 468.372,-146.502 429.245,-129.775 403.123,-119.165"/>
<polygon fill="green" stroke="green" stroke-width="0.487859" points="404.373,-115.896 393.789,-115.41 401.76,-122.39 404.373,-115.896"/>
</g>
</g>
</svg>
