<?xml version="1.0" encoding="UTF-8" standalone="no"?>
<!DOCTYPE svg PUBLIC "-//W3C//DTD SVG 1.1//EN"
 "http://www.w3.org/Graphics/SVG/1.1/DTD/svg11.dtd">
<!-- Generated by graphviz version 2.38.0 (20140413.2041)
 -->
<!-- Title: %3 Pages: 1 -->
<svg width="1030pt" height="610pt"
 viewBox="0.00 0.00 1029.58 610.08" xmlns="http://www.w3.org/2000/svg" xmlns:xlink="http://www.w3.org/1999/xlink">
<g id="graph0" class="graph" transform="scale(1 1) rotate(0) translate(4 606.08)">
<title>%3</title>
<polygon fill="white" stroke="none" points="-4,4 -4,-606.08 1025.58,-606.08 1025.58,4 -4,4"/>
<!-- &#45;1 -->
<g id="node1" class="node"><title>&#45;1</title>
<polygon fill="lightgray" stroke="black" points="259,-583.503 235,-583.503 235,-565.503 259,-565.503 259,-583.503"/>
<text text-anchor="middle" x="247" y="-572.303" font-family="Times,serif" font-size="9.00">&#45;1</text>
</g>
<!-- &#45;2 -->
<g id="node2" class="node"><title>&#45;2</title>
<polygon fill="lightgray" stroke="black" points="301,-583.503 277,-583.503 277,-565.503 301,-565.503 301,-583.503"/>
<text text-anchor="middle" x="289" y="-572.303" font-family="Times,serif" font-size="9.00">&#45;2</text>
</g>
<!-- &#45;3 -->
<g id="node3" class="node"><title>&#45;3</title>
<polygon fill="lightgray" stroke="black" points="343,-583.503 319,-583.503 319,-565.503 343,-565.503 343,-583.503"/>
<text text-anchor="middle" x="331" y="-572.303" font-family="Times,serif" font-size="9.00">&#45;3</text>
</g>
<!-- &#45;4 -->
<g id="node4" class="node"><title>&#45;4</title>
<polygon fill="lightgray" stroke="black" points="385,-583.503 361,-583.503 361,-565.503 385,-565.503 385,-583.503"/>
<text text-anchor="middle" x="373" y="-572.303" font-family="Times,serif" font-size="9.00">&#45;4</text>
</g>
<!-- &#45;5 -->
<g id="node5" class="node"><title>&#45;5</title>
<polygon fill="lightgray" stroke="black" points="427,-583.503 403,-583.503 403,-565.503 427,-565.503 427,-583.503"/>
<text text-anchor="middle" x="415" y="-572.303" font-family="Times,serif" font-size="9.00">&#45;5</text>
</g>
<!-- &#45;6 -->
<g id="node6" class="node"><title>&#45;6</title>
<polygon fill="lightgray" stroke="black" points="24,-310.04 0,-310.04 0,-292.04 24,-292.04 24,-310.04"/>
<text text-anchor="middle" x="12" y="-298.84" font-family="Times,serif" font-size="9.00">&#45;6</text>
</g>
<!-- 3 -->
<g id="node28" class="node"><title>3</title>
<ellipse fill="lightblue" stroke="black" cx="70" cy="-209.886" rx="14.7" ry="14.7"/>
<text text-anchor="middle" x="70" y="-207.686" font-family="Times,serif" font-size="9.00">3</text>
</g>
<!-- &#45;6&#45;&gt;3 -->
<g id="edge8" class="edge"><title>&#45;6&#45;&gt;3</title>
<path fill="none" stroke="red" stroke-width="0.233099" d="M17.3525,-291.813C26.2214,-278.18 44.2203,-250.513 56.6868,-231.35"/>
<polygon fill="red" stroke="red" stroke-width="0.233099" points="59.7786,-233.016 62.298,-222.725 53.911,-229.199 59.7786,-233.016"/>
</g>
<!-- &#45;7 -->
<g id="node7" class="node"><title>&#45;7</title>
<polygon fill="lightgray" stroke="black" points="545,-583.503 521,-583.503 521,-565.503 545,-565.503 545,-583.503"/>
<text text-anchor="middle" x="533" y="-572.303" font-family="Times,serif" font-size="9.00">&#45;7</text>
</g>
<!-- &#45;8 -->
<g id="node8" class="node"><title>&#45;8</title>
<polygon fill="lightgray" stroke="black" points="758,-310.04 734,-310.04 734,-292.04 758,-292.04 758,-310.04"/>
<text text-anchor="middle" x="746" y="-298.84" font-family="Times,serif" font-size="9.00">&#45;8</text>
</g>
<!-- 49510 -->
<g id="node39" class="node"><title>49510</title>
<ellipse fill="white" stroke="black" cx="746" cy="-209.886" rx="27.6545" ry="27.6545"/>
<text text-anchor="middle" x="746" y="-207.686" font-family="Times,serif" font-size="9.00">49510</text>
</g>
<!-- &#45;8&#45;&gt;49510 -->
<g id="edge6" class="edge"><title>&#45;8&#45;&gt;49510</title>
<path fill="none" stroke="red" stroke-width="0.107857" stroke-dasharray="1,5" d="M746,-291.813C746,-281.841 746,-264.36 746,-248.191"/>
<polygon fill="red" stroke="red" stroke-width="0.107857" points="749.5,-247.847 746,-237.847 742.5,-247.847 749.5,-247.847"/>
</g>
<!-- 48127 -->
<g id="node48" class="node"><title>48127</title>
<ellipse fill="white" stroke="black" cx="632" cy="-209.886" rx="27.6545" ry="27.6545"/>
<text text-anchor="middle" x="632" y="-207.686" font-family="Times,serif" font-size="9.00">48127</text>
</g>
<!-- &#45;8&#45;&gt;48127 -->
<g id="edge19" class="edge"><title>&#45;8&#45;&gt;48127</title>
<path fill="none" stroke="red" stroke-width="0.296515" stroke-dasharray="1,5" d="M740.351,-291.578C736.427,-286.059 730.867,-278.898 725,-273.463 706.72,-256.529 683.459,-240.879 664.774,-229.466"/>
<polygon fill="red" stroke="red" stroke-width="0.296515" points="666.388,-226.353 656.011,-224.216 662.791,-232.358 666.388,-226.353"/>
</g>
<!-- &#45;9 -->
<g id="node9" class="node"><title>&#45;9</title>
<polygon fill="lightgray" stroke="black" points="614,-583.503 590,-583.503 590,-565.503 614,-565.503 614,-583.503"/>
<text text-anchor="middle" x="602" y="-572.303" font-family="Times,serif" font-size="9.00">&#45;9</text>
</g>
<!-- 45393 -->
<g id="node38" class="node"><title>45393</title>
<ellipse fill="white" stroke="black" cx="602" cy="-483.349" rx="27.6545" ry="27.6545"/>
<text text-anchor="middle" x="602" y="-481.149" font-family="Times,serif" font-size="9.00">45393</text>
</g>
<!-- &#45;9&#45;&gt;45393 -->
<g id="edge5" class="edge"><title>&#45;9&#45;&gt;45393</title>
<path fill="none" stroke="red" stroke-width="0.379389" d="M602,-565.276C602,-555.304 602,-537.823 602,-521.654"/>
<polygon fill="red" stroke="red" stroke-width="0.379389" points="605.5,-521.31 602,-511.31 598.5,-521.31 605.5,-521.31"/>
</g>
<!-- &#45;10 -->
<g id="node10" class="node"><title>&#45;10</title>
<polygon fill="lightgray" stroke="black" points="431.5,-310.04 402.5,-310.04 402.5,-292.04 431.5,-292.04 431.5,-310.04"/>
<text text-anchor="middle" x="417" y="-298.84" font-family="Times,serif" font-size="9.00">&#45;10</text>
</g>
<!-- 2 -->
<g id="node27" class="node"><title>2</title>
<ellipse fill="lightblue" stroke="black" cx="481" cy="-209.886" rx="14.7" ry="14.7"/>
<text text-anchor="middle" x="481" y="-207.686" font-family="Times,serif" font-size="9.00">2</text>
</g>
<!-- &#45;10&#45;&gt;2 -->
<g id="edge2" class="edge"><title>&#45;10&#45;&gt;2</title>
<path fill="none" stroke="red" stroke-width="1.62713" d="M422.906,-291.813C432.79,-278.043 452.952,-249.958 466.721,-230.778"/>
<polygon fill="red" stroke="red" stroke-width="1.62713" points="469.727,-232.592 472.715,-222.427 464.04,-228.51 469.727,-232.592"/>
</g>
<!-- 45220 -->
<g id="node32" class="node"><title>45220</title>
<ellipse fill="white" stroke="black" cx="391" cy="-27.5772" rx="27.6545" ry="27.6545"/>
<text text-anchor="middle" x="391" y="-25.3772" font-family="Times,serif" font-size="9.00">45220</text>
</g>
<!-- &#45;10&#45;&gt;45220 -->
<g id="edge39" class="edge"><title>&#45;10&#45;&gt;45220</title>
<path fill="none" stroke="green" stroke-width="0.13369" d="M416.223,-291.94C415.079,-280.011 412.874,-257.018 411,-237.463 405.218,-177.119 398.503,-106.969 394.51,-65.2554"/>
<polygon fill="green" stroke="green" stroke-width="0.13369" points="397.993,-64.9072 393.556,-55.2862 391.025,-65.5742 397.993,-64.9072"/>
</g>
<!-- 50025 -->
<g id="node42" class="node"><title>50025</title>
<ellipse fill="white" stroke="black" cx="335" cy="-118.731" rx="27.6545" ry="27.6545"/>
<text text-anchor="middle" x="335" y="-116.531" font-family="Times,serif" font-size="9.00">50025</text>
</g>
<!-- &#45;10&#45;&gt;50025 -->
<g id="edge13" class="edge"><title>&#45;10&#45;&gt;50025</title>
<path fill="none" stroke="red" stroke-width="0.396827" d="M410.936,-291.892C402.494,-280.275 387.101,-258.072 377,-237.463 363.963,-210.864 352.888,-179.158 345.389,-155.354"/>
<polygon fill="red" stroke="red" stroke-width="0.396827" points="348.695,-154.196 342.399,-145.674 342.006,-156.262 348.695,-154.196"/>
</g>
<!-- &#45;11 -->
<g id="node11" class="node"><title>&#45;11</title>
<polygon fill="lightgray" stroke="black" points="264.5,-310.04 235.5,-310.04 235.5,-292.04 264.5,-292.04 264.5,-310.04"/>
<text text-anchor="middle" x="250" y="-298.84" font-family="Times,serif" font-size="9.00">&#45;11</text>
</g>
<!-- 49536 -->
<g id="node29" class="node"><title>49536</title>
<ellipse fill="white" stroke="black" cx="297" cy="-209.886" rx="27.6545" ry="27.6545"/>
<text text-anchor="middle" x="297" y="-207.686" font-family="Times,serif" font-size="9.00">49536</text>
</g>
<!-- &#45;11&#45;&gt;49536 -->
<g id="edge25" class="edge"><title>&#45;11&#45;&gt;49536</title>
<path fill="none" stroke="green" stroke-width="0.292913" d="M254.337,-291.813C260.051,-280.974 270.442,-261.264 279.538,-244.009"/>
<polygon fill="green" stroke="green" stroke-width="0.292913" points="282.853,-245.227 284.42,-234.748 276.661,-241.962 282.853,-245.227"/>
</g>
<!-- 49131 -->
<g id="node44" class="node"><title>49131</title>
<ellipse fill="white" stroke="black" cx="224" cy="-209.886" rx="27.6545" ry="27.6545"/>
<text text-anchor="middle" x="224" y="-207.686" font-family="Times,serif" font-size="9.00">49131</text>
</g>
<!-- &#45;11&#45;&gt;49131 -->
<g id="edge16" class="edge"><title>&#45;11&#45;&gt;49131</title>
<path fill="none" stroke="red" stroke-width="0.573574" d="M247.601,-291.813C244.602,-281.531 239.276,-263.268 234.442,-246.691"/>
<polygon fill="red" stroke="red" stroke-width="0.573574" points="237.68,-245.293 231.52,-236.673 230.96,-247.253 237.68,-245.293"/>
</g>
<!-- &#45;12 -->
<g id="node12" class="node"><title>&#45;12</title>
<polygon fill="lightgray" stroke="black" points="661.5,-583.503 632.5,-583.503 632.5,-565.503 661.5,-565.503 661.5,-583.503"/>
<text text-anchor="middle" x="647" y="-572.303" font-family="Times,serif" font-size="9.00">&#45;12</text>
</g>
<!-- &#45;13 -->
<g id="node13" class="node"><title>&#45;13</title>
<polygon fill="lightgray" stroke="black" points="217.5,-310.04 188.5,-310.04 188.5,-292.04 217.5,-292.04 217.5,-310.04"/>
<text text-anchor="middle" x="203" y="-298.84" font-family="Times,serif" font-size="9.00">&#45;13</text>
</g>
<!-- &#45;13&#45;&gt;49131 -->
<g id="edge18" class="edge"><title>&#45;13&#45;&gt;49131</title>
<path fill="none" stroke="red" stroke-width="0.165126" d="M204.938,-291.813C207.343,-281.603 211.602,-263.522 215.485,-247.036"/>
<polygon fill="red" stroke="red" stroke-width="0.165126" points="218.948,-247.599 217.834,-237.063 212.135,-245.994 218.948,-247.599"/>
</g>
<!-- &#45;14 -->
<g id="node14" class="node"><title>&#45;14</title>
<polygon fill="lightgray" stroke="black" points="474.5,-583.503 445.5,-583.503 445.5,-565.503 474.5,-565.503 474.5,-583.503"/>
<text text-anchor="middle" x="460" y="-572.303" font-family="Times,serif" font-size="9.00">&#45;14</text>
</g>
<!-- 0 -->
<g id="node25" class="node"><title>0</title>
<ellipse fill="lightblue" stroke="black" cx="387" cy="-483.349" rx="14.7" ry="14.7"/>
<text text-anchor="middle" x="387" y="-481.149" font-family="Times,serif" font-size="9.00">0</text>
</g>
<!-- &#45;14&#45;&gt;0 -->
<g id="edge33" class="edge"><title>&#45;14&#45;&gt;0</title>
<path fill="none" stroke="red" stroke-width="0.347756" stroke-dasharray="1,5" d="M453.263,-565.276C441.764,-551.232 418.07,-522.294 402.356,-503.103"/>
<polygon fill="red" stroke="red" stroke-width="0.347756" points="405.013,-500.823 395.97,-495.303 399.597,-505.258 405.013,-500.823"/>
</g>
<!-- 1 -->
<g id="node26" class="node"><title>1</title>
<ellipse fill="lightblue" stroke="black" cx="538" cy="-209.886" rx="14.7" ry="14.7"/>
<text text-anchor="middle" x="538" y="-207.686" font-family="Times,serif" font-size="9.00">1</text>
</g>
<!-- &#45;14&#45;&gt;1 -->
<g id="edge38" class="edge"><title>&#45;14&#45;&gt;1</title>
<path fill="none" stroke="red" stroke-width="0.481066" d="M462.556,-565.431C466.299,-553.538 473.429,-530.589 479,-510.926 501.842,-430.312 512.387,-411.121 527,-328.617 532.687,-296.509 535.552,-258.919 536.907,-235.012"/>
<polygon fill="red" stroke="red" stroke-width="0.481066" points="540.416,-234.928 537.442,-224.759 533.425,-234.563 540.416,-234.928"/>
</g>
<!-- &#45;14&#45;&gt;2 -->
<g id="edge26" class="edge"><title>&#45;14&#45;&gt;2</title>
<path fill="none" stroke="red" stroke-width="0.844563" d="M460.478,-565.248C463.062,-520.626 475.399,-307.598 479.597,-235.104"/>
<polygon fill="red" stroke="red" stroke-width="0.844563" points="483.093,-235.278 480.177,-225.092 476.105,-234.873 483.093,-235.278"/>
</g>
<!-- &#45;15 -->
<g id="node15" class="node"><title>&#45;15</title>
<polygon fill="lightgray" stroke="black" points="448.5,-218.886 419.5,-218.886 419.5,-200.886 448.5,-200.886 448.5,-218.886"/>
<text text-anchor="middle" x="434" y="-207.686" font-family="Times,serif" font-size="9.00">&#45;15</text>
</g>
<!-- 43013 -->
<g id="node30" class="node"><title>43013</title>
<ellipse fill="white" stroke="black" cx="494" cy="-118.731" rx="27.6545" ry="27.6545"/>
<text text-anchor="middle" x="494" y="-116.531" font-family="Times,serif" font-size="9.00">43013</text>
</g>
<!-- &#45;15&#45;&gt;43013 -->
<g id="edge21" class="edge"><title>&#45;15&#45;&gt;43013</title>
<path fill="none" stroke="red" stroke-width="0.17827" d="M439.537,-200.658C447.166,-189.322 461.325,-168.283 473.295,-150.498"/>
<polygon fill="red" stroke="red" stroke-width="0.17827" points="476.277,-152.335 478.956,-142.085 470.469,-148.427 476.277,-152.335"/>
</g>
<!-- &#45;16 -->
<g id="node16" class="node"><title>&#45;16</title>
<polygon fill="lightgray" stroke="black" points="517.5,-310.04 488.5,-310.04 488.5,-292.04 517.5,-292.04 517.5,-310.04"/>
<text text-anchor="middle" x="503" y="-298.84" font-family="Times,serif" font-size="9.00">&#45;16</text>
</g>
<!-- &#45;16&#45;&gt;1 -->
<g id="edge11" class="edge"><title>&#45;16&#45;&gt;1</title>
<path fill="none" stroke="red" stroke-width="2.92731" d="M506.23,-291.813C511.394,-278.658 521.688,-252.437 529.163,-233.397"/>
<polygon fill="red" stroke="red" stroke-width="2.92731" points="532.477,-234.533 532.873,-223.945 525.961,-231.974 532.477,-234.533"/>
</g>
<!-- &#45;16&#45;&gt;2 -->
<g id="edge10" class="edge"><title>&#45;16&#45;&gt;2</title>
<path fill="none" stroke="red" stroke-width="0.41349" stroke-dasharray="1,5" d="M500.97,-291.813C497.775,-278.864 491.455,-253.255 486.777,-234.297"/>
<polygon fill="red" stroke="red" stroke-width="0.41349" points="490.171,-233.442 484.377,-224.572 483.375,-235.119 490.171,-233.442"/>
</g>
<!-- &#45;17 -->
<g id="node17" class="node"><title>&#45;17</title>
<polygon fill="lightgray" stroke="black" points="603.5,-310.04 574.5,-310.04 574.5,-292.04 603.5,-292.04 603.5,-310.04"/>
<text text-anchor="middle" x="589" y="-298.84" font-family="Times,serif" font-size="9.00">&#45;17</text>
</g>
<!-- &#45;17&#45;&gt;48127 -->
<g id="edge9" class="edge"><title>&#45;17&#45;&gt;48127</title>
<path fill="none" stroke="green" stroke-width="0.131633" stroke-dasharray="1,5" d="M592.968,-291.813C598.161,-281.046 607.575,-261.528 615.856,-244.357"/>
<polygon fill="green" stroke="green" stroke-width="0.131633" points="619.115,-245.657 620.307,-235.13 612.81,-242.616 619.115,-245.657"/>
</g>
<!-- &#45;18 -->
<g id="node18" class="node"><title>&#45;18</title>
<polygon fill="lightgray" stroke="black" points="448.5,-127.731 419.5,-127.731 419.5,-109.731 448.5,-109.731 448.5,-127.731"/>
<text text-anchor="middle" x="434" y="-116.531" font-family="Times,serif" font-size="9.00">&#45;18</text>
</g>
<!-- &#45;18&#45;&gt;45220 -->
<g id="edge14" class="edge"><title>&#45;18&#45;&gt;45220</title>
<path fill="none" stroke="green" stroke-width="0.442349" d="M430.032,-109.504C424.839,-98.7378 415.425,-79.2191 407.144,-62.0484"/>
<polygon fill="green" stroke="green" stroke-width="0.442349" points="410.19,-60.3078 402.693,-52.8212 403.885,-63.3488 410.19,-60.3078"/>
</g>
<!-- &#45;19 -->
<g id="node19" class="node"><title>&#45;19</title>
<polygon fill="lightgray" stroke="black" points="84.5,-401.194 55.5,-401.194 55.5,-383.194 84.5,-383.194 84.5,-401.194"/>
<text text-anchor="middle" x="70" y="-389.994" font-family="Times,serif" font-size="9.00">&#45;19</text>
</g>
<!-- 49386 -->
<g id="node43" class="node"><title>49386</title>
<ellipse fill="white" stroke="black" cx="70" cy="-301.04" rx="27.6545" ry="27.6545"/>
<text text-anchor="middle" x="70" y="-298.84" font-family="Times,serif" font-size="9.00">49386</text>
</g>
<!-- &#45;19&#45;&gt;49386 -->
<g id="edge17" class="edge"><title>&#45;19&#45;&gt;49386</title>
<path fill="none" stroke="green" stroke-width="0.114267" d="M70,-382.967C70,-372.995 70,-355.514 70,-339.345"/>
<polygon fill="green" stroke="green" stroke-width="0.114267" points="73.5001,-339.001 70,-329.001 66.5001,-339.001 73.5001,-339.001"/>
</g>
<!-- &#45;20 -->
<g id="node20" class="node"><title>&#45;20</title>
<polygon fill="lightgray" stroke="black" points="708.5,-583.503 679.5,-583.503 679.5,-565.503 708.5,-565.503 708.5,-583.503"/>
<text text-anchor="middle" x="694" y="-572.303" font-family="Times,serif" font-size="9.00">&#45;20</text>
</g>
<!-- &#45;21 -->
<g id="node21" class="node"><title>&#45;21</title>
<polygon fill="lightgray" stroke="black" points="755.5,-583.503 726.5,-583.503 726.5,-565.503 755.5,-565.503 755.5,-583.503"/>
<text text-anchor="middle" x="741" y="-572.303" font-family="Times,serif" font-size="9.00">&#45;21</text>
</g>
<!-- &#45;22 -->
<g id="node22" class="node"><title>&#45;22</title>
<polygon fill="lightgray" stroke="black" points="802.5,-583.503 773.5,-583.503 773.5,-565.503 802.5,-565.503 802.5,-583.503"/>
<text text-anchor="middle" x="788" y="-572.303" font-family="Times,serif" font-size="9.00">&#45;22</text>
</g>
<!-- &#45;23 -->
<g id="node23" class="node"><title>&#45;23</title>
<polygon fill="lightgray" stroke="black" points="233.5,-401.194 204.5,-401.194 204.5,-383.194 233.5,-383.194 233.5,-401.194"/>
<text text-anchor="middle" x="219" y="-389.994" font-family="Times,serif" font-size="9.00">&#45;23</text>
</g>
<!-- 42819 -->
<g id="node37" class="node"><title>42819</title>
<ellipse fill="white" stroke="black" cx="357" cy="-301.04" rx="27.6545" ry="27.6545"/>
<text text-anchor="middle" x="357" y="-298.84" font-family="Times,serif" font-size="9.00">42819</text>
</g>
<!-- &#45;23&#45;&gt;42819 -->
<g id="edge28" class="edge"><title>&#45;23&#45;&gt;42819</title>
<path fill="none" stroke="red" stroke-width="0.232882" d="M232.582,-383.182C252.149,-371.547 289.294,-349.123 320,-328.617 322.187,-327.157 324.43,-325.627 326.678,-324.072"/>
<polygon fill="red" stroke="red" stroke-width="0.232882" points="329.098,-326.648 335.261,-318.03 325.069,-320.924 329.098,-326.648"/>
</g>
<!-- &#45;23&#45;&gt;49386 -->
<g id="edge36" class="edge"><title>&#45;23&#45;&gt;49386</title>
<path fill="none" stroke="green" stroke-width="0.46141" d="M204.381,-383.876C182.5,-372.75 140.154,-350.55 106,-328.617 103.884,-327.258 101.727,-325.818 99.5737,-324.339"/>
<polygon fill="green" stroke="green" stroke-width="0.46141" points="101.562,-321.458 91.38,-318.529 97.5131,-327.168 101.562,-321.458"/>
</g>
<!-- &#45;24 -->
<g id="node24" class="node"><title>&#45;24</title>
<polygon fill="lightgray" stroke="black" points="311.5,-310.04 282.5,-310.04 282.5,-292.04 311.5,-292.04 311.5,-310.04"/>
<text text-anchor="middle" x="297" y="-298.84" font-family="Times,serif" font-size="9.00">&#45;24</text>
</g>
<!-- &#45;24&#45;&gt;2 -->
<g id="edge24" class="edge"><title>&#45;24&#45;&gt;2</title>
<path fill="none" stroke="green" stroke-width="0.194701" stroke-dasharray="1,5" d="M302.07,-291.895C306.193,-285.932 312.538,-278.103 320,-273.463 373.828,-239.992 404.172,-270.934 458,-237.463 461.005,-235.594 463.83,-233.208 466.401,-230.635"/>
<polygon fill="green" stroke="green" stroke-width="0.194701" points="469.384,-232.536 473.281,-222.684 464.09,-227.956 469.384,-232.536"/>
</g>
<!-- &#45;24&#45;&gt;49536 -->
<g id="edge4" class="edge"><title>&#45;24&#45;&gt;49536</title>
<path fill="none" stroke="red" stroke-width="0.531821" stroke-dasharray="1,5" d="M297,-291.813C297,-281.841 297,-264.36 297,-248.191"/>
<polygon fill="red" stroke="red" stroke-width="0.531821" points="300.5,-247.847 297,-237.847 293.5,-247.847 300.5,-247.847"/>
</g>
<!-- 43581 -->
<g id="node35" class="node"><title>43581</title>
<ellipse fill="white" stroke="black" cx="381" cy="-392.194" rx="27.6545" ry="27.6545"/>
<text text-anchor="middle" x="381" y="-389.994" font-family="Times,serif" font-size="9.00">43581</text>
</g>
<!-- 0&#45;&gt;43581 -->
<g id="edge27" class="edge"><title>0&#45;&gt;43581</title>
<path fill="none" stroke="green" stroke-width="0.583605" d="M386.062,-468.418C385.369,-458.116 384.391,-443.579 383.479,-430.028"/>
<polygon fill="green" stroke="green" stroke-width="0.583605" points="386.964,-429.686 382.8,-419.944 379.98,-430.156 386.964,-429.686"/>
</g>
<!-- 47544 -->
<g id="node34" class="node"><title>47544</title>
<ellipse fill="white" stroke="black" cx="70" cy="-118.731" rx="27.6545" ry="27.6545"/>
<text text-anchor="middle" x="70" y="-116.531" font-family="Times,serif" font-size="9.00">47544</text>
</g>
<!-- 3&#45;&gt;47544 -->
<g id="edge1" class="edge"><title>3&#45;&gt;47544</title>
<path fill="none" stroke="red" stroke-width="0.357919" d="M70,-194.955C70,-184.653 70,-170.116 70,-156.565"/>
<polygon fill="red" stroke="red" stroke-width="0.357919" points="73.5001,-156.481 70,-146.481 66.5001,-156.481 73.5001,-156.481"/>
</g>
<!-- 43013&#45;&gt;45220 -->
<g id="edge22" class="edge"><title>43013&#45;&gt;45220</title>
<path fill="none" stroke="green" stroke-width="0.145565" d="M473.651,-100.117C458.093,-86.6514 436.461,-67.9269 419.23,-53.012"/>
<polygon fill="green" stroke="green" stroke-width="0.145565" points="421.511,-50.358 411.66,-46.4598 416.93,-55.6507 421.511,-50.358"/>
</g>
<!-- 49895 -->
<g id="node40" class="node"><title>49895</title>
<ellipse fill="white" stroke="black" cx="494" cy="-27.5772" rx="27.6545" ry="27.6545"/>
<text text-anchor="middle" x="494" y="-25.3772" font-family="Times,serif" font-size="9.00">49895</text>
</g>
<!-- 43013&#45;&gt;49895 -->
<g id="edge7" class="edge"><title>43013&#45;&gt;49895</title>
<path fill="none" stroke="green" stroke-width="0.462069" d="M494,-90.9823C494,-82.96 494,-74.0155 494,-65.4608"/>
<polygon fill="green" stroke="green" stroke-width="0.462069" points="497.5,-65.3075 494,-55.3075 490.5,-65.3076 497.5,-65.3075"/>
</g>
<!-- 48006 -->
<g id="node31" class="node"><title>48006</title>
<ellipse fill="white" stroke="black" cx="848" cy="-574.503" rx="27.6545" ry="27.6545"/>
<text text-anchor="middle" x="848" y="-572.303" font-family="Times,serif" font-size="9.00">48006</text>
</g>
<!-- 44719 -->
<g id="node33" class="node"><title>44719</title>
<ellipse fill="white" stroke="black" cx="921" cy="-574.503" rx="27.6545" ry="27.6545"/>
<text text-anchor="middle" x="921" y="-572.303" font-family="Times,serif" font-size="9.00">44719</text>
</g>
<!-- 43581&#45;&gt;42819 -->
<g id="edge29" class="edge"><title>43581&#45;&gt;42819</title>
<path fill="none" stroke="red" stroke-width="0.451015" d="M374.058,-365.407C371.72,-356.721 369.068,-346.87 366.564,-337.567"/>
<polygon fill="red" stroke="red" stroke-width="0.451015" points="369.905,-336.516 363.926,-327.769 363.146,-338.335 369.905,-336.516"/>
</g>
<!-- 49347 -->
<g id="node36" class="node"><title>49347</title>
<ellipse fill="white" stroke="black" cx="994" cy="-574.503" rx="27.6545" ry="27.6545"/>
<text text-anchor="middle" x="994" y="-572.303" font-family="Times,serif" font-size="9.00">49347</text>
</g>
<!-- 42819&#45;&gt;49131 -->
<g id="edge30" class="edge"><title>42819&#45;&gt;49131</title>
<path fill="none" stroke="red" stroke-width="0.360003" d="M335.296,-283.997C330.324,-280.449 325.022,-276.765 320,-273.463 294.016,-256.377 285.872,-254.718 260,-237.463 257.908,-236.067 255.769,-234.6 253.628,-233.101"/>
<polygon fill="red" stroke="red" stroke-width="0.360003" points="255.63,-230.229 245.463,-227.248 251.552,-235.919 255.63,-230.229"/>
</g>
<!-- 42819&#45;&gt;48127 -->
<g id="edge12" class="edge"><title>42819&#45;&gt;48127</title>
<path fill="none" stroke="red" stroke-width="0.376764" d="M378.002,-282.71C383.011,-279.229 388.504,-275.897 394,-273.463 463.818,-242.535 488.761,-259.078 562,-237.463 573.668,-234.019 586.16,-229.542 597.314,-225.246"/>
<polygon fill="red" stroke="red" stroke-width="0.376764" points="598.692,-228.466 606.717,-221.549 596.13,-221.951 598.692,-228.466"/>
</g>
<!-- 42216 -->
<g id="node41" class="node"><title>42216</title>
<ellipse fill="white" stroke="black" cx="632" cy="-118.731" rx="27.6545" ry="27.6545"/>
<text text-anchor="middle" x="632" y="-116.531" font-family="Times,serif" font-size="9.00">42216</text>
</g>
<!-- 50025&#45;&gt;45220 -->
<g id="edge15" class="edge"><title>50025&#45;&gt;45220</title>
<path fill="none" stroke="green" stroke-width="0.120004" d="M349.421,-94.772C356.019,-84.2688 363.943,-71.6528 371.096,-60.2647"/>
<polygon fill="green" stroke="green" stroke-width="0.120004" points="374.272,-61.7886 376.627,-51.4588 368.345,-58.0652 374.272,-61.7886"/>
</g>
<!-- 49386&#45;&gt;3 -->
<g id="edge35" class="edge"><title>49386&#45;&gt;3</title>
<path fill="none" stroke="green" stroke-width="0.174514" d="M70,-273.291C70,-261.117 70,-246.82 70,-234.984"/>
<polygon fill="green" stroke="green" stroke-width="0.174514" points="73.5001,-234.937 70,-224.937 66.5001,-234.937 73.5001,-234.937"/>
</g>
<!-- 49131&#45;&gt;45220 -->
<g id="edge3" class="edge"><title>49131&#45;&gt;45220</title>
<path fill="none" stroke="green" stroke-width="0.266849" d="M235.359,-184.749C248.1,-159.413 270.611,-119.41 298,-91.1543 315.46,-73.1418 338.917,-57.4028 357.904,-46.2147"/>
<polygon fill="green" stroke="green" stroke-width="0.266849" points="359.889,-49.111 366.82,-41.098 356.405,-43.0398 359.889,-49.111"/>
</g>
<!-- 49131&#45;&gt;50025 -->
<g id="edge37" class="edge"><title>49131&#45;&gt;50025</title>
<path fill="none" stroke="red" stroke-width="0.106749" d="M245.14,-191.907C262.422,-178.026 287.032,-158.259 306.13,-142.92"/>
<polygon fill="red" stroke="red" stroke-width="0.106749" points="308.334,-145.638 313.939,-136.647 303.951,-140.181 308.334,-145.638"/>
</g>
<!-- 50034 -->
<g id="node45" class="node"><title>50034</title>
<ellipse fill="white" stroke="black" cx="688" cy="-301.04" rx="27.6545" ry="27.6545"/>
<text text-anchor="middle" x="688" y="-298.84" font-family="Times,serif" font-size="9.00">50034</text>
</g>
<!-- 50034&#45;&gt;48127 -->
<g id="edge34" class="edge"><title>50034&#45;&gt;48127</title>
<path fill="none" stroke="red" stroke-width="0.45868" d="M673.579,-277.081C666.981,-266.577 659.057,-253.961 651.904,-242.573"/>
<polygon fill="red" stroke="red" stroke-width="0.45868" points="654.655,-240.374 646.373,-233.767 648.728,-244.097 654.655,-240.374"/>
</g>
<!-- 49274 -->
<g id="node46" class="node"><title>49274</title>
<ellipse fill="white" stroke="black" cx="660" cy="-392.194" rx="27.6545" ry="27.6545"/>
<text text-anchor="middle" x="660" y="-389.994" font-family="Times,serif" font-size="9.00">49274</text>
</g>
<!-- 49274&#45;&gt;50034 -->
<g id="edge20" class="edge"><title>49274&#45;&gt;50034</title>
<path fill="none" stroke="green" stroke-width="0.571444" d="M668.099,-365.407C670.88,-356.552 674.041,-346.486 677.012,-337.025"/>
<polygon fill="green" stroke="green" stroke-width="0.571444" points="680.359,-338.051 680.016,-327.461 673.681,-335.953 680.359,-338.051"/>
</g>
<!-- 49274&#45;&gt;48127 -->
<g id="edge32" class="edge"><title>49274&#45;&gt;48127</title>
<path fill="none" stroke="red" stroke-width="0.281698" stroke-dasharray="1,5" d="M655.869,-364.589C651.057,-333.606 643.082,-282.249 637.688,-247.512"/>
<polygon fill="red" stroke="red" stroke-width="0.281698" points="641.096,-246.651 636.103,-237.306 634.179,-247.725 641.096,-246.651"/>
</g>
<!-- 49661 -->
<g id="node47" class="node"><title>49661</title>
<ellipse fill="white" stroke="black" cx="143" cy="-301.04" rx="27.6545" ry="27.6545"/>
<text text-anchor="middle" x="143" y="-298.84" font-family="Times,serif" font-size="9.00">49661</text>
</g>
<!-- 49661&#45;&gt;3 -->
<g id="edge31" class="edge"><title>49661&#45;&gt;3</title>
<path fill="none" stroke="green" stroke-width="0.294642" d="M125.7,-278.912C113.435,-263.932 97.1258,-244.014 85.3278,-229.606"/>
<polygon fill="green" stroke="green" stroke-width="0.294642" points="88.0106,-227.357 78.9672,-221.837 82.5945,-231.792 88.0106,-227.357"/>
</g>
<!-- 48127&#45;&gt;42216 -->
<g id="edge23" class="edge"><title>48127&#45;&gt;42216</title>
<path fill="none" stroke="red" stroke-width="0.371017" stroke-dasharray="1,5" d="M632,-182.137C632,-174.114 632,-165.17 632,-156.615"/>
<polygon fill="red" stroke="red" stroke-width="0.371017" points="635.5,-156.462 632,-146.462 628.5,-156.462 635.5,-156.462"/>
</g>
</g>
</svg>
