<?xml version="1.0" encoding="UTF-8" standalone="no"?>
<!DOCTYPE svg PUBLIC "-//W3C//DTD SVG 1.1//EN"
 "http://www.w3.org/Graphics/SVG/1.1/DTD/svg11.dtd">
<!-- Generated by graphviz version 2.38.0 (20140413.2041)
 -->
<!-- Title: %3 Pages: 1 -->
<svg width="1108pt" height="286pt"
 viewBox="0.00 0.00 1108.43 285.71" xmlns="http://www.w3.org/2000/svg" xmlns:xlink="http://www.w3.org/1999/xlink">
<g id="graph0" class="graph" transform="scale(1 1) rotate(0) translate(4 281.706)">
<title>%3</title>
<polygon fill="white" stroke="none" points="-4,4 -4,-281.706 1104.43,-281.706 1104.43,4 -4,4"/>
<!-- &#45;1 -->
<g id="node1" class="node"><title>&#45;1</title>
<polygon fill="lightgray" stroke="black" points="192.577,-271.856 168.577,-271.856 168.577,-253.856 192.577,-253.856 192.577,-271.856"/>
<text text-anchor="middle" x="180.577" y="-260.656" font-family="Times,serif" font-size="9.00">&#45;1</text>
</g>
<!-- &#45;2 -->
<g id="node2" class="node"><title>&#45;2</title>
<polygon fill="lightgray" stroke="black" points="234.577,-271.856 210.577,-271.856 210.577,-253.856 234.577,-253.856 234.577,-271.856"/>
<text text-anchor="middle" x="222.577" y="-260.656" font-family="Times,serif" font-size="9.00">&#45;2</text>
</g>
<!-- &#45;3 -->
<g id="node3" class="node"><title>&#45;3</title>
<polygon fill="lightgray" stroke="black" points="276.577,-271.856 252.577,-271.856 252.577,-253.856 276.577,-253.856 276.577,-271.856"/>
<text text-anchor="middle" x="264.577" y="-260.656" font-family="Times,serif" font-size="9.00">&#45;3</text>
</g>
<!-- 28986 -->
<g id="node31" class="node"><title>28986</title>
<ellipse fill="white" stroke="black" cx="306.577" cy="-184.43" rx="27.6545" ry="27.6545"/>
<text text-anchor="middle" x="306.577" y="-182.23" font-family="Times,serif" font-size="9.00">28986</text>
</g>
<!-- &#45;3&#45;&gt;28986 -->
<g id="edge14" class="edge"><title>&#45;3&#45;&gt;28986</title>
<path fill="none" stroke="green" stroke-width="0.308644" d="M269.072,-253.677C273.783,-245.105 281.488,-231.084 288.693,-217.974"/>
<polygon fill="green" stroke="green" stroke-width="0.308644" points="291.809,-219.571 293.558,-209.121 285.674,-216.199 291.809,-219.571"/>
</g>
<!-- &#45;4 -->
<g id="node4" class="node"><title>&#45;4</title>
<polygon fill="lightgray" stroke="black" points="318.577,-271.856 294.577,-271.856 294.577,-253.856 318.577,-253.856 318.577,-271.856"/>
<text text-anchor="middle" x="306.577" y="-260.656" font-family="Times,serif" font-size="9.00">&#45;4</text>
</g>
<!-- &#45;4&#45;&gt;28986 -->
<g id="edge12" class="edge"><title>&#45;4&#45;&gt;28986</title>
<path fill="none" stroke="red" stroke-width="0.97047" d="M306.577,-253.677C306.577,-246.053 306.577,-234.119 306.577,-222.349"/>
<polygon fill="red" stroke="red" stroke-width="0.97047" points="310.077,-222.16 306.577,-212.16 303.077,-222.16 310.077,-222.16"/>
</g>
<!-- &#45;5 -->
<g id="node5" class="node"><title>&#45;5</title>
<polygon fill="lightgray" stroke="black" points="408.577,-271.856 384.577,-271.856 384.577,-253.856 408.577,-253.856 408.577,-271.856"/>
<text text-anchor="middle" x="396.577" y="-260.656" font-family="Times,serif" font-size="9.00">&#45;5</text>
</g>
<!-- &#45;6 -->
<g id="node6" class="node"><title>&#45;6</title>
<polygon fill="lightgray" stroke="black" points="245.577,-193.43 221.577,-193.43 221.577,-175.43 245.577,-175.43 245.577,-193.43"/>
<text text-anchor="middle" x="233.577" y="-182.23" font-family="Times,serif" font-size="9.00">&#45;6</text>
</g>
<!-- 29181 -->
<g id="node32" class="node"><title>29181</title>
<ellipse fill="white" stroke="black" cx="233.577" cy="-93.2756" rx="27.6545" ry="27.6545"/>
<text text-anchor="middle" x="233.577" y="-91.0756" font-family="Times,serif" font-size="9.00">29181</text>
</g>
<!-- &#45;6&#45;&gt;29181 -->
<g id="edge15" class="edge"><title>&#45;6&#45;&gt;29181</title>
<path fill="none" stroke="green" stroke-width="0.454256" d="M233.577,-175.202C233.577,-165.23 233.577,-147.749 233.577,-131.58"/>
<polygon fill="green" stroke="green" stroke-width="0.454256" points="237.077,-131.237 233.577,-121.237 230.077,-131.237 237.077,-131.237"/>
</g>
<!-- &#45;7 -->
<g id="node7" class="node"><title>&#45;7</title>
<polygon fill="lightgray" stroke="black" points="450.577,-271.856 426.577,-271.856 426.577,-253.856 450.577,-253.856 450.577,-271.856"/>
<text text-anchor="middle" x="438.577" y="-260.656" font-family="Times,serif" font-size="9.00">&#45;7</text>
</g>
<!-- &#45;8 -->
<g id="node8" class="node"><title>&#45;8</title>
<polygon fill="lightgray" stroke="black" points="492.577,-271.856 468.577,-271.856 468.577,-253.856 492.577,-253.856 492.577,-271.856"/>
<text text-anchor="middle" x="480.577" y="-260.656" font-family="Times,serif" font-size="9.00">&#45;8</text>
</g>
<!-- &#45;9 -->
<g id="node9" class="node"><title>&#45;9</title>
<polygon fill="lightgray" stroke="black" points="534.577,-271.856 510.577,-271.856 510.577,-253.856 534.577,-253.856 534.577,-271.856"/>
<text text-anchor="middle" x="522.577" y="-260.656" font-family="Times,serif" font-size="9.00">&#45;9</text>
</g>
<!-- &#45;10 -->
<g id="node10" class="node"><title>&#45;10</title>
<polygon fill="lightgray" stroke="black" points="143.077,-193.43 114.077,-193.43 114.077,-175.43 143.077,-175.43 143.077,-193.43"/>
<text text-anchor="middle" x="128.577" y="-182.23" font-family="Times,serif" font-size="9.00">&#45;10</text>
</g>
<!-- 2 -->
<g id="node27" class="node"><title>2</title>
<ellipse fill="lightblue" stroke="black" cx="126.577" cy="-93.2756" rx="14.7" ry="14.7"/>
<text text-anchor="middle" x="126.577" y="-91.0756" font-family="Times,serif" font-size="9.00">2</text>
</g>
<!-- &#45;10&#45;&gt;2 -->
<g id="edge1" class="edge"><title>&#45;10&#45;&gt;2</title>
<path fill="none" stroke="red" stroke-width="2.3144" d="M128.393,-175.202C128.106,-162.446 127.545,-137.402 127.121,-118.535"/>
<polygon fill="red" stroke="red" stroke-width="2.3144" points="130.615,-118.199 126.891,-108.28 123.617,-118.356 130.615,-118.199"/>
</g>
<!-- &#45;11 -->
<g id="node11" class="node"><title>&#45;11</title>
<polygon fill="lightgray" stroke="black" points="582.077,-271.856 553.077,-271.856 553.077,-253.856 582.077,-253.856 582.077,-271.856"/>
<text text-anchor="middle" x="567.577" y="-260.656" font-family="Times,serif" font-size="9.00">&#45;11</text>
</g>
<!-- &#45;12 -->
<g id="node12" class="node"><title>&#45;12</title>
<polygon fill="lightgray" stroke="black" points="629.077,-271.856 600.077,-271.856 600.077,-253.856 629.077,-253.856 629.077,-271.856"/>
<text text-anchor="middle" x="614.577" y="-260.656" font-family="Times,serif" font-size="9.00">&#45;12</text>
</g>
<!-- &#45;13 -->
<g id="node13" class="node"><title>&#45;13</title>
<polygon fill="lightgray" stroke="black" points="676.077,-271.856 647.077,-271.856 647.077,-253.856 676.077,-253.856 676.077,-271.856"/>
<text text-anchor="middle" x="661.577" y="-260.656" font-family="Times,serif" font-size="9.00">&#45;13</text>
</g>
<!-- &#45;14 -->
<g id="node14" class="node"><title>&#45;14</title>
<polygon fill="lightgray" stroke="black" points="96.0772,-193.43 67.0772,-193.43 67.0772,-175.43 96.0772,-175.43 96.0772,-193.43"/>
<text text-anchor="middle" x="81.5772" y="-182.23" font-family="Times,serif" font-size="9.00">&#45;14</text>
</g>
<!-- 1 -->
<g id="node26" class="node"><title>1</title>
<ellipse fill="lightblue" stroke="black" cx="173.577" cy="-14.8492" rx="14.7" ry="14.7"/>
<text text-anchor="middle" x="173.577" y="-12.6492" font-family="Times,serif" font-size="9.00">1</text>
</g>
<!-- &#45;14&#45;&gt;1 -->
<g id="edge16" class="edge"><title>&#45;14&#45;&gt;1</title>
<path fill="none" stroke="red" stroke-width="0.72629" stroke-dasharray="1,5" d="M81.0061,-175.251C79.9917,-154.968 79.8073,-101.412 102.577,-65.6985 114.11,-47.6095 134.789,-34.2177 150.866,-25.8959"/>
<polygon fill="red" stroke="red" stroke-width="0.72629" points="152.699,-28.8964 160.159,-21.373 149.636,-22.6024 152.699,-28.8964"/>
</g>
<!-- &#45;14&#45;&gt;2 -->
<g id="edge5" class="edge"><title>&#45;14&#45;&gt;2</title>
<path fill="none" stroke="red" stroke-width="1.29681" d="M85.73,-175.202C92.4373,-161.914 105.875,-135.291 115.507,-116.207"/>
<polygon fill="red" stroke="red" stroke-width="1.29681" points="118.76,-117.53 120.142,-107.026 112.511,-114.376 118.76,-117.53"/>
</g>
<!-- 29277 -->
<g id="node33" class="node"><title>29277</title>
<ellipse fill="white" stroke="black" cx="27.5772" cy="-93.2756" rx="27.6545" ry="27.6545"/>
<text text-anchor="middle" x="27.5772" y="-91.0756" font-family="Times,serif" font-size="9.00">29277</text>
</g>
<!-- &#45;14&#45;&gt;29277 -->
<g id="edge11" class="edge"><title>&#45;14&#45;&gt;29277</title>
<path fill="none" stroke="red" stroke-width="0.401416" d="M76.5938,-175.202C69.8791,-164.116 57.5432,-143.75 46.9272,-126.223"/>
<polygon fill="red" stroke="red" stroke-width="0.401416" points="49.7457,-124.12 41.5713,-117.38 43.7584,-127.747 49.7457,-124.12"/>
</g>
<!-- &#45;15 -->
<g id="node15" class="node"><title>&#45;15</title>
<polygon fill="lightgray" stroke="black" points="42.0772,-193.43 13.0772,-193.43 13.0772,-175.43 42.0772,-175.43 42.0772,-193.43"/>
<text text-anchor="middle" x="27.5772" y="-182.23" font-family="Times,serif" font-size="9.00">&#45;15</text>
</g>
<!-- &#45;15&#45;&gt;29277 -->
<g id="edge6" class="edge"><title>&#45;15&#45;&gt;29277</title>
<path fill="none" stroke="green" stroke-width="0.400314" d="M27.5772,-175.202C27.5772,-165.23 27.5772,-147.749 27.5772,-131.58"/>
<polygon fill="green" stroke="green" stroke-width="0.400314" points="31.0773,-131.237 27.5772,-121.237 24.0773,-131.237 31.0773,-131.237"/>
</g>
<!-- &#45;16 -->
<g id="node16" class="node"><title>&#45;16</title>
<polygon fill="lightgray" stroke="black" points="723.077,-271.856 694.077,-271.856 694.077,-253.856 723.077,-253.856 723.077,-271.856"/>
<text text-anchor="middle" x="708.577" y="-260.656" font-family="Times,serif" font-size="9.00">&#45;16</text>
</g>
<!-- &#45;17 -->
<g id="node17" class="node"><title>&#45;17</title>
<polygon fill="lightgray" stroke="black" points="770.077,-271.856 741.077,-271.856 741.077,-253.856 770.077,-253.856 770.077,-271.856"/>
<text text-anchor="middle" x="755.577" y="-260.656" font-family="Times,serif" font-size="9.00">&#45;17</text>
</g>
<!-- &#45;18 -->
<g id="node18" class="node"><title>&#45;18</title>
<polygon fill="lightgray" stroke="black" points="817.077,-271.856 788.077,-271.856 788.077,-253.856 817.077,-253.856 817.077,-271.856"/>
<text text-anchor="middle" x="802.577" y="-260.656" font-family="Times,serif" font-size="9.00">&#45;18</text>
</g>
<!-- &#45;19 -->
<g id="node19" class="node"><title>&#45;19</title>
<polygon fill="lightgray" stroke="black" points="864.077,-271.856 835.077,-271.856 835.077,-253.856 864.077,-253.856 864.077,-271.856"/>
<text text-anchor="middle" x="849.577" y="-260.656" font-family="Times,serif" font-size="9.00">&#45;19</text>
</g>
<!-- &#45;20 -->
<g id="node20" class="node"><title>&#45;20</title>
<polygon fill="lightgray" stroke="black" points="188.077,-102.276 159.077,-102.276 159.077,-84.2756 188.077,-84.2756 188.077,-102.276"/>
<text text-anchor="middle" x="173.577" y="-91.0756" font-family="Times,serif" font-size="9.00">&#45;20</text>
</g>
<!-- &#45;20&#45;&gt;1 -->
<g id="edge2" class="edge"><title>&#45;20&#45;&gt;1</title>
<path fill="none" stroke="red" stroke-width="0.388775" d="M173.577,-84.0967C173.577,-73.6852 173.577,-55.238 173.577,-40.1455"/>
<polygon fill="red" stroke="red" stroke-width="0.388775" points="177.077,-39.9115 173.577,-29.9115 170.077,-39.9116 177.077,-39.9115"/>
</g>
<!-- &#45;21 -->
<g id="node21" class="node"><title>&#45;21</title>
<polygon fill="lightgray" stroke="black" points="366.077,-271.856 337.077,-271.856 337.077,-253.856 366.077,-253.856 366.077,-271.856"/>
<text text-anchor="middle" x="351.577" y="-260.656" font-family="Times,serif" font-size="9.00">&#45;21</text>
</g>
<!-- &#45;21&#45;&gt;28986 -->
<g id="edge9" class="edge"><title>&#45;21&#45;&gt;28986</title>
<path fill="none" stroke="red" stroke-width="0.200787" d="M346.761,-253.677C341.64,-244.98 333.217,-230.673 325.401,-217.4"/>
<polygon fill="red" stroke="red" stroke-width="0.200787" points="328.226,-215.299 320.136,-208.458 322.194,-218.851 328.226,-215.299"/>
</g>
<!-- &#45;22 -->
<g id="node22" class="node"><title>&#45;22</title>
<polygon fill="lightgray" stroke="black" points="911.077,-271.856 882.077,-271.856 882.077,-253.856 911.077,-253.856 911.077,-271.856"/>
<text text-anchor="middle" x="896.577" y="-260.656" font-family="Times,serif" font-size="9.00">&#45;22</text>
</g>
<!-- &#45;23 -->
<g id="node23" class="node"><title>&#45;23</title>
<polygon fill="lightgray" stroke="black" points="958.077,-271.856 929.077,-271.856 929.077,-253.856 958.077,-253.856 958.077,-271.856"/>
<text text-anchor="middle" x="943.577" y="-260.656" font-family="Times,serif" font-size="9.00">&#45;23</text>
</g>
<!-- &#45;24 -->
<g id="node24" class="node"><title>&#45;24</title>
<polygon fill="lightgray" stroke="black" points="1005.08,-271.856 976.077,-271.856 976.077,-253.856 1005.08,-253.856 1005.08,-271.856"/>
<text text-anchor="middle" x="990.577" y="-260.656" font-family="Times,serif" font-size="9.00">&#45;24</text>
</g>
<!-- 0 -->
<g id="node25" class="node"><title>0</title>
<ellipse fill="lightblue" stroke="black" cx="1037.58" cy="-262.856" rx="14.7" ry="14.7"/>
<text text-anchor="middle" x="1037.58" y="-260.656" font-family="Times,serif" font-size="9.00">0</text>
</g>
<!-- 29071 -->
<g id="node29" class="node"><title>29071</title>
<ellipse fill="white" stroke="black" cx="1037.58" cy="-184.43" rx="27.6545" ry="27.6545"/>
<text text-anchor="middle" x="1037.58" y="-182.23" font-family="Times,serif" font-size="9.00">29071</text>
</g>
<!-- 0&#45;&gt;29071 -->
<g id="edge3" class="edge"><title>0&#45;&gt;29071</title>
<path fill="none" stroke="red" stroke-width="0.163607" d="M1037.58,-247.839C1037.58,-240.575 1037.58,-231.329 1037.58,-222.195"/>
<polygon fill="red" stroke="red" stroke-width="0.163607" points="1041.08,-222.039 1037.58,-212.04 1034.08,-222.04 1041.08,-222.039"/>
</g>
<!-- 3 -->
<g id="node28" class="node"><title>3</title>
<ellipse fill="lightblue" stroke="black" cx="1085.58" cy="-262.856" rx="14.7" ry="14.7"/>
<text text-anchor="middle" x="1085.58" y="-260.656" font-family="Times,serif" font-size="9.00">3</text>
</g>
<!-- 29302 -->
<g id="node30" class="node"><title>29302</title>
<ellipse fill="white" stroke="black" cx="306.577" cy="-93.2756" rx="27.6545" ry="27.6545"/>
<text text-anchor="middle" x="306.577" y="-91.0756" font-family="Times,serif" font-size="9.00">29302</text>
</g>
<!-- 29302&#45;&gt;1 -->
<g id="edge13" class="edge"><title>29302&#45;&gt;1</title>
<path fill="none" stroke="green" stroke-width="0.459979" d="M285.269,-75.6725C280.531,-72.2288 275.462,-68.7294 270.577,-65.6985 245.941,-50.4126 216.071,-35.5777 196.044,-26.1235"/>
<polygon fill="green" stroke="green" stroke-width="0.459979" points="197.351,-22.8711 186.809,-21.8161 194.392,-29.215 197.351,-22.8711"/>
</g>
<!-- 28986&#45;&gt;1 -->
<g id="edge4" class="edge"><title>28986&#45;&gt;1</title>
<path fill="none" stroke="green" stroke-width="0.811415" stroke-dasharray="1,5" d="M323.69,-162.368C341.93,-137.203 365.41,-94.8524 343.577,-65.6985 326.071,-42.3224 240.987,-26.1961 198.22,-19.4273"/>
<polygon fill="green" stroke="green" stroke-width="0.811415" points="198.741,-15.9663 188.326,-17.9093 197.679,-22.8854 198.741,-15.9663"/>
</g>
<!-- 28986&#45;&gt;29302 -->
<g id="edge8" class="edge"><title>28986&#45;&gt;29302</title>
<path fill="none" stroke="green" stroke-width="0.560406" d="M306.577,-156.681C306.577,-148.659 306.577,-139.714 306.577,-131.159"/>
<polygon fill="green" stroke="green" stroke-width="0.560406" points="310.077,-131.006 306.577,-121.006 303.077,-131.006 310.077,-131.006"/>
</g>
<!-- 28986&#45;&gt;29181 -->
<g id="edge7" class="edge"><title>28986&#45;&gt;29181</title>
<path fill="none" stroke="green" stroke-width="0.443198" d="M289.277,-162.302C279.731,-150.643 267.736,-135.994 257.325,-123.278"/>
<polygon fill="green" stroke="green" stroke-width="0.443198" points="259.796,-120.772 250.753,-115.252 254.38,-125.207 259.796,-120.772"/>
</g>
<!-- 29277&#45;&gt;1 -->
<g id="edge10" class="edge"><title>29277&#45;&gt;1</title>
<path fill="none" stroke="red" stroke-width="0.622341" d="M50.3908,-77.159C56.5338,-73.2771 63.2357,-69.2089 69.5772,-65.6985 96.9492,-50.5464 129.652,-35.3197 150.981,-25.7544"/>
<polygon fill="red" stroke="red" stroke-width="0.622341" points="152.477,-28.9197 160.193,-21.6586 149.633,-22.5235 152.477,-28.9197"/>
</g>
</g>
</svg>
