<?xml version="1.0" encoding="UTF-8" standalone="no"?>
<!DOCTYPE svg PUBLIC "-//W3C//DTD SVG 1.1//EN"
 "http://www.w3.org/Graphics/SVG/1.1/DTD/svg11.dtd">
<!-- Generated by graphviz version 2.38.0 (20140413.2041)
 -->
<!-- Title: %3 Pages: 1 -->
<svg width="1107pt" height="311pt"
 viewBox="0.00 0.00 1106.50 311.16" xmlns="http://www.w3.org/2000/svg" xmlns:xlink="http://www.w3.org/1999/xlink">
<g id="graph0" class="graph" transform="scale(1 1) rotate(0) translate(4 307.161)">
<title>%3</title>
<polygon fill="white" stroke="none" points="-4,4 -4,-307.161 1102.5,-307.161 1102.5,4 -4,4"/>
<!-- &#45;1 -->
<g id="node1" class="node"><title>&#45;1</title>
<polygon fill="lightgray" stroke="black" points="24,-284.584 0,-284.584 0,-266.584 24,-266.584 24,-284.584"/>
<text text-anchor="middle" x="12" y="-273.384" font-family="Times,serif" font-size="9.00">&#45;1</text>
</g>
<!-- &#45;2 -->
<g id="node2" class="node"><title>&#45;2</title>
<polygon fill="lightgray" stroke="black" points="66,-284.584 42,-284.584 42,-266.584 66,-266.584 66,-284.584"/>
<text text-anchor="middle" x="54" y="-273.384" font-family="Times,serif" font-size="9.00">&#45;2</text>
</g>
<!-- &#45;3 -->
<g id="node3" class="node"><title>&#45;3</title>
<polygon fill="lightgray" stroke="black" points="108,-284.584 84,-284.584 84,-266.584 108,-266.584 108,-284.584"/>
<text text-anchor="middle" x="96" y="-273.384" font-family="Times,serif" font-size="9.00">&#45;3</text>
</g>
<!-- &#45;4 -->
<g id="node4" class="node"><title>&#45;4</title>
<polygon fill="lightgray" stroke="black" points="150,-284.584 126,-284.584 126,-266.584 150,-266.584 150,-284.584"/>
<text text-anchor="middle" x="138" y="-273.384" font-family="Times,serif" font-size="9.00">&#45;4</text>
</g>
<!-- &#45;5 -->
<g id="node5" class="node"><title>&#45;5</title>
<polygon fill="lightgray" stroke="black" points="163,-115.004 139,-115.004 139,-97.0036 163,-97.0036 163,-115.004"/>
<text text-anchor="middle" x="151" y="-103.804" font-family="Times,serif" font-size="9.00">&#45;5</text>
</g>
<!-- 20930 -->
<g id="node30" class="node"><title>20930</title>
<ellipse fill="white" stroke="black" cx="196" cy="-27.5772" rx="27.6545" ry="27.6545"/>
<text text-anchor="middle" x="196" y="-25.3772" font-family="Times,serif" font-size="9.00">20930</text>
</g>
<!-- &#45;5&#45;&gt;20930 -->
<g id="edge9" class="edge"><title>&#45;5&#45;&gt;20930</title>
<path fill="none" stroke="green" stroke-width="0.154038" d="M155.816,-96.8246C160.937,-88.1267 169.361,-73.8206 177.176,-60.5473"/>
<polygon fill="green" stroke="green" stroke-width="0.154038" points="180.383,-61.9978 182.441,-51.6048 174.351,-58.4461 180.383,-61.9978"/>
</g>
<!-- &#45;6 -->
<g id="node6" class="node"><title>&#45;6</title>
<polygon fill="lightgray" stroke="black" points="266,-284.584 242,-284.584 242,-266.584 266,-266.584 266,-284.584"/>
<text text-anchor="middle" x="254" y="-273.384" font-family="Times,serif" font-size="9.00">&#45;6</text>
</g>
<!-- 2 -->
<g id="node27" class="node"><title>2</title>
<ellipse fill="lightblue" stroke="black" cx="296" cy="-184.43" rx="14.7" ry="14.7"/>
<text text-anchor="middle" x="296" y="-182.23" font-family="Times,serif" font-size="9.00">2</text>
</g>
<!-- &#45;6&#45;&gt;2 -->
<g id="edge5" class="edge"><title>&#45;6&#45;&gt;2</title>
<path fill="none" stroke="green" stroke-width="0.518901" d="M257.876,-266.357C264.136,-253.068 276.678,-226.445 285.668,-207.362"/>
<polygon fill="green" stroke="green" stroke-width="0.518901" points="288.898,-208.718 289.994,-198.18 282.566,-205.735 288.898,-208.718"/>
</g>
<!-- &#45;7 -->
<g id="node7" class="node"><title>&#45;7</title>
<polygon fill="lightgray" stroke="black" points="398,-284.584 374,-284.584 374,-266.584 398,-266.584 398,-284.584"/>
<text text-anchor="middle" x="386" y="-273.384" font-family="Times,serif" font-size="9.00">&#45;7</text>
</g>
<!-- &#45;8 -->
<g id="node8" class="node"><title>&#45;8</title>
<polygon fill="lightgray" stroke="black" points="308,-284.584 284,-284.584 284,-266.584 308,-266.584 308,-284.584"/>
<text text-anchor="middle" x="296" y="-273.384" font-family="Times,serif" font-size="9.00">&#45;8</text>
</g>
<!-- &#45;8&#45;&gt;2 -->
<g id="edge7" class="edge"><title>&#45;8&#45;&gt;2</title>
<path fill="none" stroke="green" stroke-width="0.973695" d="M296,-266.357C296,-253.6 296,-228.556 296,-209.689"/>
<polygon fill="green" stroke="green" stroke-width="0.973695" points="299.5,-209.434 296,-199.434 292.5,-209.434 299.5,-209.434"/>
</g>
<!-- &#45;9 -->
<g id="node9" class="node"><title>&#45;9</title>
<polygon fill="lightgray" stroke="black" points="440,-284.584 416,-284.584 416,-266.584 440,-266.584 440,-284.584"/>
<text text-anchor="middle" x="428" y="-273.384" font-family="Times,serif" font-size="9.00">&#45;9</text>
</g>
<!-- &#45;10 -->
<g id="node10" class="node"><title>&#45;10</title>
<polygon fill="lightgray" stroke="black" points="355.5,-284.584 326.5,-284.584 326.5,-266.584 355.5,-266.584 355.5,-284.584"/>
<text text-anchor="middle" x="341" y="-273.384" font-family="Times,serif" font-size="9.00">&#45;10</text>
</g>
<!-- &#45;10&#45;&gt;2 -->
<g id="edge1" class="edge"><title>&#45;10&#45;&gt;2</title>
<path fill="none" stroke="red" stroke-width="1.39014" d="M336.847,-266.357C330.14,-253.068 316.702,-226.445 307.07,-207.362"/>
<polygon fill="red" stroke="red" stroke-width="1.39014" points="310.066,-205.53 302.435,-198.18 303.817,-208.684 310.066,-205.53"/>
</g>
<!-- &#45;11 -->
<g id="node11" class="node"><title>&#45;11</title>
<polygon fill="lightgray" stroke="black" points="487.5,-284.584 458.5,-284.584 458.5,-266.584 487.5,-266.584 487.5,-284.584"/>
<text text-anchor="middle" x="473" y="-273.384" font-family="Times,serif" font-size="9.00">&#45;11</text>
</g>
<!-- &#45;12 -->
<g id="node12" class="node"><title>&#45;12</title>
<polygon fill="lightgray" stroke="black" points="534.5,-284.584 505.5,-284.584 505.5,-266.584 534.5,-266.584 534.5,-284.584"/>
<text text-anchor="middle" x="520" y="-273.384" font-family="Times,serif" font-size="9.00">&#45;12</text>
</g>
<!-- 3 -->
<g id="node28" class="node"><title>3</title>
<ellipse fill="lightblue" stroke="black" cx="520" cy="-184.43" rx="14.7" ry="14.7"/>
<text text-anchor="middle" x="520" y="-182.23" font-family="Times,serif" font-size="9.00">3</text>
</g>
<!-- &#45;12&#45;&gt;3 -->
<g id="edge3" class="edge"><title>&#45;12&#45;&gt;3</title>
<path fill="none" stroke="green" stroke-width="0.186383" d="M520,-266.357C520,-253.6 520,-228.556 520,-209.689"/>
<polygon fill="green" stroke="green" stroke-width="0.186383" points="523.5,-209.434 520,-199.434 516.5,-209.434 523.5,-209.434"/>
</g>
<!-- &#45;13 -->
<g id="node13" class="node"><title>&#45;13</title>
<polygon fill="lightgray" stroke="black" points="581.5,-284.584 552.5,-284.584 552.5,-266.584 581.5,-266.584 581.5,-284.584"/>
<text text-anchor="middle" x="567" y="-273.384" font-family="Times,serif" font-size="9.00">&#45;13</text>
</g>
<!-- &#45;14 -->
<g id="node14" class="node"><title>&#45;14</title>
<polygon fill="lightgray" stroke="black" points="628.5,-284.584 599.5,-284.584 599.5,-266.584 628.5,-266.584 628.5,-284.584"/>
<text text-anchor="middle" x="614" y="-273.384" font-family="Times,serif" font-size="9.00">&#45;14</text>
</g>
<!-- &#45;15 -->
<g id="node15" class="node"><title>&#45;15</title>
<polygon fill="lightgray" stroke="black" points="675.5,-284.584 646.5,-284.584 646.5,-266.584 675.5,-266.584 675.5,-284.584"/>
<text text-anchor="middle" x="661" y="-273.384" font-family="Times,serif" font-size="9.00">&#45;15</text>
</g>
<!-- &#45;16 -->
<g id="node16" class="node"><title>&#45;16</title>
<polygon fill="lightgray" stroke="black" points="722.5,-284.584 693.5,-284.584 693.5,-266.584 722.5,-266.584 722.5,-284.584"/>
<text text-anchor="middle" x="708" y="-273.384" font-family="Times,serif" font-size="9.00">&#45;16</text>
</g>
<!-- &#45;17 -->
<g id="node17" class="node"><title>&#45;17</title>
<polygon fill="lightgray" stroke="black" points="769.5,-284.584 740.5,-284.584 740.5,-266.584 769.5,-266.584 769.5,-284.584"/>
<text text-anchor="middle" x="755" y="-273.384" font-family="Times,serif" font-size="9.00">&#45;17</text>
</g>
<!-- &#45;18 -->
<g id="node18" class="node"><title>&#45;18</title>
<polygon fill="lightgray" stroke="black" points="816.5,-284.584 787.5,-284.584 787.5,-266.584 816.5,-266.584 816.5,-284.584"/>
<text text-anchor="middle" x="802" y="-273.384" font-family="Times,serif" font-size="9.00">&#45;18</text>
</g>
<!-- 1 -->
<g id="node26" class="node"><title>1</title>
<ellipse fill="lightblue" stroke="black" cx="802" cy="-184.43" rx="14.7" ry="14.7"/>
<text text-anchor="middle" x="802" y="-182.23" font-family="Times,serif" font-size="9.00">1</text>
</g>
<!-- &#45;18&#45;&gt;1 -->
<g id="edge6" class="edge"><title>&#45;18&#45;&gt;1</title>
<path fill="none" stroke="red" stroke-width="0.542312" d="M802,-266.357C802,-253.6 802,-228.556 802,-209.689"/>
<polygon fill="red" stroke="red" stroke-width="0.542312" points="805.5,-209.434 802,-199.434 798.5,-209.434 805.5,-209.434"/>
</g>
<!-- &#45;19 -->
<g id="node19" class="node"><title>&#45;19</title>
<polygon fill="lightgray" stroke="black" points="863.5,-284.584 834.5,-284.584 834.5,-266.584 863.5,-266.584 863.5,-284.584"/>
<text text-anchor="middle" x="849" y="-273.384" font-family="Times,serif" font-size="9.00">&#45;19</text>
</g>
<!-- &#45;20 -->
<g id="node20" class="node"><title>&#45;20</title>
<polygon fill="lightgray" stroke="black" points="910.5,-284.584 881.5,-284.584 881.5,-266.584 910.5,-266.584 910.5,-284.584"/>
<text text-anchor="middle" x="896" y="-273.384" font-family="Times,serif" font-size="9.00">&#45;20</text>
</g>
<!-- &#45;21 -->
<g id="node21" class="node"><title>&#45;21</title>
<polygon fill="lightgray" stroke="black" points="957.5,-284.584 928.5,-284.584 928.5,-266.584 957.5,-266.584 957.5,-284.584"/>
<text text-anchor="middle" x="943" y="-273.384" font-family="Times,serif" font-size="9.00">&#45;21</text>
</g>
<!-- &#45;22 -->
<g id="node22" class="node"><title>&#45;22</title>
<polygon fill="lightgray" stroke="black" points="1004.5,-284.584 975.5,-284.584 975.5,-266.584 1004.5,-266.584 1004.5,-284.584"/>
<text text-anchor="middle" x="990" y="-273.384" font-family="Times,serif" font-size="9.00">&#45;22</text>
</g>
<!-- &#45;23 -->
<g id="node23" class="node"><title>&#45;23</title>
<polygon fill="lightgray" stroke="black" points="1051.5,-284.584 1022.5,-284.584 1022.5,-266.584 1051.5,-266.584 1051.5,-284.584"/>
<text text-anchor="middle" x="1037" y="-273.384" font-family="Times,serif" font-size="9.00">&#45;23</text>
</g>
<!-- &#45;24 -->
<g id="node24" class="node"><title>&#45;24</title>
<polygon fill="lightgray" stroke="black" points="1098.5,-284.584 1069.5,-284.584 1069.5,-266.584 1098.5,-266.584 1098.5,-284.584"/>
<text text-anchor="middle" x="1084" y="-273.384" font-family="Times,serif" font-size="9.00">&#45;24</text>
</g>
<!-- 0 -->
<g id="node25" class="node"><title>0</title>
<ellipse fill="lightblue" stroke="black" cx="196" cy="-106.004" rx="14.7" ry="14.7"/>
<text text-anchor="middle" x="196" y="-103.804" font-family="Times,serif" font-size="9.00">0</text>
</g>
<!-- 0&#45;&gt;20930 -->
<g id="edge10" class="edge"><title>0&#45;&gt;20930</title>
<path fill="none" stroke="red" stroke-width="0.465337" stroke-dasharray="1,5" d="M196,-90.9858C196,-83.7219 196,-74.4766 196,-65.3417"/>
<polygon fill="red" stroke="red" stroke-width="0.465337" points="199.5,-65.1867 196,-55.1867 192.5,-65.1868 199.5,-65.1867"/>
</g>
<!-- 21764 -->
<g id="node29" class="node"><title>21764</title>
<ellipse fill="white" stroke="black" cx="196" cy="-184.43" rx="27.6545" ry="27.6545"/>
<text text-anchor="middle" x="196" y="-182.23" font-family="Times,serif" font-size="9.00">21764</text>
</g>
<!-- 21764&#45;&gt;0 -->
<g id="edge11" class="edge"><title>21764&#45;&gt;0</title>
<path fill="none" stroke="green" stroke-width="0.101478" d="M196,-156.7C196,-148.319 196,-139.127 196,-130.951"/>
<polygon fill="green" stroke="green" stroke-width="0.101478" points="199.5,-130.944 196,-120.944 192.5,-130.944 199.5,-130.944"/>
</g>
<!-- 21455 -->
<g id="node31" class="node"><title>21455</title>
<ellipse fill="white" stroke="black" cx="196" cy="-275.584" rx="27.6545" ry="27.6545"/>
<text text-anchor="middle" x="196" y="-273.384" font-family="Times,serif" font-size="9.00">21455</text>
</g>
<!-- 21455&#45;&gt;0 -->
<g id="edge4" class="edge"><title>21455&#45;&gt;0</title>
<path fill="none" stroke="red" stroke-width="0.24513" stroke-dasharray="1,5" d="M179.539,-253.305C171.656,-241.768 163.062,-226.859 159,-212.007 152.533,-188.363 151.306,-180.127 159,-156.853 162.988,-144.787 171.152,-133.261 178.798,-124.338"/>
<polygon fill="red" stroke="red" stroke-width="0.24513" points="181.396,-126.684 185.54,-116.933 176.22,-121.971 181.396,-126.684"/>
</g>
<!-- 21455&#45;&gt;21764 -->
<g id="edge8" class="edge"><title>21455&#45;&gt;21764</title>
<path fill="none" stroke="green" stroke-width="0.272626" d="M196,-247.835C196,-239.813 196,-230.868 196,-222.314"/>
<polygon fill="green" stroke="green" stroke-width="0.272626" points="199.5,-222.16 196,-212.16 192.5,-222.16 199.5,-222.16"/>
</g>
<!-- 21455&#45;&gt;20930 -->
<g id="edge2" class="edge"><title>21455&#45;&gt;20930</title>
<path fill="none" stroke="red" stroke-width="0.325808" stroke-dasharray="1,5" d="M212.461,-253.305C220.344,-241.768 228.938,-226.859 233,-212.007 247.162,-160.23 227.628,-98.8741 211.996,-61.8754"/>
<polygon fill="red" stroke="red" stroke-width="0.325808" points="215.138,-60.3251 207.926,-52.5643 208.725,-63.129 215.138,-60.3251"/>
</g>
</g>
</svg>
