<?xml version="1.0" encoding="UTF-8" standalone="no"?>
<!DOCTYPE svg PUBLIC "-//W3C//DTD SVG 1.1//EN"
 "http://www.w3.org/Graphics/SVG/1.1/DTD/svg11.dtd">
<!-- Generated by graphviz version 2.38.0 (20140413.2041)
 -->
<!-- Title: %3 Pages: 1 -->
<svg width="1380pt" height="402pt"
 viewBox="0.00 0.00 1379.58 402.32" xmlns="http://www.w3.org/2000/svg" xmlns:xlink="http://www.w3.org/1999/xlink">
<g id="graph0" class="graph" transform="scale(1 1) rotate(0) translate(4 398.316)">
<title>%3</title>
<polygon fill="white" stroke="none" points="-4,4 -4,-398.316 1375.58,-398.316 1375.58,4 -4,4"/>
<!-- &#45;1 -->
<g id="node1" class="node"><title>&#45;1</title>
<polygon fill="lightgray" stroke="black" points="24,-375.739 0,-375.739 0,-357.739 24,-357.739 24,-375.739"/>
<text text-anchor="middle" x="12" y="-364.539" font-family="Times,serif" font-size="9.00">&#45;1</text>
</g>
<!-- &#45;2 -->
<g id="node2" class="node"><title>&#45;2</title>
<polygon fill="lightgray" stroke="black" points="66,-375.739 42,-375.739 42,-357.739 66,-357.739 66,-375.739"/>
<text text-anchor="middle" x="54" y="-364.539" font-family="Times,serif" font-size="9.00">&#45;2</text>
</g>
<!-- 49131 -->
<g id="node36" class="node"><title>49131</title>
<ellipse fill="white" stroke="black" cx="54" cy="-275.584" rx="27.6545" ry="27.6545"/>
<text text-anchor="middle" x="54" y="-273.384" font-family="Times,serif" font-size="9.00">49131</text>
</g>
<!-- &#45;2&#45;&gt;49131 -->
<g id="edge22" class="edge"><title>&#45;2&#45;&gt;49131</title>
<path fill="none" stroke="red" stroke-width="0.32201" stroke-dasharray="1,5" d="M54,-357.511C54,-347.539 54,-330.058 54,-313.889"/>
<polygon fill="red" stroke="red" stroke-width="0.32201" points="57.5001,-313.545 54,-303.545 50.5001,-313.545 57.5001,-313.545"/>
</g>
<!-- &#45;3 -->
<g id="node3" class="node"><title>&#45;3</title>
<polygon fill="lightgray" stroke="black" points="343,-284.584 319,-284.584 319,-266.584 343,-266.584 343,-284.584"/>
<text text-anchor="middle" x="331" y="-273.384" font-family="Times,serif" font-size="9.00">&#45;3</text>
</g>
<!-- 52169 -->
<g id="node34" class="node"><title>52169</title>
<ellipse fill="white" stroke="black" cx="478" cy="-184.43" rx="27.6545" ry="27.6545"/>
<text text-anchor="middle" x="478" y="-182.23" font-family="Times,serif" font-size="9.00">52169</text>
</g>
<!-- &#45;3&#45;&gt;52169 -->
<g id="edge28" class="edge"><title>&#45;3&#45;&gt;52169</title>
<path fill="none" stroke="red" stroke-width="0.296276" d="M336.022,-266.269C339.826,-260.531 345.497,-253.056 352,-248.007 383.118,-223.848 397.981,-230.054 433,-212.007 437.31,-209.786 441.781,-207.334 446.159,-204.845"/>
<polygon fill="red" stroke="red" stroke-width="0.296276" points="448.046,-207.796 454.931,-199.744 444.527,-201.745 448.046,-207.796"/>
</g>
<!-- 53706 -->
<g id="node37" class="node"><title>53706</title>
<ellipse fill="white" stroke="black" cx="281" cy="-184.43" rx="27.6545" ry="27.6545"/>
<text text-anchor="middle" x="281" y="-182.23" font-family="Times,serif" font-size="9.00">53706</text>
</g>
<!-- &#45;3&#45;&gt;53706 -->
<g id="edge29" class="edge"><title>&#45;3&#45;&gt;53706</title>
<path fill="none" stroke="red" stroke-width="0.381744" d="M326.386,-266.357C320.21,-255.344 308.897,-235.173 299.112,-217.726"/>
<polygon fill="red" stroke="red" stroke-width="0.381744" points="302.114,-215.922 294.17,-208.913 296.008,-219.347 302.114,-215.922"/>
</g>
<!-- &#45;4 -->
<g id="node4" class="node"><title>&#45;4</title>
<polygon fill="lightgray" stroke="black" points="608,-375.739 584,-375.739 584,-357.739 608,-357.739 608,-375.739"/>
<text text-anchor="middle" x="596" y="-364.539" font-family="Times,serif" font-size="9.00">&#45;4</text>
</g>
<!-- &#45;5 -->
<g id="node5" class="node"><title>&#45;5</title>
<polygon fill="lightgray" stroke="black" points="650,-375.739 626,-375.739 626,-357.739 650,-357.739 650,-375.739"/>
<text text-anchor="middle" x="638" y="-364.539" font-family="Times,serif" font-size="9.00">&#45;5</text>
</g>
<!-- &#45;6 -->
<g id="node6" class="node"><title>&#45;6</title>
<polygon fill="lightgray" stroke="black" points="424,-193.43 400,-193.43 400,-175.43 424,-175.43 424,-193.43"/>
<text text-anchor="middle" x="412" y="-182.23" font-family="Times,serif" font-size="9.00">&#45;6</text>
</g>
<!-- 3 -->
<g id="node28" class="node"><title>3</title>
<ellipse fill="lightblue" stroke="black" cx="369" cy="-106.004" rx="14.7" ry="14.7"/>
<text text-anchor="middle" x="369" y="-103.804" font-family="Times,serif" font-size="9.00">3</text>
</g>
<!-- &#45;6&#45;&gt;3 -->
<g id="edge6" class="edge"><title>&#45;6&#45;&gt;3</title>
<path fill="none" stroke="green" stroke-width="0.463519" d="M407.398,-175.251C401.154,-164.154 389.774,-143.927 381.018,-128.364"/>
<polygon fill="green" stroke="green" stroke-width="0.463519" points="383.928,-126.399 375.974,-119.4 377.828,-129.831 383.928,-126.399"/>
</g>
<!-- 45220 -->
<g id="node29" class="node"><title>45220</title>
<ellipse fill="white" stroke="black" cx="412" cy="-27.5772" rx="27.6545" ry="27.6545"/>
<text text-anchor="middle" x="412" y="-25.3772" font-family="Times,serif" font-size="9.00">45220</text>
</g>
<!-- &#45;6&#45;&gt;45220 -->
<g id="edge30" class="edge"><title>&#45;6&#45;&gt;45220</title>
<path fill="none" stroke="red" stroke-width="0.264632" d="M412,-175.104C412,-154.807 412,-101.774 412,-65.4052"/>
<polygon fill="red" stroke="red" stroke-width="0.264632" points="415.5,-65.1698 412,-55.1698 408.5,-65.1698 415.5,-65.1698"/>
</g>
<!-- &#45;7 -->
<g id="node7" class="node"><title>&#45;7</title>
<polygon fill="lightgray" stroke="black" points="692,-375.739 668,-375.739 668,-357.739 692,-357.739 692,-375.739"/>
<text text-anchor="middle" x="680" y="-364.539" font-family="Times,serif" font-size="9.00">&#45;7</text>
</g>
<!-- &#45;8 -->
<g id="node8" class="node"><title>&#45;8</title>
<polygon fill="lightgray" stroke="black" points="385,-284.584 361,-284.584 361,-266.584 385,-266.584 385,-284.584"/>
<text text-anchor="middle" x="373" y="-273.384" font-family="Times,serif" font-size="9.00">&#45;8</text>
</g>
<!-- &#45;8&#45;&gt;52169 -->
<g id="edge1" class="edge"><title>&#45;8&#45;&gt;52169</title>
<path fill="none" stroke="red" stroke-width="0.431048" d="M378.736,-266.214C382.697,-260.734 388.265,-253.581 394,-248.007 410.102,-232.357 430.213,-217.246 446.72,-205.794"/>
<polygon fill="red" stroke="red" stroke-width="0.431048" points="448.695,-208.684 454.983,-200.156 444.75,-202.901 448.695,-208.684"/>
</g>
<!-- 52749 -->
<g id="node38" class="node"><title>52749</title>
<ellipse fill="white" stroke="black" cx="354" cy="-184.43" rx="27.6545" ry="27.6545"/>
<text text-anchor="middle" x="354" y="-182.23" font-family="Times,serif" font-size="9.00">52749</text>
</g>
<!-- &#45;8&#45;&gt;52749 -->
<g id="edge25" class="edge"><title>&#45;8&#45;&gt;52749</title>
<path fill="none" stroke="red" stroke-width="0.289161" d="M371.247,-266.357C369.071,-256.147 365.217,-238.066 361.704,-221.58"/>
<polygon fill="red" stroke="red" stroke-width="0.289161" points="365.086,-220.658 359.579,-211.607 358.24,-222.117 365.086,-220.658"/>
</g>
<!-- &#45;9 -->
<g id="node9" class="node"><title>&#45;9</title>
<polygon fill="lightgray" stroke="black" points="734,-375.739 710,-375.739 710,-357.739 734,-357.739 734,-375.739"/>
<text text-anchor="middle" x="722" y="-364.539" font-family="Times,serif" font-size="9.00">&#45;9</text>
</g>
<!-- &#45;10 -->
<g id="node10" class="node"><title>&#45;10</title>
<polygon fill="lightgray" stroke="black" points="781.5,-375.739 752.5,-375.739 752.5,-357.739 781.5,-357.739 781.5,-375.739"/>
<text text-anchor="middle" x="767" y="-364.539" font-family="Times,serif" font-size="9.00">&#45;10</text>
</g>
<!-- 2 -->
<g id="node27" class="node"><title>2</title>
<ellipse fill="lightblue" stroke="black" cx="816" cy="-275.584" rx="14.7" ry="14.7"/>
<text text-anchor="middle" x="816" y="-273.384" font-family="Times,serif" font-size="9.00">2</text>
</g>
<!-- &#45;10&#45;&gt;2 -->
<g id="edge2" class="edge"><title>&#45;10&#45;&gt;2</title>
<path fill="none" stroke="red" stroke-width="1.65913" d="M771.522,-357.511C778.899,-344.088 793.755,-317.058 804.264,-297.938"/>
<polygon fill="red" stroke="red" stroke-width="1.65913" points="807.412,-299.477 809.161,-289.028 801.277,-296.106 807.412,-299.477"/>
</g>
<!-- &#45;11 -->
<g id="node11" class="node"><title>&#45;11</title>
<polygon fill="lightgray" stroke="black" points="922.5,-375.739 893.5,-375.739 893.5,-357.739 922.5,-357.739 922.5,-375.739"/>
<text text-anchor="middle" x="908" y="-364.539" font-family="Times,serif" font-size="9.00">&#45;11</text>
</g>
<!-- &#45;12 -->
<g id="node12" class="node"><title>&#45;12</title>
<polygon fill="lightgray" stroke="black" points="154.5,-375.739 125.5,-375.739 125.5,-357.739 154.5,-357.739 154.5,-375.739"/>
<text text-anchor="middle" x="140" y="-364.539" font-family="Times,serif" font-size="9.00">&#45;12</text>
</g>
<!-- 51432 -->
<g id="node33" class="node"><title>51432</title>
<ellipse fill="white" stroke="black" cx="200" cy="-275.584" rx="27.6545" ry="27.6545"/>
<text text-anchor="middle" x="200" y="-273.384" font-family="Times,serif" font-size="9.00">51432</text>
</g>
<!-- &#45;12&#45;&gt;51432 -->
<g id="edge13" class="edge"><title>&#45;12&#45;&gt;51432</title>
<path fill="none" stroke="red" stroke-width="0.349251" d="M145.537,-357.511C153.166,-346.175 167.325,-325.136 179.295,-307.351"/>
<polygon fill="red" stroke="red" stroke-width="0.349251" points="182.277,-309.188 184.956,-298.938 176.469,-305.28 182.277,-309.188"/>
</g>
<!-- 53788 -->
<g id="node42" class="node"><title>53788</title>
<ellipse fill="white" stroke="black" cx="127" cy="-275.584" rx="27.6545" ry="27.6545"/>
<text text-anchor="middle" x="127" y="-273.384" font-family="Times,serif" font-size="9.00">53788</text>
</g>
<!-- &#45;12&#45;&gt;53788 -->
<g id="edge11" class="edge"><title>&#45;12&#45;&gt;53788</title>
<path fill="none" stroke="green" stroke-width="0.198103" d="M138.8,-357.511C137.322,-347.373 134.712,-329.473 132.322,-313.081"/>
<polygon fill="green" stroke="green" stroke-width="0.198103" points="135.78,-312.543 130.874,-303.152 128.854,-313.553 135.78,-312.543"/>
</g>
<!-- &#45;13 -->
<g id="node13" class="node"><title>&#45;13</title>
<polygon fill="lightgray" stroke="black" points="828.5,-375.739 799.5,-375.739 799.5,-357.739 828.5,-357.739 828.5,-375.739"/>
<text text-anchor="middle" x="814" y="-364.539" font-family="Times,serif" font-size="9.00">&#45;13</text>
</g>
<!-- &#45;13&#45;&gt;2 -->
<g id="edge23" class="edge"><title>&#45;13&#45;&gt;2</title>
<path fill="none" stroke="red" stroke-width="0.41164" d="M814.185,-357.511C814.471,-344.755 815.033,-319.71 815.456,-300.843"/>
<polygon fill="red" stroke="red" stroke-width="0.41164" points="818.961,-300.664 815.686,-290.588 811.962,-300.507 818.961,-300.664"/>
</g>
<!-- &#45;14 -->
<g id="node14" class="node"><title>&#45;14</title>
<polygon fill="lightgray" stroke="black" points="875.5,-375.739 846.5,-375.739 846.5,-357.739 875.5,-357.739 875.5,-375.739"/>
<text text-anchor="middle" x="861" y="-364.539" font-family="Times,serif" font-size="9.00">&#45;14</text>
</g>
<!-- &#45;14&#45;&gt;2 -->
<g id="edge19" class="edge"><title>&#45;14&#45;&gt;2</title>
<path fill="none" stroke="red" stroke-width="0.786084" d="M856.847,-357.511C850.14,-344.223 836.702,-317.599 827.07,-298.516"/>
<polygon fill="red" stroke="red" stroke-width="0.786084" points="830.066,-296.684 822.435,-289.334 823.817,-299.839 830.066,-296.684"/>
</g>
<!-- 49647 -->
<g id="node39" class="node"><title>49647</title>
<ellipse fill="white" stroke="black" cx="838" cy="-184.43" rx="27.6545" ry="27.6545"/>
<text text-anchor="middle" x="838" y="-182.23" font-family="Times,serif" font-size="9.00">49647</text>
</g>
<!-- &#45;14&#45;&gt;49647 -->
<g id="edge5" class="edge"><title>&#45;14&#45;&gt;49647</title>
<path fill="none" stroke="green" stroke-width="0.157256" d="M859.952,-357.523C856.948,-333.974 848.171,-265.165 842.668,-222.025"/>
<polygon fill="green" stroke="green" stroke-width="0.157256" points="846.116,-221.394 841.379,-211.917 839.172,-222.28 846.116,-221.394"/>
</g>
<!-- &#45;15 -->
<g id="node15" class="node"><title>&#45;15</title>
<polygon fill="lightgray" stroke="black" points="969.5,-375.739 940.5,-375.739 940.5,-357.739 969.5,-357.739 969.5,-375.739"/>
<text text-anchor="middle" x="955" y="-364.539" font-family="Times,serif" font-size="9.00">&#45;15</text>
</g>
<!-- &#45;16 -->
<g id="node16" class="node"><title>&#45;16</title>
<polygon fill="lightgray" stroke="black" points="323.5,-375.739 294.5,-375.739 294.5,-357.739 323.5,-357.739 323.5,-375.739"/>
<text text-anchor="middle" x="309" y="-364.539" font-family="Times,serif" font-size="9.00">&#45;16</text>
</g>
<!-- 1 -->
<g id="node26" class="node"><title>1</title>
<ellipse fill="lightblue" stroke="black" cx="418" cy="-275.584" rx="14.7" ry="14.7"/>
<text text-anchor="middle" x="418" y="-273.384" font-family="Times,serif" font-size="9.00">1</text>
</g>
<!-- &#45;16&#45;&gt;1 -->
<g id="edge9" class="edge"><title>&#45;16&#45;&gt;1</title>
<path fill="none" stroke="red" stroke-width="5.47861" d="M321.708,-357.564C338.877,-346.263 370.085,-324.8 394,-303.161 396.628,-300.784 399.275,-298.148 401.803,-295.485"/>
<polygon fill="red" stroke="red" stroke-width="5.47861" points="405.734,-298.286 408.89,-287.655 398.625,-291.853 405.734,-298.286"/>
</g>
<!-- &#45;16&#45;&gt;51432 -->
<g id="edge21" class="edge"><title>&#45;16&#45;&gt;51432</title>
<path fill="none" stroke="red" stroke-width="0.409338" d="M298.941,-357.511C283.195,-344.632 252.134,-319.226 228.994,-300.3"/>
<polygon fill="red" stroke="red" stroke-width="0.409338" points="231.134,-297.528 221.178,-293.906 226.703,-302.947 231.134,-297.528"/>
</g>
<!-- &#45;17 -->
<g id="node17" class="node"><title>&#45;17</title>
<polygon fill="lightgray" stroke="black" points="565.5,-375.739 536.5,-375.739 536.5,-357.739 565.5,-357.739 565.5,-375.739"/>
<text text-anchor="middle" x="551" y="-364.539" font-family="Times,serif" font-size="9.00">&#45;17</text>
</g>
<!-- 54117 -->
<g id="node30" class="node"><title>54117</title>
<ellipse fill="white" stroke="black" cx="478" cy="-275.584" rx="27.6545" ry="27.6545"/>
<text text-anchor="middle" x="478" y="-273.384" font-family="Times,serif" font-size="9.00">54117</text>
</g>
<!-- &#45;17&#45;&gt;54117 -->
<g id="edge15" class="edge"><title>&#45;17&#45;&gt;54117</title>
<path fill="none" stroke="green" stroke-width="0.170516" d="M544.263,-357.511C534.652,-345.773 516.522,-323.631 501.652,-305.471"/>
<polygon fill="green" stroke="green" stroke-width="0.170516" points="504.136,-302.979 495.092,-297.459 498.719,-307.413 504.136,-302.979"/>
</g>
<!-- 53986 -->
<g id="node31" class="node"><title>53986</title>
<ellipse fill="white" stroke="black" cx="551" cy="-275.584" rx="27.6545" ry="27.6545"/>
<text text-anchor="middle" x="551" y="-273.384" font-family="Times,serif" font-size="9.00">53986</text>
</g>
<!-- &#45;17&#45;&gt;53986 -->
<g id="edge18" class="edge"><title>&#45;17&#45;&gt;53986</title>
<path fill="none" stroke="red" stroke-width="0.175897" d="M551,-357.511C551,-347.539 551,-330.058 551,-313.889"/>
<polygon fill="red" stroke="red" stroke-width="0.175897" points="554.5,-313.545 551,-303.545 547.5,-313.545 554.5,-313.545"/>
</g>
<!-- &#45;17&#45;&gt;52169 -->
<g id="edge27" class="edge"><title>&#45;17&#45;&gt;52169</title>
<path fill="none" stroke="green" stroke-width="0.277872" stroke-dasharray="1,5" d="M557.913,-357.524C573.788,-337.604 609.866,-285.604 588,-248.007 572.3,-221.013 540.125,-204.703 514.61,-195.536"/>
<polygon fill="green" stroke="green" stroke-width="0.277872" points="515.448,-192.125 504.854,-192.254 513.217,-198.76 515.448,-192.125"/>
</g>
<!-- &#45;18 -->
<g id="node18" class="node"><title>&#45;18</title>
<polygon fill="lightgray" stroke="black" points="1016.5,-375.739 987.5,-375.739 987.5,-357.739 1016.5,-357.739 1016.5,-375.739"/>
<text text-anchor="middle" x="1002" y="-364.539" font-family="Times,serif" font-size="9.00">&#45;18</text>
</g>
<!-- &#45;19 -->
<g id="node19" class="node"><title>&#45;19</title>
<polygon fill="lightgray" stroke="black" points="1063.5,-375.739 1034.5,-375.739 1034.5,-357.739 1063.5,-357.739 1063.5,-375.739"/>
<text text-anchor="middle" x="1049" y="-364.539" font-family="Times,serif" font-size="9.00">&#45;19</text>
</g>
<!-- 49895 -->
<g id="node32" class="node"><title>49895</title>
<ellipse fill="white" stroke="black" cx="1049" cy="-275.584" rx="27.6545" ry="27.6545"/>
<text text-anchor="middle" x="1049" y="-273.384" font-family="Times,serif" font-size="9.00">49895</text>
</g>
<!-- &#45;19&#45;&gt;49895 -->
<g id="edge24" class="edge"><title>&#45;19&#45;&gt;49895</title>
<path fill="none" stroke="green" stroke-width="0.28198" d="M1049,-357.511C1049,-347.539 1049,-330.058 1049,-313.889"/>
<polygon fill="green" stroke="green" stroke-width="0.28198" points="1052.5,-313.545 1049,-303.545 1045.5,-313.545 1052.5,-313.545"/>
</g>
<!-- &#45;20 -->
<g id="node20" class="node"><title>&#45;20</title>
<polygon fill="lightgray" stroke="black" points="1110.5,-375.739 1081.5,-375.739 1081.5,-357.739 1110.5,-357.739 1110.5,-375.739"/>
<text text-anchor="middle" x="1096" y="-364.539" font-family="Times,serif" font-size="9.00">&#45;20</text>
</g>
<!-- &#45;21 -->
<g id="node21" class="node"><title>&#45;21</title>
<polygon fill="lightgray" stroke="black" points="1157.5,-375.739 1128.5,-375.739 1128.5,-357.739 1157.5,-357.739 1157.5,-375.739"/>
<text text-anchor="middle" x="1143" y="-364.539" font-family="Times,serif" font-size="9.00">&#45;21</text>
</g>
<!-- &#45;22 -->
<g id="node22" class="node"><title>&#45;22</title>
<polygon fill="lightgray" stroke="black" points="1204.5,-375.739 1175.5,-375.739 1175.5,-357.739 1204.5,-357.739 1204.5,-375.739"/>
<text text-anchor="middle" x="1190" y="-364.539" font-family="Times,serif" font-size="9.00">&#45;22</text>
</g>
<!-- &#45;23 -->
<g id="node23" class="node"><title>&#45;23</title>
<polygon fill="lightgray" stroke="black" points="1251.5,-375.739 1222.5,-375.739 1222.5,-357.739 1251.5,-357.739 1251.5,-375.739"/>
<text text-anchor="middle" x="1237" y="-364.539" font-family="Times,serif" font-size="9.00">&#45;23</text>
</g>
<!-- &#45;24 -->
<g id="node24" class="node"><title>&#45;24</title>
<polygon fill="lightgray" stroke="black" points="1298.5,-375.739 1269.5,-375.739 1269.5,-357.739 1298.5,-357.739 1298.5,-375.739"/>
<text text-anchor="middle" x="1284" y="-364.539" font-family="Times,serif" font-size="9.00">&#45;24</text>
</g>
<!-- 0 -->
<g id="node25" class="node"><title>0</title>
<ellipse fill="lightblue" stroke="black" cx="455" cy="-106.004" rx="14.7" ry="14.7"/>
<text text-anchor="middle" x="455" y="-103.804" font-family="Times,serif" font-size="9.00">0</text>
</g>
<!-- 0&#45;&gt;45220 -->
<g id="edge7" class="edge"><title>0&#45;&gt;45220</title>
<path fill="none" stroke="green" stroke-width="0.378176" d="M448.091,-92.7243C443.221,-84.0677 436.459,-72.0492 430.103,-60.7528"/>
<polygon fill="green" stroke="green" stroke-width="0.378176" points="433.091,-58.9252 425.137,-51.9261 426.99,-62.3576 433.091,-58.9252"/>
</g>
<!-- 2&#45;&gt;49647 -->
<g id="edge14" class="edge"><title>2&#45;&gt;49647</title>
<path fill="none" stroke="red" stroke-width="0.329209" stroke-dasharray="1,5" d="M819.341,-261.044C821.953,-250.46 825.708,-235.243 829.166,-221.231"/>
<polygon fill="red" stroke="red" stroke-width="0.329209" points="832.613,-221.871 831.61,-211.324 825.816,-220.194 832.613,-221.871"/>
</g>
<!-- 3&#45;&gt;45220 -->
<g id="edge16" class="edge"><title>3&#45;&gt;45220</title>
<path fill="none" stroke="red" stroke-width="0.518762" d="M375.909,-92.7243C380.779,-84.0677 387.541,-72.0492 393.897,-60.7528"/>
<polygon fill="red" stroke="red" stroke-width="0.518762" points="397.01,-62.3576 398.863,-51.9261 390.909,-58.9252 397.01,-62.3576"/>
</g>
<!-- 54117&#45;&gt;52169 -->
<g id="edge17" class="edge"><title>54117&#45;&gt;52169</title>
<path fill="none" stroke="green" stroke-width="0.300852" d="M478,-247.835C478,-239.813 478,-230.868 478,-222.314"/>
<polygon fill="green" stroke="green" stroke-width="0.300852" points="481.5,-222.16 478,-212.16 474.5,-222.16 481.5,-222.16"/>
</g>
<!-- 53986&#45;&gt;52169 -->
<g id="edge3" class="edge"><title>53986&#45;&gt;52169</title>
<path fill="none" stroke="green" stroke-width="0.307796" d="M533.7,-253.456C524.154,-241.798 512.159,-227.148 501.747,-214.433"/>
<polygon fill="green" stroke="green" stroke-width="0.307796" points="504.219,-211.927 495.176,-206.407 498.803,-216.361 504.219,-211.927"/>
</g>
<!-- 53107 -->
<g id="node41" class="node"><title>53107</title>
<ellipse fill="white" stroke="black" cx="208" cy="-184.43" rx="27.6545" ry="27.6545"/>
<text text-anchor="middle" x="208" y="-182.23" font-family="Times,serif" font-size="9.00">53107</text>
</g>
<!-- 51432&#45;&gt;53107 -->
<g id="edge10" class="edge"><title>51432&#45;&gt;53107</title>
<path fill="none" stroke="green" stroke-width="0.557662" d="M202.4,-247.835C203.12,-239.813 203.923,-230.868 204.69,-222.314"/>
<polygon fill="green" stroke="green" stroke-width="0.557662" points="208.194,-222.433 205.601,-212.16 201.222,-221.807 208.194,-222.433"/>
</g>
<!-- 49386 -->
<g id="node35" class="node"><title>49386</title>
<ellipse fill="white" stroke="black" cx="127" cy="-184.43" rx="27.6545" ry="27.6545"/>
<text text-anchor="middle" x="127" y="-182.23" font-family="Times,serif" font-size="9.00">49386</text>
</g>
<!-- 45393 -->
<g id="node40" class="node"><title>45393</title>
<ellipse fill="white" stroke="black" cx="1344" cy="-366.739" rx="27.6545" ry="27.6545"/>
<text text-anchor="middle" x="1344" y="-364.539" font-family="Times,serif" font-size="9.00">45393</text>
</g>
<!-- 53107&#45;&gt;3 -->
<g id="edge12" class="edge"><title>53107&#45;&gt;3</title>
<path fill="none" stroke="green" stroke-width="0.146558" d="M229.097,-166.469C233.849,-163.048 238.976,-159.648 244,-156.853 277.555,-138.184 319.548,-122.94 345.312,-114.417"/>
<polygon fill="green" stroke="green" stroke-width="0.146558" points="346.539,-117.699 354.973,-111.286 344.381,-111.04 346.539,-117.699"/>
</g>
<!-- 53788&#45;&gt;49386 -->
<g id="edge20" class="edge"><title>53788&#45;&gt;49386</title>
<path fill="none" stroke="red" stroke-width="0.154966" d="M127,-247.835C127,-239.813 127,-230.868 127,-222.314"/>
<polygon fill="red" stroke="red" stroke-width="0.154966" points="130.5,-222.16 127,-212.16 123.5,-222.16 130.5,-222.16"/>
</g>
<!-- 49661 -->
<g id="node43" class="node"><title>49661</title>
<ellipse fill="white" stroke="black" cx="273" cy="-275.584" rx="27.6545" ry="27.6545"/>
<text text-anchor="middle" x="273" y="-273.384" font-family="Times,serif" font-size="9.00">49661</text>
</g>
<!-- 49661&#45;&gt;53706 -->
<g id="edge8" class="edge"><title>49661&#45;&gt;53706</title>
<path fill="none" stroke="green" stroke-width="0.207061" d="M275.4,-247.835C276.12,-239.813 276.923,-230.868 277.69,-222.314"/>
<polygon fill="green" stroke="green" stroke-width="0.207061" points="281.194,-222.433 278.601,-212.16 274.222,-221.807 281.194,-222.433"/>
</g>
<!-- 49661&#45;&gt;52749 -->
<g id="edge26" class="edge"><title>49661&#45;&gt;52749</title>
<path fill="none" stroke="red" stroke-width="0.322696" stroke-dasharray="1,5" d="M291.38,-254.354C302.461,-242.157 316.73,-226.452 328.847,-213.115"/>
<polygon fill="red" stroke="red" stroke-width="0.322696" points="331.559,-215.335 335.693,-205.58 326.378,-210.628 331.559,-215.335"/>
</g>
<!-- 49661&#45;&gt;53107 -->
<g id="edge4" class="edge"><title>49661&#45;&gt;53107</title>
<path fill="none" stroke="green" stroke-width="1.14512" d="M256.933,-252.546C248.746,-241.318 238.673,-227.501 229.797,-215.328"/>
<polygon fill="green" stroke="green" stroke-width="1.14512" points="232.602,-213.233 223.883,-207.215 226.946,-217.357 232.602,-213.233"/>
</g>
</g>
</svg>
