<?xml version="1.0" encoding="UTF-8" standalone="no"?>
<!DOCTYPE svg PUBLIC "-//W3C//DTD SVG 1.1//EN"
 "http://www.w3.org/Graphics/SVG/1.1/DTD/svg11.dtd">
<!-- Generated by graphviz version 2.38.0 (20140413.2041)
 -->
<!-- Title: %3 Pages: 1 -->
<svg width="1316pt" height="220pt"
 viewBox="0.00 0.00 1315.58 220.01" xmlns="http://www.w3.org/2000/svg" xmlns:xlink="http://www.w3.org/1999/xlink">
<g id="graph0" class="graph" transform="scale(1 1) rotate(0) translate(4 216.007)">
<title>%3</title>
<polygon fill="white" stroke="none" points="-4,4 -4,-216.007 1311.58,-216.007 1311.58,4 -4,4"/>
<!-- &#45;1 -->
<g id="node1" class="node"><title>&#45;1</title>
<polygon fill="lightgray" stroke="black" points="24,-193.43 0,-193.43 0,-175.43 24,-175.43 24,-193.43"/>
<text text-anchor="middle" x="12" y="-182.23" font-family="Times,serif" font-size="9.00">&#45;1</text>
</g>
<!-- &#45;2 -->
<g id="node2" class="node"><title>&#45;2</title>
<polygon fill="lightgray" stroke="black" points="66,-193.43 42,-193.43 42,-175.43 66,-175.43 66,-193.43"/>
<text text-anchor="middle" x="54" y="-182.23" font-family="Times,serif" font-size="9.00">&#45;2</text>
</g>
<!-- &#45;3 -->
<g id="node3" class="node"><title>&#45;3</title>
<polygon fill="lightgray" stroke="black" points="108,-193.43 84,-193.43 84,-175.43 108,-175.43 108,-193.43"/>
<text text-anchor="middle" x="96" y="-182.23" font-family="Times,serif" font-size="9.00">&#45;3</text>
</g>
<!-- &#45;4 -->
<g id="node4" class="node"><title>&#45;4</title>
<polygon fill="lightgray" stroke="black" points="150,-193.43 126,-193.43 126,-175.43 150,-175.43 150,-193.43"/>
<text text-anchor="middle" x="138" y="-182.23" font-family="Times,serif" font-size="9.00">&#45;4</text>
</g>
<!-- &#45;5 -->
<g id="node5" class="node"><title>&#45;5</title>
<polygon fill="lightgray" stroke="black" points="192,-193.43 168,-193.43 168,-175.43 192,-175.43 192,-193.43"/>
<text text-anchor="middle" x="180" y="-182.23" font-family="Times,serif" font-size="9.00">&#45;5</text>
</g>
<!-- &#45;6 -->
<g id="node6" class="node"><title>&#45;6</title>
<polygon fill="lightgray" stroke="black" points="234,-193.43 210,-193.43 210,-175.43 234,-175.43 234,-193.43"/>
<text text-anchor="middle" x="222" y="-182.23" font-family="Times,serif" font-size="9.00">&#45;6</text>
</g>
<!-- &#45;7 -->
<g id="node7" class="node"><title>&#45;7</title>
<polygon fill="lightgray" stroke="black" points="276,-193.43 252,-193.43 252,-175.43 276,-175.43 276,-193.43"/>
<text text-anchor="middle" x="264" y="-182.23" font-family="Times,serif" font-size="9.00">&#45;7</text>
</g>
<!-- &#45;8 -->
<g id="node8" class="node"><title>&#45;8</title>
<polygon fill="lightgray" stroke="black" points="318,-193.43 294,-193.43 294,-175.43 318,-175.43 318,-193.43"/>
<text text-anchor="middle" x="306" y="-182.23" font-family="Times,serif" font-size="9.00">&#45;8</text>
</g>
<!-- &#45;9 -->
<g id="node9" class="node"><title>&#45;9</title>
<polygon fill="lightgray" stroke="black" points="360,-193.43 336,-193.43 336,-175.43 360,-175.43 360,-193.43"/>
<text text-anchor="middle" x="348" y="-182.23" font-family="Times,serif" font-size="9.00">&#45;9</text>
</g>
<!-- &#45;10 -->
<g id="node10" class="node"><title>&#45;10</title>
<polygon fill="lightgray" stroke="black" points="336.5,-102.276 307.5,-102.276 307.5,-84.2756 336.5,-84.2756 336.5,-102.276"/>
<text text-anchor="middle" x="322" y="-91.0756" font-family="Times,serif" font-size="9.00">&#45;10</text>
</g>
<!-- 2 -->
<g id="node27" class="node"><title>2</title>
<ellipse fill="lightblue" stroke="black" cx="365" cy="-14.8492" rx="14.7" ry="14.7"/>
<text text-anchor="middle" x="365" y="-12.6492" font-family="Times,serif" font-size="9.00">2</text>
</g>
<!-- &#45;10&#45;&gt;2 -->
<g id="edge2" class="edge"><title>&#45;10&#45;&gt;2</title>
<path fill="none" stroke="red" stroke-width="3.77965" d="M326.602,-84.0967C332.846,-72.9993 344.226,-52.7725 352.982,-37.2095"/>
<polygon fill="red" stroke="red" stroke-width="3.77965" points="356.172,-38.6768 358.026,-28.2453 350.072,-35.2443 356.172,-38.6768"/>
</g>
<!-- &#45;11 -->
<g id="node11" class="node"><title>&#45;11</title>
<polygon fill="lightgray" stroke="black" points="407.5,-193.43 378.5,-193.43 378.5,-175.43 407.5,-175.43 407.5,-193.43"/>
<text text-anchor="middle" x="393" y="-182.23" font-family="Times,serif" font-size="9.00">&#45;11</text>
</g>
<!-- &#45;11&#45;&gt;2 -->
<g id="edge3" class="edge"><title>&#45;11&#45;&gt;2</title>
<path fill="none" stroke="green" stroke-width="0.530335" stroke-dasharray="1,5" d="M391.65,-175.347C387.593,-151.069 375.402,-78.1065 369.01,-39.8507"/>
<polygon fill="green" stroke="green" stroke-width="0.530335" points="372.4,-38.9029 367.3,-29.6165 365.496,-40.0566 372.4,-38.9029"/>
</g>
<!-- 18733 -->
<g id="node31" class="node"><title>18733</title>
<ellipse fill="white" stroke="black" cx="421" cy="-93.2756" rx="27.6545" ry="27.6545"/>
<text text-anchor="middle" x="421" y="-91.0756" font-family="Times,serif" font-size="9.00">18733</text>
</g>
<!-- &#45;11&#45;&gt;18733 -->
<g id="edge4" class="edge"><title>&#45;11&#45;&gt;18733</title>
<path fill="none" stroke="green" stroke-width="0.387803" d="M395.584,-175.202C398.866,-164.752 404.738,-146.056 410.011,-129.264"/>
<polygon fill="green" stroke="green" stroke-width="0.387803" points="413.366,-130.264 413.023,-119.675 406.688,-128.166 413.366,-130.264"/>
</g>
<!-- &#45;12 -->
<g id="node12" class="node"><title>&#45;12</title>
<polygon fill="lightgray" stroke="black" points="454.5,-193.43 425.5,-193.43 425.5,-175.43 454.5,-175.43 454.5,-193.43"/>
<text text-anchor="middle" x="440" y="-182.23" font-family="Times,serif" font-size="9.00">&#45;12</text>
</g>
<!-- &#45;13 -->
<g id="node13" class="node"><title>&#45;13</title>
<polygon fill="lightgray" stroke="black" points="501.5,-193.43 472.5,-193.43 472.5,-175.43 501.5,-175.43 501.5,-193.43"/>
<text text-anchor="middle" x="487" y="-182.23" font-family="Times,serif" font-size="9.00">&#45;13</text>
</g>
<!-- &#45;14 -->
<g id="node14" class="node"><title>&#45;14</title>
<polygon fill="lightgray" stroke="black" points="548.5,-193.43 519.5,-193.43 519.5,-175.43 548.5,-175.43 548.5,-193.43"/>
<text text-anchor="middle" x="534" y="-182.23" font-family="Times,serif" font-size="9.00">&#45;14</text>
</g>
<!-- &#45;15 -->
<g id="node15" class="node"><title>&#45;15</title>
<polygon fill="lightgray" stroke="black" points="595.5,-193.43 566.5,-193.43 566.5,-175.43 595.5,-175.43 595.5,-193.43"/>
<text text-anchor="middle" x="581" y="-182.23" font-family="Times,serif" font-size="9.00">&#45;15</text>
</g>
<!-- &#45;16 -->
<g id="node16" class="node"><title>&#45;16</title>
<polygon fill="lightgray" stroke="black" points="642.5,-193.43 613.5,-193.43 613.5,-175.43 642.5,-175.43 642.5,-193.43"/>
<text text-anchor="middle" x="628" y="-182.23" font-family="Times,serif" font-size="9.00">&#45;16</text>
</g>
<!-- &#45;17 -->
<g id="node17" class="node"><title>&#45;17</title>
<polygon fill="lightgray" stroke="black" points="689.5,-193.43 660.5,-193.43 660.5,-175.43 689.5,-175.43 689.5,-193.43"/>
<text text-anchor="middle" x="675" y="-182.23" font-family="Times,serif" font-size="9.00">&#45;17</text>
</g>
<!-- &#45;18 -->
<g id="node18" class="node"><title>&#45;18</title>
<polygon fill="lightgray" stroke="black" points="736.5,-193.43 707.5,-193.43 707.5,-175.43 736.5,-175.43 736.5,-193.43"/>
<text text-anchor="middle" x="722" y="-182.23" font-family="Times,serif" font-size="9.00">&#45;18</text>
</g>
<!-- &#45;19 -->
<g id="node19" class="node"><title>&#45;19</title>
<polygon fill="lightgray" stroke="black" points="783.5,-193.43 754.5,-193.43 754.5,-175.43 783.5,-175.43 783.5,-193.43"/>
<text text-anchor="middle" x="769" y="-182.23" font-family="Times,serif" font-size="9.00">&#45;19</text>
</g>
<!-- &#45;20 -->
<g id="node20" class="node"><title>&#45;20</title>
<polygon fill="lightgray" stroke="black" points="830.5,-193.43 801.5,-193.43 801.5,-175.43 830.5,-175.43 830.5,-193.43"/>
<text text-anchor="middle" x="816" y="-182.23" font-family="Times,serif" font-size="9.00">&#45;20</text>
</g>
<!-- &#45;21 -->
<g id="node21" class="node"><title>&#45;21</title>
<polygon fill="lightgray" stroke="black" points="877.5,-193.43 848.5,-193.43 848.5,-175.43 877.5,-175.43 877.5,-193.43"/>
<text text-anchor="middle" x="863" y="-182.23" font-family="Times,serif" font-size="9.00">&#45;21</text>
</g>
<!-- &#45;22 -->
<g id="node22" class="node"><title>&#45;22</title>
<polygon fill="lightgray" stroke="black" points="924.5,-193.43 895.5,-193.43 895.5,-175.43 924.5,-175.43 924.5,-193.43"/>
<text text-anchor="middle" x="910" y="-182.23" font-family="Times,serif" font-size="9.00">&#45;22</text>
</g>
<!-- &#45;23 -->
<g id="node23" class="node"><title>&#45;23</title>
<polygon fill="lightgray" stroke="black" points="971.5,-193.43 942.5,-193.43 942.5,-175.43 971.5,-175.43 971.5,-193.43"/>
<text text-anchor="middle" x="957" y="-182.23" font-family="Times,serif" font-size="9.00">&#45;23</text>
</g>
<!-- &#45;24 -->
<g id="node24" class="node"><title>&#45;24</title>
<polygon fill="lightgray" stroke="black" points="1018.5,-193.43 989.5,-193.43 989.5,-175.43 1018.5,-175.43 1018.5,-193.43"/>
<text text-anchor="middle" x="1004" y="-182.23" font-family="Times,serif" font-size="9.00">&#45;24</text>
</g>
<!-- 0 -->
<g id="node25" class="node"><title>0</title>
<ellipse fill="lightblue" stroke="black" cx="1051" cy="-184.43" rx="14.7" ry="14.7"/>
<text text-anchor="middle" x="1051" y="-182.23" font-family="Times,serif" font-size="9.00">0</text>
</g>
<!-- 1 -->
<g id="node26" class="node"><title>1</title>
<ellipse fill="lightblue" stroke="black" cx="1099" cy="-184.43" rx="14.7" ry="14.7"/>
<text text-anchor="middle" x="1099" y="-182.23" font-family="Times,serif" font-size="9.00">1</text>
</g>
<!-- 3 -->
<g id="node28" class="node"><title>3</title>
<ellipse fill="lightblue" stroke="black" cx="1147" cy="-184.43" rx="14.7" ry="14.7"/>
<text text-anchor="middle" x="1147" y="-182.23" font-family="Times,serif" font-size="9.00">3</text>
</g>
<!-- 18753 -->
<g id="node29" class="node"><title>18753</title>
<ellipse fill="white" stroke="black" cx="1207" cy="-184.43" rx="27.6545" ry="27.6545"/>
<text text-anchor="middle" x="1207" y="-182.23" font-family="Times,serif" font-size="9.00">18753</text>
</g>
<!-- 18700 -->
<g id="node30" class="node"><title>18700</title>
<ellipse fill="white" stroke="black" cx="1280" cy="-184.43" rx="27.6545" ry="27.6545"/>
<text text-anchor="middle" x="1280" y="-182.23" font-family="Times,serif" font-size="9.00">18700</text>
</g>
<!-- 18733&#45;&gt;2 -->
<g id="edge1" class="edge"><title>18733&#45;&gt;2</title>
<path fill="none" stroke="green" stroke-width="0.432502" d="M405.102,-70.5793C397.018,-59.5466 387.268,-46.2394 379.405,-35.5092"/>
<polygon fill="green" stroke="green" stroke-width="0.432502" points="382.057,-33.2062 373.323,-27.2085 376.411,-37.3436 382.057,-33.2062"/>
</g>
</g>
</svg>
