<?xml version="1.0" encoding="UTF-8" standalone="no"?>
<!DOCTYPE svg PUBLIC "-//W3C//DTD SVG 1.1//EN"
 "http://www.w3.org/Graphics/SVG/1.1/DTD/svg11.dtd">
<!-- Generated by graphviz version 2.38.0 (20140413.2041)
 -->
<!-- Title: %3 Pages: 1 -->
<svg width="1149pt" height="337pt"
 viewBox="0.00 0.00 1148.85 336.62" xmlns="http://www.w3.org/2000/svg" xmlns:xlink="http://www.w3.org/1999/xlink">
<g id="graph0" class="graph" transform="scale(1 1) rotate(0) translate(4 332.617)">
<title>%3</title>
<polygon fill="white" stroke="none" points="-4,4 -4,-332.617 1144.85,-332.617 1144.85,4 -4,4"/>
<!-- &#45;1 -->
<g id="node1" class="node"><title>&#45;1</title>
<polygon fill="lightgray" stroke="black" points="24,-310.04 0,-310.04 0,-292.04 24,-292.04 24,-310.04"/>
<text text-anchor="middle" x="12" y="-298.84" font-family="Times,serif" font-size="9.00">&#45;1</text>
</g>
<!-- &#45;2 -->
<g id="node2" class="node"><title>&#45;2</title>
<polygon fill="lightgray" stroke="black" points="66,-310.04 42,-310.04 42,-292.04 66,-292.04 66,-310.04"/>
<text text-anchor="middle" x="54" y="-298.84" font-family="Times,serif" font-size="9.00">&#45;2</text>
</g>
<!-- 1 -->
<g id="node26" class="node"><title>1</title>
<ellipse fill="lightblue" stroke="black" cx="54" cy="-209.886" rx="14.7" ry="14.7"/>
<text text-anchor="middle" x="54" y="-207.686" font-family="Times,serif" font-size="9.00">1</text>
</g>
<!-- &#45;2&#45;&gt;1 -->
<g id="edge7" class="edge"><title>&#45;2&#45;&gt;1</title>
<path fill="none" stroke="red" stroke-width="0.46906" d="M54,-291.813C54,-279.056 54,-254.012 54,-235.145"/>
<polygon fill="red" stroke="red" stroke-width="0.46906" points="57.5001,-234.89 54,-224.89 50.5001,-234.89 57.5001,-234.89"/>
</g>
<!-- &#45;3 -->
<g id="node3" class="node"><title>&#45;3</title>
<polygon fill="lightgray" stroke="black" points="108,-310.04 84,-310.04 84,-292.04 108,-292.04 108,-310.04"/>
<text text-anchor="middle" x="96" y="-298.84" font-family="Times,serif" font-size="9.00">&#45;3</text>
</g>
<!-- &#45;4 -->
<g id="node4" class="node"><title>&#45;4</title>
<polygon fill="lightgray" stroke="black" points="150,-310.04 126,-310.04 126,-292.04 150,-292.04 150,-310.04"/>
<text text-anchor="middle" x="138" y="-298.84" font-family="Times,serif" font-size="9.00">&#45;4</text>
</g>
<!-- &#45;5 -->
<g id="node5" class="node"><title>&#45;5</title>
<polygon fill="lightgray" stroke="black" points="192,-310.04 168,-310.04 168,-292.04 192,-292.04 192,-310.04"/>
<text text-anchor="middle" x="180" y="-298.84" font-family="Times,serif" font-size="9.00">&#45;5</text>
</g>
<!-- &#45;6 -->
<g id="node6" class="node"><title>&#45;6</title>
<polygon fill="lightgray" stroke="black" points="234,-310.04 210,-310.04 210,-292.04 234,-292.04 234,-310.04"/>
<text text-anchor="middle" x="222" y="-298.84" font-family="Times,serif" font-size="9.00">&#45;6</text>
</g>
<!-- 2 -->
<g id="node27" class="node"><title>2</title>
<ellipse fill="lightblue" stroke="black" cx="264" cy="-209.886" rx="14.7" ry="14.7"/>
<text text-anchor="middle" x="264" y="-207.686" font-family="Times,serif" font-size="9.00">2</text>
</g>
<!-- &#45;6&#45;&gt;2 -->
<g id="edge9" class="edge"><title>&#45;6&#45;&gt;2</title>
<path fill="none" stroke="green" stroke-width="0.622339" d="M225.876,-291.813C232.136,-278.524 244.678,-251.901 253.668,-232.817"/>
<polygon fill="green" stroke="green" stroke-width="0.622339" points="256.898,-234.174 257.994,-223.636 250.566,-231.191 256.898,-234.174"/>
</g>
<!-- &#45;7 -->
<g id="node7" class="node"><title>&#45;7</title>
<polygon fill="lightgray" stroke="black" points="366,-310.04 342,-310.04 342,-292.04 366,-292.04 366,-310.04"/>
<text text-anchor="middle" x="354" y="-298.84" font-family="Times,serif" font-size="9.00">&#45;7</text>
</g>
<!-- &#45;8 -->
<g id="node8" class="node"><title>&#45;8</title>
<polygon fill="lightgray" stroke="black" points="276,-310.04 252,-310.04 252,-292.04 276,-292.04 276,-310.04"/>
<text text-anchor="middle" x="264" y="-298.84" font-family="Times,serif" font-size="9.00">&#45;8</text>
</g>
<!-- &#45;8&#45;&gt;2 -->
<g id="edge4" class="edge"><title>&#45;8&#45;&gt;2</title>
<path fill="none" stroke="green" stroke-width="1.36557" d="M264,-291.813C264,-279.056 264,-254.012 264,-235.145"/>
<polygon fill="green" stroke="green" stroke-width="1.36557" points="267.5,-234.89 264,-224.89 260.5,-234.89 267.5,-234.89"/>
</g>
<!-- &#45;9 -->
<g id="node9" class="node"><title>&#45;9</title>
<polygon fill="lightgray" stroke="black" points="408,-310.04 384,-310.04 384,-292.04 408,-292.04 408,-310.04"/>
<text text-anchor="middle" x="396" y="-298.84" font-family="Times,serif" font-size="9.00">&#45;9</text>
</g>
<!-- &#45;10 -->
<g id="node10" class="node"><title>&#45;10</title>
<polygon fill="lightgray" stroke="black" points="323.5,-310.04 294.5,-310.04 294.5,-292.04 323.5,-292.04 323.5,-310.04"/>
<text text-anchor="middle" x="309" y="-298.84" font-family="Times,serif" font-size="9.00">&#45;10</text>
</g>
<!-- &#45;10&#45;&gt;2 -->
<g id="edge2" class="edge"><title>&#45;10&#45;&gt;2</title>
<path fill="none" stroke="red" stroke-width="1.64908" d="M304.847,-291.813C298.14,-278.524 284.702,-251.901 275.07,-232.817"/>
<polygon fill="red" stroke="red" stroke-width="1.64908" points="278.066,-230.986 270.435,-223.636 271.817,-234.14 278.066,-230.986"/>
</g>
<!-- &#45;11 -->
<g id="node11" class="node"><title>&#45;11</title>
<polygon fill="lightgray" stroke="black" points="455.5,-310.04 426.5,-310.04 426.5,-292.04 455.5,-292.04 455.5,-310.04"/>
<text text-anchor="middle" x="441" y="-298.84" font-family="Times,serif" font-size="9.00">&#45;11</text>
</g>
<!-- &#45;12 -->
<g id="node12" class="node"><title>&#45;12</title>
<polygon fill="lightgray" stroke="black" points="502.5,-310.04 473.5,-310.04 473.5,-292.04 502.5,-292.04 502.5,-310.04"/>
<text text-anchor="middle" x="488" y="-298.84" font-family="Times,serif" font-size="9.00">&#45;12</text>
</g>
<!-- &#45;13 -->
<g id="node13" class="node"><title>&#45;13</title>
<polygon fill="lightgray" stroke="black" points="549.5,-310.04 520.5,-310.04 520.5,-292.04 549.5,-292.04 549.5,-310.04"/>
<text text-anchor="middle" x="535" y="-298.84" font-family="Times,serif" font-size="9.00">&#45;13</text>
</g>
<!-- &#45;14 -->
<g id="node14" class="node"><title>&#45;14</title>
<polygon fill="lightgray" stroke="black" points="596.5,-310.04 567.5,-310.04 567.5,-292.04 596.5,-292.04 596.5,-310.04"/>
<text text-anchor="middle" x="582" y="-298.84" font-family="Times,serif" font-size="9.00">&#45;14</text>
</g>
<!-- &#45;15 -->
<g id="node15" class="node"><title>&#45;15</title>
<polygon fill="lightgray" stroke="black" points="643.5,-310.04 614.5,-310.04 614.5,-292.04 643.5,-292.04 643.5,-310.04"/>
<text text-anchor="middle" x="629" y="-298.84" font-family="Times,serif" font-size="9.00">&#45;15</text>
</g>
<!-- &#45;16 -->
<g id="node16" class="node"><title>&#45;16</title>
<polygon fill="lightgray" stroke="black" points="643.5,-218.886 614.5,-218.886 614.5,-200.886 643.5,-200.886 643.5,-218.886"/>
<text text-anchor="middle" x="629" y="-207.686" font-family="Times,serif" font-size="9.00">&#45;16</text>
</g>
<!-- 18451 -->
<g id="node32" class="node"><title>18451</title>
<ellipse fill="white" stroke="black" cx="659" cy="-118.731" rx="27.6545" ry="27.6545"/>
<text text-anchor="middle" x="659" y="-116.531" font-family="Times,serif" font-size="9.00">18451</text>
</g>
<!-- &#45;16&#45;&gt;18451 -->
<g id="edge6" class="edge"><title>&#45;16&#45;&gt;18451</title>
<path fill="none" stroke="green" stroke-width="0.28447" d="M631.769,-200.658C635.285,-190.208 641.576,-171.511 647.227,-154.72"/>
<polygon fill="green" stroke="green" stroke-width="0.28447" points="650.581,-155.724 650.453,-145.13 643.947,-153.492 650.581,-155.724"/>
</g>
<!-- &#45;17 -->
<g id="node17" class="node"><title>&#45;17</title>
<polygon fill="lightgray" stroke="black" points="763.5,-310.04 734.5,-310.04 734.5,-292.04 763.5,-292.04 763.5,-310.04"/>
<text text-anchor="middle" x="749" y="-298.84" font-family="Times,serif" font-size="9.00">&#45;17</text>
</g>
<!-- &#45;18 -->
<g id="node18" class="node"><title>&#45;18</title>
<polygon fill="lightgray" stroke="black" points="810.5,-310.04 781.5,-310.04 781.5,-292.04 810.5,-292.04 810.5,-310.04"/>
<text text-anchor="middle" x="796" y="-298.84" font-family="Times,serif" font-size="9.00">&#45;18</text>
</g>
<!-- &#45;19 -->
<g id="node19" class="node"><title>&#45;19</title>
<polygon fill="lightgray" stroke="black" points="733.5,-127.731 704.5,-127.731 704.5,-109.731 733.5,-109.731 733.5,-127.731"/>
<text text-anchor="middle" x="719" y="-116.531" font-family="Times,serif" font-size="9.00">&#45;19</text>
</g>
<!-- 20930 -->
<g id="node29" class="node"><title>20930</title>
<ellipse fill="white" stroke="black" cx="689" cy="-27.5772" rx="27.6545" ry="27.6545"/>
<text text-anchor="middle" x="689" y="-25.3772" font-family="Times,serif" font-size="9.00">20930</text>
</g>
<!-- &#45;19&#45;&gt;20930 -->
<g id="edge3" class="edge"><title>&#45;19&#45;&gt;20930</title>
<path fill="none" stroke="green" stroke-width="0.267917" stroke-dasharray="1,5" d="M716.231,-109.504C712.715,-99.0537 706.424,-80.357 700.773,-63.5657"/>
<polygon fill="green" stroke="green" stroke-width="0.267917" points="704.053,-62.3377 697.547,-53.9761 697.419,-64.5702 704.053,-62.3377"/>
</g>
<!-- &#45;20 -->
<g id="node20" class="node"><title>&#45;20</title>
<polygon fill="lightgray" stroke="black" points="857.5,-310.04 828.5,-310.04 828.5,-292.04 857.5,-292.04 857.5,-310.04"/>
<text text-anchor="middle" x="843" y="-298.84" font-family="Times,serif" font-size="9.00">&#45;20</text>
</g>
<!-- &#45;21 -->
<g id="node21" class="node"><title>&#45;21</title>
<polygon fill="lightgray" stroke="black" points="904.5,-310.04 875.5,-310.04 875.5,-292.04 904.5,-292.04 904.5,-310.04"/>
<text text-anchor="middle" x="890" y="-298.84" font-family="Times,serif" font-size="9.00">&#45;21</text>
</g>
<!-- &#45;22 -->
<g id="node22" class="node"><title>&#45;22</title>
<polygon fill="lightgray" stroke="black" points="951.5,-310.04 922.5,-310.04 922.5,-292.04 951.5,-292.04 951.5,-310.04"/>
<text text-anchor="middle" x="937" y="-298.84" font-family="Times,serif" font-size="9.00">&#45;22</text>
</g>
<!-- &#45;23 -->
<g id="node23" class="node"><title>&#45;23</title>
<polygon fill="lightgray" stroke="black" points="998.5,-310.04 969.5,-310.04 969.5,-292.04 998.5,-292.04 998.5,-310.04"/>
<text text-anchor="middle" x="984" y="-298.84" font-family="Times,serif" font-size="9.00">&#45;23</text>
</g>
<!-- &#45;24 -->
<g id="node24" class="node"><title>&#45;24</title>
<polygon fill="lightgray" stroke="black" points="1045.5,-310.04 1016.5,-310.04 1016.5,-292.04 1045.5,-292.04 1045.5,-310.04"/>
<text text-anchor="middle" x="1031" y="-298.84" font-family="Times,serif" font-size="9.00">&#45;24</text>
</g>
<!-- 0 -->
<g id="node25" class="node"><title>0</title>
<ellipse fill="lightblue" stroke="black" cx="1078" cy="-301.04" rx="14.7" ry="14.7"/>
<text text-anchor="middle" x="1078" y="-298.84" font-family="Times,serif" font-size="9.00">0</text>
</g>
<!-- 3 -->
<g id="node28" class="node"><title>3</title>
<ellipse fill="lightblue" stroke="black" cx="1126" cy="-301.04" rx="14.7" ry="14.7"/>
<text text-anchor="middle" x="1126" y="-298.84" font-family="Times,serif" font-size="9.00">3</text>
</g>
<!-- 21224 -->
<g id="node30" class="node"><title>21224</title>
<ellipse fill="white" stroke="black" cx="689" cy="-209.886" rx="27.6545" ry="27.6545"/>
<text text-anchor="middle" x="689" y="-207.686" font-family="Times,serif" font-size="9.00">21224</text>
</g>
<!-- 21224&#45;&gt;18451 -->
<g id="edge1" class="edge"><title>21224&#45;&gt;18451</title>
<path fill="none" stroke="green" stroke-width="0.102539" d="M680.483,-183.576C677.475,-174.636 674.036,-164.414 670.804,-154.81"/>
<polygon fill="green" stroke="green" stroke-width="0.102539" points="674.044,-153.466 667.538,-145.104 667.41,-155.698 674.044,-153.466"/>
</g>
<!-- 20594 -->
<g id="node31" class="node"><title>20594</title>
<ellipse fill="white" stroke="black" cx="689" cy="-301.04" rx="27.6545" ry="27.6545"/>
<text text-anchor="middle" x="689" y="-298.84" font-family="Times,serif" font-size="9.00">20594</text>
</g>
<!-- 20594&#45;&gt;21224 -->
<g id="edge5" class="edge"><title>20594&#45;&gt;21224</title>
<path fill="none" stroke="green" stroke-width="0.207501" d="M689,-273.291C689,-265.269 689,-256.324 689,-247.769"/>
<polygon fill="green" stroke="green" stroke-width="0.207501" points="692.5,-247.616 689,-237.616 685.5,-247.616 692.5,-247.616"/>
</g>
<!-- 18451&#45;&gt;20930 -->
<g id="edge8" class="edge"><title>18451&#45;&gt;20930</title>
<path fill="none" stroke="red" stroke-width="0.329169" d="M667.517,-92.4219C670.525,-83.4812 673.964,-73.2601 677.196,-63.6558"/>
<polygon fill="red" stroke="red" stroke-width="0.329169" points="680.59,-64.5441 680.462,-53.95 673.956,-62.3116 680.59,-64.5441"/>
</g>
</g>
</svg>
