<?xml version="1.0" encoding="UTF-8" standalone="no"?>
<!DOCTYPE svg PUBLIC "-//W3C//DTD SVG 1.1//EN"
 "http://www.w3.org/Graphics/SVG/1.1/DTD/svg11.dtd">
<!-- Generated by graphviz version 2.38.0 (20140413.2041)
 -->
<!-- Title: %3 Pages: 1 -->
<svg width="1218pt" height="103pt"
 viewBox="0.00 0.00 1217.85 103.40" xmlns="http://www.w3.org/2000/svg" xmlns:xlink="http://www.w3.org/1999/xlink">
<g id="graph0" class="graph" transform="scale(1 1) rotate(0) translate(4 99.397)">
<title>%3</title>
<polygon fill="white" stroke="none" points="-4,4 -4,-99.397 1213.85,-99.397 1213.85,4 -4,4"/>
<!-- &#45;1 -->
<g id="node1" class="node"><title>&#45;1</title>
<polygon fill="lightgray" stroke="black" points="24,-89.5477 0,-89.5477 0,-71.5477 24,-71.5477 24,-89.5477"/>
<text text-anchor="middle" x="12" y="-78.3477" font-family="Times,serif" font-size="9.00">&#45;1</text>
</g>
<!-- 0 -->
<g id="node25" class="node"><title>0</title>
<ellipse fill="lightblue" stroke="black" cx="34" cy="-14.8492" rx="14.7" ry="14.7"/>
<text text-anchor="middle" x="34" y="-12.6492" font-family="Times,serif" font-size="9.00">0</text>
</g>
<!-- &#45;1&#45;&gt;0 -->
<g id="edge1" class="edge"><title>&#45;1&#45;&gt;0</title>
<path fill="none" stroke="red" stroke-width="0.454938" d="M14.7863,-71.4803C17.5837,-63.3809 22.0275,-50.5142 25.9372,-39.1941"/>
<polygon fill="red" stroke="red" stroke-width="0.454938" points="29.3586,-40.0088 29.315,-29.4141 22.7422,-37.7236 29.3586,-40.0088"/>
</g>
<!-- &#45;2 -->
<g id="node2" class="node"><title>&#45;2</title>
<polygon fill="lightgray" stroke="black" points="114,-89.5477 90,-89.5477 90,-71.5477 114,-71.5477 114,-89.5477"/>
<text text-anchor="middle" x="102" y="-78.3477" font-family="Times,serif" font-size="9.00">&#45;2</text>
</g>
<!-- &#45;3 -->
<g id="node3" class="node"><title>&#45;3</title>
<polygon fill="lightgray" stroke="black" points="156,-89.5477 132,-89.5477 132,-71.5477 156,-71.5477 156,-89.5477"/>
<text text-anchor="middle" x="144" y="-78.3477" font-family="Times,serif" font-size="9.00">&#45;3</text>
</g>
<!-- &#45;4 -->
<g id="node4" class="node"><title>&#45;4</title>
<polygon fill="lightgray" stroke="black" points="198,-89.5477 174,-89.5477 174,-71.5477 198,-71.5477 198,-89.5477"/>
<text text-anchor="middle" x="186" y="-78.3477" font-family="Times,serif" font-size="9.00">&#45;4</text>
</g>
<!-- &#45;5 -->
<g id="node5" class="node"><title>&#45;5</title>
<polygon fill="lightgray" stroke="black" points="240,-89.5477 216,-89.5477 216,-71.5477 240,-71.5477 240,-89.5477"/>
<text text-anchor="middle" x="228" y="-78.3477" font-family="Times,serif" font-size="9.00">&#45;5</text>
</g>
<!-- &#45;6 -->
<g id="node6" class="node"><title>&#45;6</title>
<polygon fill="lightgray" stroke="black" points="282,-89.5477 258,-89.5477 258,-71.5477 282,-71.5477 282,-89.5477"/>
<text text-anchor="middle" x="270" y="-78.3477" font-family="Times,serif" font-size="9.00">&#45;6</text>
</g>
<!-- &#45;7 -->
<g id="node7" class="node"><title>&#45;7</title>
<polygon fill="lightgray" stroke="black" points="324,-89.5477 300,-89.5477 300,-71.5477 324,-71.5477 324,-89.5477"/>
<text text-anchor="middle" x="312" y="-78.3477" font-family="Times,serif" font-size="9.00">&#45;7</text>
</g>
<!-- &#45;8 -->
<g id="node8" class="node"><title>&#45;8</title>
<polygon fill="lightgray" stroke="black" points="366,-89.5477 342,-89.5477 342,-71.5477 366,-71.5477 366,-89.5477"/>
<text text-anchor="middle" x="354" y="-78.3477" font-family="Times,serif" font-size="9.00">&#45;8</text>
</g>
<!-- &#45;9 -->
<g id="node9" class="node"><title>&#45;9</title>
<polygon fill="lightgray" stroke="black" points="408,-89.5477 384,-89.5477 384,-71.5477 408,-71.5477 408,-89.5477"/>
<text text-anchor="middle" x="396" y="-78.3477" font-family="Times,serif" font-size="9.00">&#45;9</text>
</g>
<!-- &#45;10 -->
<g id="node10" class="node"><title>&#45;10</title>
<polygon fill="lightgray" stroke="black" points="71.5,-89.5477 42.5,-89.5477 42.5,-71.5477 71.5,-71.5477 71.5,-89.5477"/>
<text text-anchor="middle" x="57" y="-78.3477" font-family="Times,serif" font-size="9.00">&#45;10</text>
</g>
<!-- &#45;10&#45;&gt;0 -->
<g id="edge2" class="edge"><title>&#45;10&#45;&gt;0</title>
<path fill="none" stroke="green" stroke-width="0.15972" d="M54.087,-71.4803C51.0953,-63.1946 46.3021,-49.92 42.1483,-38.4159"/>
<polygon fill="green" stroke="green" stroke-width="0.15972" points="45.412,-37.1488 38.7238,-28.9318 38.828,-39.5261 45.412,-37.1488"/>
</g>
<!-- &#45;11 -->
<g id="node11" class="node"><title>&#45;11</title>
<polygon fill="lightgray" stroke="black" points="455.5,-89.5477 426.5,-89.5477 426.5,-71.5477 455.5,-71.5477 455.5,-89.5477"/>
<text text-anchor="middle" x="441" y="-78.3477" font-family="Times,serif" font-size="9.00">&#45;11</text>
</g>
<!-- &#45;12 -->
<g id="node12" class="node"><title>&#45;12</title>
<polygon fill="lightgray" stroke="black" points="502.5,-89.5477 473.5,-89.5477 473.5,-71.5477 502.5,-71.5477 502.5,-89.5477"/>
<text text-anchor="middle" x="488" y="-78.3477" font-family="Times,serif" font-size="9.00">&#45;12</text>
</g>
<!-- &#45;13 -->
<g id="node13" class="node"><title>&#45;13</title>
<polygon fill="lightgray" stroke="black" points="549.5,-89.5477 520.5,-89.5477 520.5,-71.5477 549.5,-71.5477 549.5,-89.5477"/>
<text text-anchor="middle" x="535" y="-78.3477" font-family="Times,serif" font-size="9.00">&#45;13</text>
</g>
<!-- &#45;14 -->
<g id="node14" class="node"><title>&#45;14</title>
<polygon fill="lightgray" stroke="black" points="596.5,-89.5477 567.5,-89.5477 567.5,-71.5477 596.5,-71.5477 596.5,-89.5477"/>
<text text-anchor="middle" x="582" y="-78.3477" font-family="Times,serif" font-size="9.00">&#45;14</text>
</g>
<!-- &#45;15 -->
<g id="node15" class="node"><title>&#45;15</title>
<polygon fill="lightgray" stroke="black" points="643.5,-89.5477 614.5,-89.5477 614.5,-71.5477 643.5,-71.5477 643.5,-89.5477"/>
<text text-anchor="middle" x="629" y="-78.3477" font-family="Times,serif" font-size="9.00">&#45;15</text>
</g>
<!-- &#45;16 -->
<g id="node16" class="node"><title>&#45;16</title>
<polygon fill="lightgray" stroke="black" points="690.5,-89.5477 661.5,-89.5477 661.5,-71.5477 690.5,-71.5477 690.5,-89.5477"/>
<text text-anchor="middle" x="676" y="-78.3477" font-family="Times,serif" font-size="9.00">&#45;16</text>
</g>
<!-- &#45;17 -->
<g id="node17" class="node"><title>&#45;17</title>
<polygon fill="lightgray" stroke="black" points="737.5,-89.5477 708.5,-89.5477 708.5,-71.5477 737.5,-71.5477 737.5,-89.5477"/>
<text text-anchor="middle" x="723" y="-78.3477" font-family="Times,serif" font-size="9.00">&#45;17</text>
</g>
<!-- &#45;18 -->
<g id="node18" class="node"><title>&#45;18</title>
<polygon fill="lightgray" stroke="black" points="784.5,-89.5477 755.5,-89.5477 755.5,-71.5477 784.5,-71.5477 784.5,-89.5477"/>
<text text-anchor="middle" x="770" y="-78.3477" font-family="Times,serif" font-size="9.00">&#45;18</text>
</g>
<!-- &#45;19 -->
<g id="node19" class="node"><title>&#45;19</title>
<polygon fill="lightgray" stroke="black" points="831.5,-89.5477 802.5,-89.5477 802.5,-71.5477 831.5,-71.5477 831.5,-89.5477"/>
<text text-anchor="middle" x="817" y="-78.3477" font-family="Times,serif" font-size="9.00">&#45;19</text>
</g>
<!-- &#45;20 -->
<g id="node20" class="node"><title>&#45;20</title>
<polygon fill="lightgray" stroke="black" points="878.5,-89.5477 849.5,-89.5477 849.5,-71.5477 878.5,-71.5477 878.5,-89.5477"/>
<text text-anchor="middle" x="864" y="-78.3477" font-family="Times,serif" font-size="9.00">&#45;20</text>
</g>
<!-- &#45;21 -->
<g id="node21" class="node"><title>&#45;21</title>
<polygon fill="lightgray" stroke="black" points="925.5,-89.5477 896.5,-89.5477 896.5,-71.5477 925.5,-71.5477 925.5,-89.5477"/>
<text text-anchor="middle" x="911" y="-78.3477" font-family="Times,serif" font-size="9.00">&#45;21</text>
</g>
<!-- &#45;22 -->
<g id="node22" class="node"><title>&#45;22</title>
<polygon fill="lightgray" stroke="black" points="972.5,-89.5477 943.5,-89.5477 943.5,-71.5477 972.5,-71.5477 972.5,-89.5477"/>
<text text-anchor="middle" x="958" y="-78.3477" font-family="Times,serif" font-size="9.00">&#45;22</text>
</g>
<!-- &#45;23 -->
<g id="node23" class="node"><title>&#45;23</title>
<polygon fill="lightgray" stroke="black" points="1019.5,-89.5477 990.5,-89.5477 990.5,-71.5477 1019.5,-71.5477 1019.5,-89.5477"/>
<text text-anchor="middle" x="1005" y="-78.3477" font-family="Times,serif" font-size="9.00">&#45;23</text>
</g>
<!-- &#45;24 -->
<g id="node24" class="node"><title>&#45;24</title>
<polygon fill="lightgray" stroke="black" points="1066.5,-89.5477 1037.5,-89.5477 1037.5,-71.5477 1066.5,-71.5477 1066.5,-89.5477"/>
<text text-anchor="middle" x="1052" y="-78.3477" font-family="Times,serif" font-size="9.00">&#45;24</text>
</g>
<!-- 1 -->
<g id="node26" class="node"><title>1</title>
<ellipse fill="lightblue" stroke="black" cx="1099" cy="-80.5477" rx="14.7" ry="14.7"/>
<text text-anchor="middle" x="1099" y="-78.3477" font-family="Times,serif" font-size="9.00">1</text>
</g>
<!-- 2 -->
<g id="node27" class="node"><title>2</title>
<ellipse fill="lightblue" stroke="black" cx="1147" cy="-80.5477" rx="14.7" ry="14.7"/>
<text text-anchor="middle" x="1147" y="-78.3477" font-family="Times,serif" font-size="9.00">2</text>
</g>
<!-- 3 -->
<g id="node28" class="node"><title>3</title>
<ellipse fill="lightblue" stroke="black" cx="1195" cy="-80.5477" rx="14.7" ry="14.7"/>
<text text-anchor="middle" x="1195" y="-78.3477" font-family="Times,serif" font-size="9.00">3</text>
</g>
</g>
</svg>
