<?xml version="1.0" encoding="UTF-8" standalone="no"?>
<!DOCTYPE svg PUBLIC "-//W3C//DTD SVG 1.1//EN"
 "http://www.w3.org/Graphics/SVG/1.1/DTD/svg11.dtd">
<!-- Generated by graphviz version 2.38.0 (20140413.2041)
 -->
<!-- Title: %3 Pages: 1 -->
<svg width="1169pt" height="286pt"
 viewBox="0.00 0.00 1168.85 285.71" xmlns="http://www.w3.org/2000/svg" xmlns:xlink="http://www.w3.org/1999/xlink">
<g id="graph0" class="graph" transform="scale(1 1) rotate(0) translate(4 281.706)">
<title>%3</title>
<polygon fill="white" stroke="none" points="-4,4 -4,-281.706 1164.85,-281.706 1164.85,4 -4,4"/>
<!-- &#45;1 -->
<g id="node1" class="node"><title>&#45;1</title>
<polygon fill="lightgray" stroke="black" points="24,-193.43 0,-193.43 0,-175.43 24,-175.43 24,-193.43"/>
<text text-anchor="middle" x="12" y="-182.23" font-family="Times,serif" font-size="9.00">&#45;1</text>
</g>
<!-- 20930 -->
<g id="node30" class="node"><title>20930</title>
<ellipse fill="white" stroke="black" cx="122" cy="-93.2756" rx="27.6545" ry="27.6545"/>
<text text-anchor="middle" x="122" y="-91.0756" font-family="Times,serif" font-size="9.00">20930</text>
</g>
<!-- &#45;1&#45;&gt;20930 -->
<g id="edge4" class="edge"><title>&#45;1&#45;&gt;20930</title>
<path fill="none" stroke="green" stroke-width="0.162656" d="M17.6864,-175.008C21.6254,-169.505 27.189,-162.348 33,-156.853 50.2967,-140.497 72.1336,-125.079 89.8481,-113.639"/>
<polygon fill="green" stroke="green" stroke-width="0.162656" points="92.1169,-116.345 98.69,-108.035 88.3698,-110.432 92.1169,-116.345"/>
</g>
<!-- &#45;2 -->
<g id="node2" class="node"><title>&#45;2</title>
<polygon fill="lightgray" stroke="black" points="381,-271.856 357,-271.856 357,-253.856 381,-253.856 381,-271.856"/>
<text text-anchor="middle" x="369" y="-260.656" font-family="Times,serif" font-size="9.00">&#45;2</text>
</g>
<!-- 1 -->
<g id="node26" class="node"><title>1</title>
<ellipse fill="lightblue" stroke="black" cx="339" cy="-184.43" rx="14.7" ry="14.7"/>
<text text-anchor="middle" x="339" y="-182.23" font-family="Times,serif" font-size="9.00">1</text>
</g>
<!-- &#45;2&#45;&gt;1 -->
<g id="edge1" class="edge"><title>&#45;2&#45;&gt;1</title>
<path fill="none" stroke="red" stroke-width="0.777963" d="M365.789,-253.677C361.549,-242.874 353.912,-223.419 347.874,-208.038"/>
<polygon fill="red" stroke="red" stroke-width="0.777963" points="351.101,-206.679 344.189,-198.65 344.585,-209.237 351.101,-206.679"/>
</g>
<!-- 21924 -->
<g id="node29" class="node"><title>21924</title>
<ellipse fill="white" stroke="black" cx="399" cy="-184.43" rx="27.6545" ry="27.6545"/>
<text text-anchor="middle" x="399" y="-182.23" font-family="Times,serif" font-size="9.00">21924</text>
</g>
<!-- &#45;2&#45;&gt;21924 -->
<g id="edge13" class="edge"><title>&#45;2&#45;&gt;21924</title>
<path fill="none" stroke="red" stroke-width="0.208683" d="M372.211,-253.677C375.415,-245.515 380.557,-232.414 385.484,-219.862"/>
<polygon fill="red" stroke="red" stroke-width="0.208683" points="388.778,-221.049 389.174,-210.461 382.262,-218.491 388.778,-221.049"/>
</g>
<!-- &#45;3 -->
<g id="node3" class="node"><title>&#45;3</title>
<polygon fill="lightgray" stroke="black" points="423,-271.856 399,-271.856 399,-253.856 423,-253.856 423,-271.856"/>
<text text-anchor="middle" x="411" y="-260.656" font-family="Times,serif" font-size="9.00">&#45;3</text>
</g>
<!-- &#45;4 -->
<g id="node4" class="node"><title>&#45;4</title>
<polygon fill="lightgray" stroke="black" points="465,-271.856 441,-271.856 441,-253.856 465,-253.856 465,-271.856"/>
<text text-anchor="middle" x="453" y="-260.656" font-family="Times,serif" font-size="9.00">&#45;4</text>
</g>
<!-- &#45;5 -->
<g id="node5" class="node"><title>&#45;5</title>
<polygon fill="lightgray" stroke="black" points="507,-271.856 483,-271.856 483,-253.856 507,-253.856 507,-271.856"/>
<text text-anchor="middle" x="495" y="-260.656" font-family="Times,serif" font-size="9.00">&#45;5</text>
</g>
<!-- &#45;6 -->
<g id="node6" class="node"><title>&#45;6</title>
<polygon fill="lightgray" stroke="black" points="497,-102.276 473,-102.276 473,-84.2756 497,-84.2756 497,-102.276"/>
<text text-anchor="middle" x="485" y="-91.0756" font-family="Times,serif" font-size="9.00">&#45;6</text>
</g>
<!-- 2 -->
<g id="node27" class="node"><title>2</title>
<ellipse fill="lightblue" stroke="black" cx="485" cy="-14.8492" rx="14.7" ry="14.7"/>
<text text-anchor="middle" x="485" y="-12.6492" font-family="Times,serif" font-size="9.00">2</text>
</g>
<!-- &#45;6&#45;&gt;2 -->
<g id="edge8" class="edge"><title>&#45;6&#45;&gt;2</title>
<path fill="none" stroke="green" stroke-width="0.632574" d="M485,-84.0967C485,-73.6852 485,-55.238 485,-40.1455"/>
<polygon fill="green" stroke="green" stroke-width="0.632574" points="488.5,-39.9115 485,-29.9115 481.5,-39.9116 488.5,-39.9115"/>
</g>
<!-- &#45;7 -->
<g id="node7" class="node"><title>&#45;7</title>
<polygon fill="lightgray" stroke="black" points="549,-271.856 525,-271.856 525,-253.856 549,-253.856 549,-271.856"/>
<text text-anchor="middle" x="537" y="-260.656" font-family="Times,serif" font-size="9.00">&#45;7</text>
</g>
<!-- &#45;8 -->
<g id="node8" class="node"><title>&#45;8</title>
<polygon fill="lightgray" stroke="black" points="539,-102.276 515,-102.276 515,-84.2756 539,-84.2756 539,-102.276"/>
<text text-anchor="middle" x="527" y="-91.0756" font-family="Times,serif" font-size="9.00">&#45;8</text>
</g>
<!-- &#45;8&#45;&gt;2 -->
<g id="edge15" class="edge"><title>&#45;8&#45;&gt;2</title>
<path fill="none" stroke="green" stroke-width="1.26017" d="M522.505,-84.0967C516.407,-72.9993 505.291,-52.7725 496.738,-37.2095"/>
<polygon fill="green" stroke="green" stroke-width="1.26017" points="499.696,-35.3235 491.812,-28.2453 493.561,-38.6948 499.696,-35.3235"/>
</g>
<!-- &#45;9 -->
<g id="node9" class="node"><title>&#45;9</title>
<polygon fill="lightgray" stroke="black" points="66,-193.43 42,-193.43 42,-175.43 66,-175.43 66,-193.43"/>
<text text-anchor="middle" x="54" y="-182.23" font-family="Times,serif" font-size="9.00">&#45;9</text>
</g>
<!-- &#45;9&#45;&gt;20930 -->
<g id="edge7" class="edge"><title>&#45;9&#45;&gt;20930</title>
<path fill="none" stroke="red" stroke-width="0.120054" d="M60.2754,-175.202C69.1142,-163.614 85.6877,-141.885 99.4369,-123.858"/>
<polygon fill="red" stroke="red" stroke-width="0.120054" points="102.236,-125.96 105.517,-115.886 96.6699,-121.714 102.236,-125.96"/>
</g>
<!-- &#45;10 -->
<g id="node10" class="node"><title>&#45;10</title>
<polygon fill="lightgray" stroke="black" points="586.5,-102.276 557.5,-102.276 557.5,-84.2756 586.5,-84.2756 586.5,-102.276"/>
<text text-anchor="middle" x="572" y="-91.0756" font-family="Times,serif" font-size="9.00">&#45;10</text>
</g>
<!-- &#45;10&#45;&gt;2 -->
<g id="edge2" class="edge"><title>&#45;10&#45;&gt;2</title>
<path fill="none" stroke="red" stroke-width="1.76366" d="M565.191,-84.0419C560.558,-78.6189 554.17,-71.4794 548,-65.6985 534.272,-52.8367 517.522,-39.6906 504.745,-30.1298"/>
<polygon fill="red" stroke="red" stroke-width="1.76366" points="506.744,-27.2549 496.62,-24.1312 502.586,-32.8865 506.744,-27.2549"/>
</g>
<!-- &#45;11 -->
<g id="node11" class="node"><title>&#45;11</title>
<polygon fill="lightgray" stroke="black" points="596.5,-271.856 567.5,-271.856 567.5,-253.856 596.5,-253.856 596.5,-271.856"/>
<text text-anchor="middle" x="582" y="-260.656" font-family="Times,serif" font-size="9.00">&#45;11</text>
</g>
<!-- &#45;12 -->
<g id="node12" class="node"><title>&#45;12</title>
<polygon fill="lightgray" stroke="black" points="643.5,-271.856 614.5,-271.856 614.5,-253.856 643.5,-253.856 643.5,-271.856"/>
<text text-anchor="middle" x="629" y="-260.656" font-family="Times,serif" font-size="9.00">&#45;12</text>
</g>
<!-- &#45;13 -->
<g id="node13" class="node"><title>&#45;13</title>
<polygon fill="lightgray" stroke="black" points="690.5,-271.856 661.5,-271.856 661.5,-253.856 690.5,-253.856 690.5,-271.856"/>
<text text-anchor="middle" x="676" y="-260.656" font-family="Times,serif" font-size="9.00">&#45;13</text>
</g>
<!-- &#45;14 -->
<g id="node14" class="node"><title>&#45;14</title>
<polygon fill="lightgray" stroke="black" points="737.5,-271.856 708.5,-271.856 708.5,-253.856 737.5,-253.856 737.5,-271.856"/>
<text text-anchor="middle" x="723" y="-260.656" font-family="Times,serif" font-size="9.00">&#45;14</text>
</g>
<!-- &#45;15 -->
<g id="node15" class="node"><title>&#45;15</title>
<polygon fill="lightgray" stroke="black" points="784.5,-271.856 755.5,-271.856 755.5,-253.856 784.5,-253.856 784.5,-271.856"/>
<text text-anchor="middle" x="770" y="-260.656" font-family="Times,serif" font-size="9.00">&#45;15</text>
</g>
<!-- &#45;16 -->
<g id="node16" class="node"><title>&#45;16</title>
<polygon fill="lightgray" stroke="black" points="831.5,-271.856 802.5,-271.856 802.5,-253.856 831.5,-253.856 831.5,-271.856"/>
<text text-anchor="middle" x="817" y="-260.656" font-family="Times,serif" font-size="9.00">&#45;16</text>
</g>
<!-- &#45;17 -->
<g id="node17" class="node"><title>&#45;17</title>
<polygon fill="lightgray" stroke="black" points="878.5,-271.856 849.5,-271.856 849.5,-253.856 878.5,-253.856 878.5,-271.856"/>
<text text-anchor="middle" x="864" y="-260.656" font-family="Times,serif" font-size="9.00">&#45;17</text>
</g>
<!-- &#45;18 -->
<g id="node18" class="node"><title>&#45;18</title>
<polygon fill="lightgray" stroke="black" points="925.5,-271.856 896.5,-271.856 896.5,-253.856 925.5,-253.856 925.5,-271.856"/>
<text text-anchor="middle" x="911" y="-260.656" font-family="Times,serif" font-size="9.00">&#45;18</text>
</g>
<!-- &#45;19 -->
<g id="node19" class="node"><title>&#45;19</title>
<polygon fill="lightgray" stroke="black" points="972.5,-271.856 943.5,-271.856 943.5,-253.856 972.5,-253.856 972.5,-271.856"/>
<text text-anchor="middle" x="958" y="-260.656" font-family="Times,serif" font-size="9.00">&#45;19</text>
</g>
<!-- &#45;20 -->
<g id="node20" class="node"><title>&#45;20</title>
<polygon fill="lightgray" stroke="black" points="220.5,-271.856 191.5,-271.856 191.5,-253.856 220.5,-253.856 220.5,-271.856"/>
<text text-anchor="middle" x="206" y="-260.656" font-family="Times,serif" font-size="9.00">&#45;20</text>
</g>
<!-- 18451 -->
<g id="node31" class="node"><title>18451</title>
<ellipse fill="white" stroke="black" cx="206" cy="-184.43" rx="27.6545" ry="27.6545"/>
<text text-anchor="middle" x="206" y="-182.23" font-family="Times,serif" font-size="9.00">18451</text>
</g>
<!-- &#45;20&#45;&gt;18451 -->
<g id="edge12" class="edge"><title>&#45;20&#45;&gt;18451</title>
<path fill="none" stroke="green" stroke-width="0.228498" d="M206,-253.677C206,-246.053 206,-234.119 206,-222.349"/>
<polygon fill="green" stroke="green" stroke-width="0.228498" points="209.5,-222.16 206,-212.16 202.5,-222.16 209.5,-222.16"/>
</g>
<!-- &#45;21 -->
<g id="node21" class="node"><title>&#45;21</title>
<polygon fill="lightgray" stroke="black" points="1019.5,-271.856 990.5,-271.856 990.5,-253.856 1019.5,-253.856 1019.5,-271.856"/>
<text text-anchor="middle" x="1005" y="-260.656" font-family="Times,serif" font-size="9.00">&#45;21</text>
</g>
<!-- &#45;22 -->
<g id="node22" class="node"><title>&#45;22</title>
<polygon fill="lightgray" stroke="black" points="1066.5,-271.856 1037.5,-271.856 1037.5,-253.856 1066.5,-253.856 1066.5,-271.856"/>
<text text-anchor="middle" x="1052" y="-260.656" font-family="Times,serif" font-size="9.00">&#45;22</text>
</g>
<!-- &#45;23 -->
<g id="node23" class="node"><title>&#45;23</title>
<polygon fill="lightgray" stroke="black" points="113.5,-193.43 84.5,-193.43 84.5,-175.43 113.5,-175.43 113.5,-193.43"/>
<text text-anchor="middle" x="99" y="-182.23" font-family="Times,serif" font-size="9.00">&#45;23</text>
</g>
<!-- &#45;23&#45;&gt;20930 -->
<g id="edge3" class="edge"><title>&#45;23&#45;&gt;20930</title>
<path fill="none" stroke="green" stroke-width="0.278853" d="M101.123,-175.202C103.775,-164.921 108.486,-146.658 112.763,-130.081"/>
<polygon fill="green" stroke="green" stroke-width="0.278853" points="116.238,-130.62 115.347,-120.063 109.46,-128.871 116.238,-130.62"/>
</g>
<!-- &#45;24 -->
<g id="node24" class="node"><title>&#45;24</title>
<polygon fill="lightgray" stroke="black" points="1113.5,-271.856 1084.5,-271.856 1084.5,-253.856 1113.5,-253.856 1113.5,-271.856"/>
<text text-anchor="middle" x="1099" y="-260.656" font-family="Times,serif" font-size="9.00">&#45;24</text>
</g>
<!-- 0 -->
<g id="node25" class="node"><title>0</title>
<ellipse fill="lightblue" stroke="black" cx="1146" cy="-262.856" rx="14.7" ry="14.7"/>
<text text-anchor="middle" x="1146" y="-260.656" font-family="Times,serif" font-size="9.00">0</text>
</g>
<!-- 3 -->
<g id="node28" class="node"><title>3</title>
<ellipse fill="lightblue" stroke="black" cx="146" cy="-184.43" rx="14.7" ry="14.7"/>
<text text-anchor="middle" x="146" y="-182.23" font-family="Times,serif" font-size="9.00">3</text>
</g>
<!-- 3&#45;&gt;20930 -->
<g id="edge6" class="edge"><title>3&#45;&gt;20930</title>
<path fill="none" stroke="green" stroke-width="0.277343" d="M142.355,-169.889C139.506,-159.306 135.409,-144.089 131.637,-130.076"/>
<polygon fill="green" stroke="green" stroke-width="0.277343" points="134.95,-128.916 128.971,-120.169 128.19,-130.735 134.95,-128.916"/>
</g>
<!-- 21924&#45;&gt;2 -->
<g id="edge14" class="edge"><title>21924&#45;&gt;2</title>
<path fill="none" stroke="green" stroke-width="0.472977" stroke-dasharray="1,5" d="M389.147,-158.492C380.887,-133.226 372.925,-93.9416 390,-65.6985 405.224,-40.5177 437.837,-27.4317 460.579,-21.1024"/>
<polygon fill="green" stroke="green" stroke-width="0.472977" points="461.698,-24.4296 470.533,-18.5824 459.98,-17.6436 461.698,-24.4296"/>
</g>
<!-- 22044 -->
<g id="node32" class="node"><title>22044</title>
<ellipse fill="white" stroke="black" cx="427" cy="-93.2756" rx="27.6545" ry="27.6545"/>
<text text-anchor="middle" x="427" y="-91.0756" font-family="Times,serif" font-size="9.00">22044</text>
</g>
<!-- 21924&#45;&gt;22044 -->
<g id="edge11" class="edge"><title>21924&#45;&gt;22044</title>
<path fill="none" stroke="green" stroke-width="0.461916" d="M407.099,-157.643C409.88,-148.788 413.041,-138.722 416.012,-129.261"/>
<polygon fill="green" stroke="green" stroke-width="0.461916" points="419.359,-130.286 419.016,-119.697 412.681,-128.189 419.359,-130.286"/>
</g>
<!-- 18451&#45;&gt;20930 -->
<g id="edge10" class="edge"><title>18451&#45;&gt;20930</title>
<path fill="none" stroke="red" stroke-width="0.490938" d="M187.358,-163.644C175.721,-151.293 160.577,-135.22 147.797,-121.656"/>
<polygon fill="red" stroke="red" stroke-width="0.490938" points="149.995,-118.885 140.59,-114.007 144.9,-123.685 149.995,-118.885"/>
</g>
<!-- 22044&#45;&gt;2 -->
<g id="edge9" class="edge"><title>22044&#45;&gt;2</title>
<path fill="none" stroke="green" stroke-width="0.417574" d="M443.465,-70.5793C451.922,-59.4363 462.139,-45.973 470.324,-35.1881"/>
<polygon fill="green" stroke="green" stroke-width="0.417574" points="473.122,-37.2902 476.379,-27.2085 467.546,-33.0585 473.122,-37.2902"/>
</g>
<!-- 22110 -->
<g id="node33" class="node"><title>22110</title>
<ellipse fill="white" stroke="black" cx="279" cy="-184.43" rx="27.6545" ry="27.6545"/>
<text text-anchor="middle" x="279" y="-182.23" font-family="Times,serif" font-size="9.00">22110</text>
</g>
<!-- 22110&#45;&gt;20930 -->
<g id="edge5" class="edge"><title>22110&#45;&gt;20930</title>
<path fill="none" stroke="green" stroke-width="0.210512" d="M257.686,-166.836C252.948,-163.392 247.881,-159.89 243,-156.853 214.637,-139.204 180.736,-121.98 156.043,-110.085"/>
<polygon fill="green" stroke="green" stroke-width="0.210512" points="157.264,-106.79 146.731,-105.642 154.249,-113.107 157.264,-106.79"/>
</g>
</g>
</svg>
