<?xml version="1.0" encoding="UTF-8" standalone="no"?>
<!DOCTYPE svg PUBLIC "-//W3C//DTD SVG 1.1//EN"
 "http://www.w3.org/Graphics/SVG/1.1/DTD/svg11.dtd">
<!-- Generated by graphviz version 2.38.0 (20140413.2041)
 -->
<!-- Title: %3 Pages: 1 -->
<svg width="1170pt" height="220pt"
 viewBox="0.00 0.00 1169.85 220.01" xmlns="http://www.w3.org/2000/svg" xmlns:xlink="http://www.w3.org/1999/xlink">
<g id="graph0" class="graph" transform="scale(1 1) rotate(0) translate(4 216.007)">
<title>%3</title>
<polygon fill="white" stroke="none" points="-4,4 -4,-216.007 1165.85,-216.007 1165.85,4 -4,4"/>
<!-- &#45;1 -->
<g id="node1" class="node"><title>&#45;1</title>
<polygon fill="lightgray" stroke="black" points="24,-206.158 0,-206.158 0,-188.158 24,-188.158 24,-206.158"/>
<text text-anchor="middle" x="12" y="-194.958" font-family="Times,serif" font-size="9.00">&#45;1</text>
</g>
<!-- &#45;2 -->
<g id="node2" class="node"><title>&#45;2</title>
<polygon fill="lightgray" stroke="black" points="66,-206.158 42,-206.158 42,-188.158 66,-188.158 66,-206.158"/>
<text text-anchor="middle" x="54" y="-194.958" font-family="Times,serif" font-size="9.00">&#45;2</text>
</g>
<!-- &#45;3 -->
<g id="node3" class="node"><title>&#45;3</title>
<polygon fill="lightgray" stroke="black" points="108,-206.158 84,-206.158 84,-188.158 108,-188.158 108,-206.158"/>
<text text-anchor="middle" x="96" y="-194.958" font-family="Times,serif" font-size="9.00">&#45;3</text>
</g>
<!-- 18753 -->
<g id="node29" class="node"><title>18753</title>
<ellipse fill="white" stroke="black" cx="68" cy="-118.731" rx="27.6545" ry="27.6545"/>
<text text-anchor="middle" x="68" y="-116.531" font-family="Times,serif" font-size="9.00">18753</text>
</g>
<!-- &#45;3&#45;&gt;18753 -->
<g id="edge1" class="edge"><title>&#45;3&#45;&gt;18753</title>
<path fill="none" stroke="green" stroke-width="0.418827" d="M93.0035,-187.979C90.0131,-179.817 85.2132,-166.715 80.6147,-154.163"/>
<polygon fill="green" stroke="green" stroke-width="0.418827" points="83.8972,-152.949 77.1707,-144.763 77.3244,-155.357 83.8972,-152.949"/>
</g>
<!-- 18700 -->
<g id="node30" class="node"><title>18700</title>
<ellipse fill="white" stroke="black" cx="96" cy="-27.5772" rx="27.6545" ry="27.6545"/>
<text text-anchor="middle" x="96" y="-25.3772" font-family="Times,serif" font-size="9.00">18700</text>
</g>
<!-- &#45;3&#45;&gt;18700 -->
<g id="edge2" class="edge"><title>&#45;3&#45;&gt;18700</title>
<path fill="none" stroke="green" stroke-width="0.347708" stroke-dasharray="1,5" d="M97.9132,-188.102C100.135,-178.296 103.667,-161.199 105,-146.309 107.186,-121.893 106.749,-115.605 105,-91.1543 104.393,-82.6706 103.329,-73.589 102.14,-65.0489"/>
<polygon fill="green" stroke="green" stroke-width="0.347708" points="105.576,-64.3573 100.65,-54.9771 98.6511,-65.3816 105.576,-64.3573"/>
</g>
<!-- &#45;4 -->
<g id="node4" class="node"><title>&#45;4</title>
<polygon fill="lightgray" stroke="black" points="150,-206.158 126,-206.158 126,-188.158 150,-188.158 150,-206.158"/>
<text text-anchor="middle" x="138" y="-194.958" font-family="Times,serif" font-size="9.00">&#45;4</text>
</g>
<!-- &#45;5 -->
<g id="node5" class="node"><title>&#45;5</title>
<polygon fill="lightgray" stroke="black" points="192,-206.158 168,-206.158 168,-188.158 192,-188.158 192,-206.158"/>
<text text-anchor="middle" x="180" y="-194.958" font-family="Times,serif" font-size="9.00">&#45;5</text>
</g>
<!-- &#45;6 -->
<g id="node6" class="node"><title>&#45;6</title>
<polygon fill="lightgray" stroke="black" points="234,-206.158 210,-206.158 210,-188.158 234,-188.158 234,-206.158"/>
<text text-anchor="middle" x="222" y="-194.958" font-family="Times,serif" font-size="9.00">&#45;6</text>
</g>
<!-- &#45;7 -->
<g id="node7" class="node"><title>&#45;7</title>
<polygon fill="lightgray" stroke="black" points="276,-206.158 252,-206.158 252,-188.158 276,-188.158 276,-206.158"/>
<text text-anchor="middle" x="264" y="-194.958" font-family="Times,serif" font-size="9.00">&#45;7</text>
</g>
<!-- &#45;8 -->
<g id="node8" class="node"><title>&#45;8</title>
<polygon fill="lightgray" stroke="black" points="318,-206.158 294,-206.158 294,-188.158 318,-188.158 318,-206.158"/>
<text text-anchor="middle" x="306" y="-194.958" font-family="Times,serif" font-size="9.00">&#45;8</text>
</g>
<!-- &#45;9 -->
<g id="node9" class="node"><title>&#45;9</title>
<polygon fill="lightgray" stroke="black" points="360,-206.158 336,-206.158 336,-188.158 360,-188.158 360,-206.158"/>
<text text-anchor="middle" x="348" y="-194.958" font-family="Times,serif" font-size="9.00">&#45;9</text>
</g>
<!-- &#45;10 -->
<g id="node10" class="node"><title>&#45;10</title>
<polygon fill="lightgray" stroke="black" points="336.5,-127.731 307.5,-127.731 307.5,-109.731 336.5,-109.731 336.5,-127.731"/>
<text text-anchor="middle" x="322" y="-116.531" font-family="Times,serif" font-size="9.00">&#45;10</text>
</g>
<!-- 2 -->
<g id="node27" class="node"><title>2</title>
<ellipse fill="lightblue" stroke="black" cx="365" cy="-27.5772" rx="14.7" ry="14.7"/>
<text text-anchor="middle" x="365" y="-25.3772" font-family="Times,serif" font-size="9.00">2</text>
</g>
<!-- &#45;10&#45;&gt;2 -->
<g id="edge3" class="edge"><title>&#45;10&#45;&gt;2</title>
<path fill="none" stroke="red" stroke-width="3.7284" d="M325.968,-109.504C332.377,-96.2154 345.218,-69.5923 354.422,-50.5088"/>
<polygon fill="red" stroke="red" stroke-width="3.7284" points="357.659,-51.8547 358.851,-41.3271 351.354,-48.8137 357.659,-51.8547"/>
</g>
<!-- &#45;11 -->
<g id="node11" class="node"><title>&#45;11</title>
<polygon fill="lightgray" stroke="black" points="407.5,-206.158 378.5,-206.158 378.5,-188.158 407.5,-188.158 407.5,-206.158"/>
<text text-anchor="middle" x="393" y="-194.958" font-family="Times,serif" font-size="9.00">&#45;11</text>
</g>
<!-- &#45;11&#45;&gt;2 -->
<g id="edge6" class="edge"><title>&#45;11&#45;&gt;2</title>
<path fill="none" stroke="green" stroke-width="0.225166" stroke-dasharray="1,5" d="M391.488,-188.05C389.661,-178.192 386.519,-161.045 384,-146.309 378.433,-113.745 372.425,-76.0371 368.688,-52.2482"/>
<polygon fill="green" stroke="green" stroke-width="0.225166" points="372.145,-51.7042 367.14,-42.3661 365.229,-52.7872 372.145,-51.7042"/>
</g>
<!-- 18733 -->
<g id="node31" class="node"><title>18733</title>
<ellipse fill="white" stroke="black" cx="421" cy="-118.731" rx="27.6545" ry="27.6545"/>
<text text-anchor="middle" x="421" y="-116.531" font-family="Times,serif" font-size="9.00">18733</text>
</g>
<!-- &#45;11&#45;&gt;18733 -->
<g id="edge7" class="edge"><title>&#45;11&#45;&gt;18733</title>
<path fill="none" stroke="green" stroke-width="0.58237" d="M395.996,-187.979C398.987,-179.817 403.787,-166.715 408.385,-154.163"/>
<polygon fill="green" stroke="green" stroke-width="0.58237" points="411.676,-155.357 411.829,-144.763 405.103,-152.949 411.676,-155.357"/>
</g>
<!-- &#45;12 -->
<g id="node12" class="node"><title>&#45;12</title>
<polygon fill="lightgray" stroke="black" points="454.5,-206.158 425.5,-206.158 425.5,-188.158 454.5,-188.158 454.5,-206.158"/>
<text text-anchor="middle" x="440" y="-194.958" font-family="Times,serif" font-size="9.00">&#45;12</text>
</g>
<!-- &#45;13 -->
<g id="node13" class="node"><title>&#45;13</title>
<polygon fill="lightgray" stroke="black" points="501.5,-206.158 472.5,-206.158 472.5,-188.158 501.5,-188.158 501.5,-206.158"/>
<text text-anchor="middle" x="487" y="-194.958" font-family="Times,serif" font-size="9.00">&#45;13</text>
</g>
<!-- &#45;14 -->
<g id="node14" class="node"><title>&#45;14</title>
<polygon fill="lightgray" stroke="black" points="548.5,-206.158 519.5,-206.158 519.5,-188.158 548.5,-188.158 548.5,-206.158"/>
<text text-anchor="middle" x="534" y="-194.958" font-family="Times,serif" font-size="9.00">&#45;14</text>
</g>
<!-- &#45;15 -->
<g id="node15" class="node"><title>&#45;15</title>
<polygon fill="lightgray" stroke="black" points="595.5,-206.158 566.5,-206.158 566.5,-188.158 595.5,-188.158 595.5,-206.158"/>
<text text-anchor="middle" x="581" y="-194.958" font-family="Times,serif" font-size="9.00">&#45;15</text>
</g>
<!-- &#45;16 -->
<g id="node16" class="node"><title>&#45;16</title>
<polygon fill="lightgray" stroke="black" points="642.5,-206.158 613.5,-206.158 613.5,-188.158 642.5,-188.158 642.5,-206.158"/>
<text text-anchor="middle" x="628" y="-194.958" font-family="Times,serif" font-size="9.00">&#45;16</text>
</g>
<!-- &#45;17 -->
<g id="node17" class="node"><title>&#45;17</title>
<polygon fill="lightgray" stroke="black" points="689.5,-206.158 660.5,-206.158 660.5,-188.158 689.5,-188.158 689.5,-206.158"/>
<text text-anchor="middle" x="675" y="-194.958" font-family="Times,serif" font-size="9.00">&#45;17</text>
</g>
<!-- &#45;18 -->
<g id="node18" class="node"><title>&#45;18</title>
<polygon fill="lightgray" stroke="black" points="736.5,-206.158 707.5,-206.158 707.5,-188.158 736.5,-188.158 736.5,-206.158"/>
<text text-anchor="middle" x="722" y="-194.958" font-family="Times,serif" font-size="9.00">&#45;18</text>
</g>
<!-- &#45;19 -->
<g id="node19" class="node"><title>&#45;19</title>
<polygon fill="lightgray" stroke="black" points="783.5,-206.158 754.5,-206.158 754.5,-188.158 783.5,-188.158 783.5,-206.158"/>
<text text-anchor="middle" x="769" y="-194.958" font-family="Times,serif" font-size="9.00">&#45;19</text>
</g>
<!-- &#45;20 -->
<g id="node20" class="node"><title>&#45;20</title>
<polygon fill="lightgray" stroke="black" points="830.5,-206.158 801.5,-206.158 801.5,-188.158 830.5,-188.158 830.5,-206.158"/>
<text text-anchor="middle" x="816" y="-194.958" font-family="Times,serif" font-size="9.00">&#45;20</text>
</g>
<!-- &#45;21 -->
<g id="node21" class="node"><title>&#45;21</title>
<polygon fill="lightgray" stroke="black" points="877.5,-206.158 848.5,-206.158 848.5,-188.158 877.5,-188.158 877.5,-206.158"/>
<text text-anchor="middle" x="863" y="-194.958" font-family="Times,serif" font-size="9.00">&#45;21</text>
</g>
<!-- &#45;22 -->
<g id="node22" class="node"><title>&#45;22</title>
<polygon fill="lightgray" stroke="black" points="924.5,-206.158 895.5,-206.158 895.5,-188.158 924.5,-188.158 924.5,-206.158"/>
<text text-anchor="middle" x="910" y="-194.958" font-family="Times,serif" font-size="9.00">&#45;22</text>
</g>
<!-- &#45;23 -->
<g id="node23" class="node"><title>&#45;23</title>
<polygon fill="lightgray" stroke="black" points="971.5,-206.158 942.5,-206.158 942.5,-188.158 971.5,-188.158 971.5,-206.158"/>
<text text-anchor="middle" x="957" y="-194.958" font-family="Times,serif" font-size="9.00">&#45;23</text>
</g>
<!-- &#45;24 -->
<g id="node24" class="node"><title>&#45;24</title>
<polygon fill="lightgray" stroke="black" points="1018.5,-206.158 989.5,-206.158 989.5,-188.158 1018.5,-188.158 1018.5,-206.158"/>
<text text-anchor="middle" x="1004" y="-194.958" font-family="Times,serif" font-size="9.00">&#45;24</text>
</g>
<!-- 0 -->
<g id="node25" class="node"><title>0</title>
<ellipse fill="lightblue" stroke="black" cx="1051" cy="-197.158" rx="14.7" ry="14.7"/>
<text text-anchor="middle" x="1051" y="-194.958" font-family="Times,serif" font-size="9.00">0</text>
</g>
<!-- 1 -->
<g id="node26" class="node"><title>1</title>
<ellipse fill="lightblue" stroke="black" cx="1099" cy="-197.158" rx="14.7" ry="14.7"/>
<text text-anchor="middle" x="1099" y="-194.958" font-family="Times,serif" font-size="9.00">1</text>
</g>
<!-- 3 -->
<g id="node28" class="node"><title>3</title>
<ellipse fill="lightblue" stroke="black" cx="1147" cy="-197.158" rx="14.7" ry="14.7"/>
<text text-anchor="middle" x="1147" y="-194.958" font-family="Times,serif" font-size="9.00">3</text>
</g>
<!-- 18753&#45;&gt;18700 -->
<g id="edge5" class="edge"><title>18753&#45;&gt;18700</title>
<path fill="none" stroke="green" stroke-width="0.310346" d="M76.0988,-91.9444C78.8798,-83.0893 82.0411,-73.0233 85.0124,-63.5625"/>
<polygon fill="green" stroke="green" stroke-width="0.310346" points="88.3589,-64.5877 88.0161,-53.9985 81.6805,-62.4903 88.3589,-64.5877"/>
</g>
<!-- 18733&#45;&gt;2 -->
<g id="edge4" class="edge"><title>18733&#45;&gt;2</title>
<path fill="none" stroke="green" stroke-width="0.392251" d="M406.579,-94.772C397.731,-80.6871 386.498,-62.8028 377.938,-49.1753"/>
<polygon fill="green" stroke="green" stroke-width="0.392251" points="380.784,-47.1264 372.502,-40.52 374.857,-50.8497 380.784,-47.1264"/>
</g>
</g>
</svg>
