<?xml version="1.0" encoding="UTF-8" standalone="no"?>
<!DOCTYPE svg PUBLIC "-//W3C//DTD SVG 1.1//EN"
 "http://www.w3.org/Graphics/SVG/1.1/DTD/svg11.dtd">
<!-- Generated by graphviz version 2.38.0 (20140413.2041)
 -->
<!-- Title: %3 Pages: 1 -->
<svg width="986pt" height="402pt"
 viewBox="0.00 0.00 985.85 402.32" xmlns="http://www.w3.org/2000/svg" xmlns:xlink="http://www.w3.org/1999/xlink">
<g id="graph0" class="graph" transform="scale(1 1) rotate(0) translate(4 398.316)">
<title>%3</title>
<polygon fill="white" stroke="none" points="-4,4 -4,-398.316 981.849,-398.316 981.849,4 -4,4"/>
<!-- &#45;1 -->
<g id="node1" class="node"><title>&#45;1</title>
<polygon fill="lightgray" stroke="black" points="24,-388.467 0,-388.467 0,-370.467 24,-370.467 24,-388.467"/>
<text text-anchor="middle" x="12" y="-377.267" font-family="Times,serif" font-size="9.00">&#45;1</text>
</g>
<!-- &#45;2 -->
<g id="node2" class="node"><title>&#45;2</title>
<polygon fill="lightgray" stroke="black" points="66,-388.467 42,-388.467 42,-370.467 66,-370.467 66,-388.467"/>
<text text-anchor="middle" x="54" y="-377.267" font-family="Times,serif" font-size="9.00">&#45;2</text>
</g>
<!-- &#45;3 -->
<g id="node3" class="node"><title>&#45;3</title>
<polygon fill="lightgray" stroke="black" points="108,-388.467 84,-388.467 84,-370.467 108,-370.467 108,-388.467"/>
<text text-anchor="middle" x="96" y="-377.267" font-family="Times,serif" font-size="9.00">&#45;3</text>
</g>
<!-- 28986 -->
<g id="node30" class="node"><title>28986</title>
<ellipse fill="white" stroke="black" cx="138" cy="-301.04" rx="27.6545" ry="27.6545"/>
<text text-anchor="middle" x="138" y="-298.84" font-family="Times,serif" font-size="9.00">28986</text>
</g>
<!-- &#45;3&#45;&gt;28986 -->
<g id="edge10" class="edge"><title>&#45;3&#45;&gt;28986</title>
<path fill="none" stroke="green" stroke-width="0.235024" d="M100.495,-370.288C105.206,-361.715 112.911,-347.694 120.116,-334.584"/>
<polygon fill="green" stroke="green" stroke-width="0.235024" points="123.232,-336.181 124.981,-325.731 117.097,-332.809 123.232,-336.181"/>
</g>
<!-- &#45;4 -->
<g id="node4" class="node"><title>&#45;4</title>
<polygon fill="lightgray" stroke="black" points="150,-388.467 126,-388.467 126,-370.467 150,-370.467 150,-388.467"/>
<text text-anchor="middle" x="138" y="-377.267" font-family="Times,serif" font-size="9.00">&#45;4</text>
</g>
<!-- &#45;4&#45;&gt;28986 -->
<g id="edge8" class="edge"><title>&#45;4&#45;&gt;28986</title>
<path fill="none" stroke="red" stroke-width="0.239929" d="M138,-370.288C138,-362.663 138,-350.729 138,-338.959"/>
<polygon fill="red" stroke="red" stroke-width="0.239929" points="141.5,-338.77 138,-328.77 134.5,-338.77 141.5,-338.77"/>
</g>
<!-- &#45;5 -->
<g id="node5" class="node"><title>&#45;5</title>
<polygon fill="lightgray" stroke="black" points="240,-388.467 216,-388.467 216,-370.467 240,-370.467 240,-388.467"/>
<text text-anchor="middle" x="228" y="-377.267" font-family="Times,serif" font-size="9.00">&#45;5</text>
</g>
<!-- &#45;6 -->
<g id="node6" class="node"><title>&#45;6</title>
<polygon fill="lightgray" stroke="black" points="208,-310.04 184,-310.04 184,-292.04 208,-292.04 208,-310.04"/>
<text text-anchor="middle" x="196" y="-298.84" font-family="Times,serif" font-size="9.00">&#45;6</text>
</g>
<!-- 29181 -->
<g id="node31" class="node"><title>29181</title>
<ellipse fill="white" stroke="black" cx="167" cy="-209.886" rx="27.6545" ry="27.6545"/>
<text text-anchor="middle" x="167" y="-207.686" font-family="Times,serif" font-size="9.00">29181</text>
</g>
<!-- &#45;6&#45;&gt;29181 -->
<g id="edge11" class="edge"><title>&#45;6&#45;&gt;29181</title>
<path fill="none" stroke="red" stroke-width="0.197062" d="M193.324,-291.813C189.925,-281.362 183.843,-262.666 178.381,-245.874"/>
<polygon fill="red" stroke="red" stroke-width="0.197062" points="181.683,-244.712 175.262,-236.285 175.027,-246.877 181.683,-244.712"/>
</g>
<!-- &#45;7 -->
<g id="node7" class="node"><title>&#45;7</title>
<polygon fill="lightgray" stroke="black" points="282,-388.467 258,-388.467 258,-370.467 282,-370.467 282,-388.467"/>
<text text-anchor="middle" x="270" y="-377.267" font-family="Times,serif" font-size="9.00">&#45;7</text>
</g>
<!-- &#45;8 -->
<g id="node8" class="node"><title>&#45;8</title>
<polygon fill="lightgray" stroke="black" points="324,-388.467 300,-388.467 300,-370.467 324,-370.467 324,-388.467"/>
<text text-anchor="middle" x="312" y="-377.267" font-family="Times,serif" font-size="9.00">&#45;8</text>
</g>
<!-- &#45;9 -->
<g id="node9" class="node"><title>&#45;9</title>
<polygon fill="lightgray" stroke="black" points="366,-388.467 342,-388.467 342,-370.467 366,-370.467 366,-388.467"/>
<text text-anchor="middle" x="354" y="-377.267" font-family="Times,serif" font-size="9.00">&#45;9</text>
</g>
<!-- &#45;10 -->
<g id="node10" class="node"><title>&#45;10</title>
<polygon fill="lightgray" stroke="black" points="301.5,-218.886 272.5,-218.886 272.5,-200.886 301.5,-200.886 301.5,-218.886"/>
<text text-anchor="middle" x="287" y="-207.686" font-family="Times,serif" font-size="9.00">&#45;10</text>
</g>
<!-- 2 -->
<g id="node27" class="node"><title>2</title>
<ellipse fill="lightblue" stroke="black" cx="287" cy="-118.731" rx="14.7" ry="14.7"/>
<text text-anchor="middle" x="287" y="-116.531" font-family="Times,serif" font-size="9.00">2</text>
</g>
<!-- &#45;10&#45;&gt;2 -->
<g id="edge1" class="edge"><title>&#45;10&#45;&gt;2</title>
<path fill="none" stroke="red" stroke-width="2.30225" d="M287,-200.658C287,-187.902 287,-162.857 287,-143.99"/>
<polygon fill="red" stroke="red" stroke-width="2.30225" points="290.5,-143.735 287,-133.735 283.5,-143.735 290.5,-143.735"/>
</g>
<!-- &#45;11 -->
<g id="node11" class="node"><title>&#45;11</title>
<polygon fill="lightgray" stroke="black" points="413.5,-388.467 384.5,-388.467 384.5,-370.467 413.5,-370.467 413.5,-388.467"/>
<text text-anchor="middle" x="399" y="-377.267" font-family="Times,serif" font-size="9.00">&#45;11</text>
</g>
<!-- &#45;12 -->
<g id="node12" class="node"><title>&#45;12</title>
<polygon fill="lightgray" stroke="black" points="460.5,-388.467 431.5,-388.467 431.5,-370.467 460.5,-370.467 460.5,-388.467"/>
<text text-anchor="middle" x="446" y="-377.267" font-family="Times,serif" font-size="9.00">&#45;12</text>
</g>
<!-- &#45;13 -->
<g id="node13" class="node"><title>&#45;13</title>
<polygon fill="lightgray" stroke="black" points="507.5,-388.467 478.5,-388.467 478.5,-370.467 507.5,-370.467 507.5,-388.467"/>
<text text-anchor="middle" x="493" y="-377.267" font-family="Times,serif" font-size="9.00">&#45;13</text>
</g>
<!-- &#45;14 -->
<g id="node14" class="node"><title>&#45;14</title>
<polygon fill="lightgray" stroke="black" points="241.5,-218.886 212.5,-218.886 212.5,-200.886 241.5,-200.886 241.5,-218.886"/>
<text text-anchor="middle" x="227" y="-207.686" font-family="Times,serif" font-size="9.00">&#45;14</text>
</g>
<!-- 1 -->
<g id="node26" class="node"><title>1</title>
<ellipse fill="lightblue" stroke="black" cx="167" cy="-118.731" rx="14.7" ry="14.7"/>
<text text-anchor="middle" x="167" y="-116.531" font-family="Times,serif" font-size="9.00">1</text>
</g>
<!-- &#45;14&#45;&gt;1 -->
<g id="edge12" class="edge"><title>&#45;14&#45;&gt;1</title>
<path fill="none" stroke="red" stroke-width="0.310829" stroke-dasharray="1,5" d="M221.463,-200.658C212.247,-186.964 193.499,-159.107 180.597,-139.935"/>
<polygon fill="red" stroke="red" stroke-width="0.310829" points="183.455,-137.913 174.968,-131.57 177.647,-141.821 183.455,-137.913"/>
</g>
<!-- &#45;14&#45;&gt;2 -->
<g id="edge3" class="edge"><title>&#45;14&#45;&gt;2</title>
<path fill="none" stroke="red" stroke-width="1.43527" d="M232.537,-200.658C241.753,-186.964 260.501,-159.107 273.403,-139.935"/>
<polygon fill="red" stroke="red" stroke-width="1.43527" points="276.353,-141.821 279.032,-131.57 270.545,-137.913 276.353,-141.821"/>
</g>
<!-- 29277 -->
<g id="node32" class="node"><title>29277</title>
<ellipse fill="white" stroke="black" cx="227" cy="-118.731" rx="27.6545" ry="27.6545"/>
<text text-anchor="middle" x="227" y="-116.531" font-family="Times,serif" font-size="9.00">29277</text>
</g>
<!-- &#45;14&#45;&gt;29277 -->
<g id="edge5" class="edge"><title>&#45;14&#45;&gt;29277</title>
<path fill="none" stroke="red" stroke-width="0.405472" d="M227,-200.658C227,-190.686 227,-173.205 227,-157.036"/>
<polygon fill="red" stroke="red" stroke-width="0.405472" points="230.5,-156.692 227,-146.692 223.5,-156.692 230.5,-156.692"/>
</g>
<!-- &#45;15 -->
<g id="node15" class="node"><title>&#45;15</title>
<polygon fill="lightgray" stroke="black" points="554.5,-388.467 525.5,-388.467 525.5,-370.467 554.5,-370.467 554.5,-388.467"/>
<text text-anchor="middle" x="540" y="-377.267" font-family="Times,serif" font-size="9.00">&#45;15</text>
</g>
<!-- &#45;16 -->
<g id="node16" class="node"><title>&#45;16</title>
<polygon fill="lightgray" stroke="black" points="601.5,-388.467 572.5,-388.467 572.5,-370.467 601.5,-370.467 601.5,-388.467"/>
<text text-anchor="middle" x="587" y="-377.267" font-family="Times,serif" font-size="9.00">&#45;16</text>
</g>
<!-- &#45;17 -->
<g id="node17" class="node"><title>&#45;17</title>
<polygon fill="lightgray" stroke="black" points="648.5,-388.467 619.5,-388.467 619.5,-370.467 648.5,-370.467 648.5,-388.467"/>
<text text-anchor="middle" x="634" y="-377.267" font-family="Times,serif" font-size="9.00">&#45;17</text>
</g>
<!-- &#45;18 -->
<g id="node18" class="node"><title>&#45;18</title>
<polygon fill="lightgray" stroke="black" points="695.5,-388.467 666.5,-388.467 666.5,-370.467 695.5,-370.467 695.5,-388.467"/>
<text text-anchor="middle" x="681" y="-377.267" font-family="Times,serif" font-size="9.00">&#45;18</text>
</g>
<!-- &#45;19 -->
<g id="node19" class="node"><title>&#45;19</title>
<polygon fill="lightgray" stroke="black" points="742.5,-388.467 713.5,-388.467 713.5,-370.467 742.5,-370.467 742.5,-388.467"/>
<text text-anchor="middle" x="728" y="-377.267" font-family="Times,serif" font-size="9.00">&#45;19</text>
</g>
<!-- &#45;20 -->
<g id="node20" class="node"><title>&#45;20</title>
<polygon fill="lightgray" stroke="black" points="789.5,-388.467 760.5,-388.467 760.5,-370.467 789.5,-370.467 789.5,-388.467"/>
<text text-anchor="middle" x="775" y="-377.267" font-family="Times,serif" font-size="9.00">&#45;20</text>
</g>
<!-- &#45;21 -->
<g id="node21" class="node"><title>&#45;21</title>
<polygon fill="lightgray" stroke="black" points="197.5,-388.467 168.5,-388.467 168.5,-370.467 197.5,-370.467 197.5,-388.467"/>
<text text-anchor="middle" x="183" y="-377.267" font-family="Times,serif" font-size="9.00">&#45;21</text>
</g>
<!-- &#45;21&#45;&gt;28986 -->
<g id="edge7" class="edge"><title>&#45;21&#45;&gt;28986</title>
<path fill="none" stroke="red" stroke-width="0.739511" d="M178.184,-370.288C173.063,-361.59 164.639,-347.284 156.824,-334.01"/>
<polygon fill="red" stroke="red" stroke-width="0.739511" points="159.649,-331.909 151.559,-325.068 153.617,-335.461 159.649,-331.909"/>
</g>
<!-- &#45;22 -->
<g id="node22" class="node"><title>&#45;22</title>
<polygon fill="lightgray" stroke="black" points="836.5,-388.467 807.5,-388.467 807.5,-370.467 836.5,-370.467 836.5,-388.467"/>
<text text-anchor="middle" x="822" y="-377.267" font-family="Times,serif" font-size="9.00">&#45;22</text>
</g>
<!-- &#45;23 -->
<g id="node23" class="node"><title>&#45;23</title>
<polygon fill="lightgray" stroke="black" points="883.5,-388.467 854.5,-388.467 854.5,-370.467 883.5,-370.467 883.5,-388.467"/>
<text text-anchor="middle" x="869" y="-377.267" font-family="Times,serif" font-size="9.00">&#45;23</text>
</g>
<!-- &#45;24 -->
<g id="node24" class="node"><title>&#45;24</title>
<polygon fill="lightgray" stroke="black" points="930.5,-388.467 901.5,-388.467 901.5,-370.467 930.5,-370.467 930.5,-388.467"/>
<text text-anchor="middle" x="916" y="-377.267" font-family="Times,serif" font-size="9.00">&#45;24</text>
</g>
<!-- 0 -->
<g id="node25" class="node"><title>0</title>
<ellipse fill="lightblue" stroke="black" cx="335" cy="-118.731" rx="14.7" ry="14.7"/>
<text text-anchor="middle" x="335" y="-116.531" font-family="Times,serif" font-size="9.00">0</text>
</g>
<!-- 29071 -->
<g id="node29" class="node"><title>29071</title>
<ellipse fill="white" stroke="black" cx="281" cy="-27.5772" rx="27.6545" ry="27.6545"/>
<text text-anchor="middle" x="281" y="-25.3772" font-family="Times,serif" font-size="9.00">29071</text>
</g>
<!-- 0&#45;&gt;29071 -->
<g id="edge2" class="edge"><title>0&#45;&gt;29071</title>
<path fill="none" stroke="green" stroke-width="0.476601" d="M327.717,-105.708C320.738,-94.1855 309.895,-76.2829 300.411,-60.6251"/>
<polygon fill="green" stroke="green" stroke-width="0.476601" points="303.198,-58.4707 295.024,-51.7306 297.211,-62.0972 303.198,-58.4707"/>
</g>
<!-- 3 -->
<g id="node28" class="node"><title>3</title>
<ellipse fill="lightblue" stroke="black" cx="963" cy="-379.467" rx="14.7" ry="14.7"/>
<text text-anchor="middle" x="963" y="-377.267" font-family="Times,serif" font-size="9.00">3</text>
</g>
<!-- 28986&#45;&gt;29181 -->
<g id="edge4" class="edge"><title>28986&#45;&gt;29181</title>
<path fill="none" stroke="red" stroke-width="0.294381" d="M146.388,-274.253C149.268,-265.398 152.543,-255.332 155.62,-245.871"/>
<polygon fill="red" stroke="red" stroke-width="0.294381" points="158.966,-246.899 158.731,-236.307 152.309,-244.734 158.966,-246.899"/>
</g>
<!-- 29181&#45;&gt;1 -->
<g id="edge6" class="edge"><title>29181&#45;&gt;1</title>
<path fill="none" stroke="red" stroke-width="0.310752" d="M167,-182.137C167,-169.963 167,-155.666 167,-143.829"/>
<polygon fill="red" stroke="red" stroke-width="0.310752" points="170.5,-143.783 167,-133.783 163.5,-143.783 170.5,-143.783"/>
</g>
<!-- 29277&#45;&gt;29071 -->
<g id="edge9" class="edge"><title>29277&#45;&gt;29071</title>
<path fill="none" stroke="green" stroke-width="0.115798" d="M240.906,-94.772C247.268,-84.2688 254.909,-71.6528 261.807,-60.2647"/>
<polygon fill="green" stroke="green" stroke-width="0.115798" points="264.954,-61.8255 267.141,-51.4588 258.966,-58.1989 264.954,-61.8255"/>
</g>
</g>
</svg>
