<?xml version="1.0" encoding="UTF-8" standalone="no"?>
<!DOCTYPE svg PUBLIC "-//W3C//DTD SVG 1.1//EN"
 "http://www.w3.org/Graphics/SVG/1.1/DTD/svg11.dtd">
<!-- Generated by graphviz version 2.38.0 (20140413.2041)
 -->
<!-- Title: %3 Pages: 1 -->
<svg width="1390pt" height="154pt"
 viewBox="0.00 0.00 1389.58 154.31" xmlns="http://www.w3.org/2000/svg" xmlns:xlink="http://www.w3.org/1999/xlink">
<g id="graph0" class="graph" transform="scale(1 1) rotate(0) translate(4 150.309)">
<title>%3</title>
<polygon fill="white" stroke="none" points="-4,4 -4,-150.309 1385.58,-150.309 1385.58,4 -4,4"/>
<!-- &#45;1 -->
<g id="node1" class="node"><title>&#45;1</title>
<polygon fill="lightgray" stroke="black" points="24,-127.731 0,-127.731 0,-109.731 24,-109.731 24,-127.731"/>
<text text-anchor="middle" x="12" y="-116.531" font-family="Times,serif" font-size="9.00">&#45;1</text>
</g>
<!-- &#45;2 -->
<g id="node2" class="node"><title>&#45;2</title>
<polygon fill="lightgray" stroke="black" points="66,-127.731 42,-127.731 42,-109.731 66,-109.731 66,-127.731"/>
<text text-anchor="middle" x="54" y="-116.531" font-family="Times,serif" font-size="9.00">&#45;2</text>
</g>
<!-- 1 -->
<g id="node26" class="node"><title>1</title>
<ellipse fill="lightblue" stroke="black" cx="99" cy="-27.5772" rx="14.7" ry="14.7"/>
<text text-anchor="middle" x="99" y="-25.3772" font-family="Times,serif" font-size="9.00">1</text>
</g>
<!-- &#45;2&#45;&gt;1 -->
<g id="edge2" class="edge"><title>&#45;2&#45;&gt;1</title>
<path fill="none" stroke="red" stroke-width="0.547696" d="M58.1528,-109.504C64.8601,-96.2154 78.2979,-69.5923 87.9302,-50.5088"/>
<polygon fill="red" stroke="red" stroke-width="0.547696" points="91.1831,-51.8315 92.5646,-41.3271 84.934,-48.6773 91.1831,-51.8315"/>
</g>
<!-- &#45;3 -->
<g id="node3" class="node"><title>&#45;3</title>
<polygon fill="lightgray" stroke="black" points="203,-127.731 179,-127.731 179,-109.731 203,-109.731 203,-127.731"/>
<text text-anchor="middle" x="191" y="-116.531" font-family="Times,serif" font-size="9.00">&#45;3</text>
</g>
<!-- &#45;4 -->
<g id="node4" class="node"><title>&#45;4</title>
<polygon fill="lightgray" stroke="black" points="245,-127.731 221,-127.731 221,-109.731 245,-109.731 245,-127.731"/>
<text text-anchor="middle" x="233" y="-116.531" font-family="Times,serif" font-size="9.00">&#45;4</text>
</g>
<!-- &#45;5 -->
<g id="node5" class="node"><title>&#45;5</title>
<polygon fill="lightgray" stroke="black" points="287,-127.731 263,-127.731 263,-109.731 287,-109.731 287,-127.731"/>
<text text-anchor="middle" x="275" y="-116.531" font-family="Times,serif" font-size="9.00">&#45;5</text>
</g>
<!-- 2 -->
<g id="node27" class="node"><title>2</title>
<ellipse fill="lightblue" stroke="black" cx="339" cy="-27.5772" rx="14.7" ry="14.7"/>
<text text-anchor="middle" x="339" y="-25.3772" font-family="Times,serif" font-size="9.00">2</text>
</g>
<!-- &#45;5&#45;&gt;2 -->
<g id="edge8" class="edge"><title>&#45;5&#45;&gt;2</title>
<path fill="none" stroke="red" stroke-width="2.22214" d="M280.906,-109.504C290.79,-95.7348 310.952,-67.6492 324.721,-48.4689"/>
<polygon fill="red" stroke="red" stroke-width="2.22214" points="327.727,-50.283 330.715,-40.1183 322.04,-46.2009 327.727,-50.283"/>
</g>
<!-- &#45;6 -->
<g id="node6" class="node"><title>&#45;6</title>
<polygon fill="lightgray" stroke="black" points="586,-127.731 562,-127.731 562,-109.731 586,-109.731 586,-127.731"/>
<text text-anchor="middle" x="574" y="-116.531" font-family="Times,serif" font-size="9.00">&#45;6</text>
</g>
<!-- &#45;7 -->
<g id="node7" class="node"><title>&#45;7</title>
<polygon fill="lightgray" stroke="black" points="628,-127.731 604,-127.731 604,-109.731 628,-109.731 628,-127.731"/>
<text text-anchor="middle" x="616" y="-116.531" font-family="Times,serif" font-size="9.00">&#45;7</text>
</g>
<!-- &#45;8 -->
<g id="node8" class="node"><title>&#45;8</title>
<polygon fill="lightgray" stroke="black" points="329,-127.731 305,-127.731 305,-109.731 329,-109.731 329,-127.731"/>
<text text-anchor="middle" x="317" y="-116.531" font-family="Times,serif" font-size="9.00">&#45;8</text>
</g>
<!-- &#45;8&#45;&gt;2 -->
<g id="edge5" class="edge"><title>&#45;8&#45;&gt;2</title>
<path fill="none" stroke="green" stroke-width="2.14741" d="M319.03,-109.504C322.225,-96.5555 328.545,-70.9465 333.223,-51.9887"/>
<polygon fill="green" stroke="green" stroke-width="2.14741" points="336.625,-52.8108 335.623,-42.2635 329.829,-51.1337 336.625,-52.8108"/>
</g>
<!-- &#45;9 -->
<g id="node9" class="node"><title>&#45;9</title>
<polygon fill="lightgray" stroke="black" points="670,-127.731 646,-127.731 646,-109.731 670,-109.731 670,-127.731"/>
<text text-anchor="middle" x="658" y="-116.531" font-family="Times,serif" font-size="9.00">&#45;9</text>
</g>
<!-- &#45;10 -->
<g id="node10" class="node"><title>&#45;10</title>
<polygon fill="lightgray" stroke="black" points="423.5,-127.731 394.5,-127.731 394.5,-109.731 423.5,-109.731 423.5,-127.731"/>
<text text-anchor="middle" x="409" y="-116.531" font-family="Times,serif" font-size="9.00">&#45;10</text>
</g>
<!-- &#45;10&#45;&gt;2 -->
<g id="edge3" class="edge"><title>&#45;10&#45;&gt;2</title>
<path fill="none" stroke="red" stroke-width="3.41688" d="M402.54,-109.504C391.622,-95.5977 369.237,-67.0886 354.17,-47.8987"/>
<polygon fill="red" stroke="red" stroke-width="3.41688" points="356.758,-45.5274 347.83,-39.8234 351.253,-49.8502 356.758,-45.5274"/>
</g>
<!-- 22232 -->
<g id="node31" class="node"><title>22232</title>
<ellipse fill="white" stroke="black" cx="456" cy="-27.5772" rx="27.6545" ry="27.6545"/>
<text text-anchor="middle" x="456" y="-25.3772" font-family="Times,serif" font-size="9.00">22232</text>
</g>
<!-- &#45;10&#45;&gt;22232 -->
<g id="edge4" class="edge"><title>&#45;10&#45;&gt;22232</title>
<path fill="none" stroke="red" stroke-width="0.118731" d="M413.337,-109.504C419.051,-98.6651 429.442,-78.955 438.538,-61.7007"/>
<polygon fill="red" stroke="red" stroke-width="0.118731" points="441.853,-62.9179 443.42,-52.4396 435.661,-59.6534 441.853,-62.9179"/>
</g>
<!-- &#45;11 -->
<g id="node11" class="node"><title>&#45;11</title>
<polygon fill="lightgray" stroke="black" points="113.5,-127.731 84.5,-127.731 84.5,-109.731 113.5,-109.731 113.5,-127.731"/>
<text text-anchor="middle" x="99" y="-116.531" font-family="Times,serif" font-size="9.00">&#45;11</text>
</g>
<!-- &#45;11&#45;&gt;1 -->
<g id="edge7" class="edge"><title>&#45;11&#45;&gt;1</title>
<path fill="none" stroke="green" stroke-width="0.240414" d="M99,-109.504C99,-96.7475 99,-71.703 99,-52.8362"/>
<polygon fill="green" stroke="green" stroke-width="0.240414" points="102.5,-52.581 99,-42.5811 95.5001,-52.5811 102.5,-52.581"/>
</g>
<!-- &#45;12 -->
<g id="node12" class="node"><title>&#45;12</title>
<polygon fill="lightgray" stroke="black" points="717.5,-127.731 688.5,-127.731 688.5,-109.731 717.5,-109.731 717.5,-127.731"/>
<text text-anchor="middle" x="703" y="-116.531" font-family="Times,serif" font-size="9.00">&#45;12</text>
</g>
<!-- &#45;13 -->
<g id="node13" class="node"><title>&#45;13</title>
<polygon fill="lightgray" stroke="black" points="764.5,-127.731 735.5,-127.731 735.5,-109.731 764.5,-109.731 764.5,-127.731"/>
<text text-anchor="middle" x="750" y="-116.531" font-family="Times,serif" font-size="9.00">&#45;13</text>
</g>
<!-- &#45;14 -->
<g id="node14" class="node"><title>&#45;14</title>
<polygon fill="lightgray" stroke="black" points="811.5,-127.731 782.5,-127.731 782.5,-109.731 811.5,-109.731 811.5,-127.731"/>
<text text-anchor="middle" x="797" y="-116.531" font-family="Times,serif" font-size="9.00">&#45;14</text>
</g>
<!-- &#45;15 -->
<g id="node15" class="node"><title>&#45;15</title>
<polygon fill="lightgray" stroke="black" points="858.5,-127.731 829.5,-127.731 829.5,-109.731 858.5,-109.731 858.5,-127.731"/>
<text text-anchor="middle" x="844" y="-116.531" font-family="Times,serif" font-size="9.00">&#45;15</text>
</g>
<!-- &#45;16 -->
<g id="node16" class="node"><title>&#45;16</title>
<polygon fill="lightgray" stroke="black" points="905.5,-127.731 876.5,-127.731 876.5,-109.731 905.5,-109.731 905.5,-127.731"/>
<text text-anchor="middle" x="891" y="-116.531" font-family="Times,serif" font-size="9.00">&#45;16</text>
</g>
<!-- &#45;17 -->
<g id="node17" class="node"><title>&#45;17</title>
<polygon fill="lightgray" stroke="black" points="952.5,-127.731 923.5,-127.731 923.5,-109.731 952.5,-109.731 952.5,-127.731"/>
<text text-anchor="middle" x="938" y="-116.531" font-family="Times,serif" font-size="9.00">&#45;17</text>
</g>
<!-- &#45;18 -->
<g id="node18" class="node"><title>&#45;18</title>
<polygon fill="lightgray" stroke="black" points="999.5,-127.731 970.5,-127.731 970.5,-109.731 999.5,-109.731 999.5,-127.731"/>
<text text-anchor="middle" x="985" y="-116.531" font-family="Times,serif" font-size="9.00">&#45;18</text>
</g>
<!-- &#45;19 -->
<g id="node19" class="node"><title>&#45;19</title>
<polygon fill="lightgray" stroke="black" points="160.5,-127.731 131.5,-127.731 131.5,-109.731 160.5,-109.731 160.5,-127.731"/>
<text text-anchor="middle" x="146" y="-116.531" font-family="Times,serif" font-size="9.00">&#45;19</text>
</g>
<!-- &#45;19&#45;&gt;1 -->
<g id="edge6" class="edge"><title>&#45;19&#45;&gt;1</title>
<path fill="none" stroke="red" stroke-width="0.640181" d="M141.663,-109.504C134.586,-96.0807 120.337,-69.0512 110.257,-49.9307"/>
<polygon fill="red" stroke="red" stroke-width="0.640181" points="113.319,-48.2344 105.56,-41.0206 107.127,-51.4989 113.319,-48.2344"/>
</g>
<!-- &#45;20 -->
<g id="node20" class="node"><title>&#45;20</title>
<polygon fill="lightgray" stroke="black" points="470.5,-127.731 441.5,-127.731 441.5,-109.731 470.5,-109.731 470.5,-127.731"/>
<text text-anchor="middle" x="456" y="-116.531" font-family="Times,serif" font-size="9.00">&#45;20</text>
</g>
<!-- &#45;20&#45;&gt;22232 -->
<g id="edge9" class="edge"><title>&#45;20&#45;&gt;22232</title>
<path fill="none" stroke="red" stroke-width="0.549215" d="M456,-109.504C456,-99.5319 456,-82.051 456,-65.8819"/>
<polygon fill="red" stroke="red" stroke-width="0.549215" points="459.5,-65.538 456,-55.5381 452.5,-65.5381 459.5,-65.538"/>
</g>
<!-- &#45;21 -->
<g id="node21" class="node"><title>&#45;21</title>
<polygon fill="lightgray" stroke="black" points="1046.5,-127.731 1017.5,-127.731 1017.5,-109.731 1046.5,-109.731 1046.5,-127.731"/>
<text text-anchor="middle" x="1032" y="-116.531" font-family="Times,serif" font-size="9.00">&#45;21</text>
</g>
<!-- &#45;22 -->
<g id="node22" class="node"><title>&#45;22</title>
<polygon fill="lightgray" stroke="black" points="376.5,-127.731 347.5,-127.731 347.5,-109.731 376.5,-109.731 376.5,-127.731"/>
<text text-anchor="middle" x="362" y="-116.531" font-family="Times,serif" font-size="9.00">&#45;22</text>
</g>
<!-- &#45;22&#45;&gt;2 -->
<g id="edge10" class="edge"><title>&#45;22&#45;&gt;2</title>
<path fill="none" stroke="green" stroke-width="1.20581" d="M359.877,-109.504C356.537,-96.5555 349.93,-70.9465 345.04,-51.9887"/>
<polygon fill="green" stroke="green" stroke-width="1.20581" points="348.418,-51.0721 342.531,-42.2635 341.64,-52.8208 348.418,-51.0721"/>
</g>
<!-- &#45;23 -->
<g id="node23" class="node"><title>&#45;23</title>
<polygon fill="lightgray" stroke="black" points="1093.5,-127.731 1064.5,-127.731 1064.5,-109.731 1093.5,-109.731 1093.5,-127.731"/>
<text text-anchor="middle" x="1079" y="-116.531" font-family="Times,serif" font-size="9.00">&#45;23</text>
</g>
<!-- &#45;24 -->
<g id="node24" class="node"><title>&#45;24</title>
<polygon fill="lightgray" stroke="black" points="1140.5,-127.731 1111.5,-127.731 1111.5,-109.731 1140.5,-109.731 1140.5,-127.731"/>
<text text-anchor="middle" x="1126" y="-116.531" font-family="Times,serif" font-size="9.00">&#45;24</text>
</g>
<!-- 0 -->
<g id="node25" class="node"><title>0</title>
<ellipse fill="lightblue" stroke="black" cx="1173" cy="-118.731" rx="14.7" ry="14.7"/>
<text text-anchor="middle" x="1173" y="-116.531" font-family="Times,serif" font-size="9.00">0</text>
</g>
<!-- 3 -->
<g id="node28" class="node"><title>3</title>
<ellipse fill="lightblue" stroke="black" cx="1221" cy="-118.731" rx="14.7" ry="14.7"/>
<text text-anchor="middle" x="1221" y="-116.531" font-family="Times,serif" font-size="9.00">3</text>
</g>
<!-- 20930 -->
<g id="node29" class="node"><title>20930</title>
<ellipse fill="white" stroke="black" cx="1281" cy="-118.731" rx="27.6545" ry="27.6545"/>
<text text-anchor="middle" x="1281" y="-116.531" font-family="Times,serif" font-size="9.00">20930</text>
</g>
<!-- 18451 -->
<g id="node30" class="node"><title>18451</title>
<ellipse fill="white" stroke="black" cx="1354" cy="-118.731" rx="27.6545" ry="27.6545"/>
<text text-anchor="middle" x="1354" y="-116.531" font-family="Times,serif" font-size="9.00">18451</text>
</g>
<!-- 22202 -->
<g id="node32" class="node"><title>22202</title>
<ellipse fill="white" stroke="black" cx="516" cy="-118.731" rx="27.6545" ry="27.6545"/>
<text text-anchor="middle" x="516" y="-116.531" font-family="Times,serif" font-size="9.00">22202</text>
</g>
<!-- 22202&#45;&gt;22232 -->
<g id="edge1" class="edge"><title>22202&#45;&gt;22232</title>
<path fill="none" stroke="green" stroke-width="0.269774" d="M500.859,-95.2341C493.611,-84.4642 484.815,-71.394 476.939,-59.6902"/>
<polygon fill="green" stroke="green" stroke-width="0.269774" points="479.623,-57.4094 471.136,-51.0674 473.815,-61.3178 479.623,-57.4094"/>
</g>
</g>
</svg>
