<?xml version="1.0" encoding="UTF-8" standalone="no"?>
<!DOCTYPE svg PUBLIC "-//W3C//DTD SVG 1.1//EN"
 "http://www.w3.org/Graphics/SVG/1.1/DTD/svg11.dtd">
<!-- Generated by graphviz version 2.38.0 (20140413.2041)
 -->
<!-- Title: %3 Pages: 1 -->
<svg width="1236pt" height="220pt"
 viewBox="0.00 0.00 1235.58 220.01" xmlns="http://www.w3.org/2000/svg" xmlns:xlink="http://www.w3.org/1999/xlink">
<g id="graph0" class="graph" transform="scale(1 1) rotate(0) translate(4 216.007)">
<title>%3</title>
<polygon fill="white" stroke="none" points="-4,4 -4,-216.007 1231.58,-216.007 1231.58,4 -4,4"/>
<!-- &#45;1 -->
<g id="node1" class="node"><title>&#45;1</title>
<polygon fill="lightgray" stroke="black" points="26,-193.43 2,-193.43 2,-175.43 26,-175.43 26,-193.43"/>
<text text-anchor="middle" x="14" y="-182.23" font-family="Times,serif" font-size="9.00">&#45;1</text>
</g>
<!-- &#45;2 -->
<g id="node2" class="node"><title>&#45;2</title>
<polygon fill="lightgray" stroke="black" points="68,-193.43 44,-193.43 44,-175.43 68,-175.43 68,-193.43"/>
<text text-anchor="middle" x="56" y="-182.23" font-family="Times,serif" font-size="9.00">&#45;2</text>
</g>
<!-- &#45;3 -->
<g id="node3" class="node"><title>&#45;3</title>
<polygon fill="lightgray" stroke="black" points="110,-193.43 86,-193.43 86,-175.43 110,-175.43 110,-193.43"/>
<text text-anchor="middle" x="98" y="-182.23" font-family="Times,serif" font-size="9.00">&#45;3</text>
</g>
<!-- 18264 -->
<g id="node33" class="node"><title>18264</title>
<ellipse fill="white" stroke="black" cx="112" cy="-93.2756" rx="27.6545" ry="27.6545"/>
<text text-anchor="middle" x="112" y="-91.0756" font-family="Times,serif" font-size="9.00">18264</text>
</g>
<!-- &#45;3&#45;&gt;18264 -->
<g id="edge11" class="edge"><title>&#45;3&#45;&gt;18264</title>
<path fill="none" stroke="green" stroke-width="0.298995" stroke-dasharray="1,5" d="M99.292,-175.202C100.884,-165.064 103.695,-147.164 106.269,-130.772"/>
<polygon fill="green" stroke="green" stroke-width="0.298995" points="109.734,-131.266 107.828,-120.844 102.819,-130.18 109.734,-131.266"/>
</g>
<!-- &#45;4 -->
<g id="node4" class="node"><title>&#45;4</title>
<polygon fill="lightgray" stroke="black" points="386,-193.43 362,-193.43 362,-175.43 386,-175.43 386,-193.43"/>
<text text-anchor="middle" x="374" y="-182.23" font-family="Times,serif" font-size="9.00">&#45;4</text>
</g>
<!-- &#45;5 -->
<g id="node5" class="node"><title>&#45;5</title>
<polygon fill="lightgray" stroke="black" points="24,-102.276 0,-102.276 0,-84.2756 24,-84.2756 24,-102.276"/>
<text text-anchor="middle" x="12" y="-91.0756" font-family="Times,serif" font-size="9.00">&#45;5</text>
</g>
<!-- 1 -->
<g id="node26" class="node"><title>1</title>
<ellipse fill="lightblue" stroke="black" cx="54" cy="-14.8492" rx="14.7" ry="14.7"/>
<text text-anchor="middle" x="54" y="-12.6492" font-family="Times,serif" font-size="9.00">1</text>
</g>
<!-- &#45;5&#45;&gt;1 -->
<g id="edge1" class="edge"><title>&#45;5&#45;&gt;1</title>
<path fill="none" stroke="green" stroke-width="0.93789" d="M16.4947,-84.0967C22.5933,-72.9993 33.7089,-52.7725 42.2615,-37.2095"/>
<polygon fill="green" stroke="green" stroke-width="0.93789" points="45.4389,-38.6948 47.1878,-28.2453 39.3042,-35.3235 45.4389,-38.6948"/>
</g>
<!-- &#45;6 -->
<g id="node6" class="node"><title>&#45;6</title>
<polygon fill="lightgray" stroke="black" points="428,-193.43 404,-193.43 404,-175.43 428,-175.43 428,-193.43"/>
<text text-anchor="middle" x="416" y="-182.23" font-family="Times,serif" font-size="9.00">&#45;6</text>
</g>
<!-- &#45;7 -->
<g id="node7" class="node"><title>&#45;7</title>
<polygon fill="lightgray" stroke="black" points="470,-193.43 446,-193.43 446,-175.43 470,-175.43 470,-193.43"/>
<text text-anchor="middle" x="458" y="-182.23" font-family="Times,serif" font-size="9.00">&#45;7</text>
</g>
<!-- &#45;8 -->
<g id="node8" class="node"><title>&#45;8</title>
<polygon fill="lightgray" stroke="black" points="296,-193.43 272,-193.43 272,-175.43 296,-175.43 296,-193.43"/>
<text text-anchor="middle" x="284" y="-182.23" font-family="Times,serif" font-size="9.00">&#45;8</text>
</g>
<!-- 2 -->
<g id="node27" class="node"><title>2</title>
<ellipse fill="lightblue" stroke="black" cx="292" cy="-93.2756" rx="14.7" ry="14.7"/>
<text text-anchor="middle" x="292" y="-91.0756" font-family="Times,serif" font-size="9.00">2</text>
</g>
<!-- &#45;8&#45;&gt;2 -->
<g id="edge10" class="edge"><title>&#45;8&#45;&gt;2</title>
<path fill="none" stroke="green" stroke-width="0.698573" d="M284.738,-175.202C285.888,-162.386 288.151,-137.167 289.847,-118.271"/>
<polygon fill="green" stroke="green" stroke-width="0.698573" points="293.336,-118.552 290.743,-108.28 286.364,-117.927 293.336,-118.552"/>
</g>
<!-- &#45;9 -->
<g id="node9" class="node"><title>&#45;9</title>
<polygon fill="lightgray" stroke="black" points="66,-102.276 42,-102.276 42,-84.2756 66,-84.2756 66,-102.276"/>
<text text-anchor="middle" x="54" y="-91.0756" font-family="Times,serif" font-size="9.00">&#45;9</text>
</g>
<!-- &#45;9&#45;&gt;1 -->
<g id="edge12" class="edge"><title>&#45;9&#45;&gt;1</title>
<path fill="none" stroke="green" stroke-width="0.46494" d="M54,-84.0967C54,-73.6852 54,-55.238 54,-40.1455"/>
<polygon fill="green" stroke="green" stroke-width="0.46494" points="57.5001,-39.9115 54,-29.9115 50.5001,-39.9116 57.5001,-39.9115"/>
</g>
<!-- &#45;10 -->
<g id="node10" class="node"><title>&#45;10</title>
<polygon fill="lightgray" stroke="black" points="245.5,-193.43 216.5,-193.43 216.5,-175.43 245.5,-175.43 245.5,-193.43"/>
<text text-anchor="middle" x="231" y="-182.23" font-family="Times,serif" font-size="9.00">&#45;10</text>
</g>
<!-- &#45;10&#45;&gt;2 -->
<g id="edge9" class="edge"><title>&#45;10&#45;&gt;2</title>
<path fill="none" stroke="red" stroke-width="0.802604" d="M236.629,-175.202C245.999,-161.508 265.059,-133.651 278.177,-114.479"/>
<polygon fill="red" stroke="red" stroke-width="0.802604" points="281.141,-116.344 283.9,-106.115 275.364,-112.391 281.141,-116.344"/>
</g>
<!-- &#45;10&#45;&gt;18264 -->
<g id="edge3" class="edge"><title>&#45;10&#45;&gt;18264</title>
<path fill="none" stroke="green" stroke-width="0.451965" d="M220.018,-175.202C202.442,-162.034 167.389,-135.773 141.969,-116.729"/>
<polygon fill="green" stroke="green" stroke-width="0.451965" points="143.859,-113.771 133.757,-110.576 139.662,-119.373 143.859,-113.771"/>
</g>
<!-- &#45;11 -->
<g id="node11" class="node"><title>&#45;11</title>
<polygon fill="lightgray" stroke="black" points="517.5,-193.43 488.5,-193.43 488.5,-175.43 517.5,-175.43 517.5,-193.43"/>
<text text-anchor="middle" x="503" y="-182.23" font-family="Times,serif" font-size="9.00">&#45;11</text>
</g>
<!-- 18561 -->
<g id="node29" class="node"><title>18561</title>
<ellipse fill="white" stroke="black" cx="550" cy="-93.2756" rx="27.6545" ry="27.6545"/>
<text text-anchor="middle" x="550" y="-91.0756" font-family="Times,serif" font-size="9.00">18561</text>
</g>
<!-- &#45;11&#45;&gt;18561 -->
<g id="edge5" class="edge"><title>&#45;11&#45;&gt;18561</title>
<path fill="none" stroke="red" stroke-width="0.372865" stroke-dasharray="1,5" d="M507.337,-175.202C513.051,-164.364 523.442,-144.653 532.538,-127.399"/>
<polygon fill="red" stroke="red" stroke-width="0.372865" points="535.853,-128.616 537.42,-118.138 529.661,-125.352 535.853,-128.616"/>
</g>
<!-- &#45;12 -->
<g id="node12" class="node"><title>&#45;12</title>
<polygon fill="lightgray" stroke="black" points="658.5,-193.43 629.5,-193.43 629.5,-175.43 658.5,-175.43 658.5,-193.43"/>
<text text-anchor="middle" x="644" y="-182.23" font-family="Times,serif" font-size="9.00">&#45;12</text>
</g>
<!-- &#45;13 -->
<g id="node13" class="node"><title>&#45;13</title>
<polygon fill="lightgray" stroke="black" points="705.5,-193.43 676.5,-193.43 676.5,-175.43 705.5,-175.43 705.5,-193.43"/>
<text text-anchor="middle" x="691" y="-182.23" font-family="Times,serif" font-size="9.00">&#45;13</text>
</g>
<!-- &#45;14 -->
<g id="node14" class="node"><title>&#45;14</title>
<polygon fill="lightgray" stroke="black" points="343.5,-193.43 314.5,-193.43 314.5,-175.43 343.5,-175.43 343.5,-193.43"/>
<text text-anchor="middle" x="329" y="-182.23" font-family="Times,serif" font-size="9.00">&#45;14</text>
</g>
<!-- &#45;14&#45;&gt;2 -->
<g id="edge4" class="edge"><title>&#45;14&#45;&gt;2</title>
<path fill="none" stroke="red" stroke-width="0.528037" d="M325.585,-175.202C320.126,-162.048 309.244,-135.827 301.342,-116.787"/>
<polygon fill="red" stroke="red" stroke-width="0.528037" points="304.486,-115.23 297.42,-107.335 298.02,-117.913 304.486,-115.23"/>
</g>
<!-- &#45;15 -->
<g id="node15" class="node"><title>&#45;15</title>
<polygon fill="lightgray" stroke="black" points="752.5,-193.43 723.5,-193.43 723.5,-175.43 752.5,-175.43 752.5,-193.43"/>
<text text-anchor="middle" x="738" y="-182.23" font-family="Times,serif" font-size="9.00">&#45;15</text>
</g>
<!-- &#45;16 -->
<g id="node16" class="node"><title>&#45;16</title>
<polygon fill="lightgray" stroke="black" points="799.5,-193.43 770.5,-193.43 770.5,-175.43 799.5,-175.43 799.5,-193.43"/>
<text text-anchor="middle" x="785" y="-182.23" font-family="Times,serif" font-size="9.00">&#45;16</text>
</g>
<!-- &#45;17 -->
<g id="node17" class="node"><title>&#45;17</title>
<polygon fill="lightgray" stroke="black" points="564.5,-193.43 535.5,-193.43 535.5,-175.43 564.5,-175.43 564.5,-193.43"/>
<text text-anchor="middle" x="550" y="-182.23" font-family="Times,serif" font-size="9.00">&#45;17</text>
</g>
<!-- &#45;17&#45;&gt;18561 -->
<g id="edge7" class="edge"><title>&#45;17&#45;&gt;18561</title>
<path fill="none" stroke="green" stroke-width="0.256252" d="M550,-175.202C550,-165.23 550,-147.749 550,-131.58"/>
<polygon fill="green" stroke="green" stroke-width="0.256252" points="553.5,-131.237 550,-121.237 546.5,-131.237 553.5,-131.237"/>
</g>
<!-- &#45;18 -->
<g id="node18" class="node"><title>&#45;18</title>
<polygon fill="lightgray" stroke="black" points="846.5,-193.43 817.5,-193.43 817.5,-175.43 846.5,-175.43 846.5,-193.43"/>
<text text-anchor="middle" x="832" y="-182.23" font-family="Times,serif" font-size="9.00">&#45;18</text>
</g>
<!-- &#45;19 -->
<g id="node19" class="node"><title>&#45;19</title>
<polygon fill="lightgray" stroke="black" points="893.5,-193.43 864.5,-193.43 864.5,-175.43 893.5,-175.43 893.5,-193.43"/>
<text text-anchor="middle" x="879" y="-182.23" font-family="Times,serif" font-size="9.00">&#45;19</text>
</g>
<!-- &#45;20 -->
<g id="node20" class="node"><title>&#45;20</title>
<polygon fill="lightgray" stroke="black" points="611.5,-193.43 582.5,-193.43 582.5,-175.43 611.5,-175.43 611.5,-193.43"/>
<text text-anchor="middle" x="597" y="-182.23" font-family="Times,serif" font-size="9.00">&#45;20</text>
</g>
<!-- &#45;20&#45;&gt;18561 -->
<g id="edge2" class="edge"><title>&#45;20&#45;&gt;18561</title>
<path fill="none" stroke="red" stroke-width="0.372795" d="M592.663,-175.202C586.949,-164.364 576.558,-144.653 567.462,-127.399"/>
<polygon fill="red" stroke="red" stroke-width="0.372795" points="570.339,-125.352 562.58,-118.138 564.147,-128.616 570.339,-125.352"/>
</g>
<!-- &#45;21 -->
<g id="node21" class="node"><title>&#45;21</title>
<polygon fill="lightgray" stroke="black" points="186.5,-102.276 157.5,-102.276 157.5,-84.2756 186.5,-84.2756 186.5,-102.276"/>
<text text-anchor="middle" x="172" y="-91.0756" font-family="Times,serif" font-size="9.00">&#45;21</text>
</g>
<!-- 3 -->
<g id="node28" class="node"><title>3</title>
<ellipse fill="lightblue" stroke="black" cx="172" cy="-14.8492" rx="14.7" ry="14.7"/>
<text text-anchor="middle" x="172" y="-12.6492" font-family="Times,serif" font-size="9.00">3</text>
</g>
<!-- &#45;21&#45;&gt;3 -->
<g id="edge6" class="edge"><title>&#45;21&#45;&gt;3</title>
<path fill="none" stroke="green" stroke-width="0.359344" d="M172,-84.0967C172,-73.6852 172,-55.238 172,-40.1455"/>
<polygon fill="green" stroke="green" stroke-width="0.359344" points="175.5,-39.9115 172,-29.9115 168.5,-39.9116 175.5,-39.9115"/>
</g>
<!-- &#45;22 -->
<g id="node22" class="node"><title>&#45;22</title>
<polygon fill="lightgray" stroke="black" points="940.5,-193.43 911.5,-193.43 911.5,-175.43 940.5,-175.43 940.5,-193.43"/>
<text text-anchor="middle" x="926" y="-182.23" font-family="Times,serif" font-size="9.00">&#45;22</text>
</g>
<!-- &#45;23 -->
<g id="node23" class="node"><title>&#45;23</title>
<polygon fill="lightgray" stroke="black" points="987.5,-193.43 958.5,-193.43 958.5,-175.43 987.5,-175.43 987.5,-193.43"/>
<text text-anchor="middle" x="973" y="-182.23" font-family="Times,serif" font-size="9.00">&#45;23</text>
</g>
<!-- &#45;24 -->
<g id="node24" class="node"><title>&#45;24</title>
<polygon fill="lightgray" stroke="black" points="1034.5,-193.43 1005.5,-193.43 1005.5,-175.43 1034.5,-175.43 1034.5,-193.43"/>
<text text-anchor="middle" x="1020" y="-182.23" font-family="Times,serif" font-size="9.00">&#45;24</text>
</g>
<!-- 0 -->
<g id="node25" class="node"><title>0</title>
<ellipse fill="lightblue" stroke="black" cx="1067" cy="-184.43" rx="14.7" ry="14.7"/>
<text text-anchor="middle" x="1067" y="-182.23" font-family="Times,serif" font-size="9.00">0</text>
</g>
<!-- 18571 -->
<g id="node30" class="node"><title>18571</title>
<ellipse fill="white" stroke="black" cx="1127" cy="-184.43" rx="27.6545" ry="27.6545"/>
<text text-anchor="middle" x="1127" y="-182.23" font-family="Times,serif" font-size="9.00">18571</text>
</g>
<!-- 19890 -->
<g id="node31" class="node"><title>19890</title>
<ellipse fill="white" stroke="black" cx="156" cy="-184.43" rx="27.6545" ry="27.6545"/>
<text text-anchor="middle" x="156" y="-182.23" font-family="Times,serif" font-size="9.00">19890</text>
</g>
<!-- 19890&#45;&gt;18264 -->
<g id="edge15" class="edge"><title>19890&#45;&gt;18264</title>
<path fill="none" stroke="red" stroke-width="0.176544" d="M143.977,-159.068C139.184,-149.358 133.591,-138.024 128.434,-127.575"/>
<polygon fill="red" stroke="red" stroke-width="0.176544" points="131.421,-125.718 123.856,-118.299 125.143,-128.816 131.421,-125.718"/>
</g>
<!-- 18451 -->
<g id="node32" class="node"><title>18451</title>
<ellipse fill="white" stroke="black" cx="1200" cy="-184.43" rx="27.6545" ry="27.6545"/>
<text text-anchor="middle" x="1200" y="-182.23" font-family="Times,serif" font-size="9.00">18451</text>
</g>
<!-- 18264&#45;&gt;1 -->
<g id="edge13" class="edge"><title>18264&#45;&gt;1</title>
<path fill="none" stroke="green" stroke-width="0.270231" d="M95.5347,-70.5793C87.0782,-59.4363 76.8609,-45.973 68.6763,-35.1881"/>
<polygon fill="green" stroke="green" stroke-width="0.270231" points="71.4539,-33.0585 62.6206,-27.2085 65.8778,-37.2902 71.4539,-33.0585"/>
</g>
<!-- 18264&#45;&gt;3 -->
<g id="edge8" class="edge"><title>18264&#45;&gt;3</title>
<path fill="none" stroke="red" stroke-width="0.463221" d="M128.713,-70.9866C137.578,-59.6948 148.383,-45.9323 156.98,-34.9819"/>
<polygon fill="red" stroke="red" stroke-width="0.463221" points="159.899,-36.9306 163.322,-26.9036 154.393,-32.608 159.899,-36.9306"/>
</g>
<!-- 20319 -->
<g id="node34" class="node"><title>20319</title>
<ellipse fill="white" stroke="black" cx="232" cy="-93.2756" rx="27.6545" ry="27.6545"/>
<text text-anchor="middle" x="232" y="-91.0756" font-family="Times,serif" font-size="9.00">20319</text>
</g>
<!-- 20319&#45;&gt;3 -->
<g id="edge14" class="edge"><title>20319&#45;&gt;3</title>
<path fill="none" stroke="red" stroke-width="0.229497" stroke-dasharray="1,5" d="M215.287,-70.9866C206.422,-59.6948 195.617,-45.9323 187.02,-34.9819"/>
<polygon fill="red" stroke="red" stroke-width="0.229497" points="189.607,-32.608 180.678,-26.9036 184.101,-36.9306 189.607,-32.608"/>
</g>
</g>
</svg>
