<?xml version="1.0" encoding="UTF-8" standalone="no"?>
<!DOCTYPE svg PUBLIC "-//W3C//DTD SVG 1.1//EN"
 "http://www.w3.org/Graphics/SVG/1.1/DTD/svg11.dtd">
<!-- Generated by graphviz version 2.38.0 (20140413.2041)
 -->
<!-- Title: %3 Pages: 1 -->
<svg width="1189pt" height="767pt"
 viewBox="0.00 0.00 1189.15 766.93" xmlns="http://www.w3.org/2000/svg" xmlns:xlink="http://www.w3.org/1999/xlink">
<g id="graph0" class="graph" transform="scale(1 1) rotate(0) translate(4 762.933)">
<title>%3</title>
<polygon fill="white" stroke="none" points="-4,4 -4,-762.933 1185.15,-762.933 1185.15,4 -4,4"/>
<!-- &#45;1 -->
<g id="node1" class="node"><title>&#45;1</title>
<polygon fill="lightgray" stroke="black" points="395.577,-661.93 371.577,-661.93 371.577,-643.93 395.577,-643.93 395.577,-661.93"/>
<text text-anchor="middle" x="383.577" y="-650.73" font-family="Times,serif" font-size="9.00">&#45;1</text>
</g>
<!-- 49647 -->
<g id="node46" class="node"><title>49647</title>
<ellipse fill="white" stroke="black" cx="420.577" cy="-574.503" rx="27.6545" ry="27.6545"/>
<text text-anchor="middle" x="420.577" y="-572.303" font-family="Times,serif" font-size="9.00">49647</text>
</g>
<!-- &#45;1&#45;&gt;49647 -->
<g id="edge21" class="edge"><title>&#45;1&#45;&gt;49647</title>
<path fill="none" stroke="green" stroke-width="0.477717" stroke-dasharray="1,5" d="M387.537,-643.751C391.617,-635.322 398.247,-621.628 404.501,-608.71"/>
<polygon fill="green" stroke="green" stroke-width="0.477717" points="407.739,-610.053 408.946,-599.528 401.439,-607.003 407.739,-610.053"/>
</g>
<!-- &#45;2 -->
<g id="node2" class="node"><title>&#45;2</title>
<polygon fill="lightgray" stroke="black" points="332.577,-492.349 308.577,-492.349 308.577,-474.349 332.577,-474.349 332.577,-492.349"/>
<text text-anchor="middle" x="320.577" y="-481.149" font-family="Times,serif" font-size="9.00">&#45;2</text>
</g>
<!-- 52169 -->
<g id="node36" class="node"><title>52169</title>
<ellipse fill="white" stroke="black" cx="493.577" cy="-392.194" rx="27.6545" ry="27.6545"/>
<text text-anchor="middle" x="493.577" y="-389.994" font-family="Times,serif" font-size="9.00">52169</text>
</g>
<!-- &#45;2&#45;&gt;52169 -->
<g id="edge7" class="edge"><title>&#45;2&#45;&gt;52169</title>
<path fill="none" stroke="red" stroke-width="0.961941" d="M325.557,-473.978C329.34,-468.214 335.005,-460.73 341.577,-455.772 376.524,-429.407 424.166,-412.17 456.741,-402.588"/>
<polygon fill="red" stroke="red" stroke-width="0.961941" points="458.09,-405.843 466.753,-399.744 456.177,-399.11 458.09,-405.843"/>
</g>
<!-- &#45;3 -->
<g id="node3" class="node"><title>&#45;3</title>
<polygon fill="lightgray" stroke="black" points="41.5772,-310.04 17.5772,-310.04 17.5772,-292.04 41.5772,-292.04 41.5772,-310.04"/>
<text text-anchor="middle" x="29.5772" y="-298.84" font-family="Times,serif" font-size="9.00">&#45;3</text>
</g>
<!-- 53706 -->
<g id="node37" class="node"><title>53706</title>
<ellipse fill="white" stroke="black" cx="124.577" cy="-209.886" rx="27.6545" ry="27.6545"/>
<text text-anchor="middle" x="124.577" y="-207.686" font-family="Times,serif" font-size="9.00">53706</text>
</g>
<!-- &#45;3&#45;&gt;53706 -->
<g id="edge9" class="edge"><title>&#45;3&#45;&gt;53706</title>
<path fill="none" stroke="green" stroke-width="0.239116" d="M35.4288,-291.785C39.4375,-286.353 45.0167,-279.211 50.5772,-273.463 64.2671,-259.31 80.9054,-245.019 94.9353,-233.675"/>
<polygon fill="green" stroke="green" stroke-width="0.239116" points="97.2179,-236.331 102.853,-227.359 92.8526,-230.859 97.2179,-236.331"/>
</g>
<!-- &#45;4 -->
<g id="node4" class="node"><title>&#45;4</title>
<polygon fill="lightgray" stroke="black" points="574.577,-740.356 550.577,-740.356 550.577,-722.356 574.577,-722.356 574.577,-740.356"/>
<text text-anchor="middle" x="562.577" y="-729.156" font-family="Times,serif" font-size="9.00">&#45;4</text>
</g>
<!-- &#45;5 -->
<g id="node5" class="node"><title>&#45;5</title>
<polygon fill="lightgray" stroke="black" points="616.577,-740.356 592.577,-740.356 592.577,-722.356 616.577,-722.356 616.577,-740.356"/>
<text text-anchor="middle" x="604.577" y="-729.156" font-family="Times,serif" font-size="9.00">&#45;5</text>
</g>
<!-- &#45;6 -->
<g id="node6" class="node"><title>&#45;6</title>
<polygon fill="lightgray" stroke="black" points="290.577,-492.349 266.577,-492.349 266.577,-474.349 290.577,-474.349 290.577,-492.349"/>
<text text-anchor="middle" x="278.577" y="-481.149" font-family="Times,serif" font-size="9.00">&#45;6</text>
</g>
<!-- 54296 -->
<g id="node31" class="node"><title>54296</title>
<ellipse fill="white" stroke="black" cx="217.577" cy="-209.886" rx="27.6545" ry="27.6545"/>
<text text-anchor="middle" x="217.577" y="-207.686" font-family="Times,serif" font-size="9.00">54296</text>
</g>
<!-- &#45;6&#45;&gt;54296 -->
<g id="edge24" class="edge"><title>&#45;6&#45;&gt;54296</title>
<path fill="none" stroke="red" stroke-width="0.208556" stroke-dasharray="1,5" d="M277.977,-474.223C275.74,-445.977 266.841,-349.639 244.577,-273.463 241.744,-263.77 237.799,-253.584 233.798,-244.311"/>
<polygon fill="red" stroke="red" stroke-width="0.208556" points="236.929,-242.739 229.653,-235.038 230.539,-245.596 236.929,-242.739"/>
</g>
<!-- &#45;6&#45;&gt;52169 -->
<g id="edge38" class="edge"><title>&#45;6&#45;&gt;52169</title>
<path fill="none" stroke="green" stroke-width="0.45839" d="M283.125,-474.313C286.847,-468.408 292.622,-460.602 299.577,-455.772 347.809,-422.272 415.024,-405.909 456.347,-398.542"/>
<polygon fill="green" stroke="green" stroke-width="0.45839" points="456.995,-401.982 466.268,-396.857 455.823,-395.081 456.995,-401.982"/>
</g>
<!-- &#45;7 -->
<g id="node7" class="node"><title>&#45;7</title>
<polygon fill="lightgray" stroke="black" points="658.577,-740.356 634.577,-740.356 634.577,-722.356 658.577,-722.356 658.577,-740.356"/>
<text text-anchor="middle" x="646.577" y="-729.156" font-family="Times,serif" font-size="9.00">&#45;7</text>
</g>
<!-- &#45;8 -->
<g id="node8" class="node"><title>&#45;8</title>
<polygon fill="lightgray" stroke="black" points="374.577,-492.349 350.577,-492.349 350.577,-474.349 374.577,-474.349 374.577,-492.349"/>
<text text-anchor="middle" x="362.577" y="-481.149" font-family="Times,serif" font-size="9.00">&#45;8</text>
</g>
<!-- &#45;8&#45;&gt;52169 -->
<g id="edge1" class="edge"><title>&#45;8&#45;&gt;52169</title>
<path fill="none" stroke="red" stroke-width="0.706595" d="M367.758,-474.228C371.637,-468.582 377.332,-461.136 383.577,-455.772 406.328,-436.231 436.09,-419.737 458.92,-408.597"/>
<polygon fill="red" stroke="red" stroke-width="0.706595" points="460.716,-411.618 468.238,-404.157 457.705,-405.299 460.716,-411.618"/>
</g>
<!-- &#45;9 -->
<g id="node9" class="node"><title>&#45;9</title>
<polygon fill="lightgray" stroke="black" points="537.577,-661.93 513.577,-661.93 513.577,-643.93 537.577,-643.93 537.577,-661.93"/>
<text text-anchor="middle" x="525.577" y="-650.73" font-family="Times,serif" font-size="9.00">&#45;9</text>
</g>
<!-- 53986 -->
<g id="node40" class="node"><title>53986</title>
<ellipse fill="white" stroke="black" cx="527.577" cy="-574.503" rx="27.6545" ry="27.6545"/>
<text text-anchor="middle" x="527.577" y="-572.303" font-family="Times,serif" font-size="9.00">53986</text>
</g>
<!-- &#45;9&#45;&gt;53986 -->
<g id="edge28" class="edge"><title>&#45;9&#45;&gt;53986</title>
<path fill="none" stroke="red" stroke-width="0.504358" d="M525.791,-643.751C525.991,-636.126 526.303,-624.192 526.611,-612.422"/>
<polygon fill="red" stroke="red" stroke-width="0.504358" points="530.115,-612.322 526.878,-602.233 523.117,-612.138 530.115,-612.322"/>
</g>
<!-- &#45;10 -->
<g id="node10" class="node"><title>&#45;10</title>
<polygon fill="lightgray" stroke="black" points="485.077,-740.356 456.077,-740.356 456.077,-722.356 485.077,-722.356 485.077,-740.356"/>
<text text-anchor="middle" x="470.577" y="-729.156" font-family="Times,serif" font-size="9.00">&#45;10</text>
</g>
<!-- 2 -->
<g id="node27" class="node"><title>2</title>
<ellipse fill="lightblue" stroke="black" cx="470.577" cy="-652.93" rx="14.7" ry="14.7"/>
<text text-anchor="middle" x="470.577" y="-650.73" font-family="Times,serif" font-size="9.00">2</text>
</g>
<!-- &#45;10&#45;&gt;2 -->
<g id="edge2" class="edge"><title>&#45;10&#45;&gt;2</title>
<path fill="none" stroke="red" stroke-width="1.96364" d="M470.577,-722.177C470.577,-711.765 470.577,-693.318 470.577,-678.226"/>
<polygon fill="red" stroke="red" stroke-width="1.96364" points="474.077,-677.992 470.577,-667.992 467.077,-677.992 474.077,-677.992"/>
</g>
<!-- &#45;11 -->
<g id="node11" class="node"><title>&#45;11</title>
<polygon fill="lightgray" stroke="black" points="75.0772,-218.886 46.0772,-218.886 46.0772,-200.886 75.0772,-200.886 75.0772,-218.886"/>
<text text-anchor="middle" x="60.5772" y="-207.686" font-family="Times,serif" font-size="9.00">&#45;11</text>
</g>
<!-- 54549 -->
<g id="node30" class="node"><title>54549</title>
<ellipse fill="white" stroke="black" cx="58.5772" cy="-118.731" rx="27.6545" ry="27.6545"/>
<text text-anchor="middle" x="58.5772" y="-116.531" font-family="Times,serif" font-size="9.00">54549</text>
</g>
<!-- &#45;11&#45;&gt;54549 -->
<g id="edge22" class="edge"><title>&#45;11&#45;&gt;54549</title>
<path fill="none" stroke="green" stroke-width="0.186813" d="M60.3926,-200.658C60.1689,-190.686 59.7767,-173.205 59.414,-157.036"/>
<polygon fill="green" stroke="green" stroke-width="0.186813" points="62.9055,-156.611 59.182,-146.692 55.9072,-156.768 62.9055,-156.611"/>
</g>
<!-- 45220 -->
<g id="node35" class="node"><title>45220</title>
<ellipse fill="white" stroke="black" cx="157.577" cy="-27.5772" rx="27.6545" ry="27.6545"/>
<text text-anchor="middle" x="157.577" y="-25.3772" font-family="Times,serif" font-size="9.00">45220</text>
</g>
<!-- &#45;11&#45;&gt;45220 -->
<g id="edge12" class="edge"><title>&#45;11&#45;&gt;45220</title>
<path fill="none" stroke="green" stroke-width="0.45832" stroke-dasharray="1,5" d="M65.1733,-200.821C71.9266,-188.938 84.8874,-166.001 95.5772,-146.309 111.047,-117.811 128.192,-85.1695 140.525,-61.4957"/>
<polygon fill="green" stroke="green" stroke-width="0.45832" points="143.656,-63.0595 145.166,-52.5728 137.446,-59.8291 143.656,-63.0595"/>
</g>
<!-- &#45;12 -->
<g id="node12" class="node"><title>&#45;12</title>
<polygon fill="lightgray" stroke="black" points="706.077,-740.356 677.077,-740.356 677.077,-722.356 706.077,-722.356 706.077,-740.356"/>
<text text-anchor="middle" x="691.577" y="-729.156" font-family="Times,serif" font-size="9.00">&#45;12</text>
</g>
<!-- &#45;13 -->
<g id="node13" class="node"><title>&#45;13</title>
<polygon fill="lightgray" stroke="black" points="532.077,-740.356 503.077,-740.356 503.077,-722.356 532.077,-722.356 532.077,-740.356"/>
<text text-anchor="middle" x="517.577" y="-729.156" font-family="Times,serif" font-size="9.00">&#45;13</text>
</g>
<!-- &#45;13&#45;&gt;2 -->
<g id="edge31" class="edge"><title>&#45;13&#45;&gt;2</title>
<path fill="none" stroke="red" stroke-width="1.14058" d="M512.547,-722.177C505.619,-710.91 492.904,-690.234 483.278,-674.582"/>
<polygon fill="red" stroke="red" stroke-width="1.14058" points="486.254,-672.74 478.034,-666.055 480.291,-676.407 486.254,-672.74"/>
</g>
<!-- &#45;14 -->
<g id="node14" class="node"><title>&#45;14</title>
<polygon fill="lightgray" stroke="black" points="438.077,-740.356 409.077,-740.356 409.077,-722.356 438.077,-722.356 438.077,-740.356"/>
<text text-anchor="middle" x="423.577" y="-729.156" font-family="Times,serif" font-size="9.00">&#45;14</text>
</g>
<!-- &#45;14&#45;&gt;2 -->
<g id="edge25" class="edge"><title>&#45;14&#45;&gt;2</title>
<path fill="none" stroke="red" stroke-width="0.13666" d="M428.607,-722.177C435.536,-710.91 448.251,-690.234 457.877,-674.582"/>
<polygon fill="red" stroke="red" stroke-width="0.13666" points="460.863,-676.407 463.12,-666.055 454.9,-672.74 460.863,-676.407"/>
</g>
<!-- &#45;14&#45;&gt;49647 -->
<g id="edge5" class="edge"><title>&#45;14&#45;&gt;49647</title>
<path fill="none" stroke="red" stroke-width="0.653575" d="M423.416,-722.03C423.023,-701.732 421.995,-648.7 421.291,-612.331"/>
<polygon fill="red" stroke="red" stroke-width="0.653575" points="424.785,-612.026 421.092,-602.096 417.787,-612.162 424.785,-612.026"/>
</g>
<!-- &#45;15 -->
<g id="node15" class="node"><title>&#45;15</title>
<polygon fill="lightgray" stroke="black" points="753.077,-740.356 724.077,-740.356 724.077,-722.356 753.077,-722.356 753.077,-740.356"/>
<text text-anchor="middle" x="738.577" y="-729.156" font-family="Times,serif" font-size="9.00">&#45;15</text>
</g>
<!-- &#45;16 -->
<g id="node16" class="node"><title>&#45;16</title>
<polygon fill="lightgray" stroke="black" points="800.077,-740.356 771.077,-740.356 771.077,-722.356 800.077,-722.356 800.077,-740.356"/>
<text text-anchor="middle" x="785.577" y="-729.156" font-family="Times,serif" font-size="9.00">&#45;16</text>
</g>
<!-- 1 -->
<g id="node26" class="node"><title>1</title>
<ellipse fill="lightblue" stroke="black" cx="785.577" cy="-652.93" rx="14.7" ry="14.7"/>
<text text-anchor="middle" x="785.577" y="-650.73" font-family="Times,serif" font-size="9.00">1</text>
</g>
<!-- &#45;16&#45;&gt;1 -->
<g id="edge10" class="edge"><title>&#45;16&#45;&gt;1</title>
<path fill="none" stroke="red" stroke-width="5.38222" d="M785.577,-722.177C785.577,-711.765 785.577,-693.318 785.577,-678.226"/>
<polygon fill="red" stroke="red" stroke-width="5.38222" points="790.287,-677.992 785.577,-667.992 780.868,-677.992 790.287,-677.992"/>
</g>
<!-- &#45;17 -->
<g id="node17" class="node"><title>&#45;17</title>
<polygon fill="lightgray" stroke="black" points="585.077,-661.93 556.077,-661.93 556.077,-643.93 585.077,-643.93 585.077,-661.93"/>
<text text-anchor="middle" x="570.577" y="-650.73" font-family="Times,serif" font-size="9.00">&#45;17</text>
</g>
<!-- &#45;17&#45;&gt;53986 -->
<g id="edge23" class="edge"><title>&#45;17&#45;&gt;53986</title>
<path fill="none" stroke="green" stroke-width="0.465586" d="M565.975,-643.751C561.117,-635.115 553.148,-620.952 545.726,-607.76"/>
<polygon fill="green" stroke="green" stroke-width="0.465586" points="548.673,-605.861 540.72,-598.862 542.573,-609.293 548.673,-605.861"/>
</g>
<!-- 54117 -->
<g id="node41" class="node"><title>54117</title>
<ellipse fill="white" stroke="black" cx="605.577" cy="-574.503" rx="27.6545" ry="27.6545"/>
<text text-anchor="middle" x="605.577" y="-572.303" font-family="Times,serif" font-size="9.00">54117</text>
</g>
<!-- &#45;17&#45;&gt;54117 -->
<g id="edge17" class="edge"><title>&#45;17&#45;&gt;54117</title>
<path fill="none" stroke="green" stroke-width="0.233643" stroke-dasharray="1,5" d="M574.323,-643.751C578.154,-635.384 584.362,-621.829 590.239,-608.995"/>
<polygon fill="green" stroke="green" stroke-width="0.233643" points="593.44,-610.411 594.422,-599.862 587.076,-607.497 593.44,-610.411"/>
</g>
<!-- &#45;17&#45;&gt;49647 -->
<g id="edge39" class="edge"><title>&#45;17&#45;&gt;49647</title>
<path fill="none" stroke="red" stroke-width="0.108598" stroke-dasharray="1,5" d="M556.953,-643.871C553.585,-641.933 549.969,-639.899 546.577,-638.08 515.847,-621.604 480.207,-604.043 454.689,-591.732"/>
<polygon fill="red" stroke="red" stroke-width="0.108598" points="455.965,-588.462 445.436,-587.283 452.932,-594.771 455.965,-588.462"/>
</g>
<!-- &#45;18 -->
<g id="node18" class="node"><title>&#45;18</title>
<polygon fill="lightgray" stroke="black" points="847.077,-740.356 818.077,-740.356 818.077,-722.356 847.077,-722.356 847.077,-740.356"/>
<text text-anchor="middle" x="832.577" y="-729.156" font-family="Times,serif" font-size="9.00">&#45;18</text>
</g>
<!-- &#45;19 -->
<g id="node19" class="node"><title>&#45;19</title>
<polygon fill="lightgray" stroke="black" points="894.077,-740.356 865.077,-740.356 865.077,-722.356 894.077,-722.356 894.077,-740.356"/>
<text text-anchor="middle" x="879.577" y="-729.156" font-family="Times,serif" font-size="9.00">&#45;19</text>
</g>
<!-- &#45;20 -->
<g id="node20" class="node"><title>&#45;20</title>
<polygon fill="lightgray" stroke="black" points="941.077,-740.356 912.077,-740.356 912.077,-722.356 941.077,-722.356 941.077,-740.356"/>
<text text-anchor="middle" x="926.577" y="-729.156" font-family="Times,serif" font-size="9.00">&#45;20</text>
</g>
<!-- &#45;21 -->
<g id="node21" class="node"><title>&#45;21</title>
<polygon fill="lightgray" stroke="black" points="988.077,-740.356 959.077,-740.356 959.077,-722.356 988.077,-722.356 988.077,-740.356"/>
<text text-anchor="middle" x="973.577" y="-729.156" font-family="Times,serif" font-size="9.00">&#45;21</text>
</g>
<!-- &#45;22 -->
<g id="node22" class="node"><title>&#45;22</title>
<polygon fill="lightgray" stroke="black" points="102.077,-401.194 73.0772,-401.194 73.0772,-383.194 102.077,-383.194 102.077,-401.194"/>
<text text-anchor="middle" x="87.5772" y="-389.994" font-family="Times,serif" font-size="9.00">&#45;22</text>
</g>
<!-- 49661 -->
<g id="node48" class="node"><title>49661</title>
<ellipse fill="white" stroke="black" cx="87.5772" cy="-301.04" rx="27.6545" ry="27.6545"/>
<text text-anchor="middle" x="87.5772" y="-298.84" font-family="Times,serif" font-size="9.00">49661</text>
</g>
<!-- &#45;22&#45;&gt;49661 -->
<g id="edge36" class="edge"><title>&#45;22&#45;&gt;49661</title>
<path fill="none" stroke="red" stroke-width="0.25959" d="M87.5772,-382.967C87.5772,-372.995 87.5772,-355.514 87.5772,-339.345"/>
<polygon fill="red" stroke="red" stroke-width="0.25959" points="91.0773,-339.001 87.5772,-329.001 84.0773,-339.001 91.0773,-339.001"/>
</g>
<!-- &#45;23 -->
<g id="node23" class="node"><title>&#45;23</title>
<polygon fill="lightgray" stroke="black" points="1035.08,-740.356 1006.08,-740.356 1006.08,-722.356 1035.08,-722.356 1035.08,-740.356"/>
<text text-anchor="middle" x="1020.58" y="-729.156" font-family="Times,serif" font-size="9.00">&#45;23</text>
</g>
<!-- &#45;24 -->
<g id="node24" class="node"><title>&#45;24</title>
<polygon fill="lightgray" stroke="black" points="102.077,-492.349 73.0772,-492.349 73.0772,-474.349 102.077,-474.349 102.077,-492.349"/>
<text text-anchor="middle" x="87.5772" y="-481.149" font-family="Times,serif" font-size="9.00">&#45;24</text>
</g>
<!-- 53107 -->
<g id="node47" class="node"><title>53107</title>
<ellipse fill="white" stroke="black" cx="160.577" cy="-392.194" rx="27.6545" ry="27.6545"/>
<text text-anchor="middle" x="160.577" y="-389.994" font-family="Times,serif" font-size="9.00">53107</text>
</g>
<!-- &#45;24&#45;&gt;53107 -->
<g id="edge27" class="edge"><title>&#45;24&#45;&gt;53107</title>
<path fill="none" stroke="red" stroke-width="0.261049" d="M94.314,-474.121C103.925,-462.383 122.055,-440.241 136.925,-422.081"/>
<polygon fill="red" stroke="red" stroke-width="0.261049" points="139.858,-424.024 143.485,-414.069 134.442,-419.589 139.858,-424.024"/>
</g>
<!-- 0 -->
<g id="node25" class="node"><title>0</title>
<ellipse fill="lightblue" stroke="black" cx="157.577" cy="-118.731" rx="14.7" ry="14.7"/>
<text text-anchor="middle" x="157.577" y="-116.531" font-family="Times,serif" font-size="9.00">0</text>
</g>
<!-- 0&#45;&gt;45220 -->
<g id="edge15" class="edge"><title>0&#45;&gt;45220</title>
<path fill="none" stroke="green" stroke-width="0.45845" d="M157.577,-103.801C157.577,-93.4982 157.577,-78.962 157.577,-65.4107"/>
<polygon fill="green" stroke="green" stroke-width="0.45845" points="161.077,-65.3264 157.577,-55.3264 154.077,-65.3264 161.077,-65.3264"/>
</g>
<!-- 2&#45;&gt;53986 -->
<g id="edge8" class="edge"><title>2&#45;&gt;53986</title>
<path fill="none" stroke="red" stroke-width="0.426955" d="M478.988,-640.653C485.932,-631.341 496.115,-617.689 505.366,-605.284"/>
<polygon fill="red" stroke="red" stroke-width="0.426955" points="508.399,-607.072 511.572,-596.964 502.787,-602.887 508.399,-607.072"/>
</g>
<!-- 2&#45;&gt;49647 -->
<g id="edge16" class="edge"><title>2&#45;&gt;49647</title>
<path fill="none" stroke="red" stroke-width="0.32395" stroke-dasharray="1,5" d="M462.765,-639.988C456.943,-631.089 448.711,-618.506 441.062,-606.814"/>
<polygon fill="red" stroke="red" stroke-width="0.32395" points="443.78,-604.575 435.376,-598.123 437.922,-608.408 443.78,-604.575"/>
</g>
<!-- 3 -->
<g id="node28" class="node"><title>3</title>
<ellipse fill="lightblue" stroke="black" cx="220.577" cy="-301.04" rx="14.7" ry="14.7"/>
<text text-anchor="middle" x="220.577" y="-298.84" font-family="Times,serif" font-size="9.00">3</text>
</g>
<!-- 52749 -->
<g id="node29" class="node"><title>52749</title>
<ellipse fill="white" stroke="black" cx="160.577" cy="-301.04" rx="27.6545" ry="27.6545"/>
<text text-anchor="middle" x="160.577" y="-298.84" font-family="Times,serif" font-size="9.00">52749</text>
</g>
<!-- 52749&#45;&gt;53706 -->
<g id="edge18" class="edge"><title>52749&#45;&gt;53706</title>
<path fill="none" stroke="green" stroke-width="0.391323" d="M150.549,-275.206C146.797,-265.913 142.465,-255.186 138.428,-245.188"/>
<polygon fill="green" stroke="green" stroke-width="0.391323" points="141.666,-243.858 134.676,-235.896 135.175,-246.479 141.666,-243.858"/>
</g>
<!-- 54549&#45;&gt;45220 -->
<g id="edge40" class="edge"><title>54549&#45;&gt;45220</title>
<path fill="none" stroke="red" stroke-width="0.471885" d="M78.6113,-99.6898C93.372,-86.3971 113.629,-68.1549 129.93,-53.475"/>
<polygon fill="red" stroke="red" stroke-width="0.471885" points="132.484,-55.8848 137.573,-46.592 127.8,-50.6831 132.484,-55.8848"/>
</g>
<!-- 54296&#45;&gt;45220 -->
<g id="edge29" class="edge"><title>54296&#45;&gt;45220</title>
<path fill="none" stroke="red" stroke-width="0.168745" d="M210.223,-182.997C203.282,-159.032 192.359,-122.48 181.577,-91.1543 178.407,-81.9434 174.743,-72.0645 171.248,-62.9396"/>
<polygon fill="red" stroke="red" stroke-width="0.168745" points="174.429,-61.4618 167.553,-53.4013 167.902,-63.9904 174.429,-61.4618"/>
</g>
<!-- 54426 -->
<g id="node32" class="node"><title>54426</title>
<ellipse fill="white" stroke="black" cx="256.577" cy="-118.731" rx="27.6545" ry="27.6545"/>
<text text-anchor="middle" x="256.577" y="-116.531" font-family="Times,serif" font-size="9.00">54426</text>
</g>
<!-- 54426&#45;&gt;45220 -->
<g id="edge32" class="edge"><title>54426&#45;&gt;45220</title>
<path fill="none" stroke="green" stroke-width="0.273117" d="M236.543,-99.6898C221.782,-86.3971 201.526,-68.1549 185.225,-53.475"/>
<polygon fill="green" stroke="green" stroke-width="0.273117" points="187.355,-50.6831 177.581,-46.592 182.67,-55.8848 187.355,-50.6831"/>
</g>
<!-- 53788 -->
<g id="node33" class="node"><title>53788</title>
<ellipse fill="white" stroke="black" cx="493.577" cy="-483.349" rx="27.6545" ry="27.6545"/>
<text text-anchor="middle" x="493.577" y="-481.149" font-family="Times,serif" font-size="9.00">53788</text>
</g>
<!-- 53788&#45;&gt;52169 -->
<g id="edge26" class="edge"><title>53788&#45;&gt;52169</title>
<path fill="none" stroke="red" stroke-width="0.18564" d="M493.577,-455.6C493.577,-447.577 493.577,-438.633 493.577,-430.078"/>
<polygon fill="red" stroke="red" stroke-width="0.18564" points="497.077,-429.925 493.577,-419.925 490.077,-429.925 497.077,-429.925"/>
</g>
<!-- 54560 -->
<g id="node34" class="node"><title>54560</title>
<ellipse fill="white" stroke="black" cx="605.577" cy="-483.349" rx="27.6545" ry="27.6545"/>
<text text-anchor="middle" x="605.577" y="-481.149" font-family="Times,serif" font-size="9.00">54560</text>
</g>
<!-- 54560&#45;&gt;52169 -->
<g id="edge11" class="edge"><title>54560&#45;&gt;52169</title>
<path fill="none" stroke="green" stroke-width="0.357116" d="M584.247,-465.37C566.809,-451.489 541.977,-431.722 522.708,-416.383"/>
<polygon fill="green" stroke="green" stroke-width="0.357116" points="524.831,-413.6 514.828,-410.11 520.472,-419.077 524.831,-413.6"/>
</g>
<!-- 53706&#45;&gt;0 -->
<g id="edge35" class="edge"><title>53706&#45;&gt;0</title>
<path fill="none" stroke="red" stroke-width="0.277391" d="M133.945,-183.576C138.709,-170.706 144.455,-155.183 149.088,-142.666"/>
<polygon fill="red" stroke="red" stroke-width="0.277391" points="152.483,-143.576 152.672,-132.983 145.919,-141.146 152.483,-143.576"/>
</g>
<!-- 45393 -->
<g id="node38" class="node"><title>45393</title>
<ellipse fill="white" stroke="black" cx="220.577" cy="-483.349" rx="27.6545" ry="27.6545"/>
<text text-anchor="middle" x="220.577" y="-481.149" font-family="Times,serif" font-size="9.00">45393</text>
</g>
<!-- 45393&#45;&gt;3 -->
<g id="edge13" class="edge"><title>45393&#45;&gt;3</title>
<path fill="none" stroke="green" stroke-width="0.512912" d="M220.577,-455.744C220.577,-420.891 220.577,-360.257 220.577,-326.502"/>
<polygon fill="green" stroke="green" stroke-width="0.512912" points="224.077,-326.16 220.577,-316.16 217.077,-326.161 224.077,-326.16"/>
</g>
<!-- 45393&#45;&gt;53107 -->
<g id="edge20" class="edge"><title>45393&#45;&gt;53107</title>
<path fill="none" stroke="red" stroke-width="0.118659" d="M205.437,-459.851C198.189,-449.082 189.392,-436.011 181.516,-424.308"/>
<polygon fill="red" stroke="red" stroke-width="0.118659" points="184.2,-422.027 175.713,-415.685 178.392,-425.935 184.2,-422.027"/>
</g>
<!-- 54363 -->
<g id="node39" class="node"><title>54363</title>
<ellipse fill="white" stroke="black" cx="27.5772" cy="-483.349" rx="27.6545" ry="27.6545"/>
<text text-anchor="middle" x="27.5772" y="-481.149" font-family="Times,serif" font-size="9.00">54363</text>
</g>
<!-- 53986&#45;&gt;52169 -->
<g id="edge3" class="edge"><title>53986&#45;&gt;52169</title>
<path fill="none" stroke="red" stroke-width="0.322622" d="M532.514,-547.261C536.075,-523.052 538.938,-486.34 530.577,-455.772 527.467,-444.4 521.701,-432.996 515.63,-423.097"/>
<polygon fill="red" stroke="red" stroke-width="0.322622" points="518.416,-420.959 510.038,-414.474 512.542,-424.768 518.416,-420.959"/>
</g>
<!-- 54117&#45;&gt;54560 -->
<g id="edge33" class="edge"><title>54117&#45;&gt;54560</title>
<path fill="none" stroke="green" stroke-width="0.651588" d="M605.577,-546.754C605.577,-538.732 605.577,-529.787 605.577,-521.232"/>
<polygon fill="green" stroke="green" stroke-width="0.651588" points="609.077,-521.079 605.577,-511.079 602.077,-521.079 609.077,-521.079"/>
</g>
<!-- 54117&#45;&gt;52169 -->
<g id="edge19" class="edge"><title>54117&#45;&gt;52169</title>
<path fill="none" stroke="green" stroke-width="0.115425" stroke-dasharray="1,5" d="M622.437,-552.402C640.075,-527.576 662.619,-485.927 642.577,-455.772 617.912,-418.66 566.502,-403.511 531.025,-397.357"/>
<polygon fill="green" stroke="green" stroke-width="0.115425" points="531.449,-393.881 521.026,-395.785 530.361,-400.796 531.449,-393.881"/>
</g>
<!-- 49895 -->
<g id="node42" class="node"><title>49895</title>
<ellipse fill="white" stroke="black" cx="1080.58" cy="-731.356" rx="27.6545" ry="27.6545"/>
<text text-anchor="middle" x="1080.58" y="-729.156" font-family="Times,serif" font-size="9.00">49895</text>
</g>
<!-- 51432 -->
<g id="node43" class="node"><title>51432</title>
<ellipse fill="white" stroke="black" cx="147.577" cy="-483.349" rx="27.6545" ry="27.6545"/>
<text text-anchor="middle" x="147.577" y="-481.149" font-family="Times,serif" font-size="9.00">51432</text>
</g>
<!-- 51432&#45;&gt;53107 -->
<g id="edge37" class="edge"><title>51432&#45;&gt;53107</title>
<path fill="none" stroke="green" stroke-width="0.120216" d="M151.478,-455.6C152.671,-447.415 154.004,-438.271 155.274,-429.561"/>
<polygon fill="green" stroke="green" stroke-width="0.120216" points="158.745,-430.018 156.724,-419.618 151.818,-429.008 158.745,-430.018"/>
</g>
<!-- 49386 -->
<g id="node44" class="node"><title>49386</title>
<ellipse fill="white" stroke="black" cx="1153.58" cy="-731.356" rx="27.6545" ry="27.6545"/>
<text text-anchor="middle" x="1153.58" y="-729.156" font-family="Times,serif" font-size="9.00">49386</text>
</g>
<!-- 49131 -->
<g id="node45" class="node"><title>49131</title>
<ellipse fill="white" stroke="black" cx="420.577" cy="-483.349" rx="27.6545" ry="27.6545"/>
<text text-anchor="middle" x="420.577" y="-481.149" font-family="Times,serif" font-size="9.00">49131</text>
</g>
<!-- 49647&#45;&gt;45393 -->
<g id="edge41" class="edge"><title>49647&#45;&gt;45393</title>
<path fill="none" stroke="green" stroke-width="0.347437" stroke-dasharray="1,5" d="M394.266,-565.708C361.271,-555.419 303.463,-535.68 257.577,-510.926 255.263,-509.677 252.925,-508.305 250.61,-506.861"/>
<polygon fill="green" stroke="green" stroke-width="0.347437" points="252.149,-503.682 241.884,-501.057 248.272,-509.51 252.149,-503.682"/>
</g>
<!-- 49647&#45;&gt;54363 -->
<g id="edge4" class="edge"><title>49647&#45;&gt;54363</title>
<path fill="none" stroke="green" stroke-width="0.324472" d="M392.947,-572.928C331.319,-570.749 178.969,-560.358 63.5772,-510.926 61.4304,-510.006 59.2914,-508.936 57.1879,-507.764"/>
<polygon fill="green" stroke="green" stroke-width="0.324472" points="58.5991,-504.514 48.2794,-502.115 54.8507,-510.426 58.5991,-504.514"/>
</g>
<!-- 49647&#45;&gt;49131 -->
<g id="edge30" class="edge"><title>49647&#45;&gt;49131</title>
<path fill="none" stroke="green" stroke-width="0.270761" d="M420.577,-546.754C420.577,-538.732 420.577,-529.787 420.577,-521.232"/>
<polygon fill="green" stroke="green" stroke-width="0.270761" points="424.077,-521.079 420.577,-511.079 417.077,-521.079 424.077,-521.079"/>
</g>
<!-- 53107&#45;&gt;3 -->
<g id="edge14" class="edge"><title>53107&#45;&gt;3</title>
<path fill="none" stroke="green" stroke-width="0.138265" stroke-dasharray="1,5" d="M175.718,-368.697C185.286,-354.479 197.553,-336.252 206.84,-322.452"/>
<polygon fill="green" stroke="green" stroke-width="0.138265" points="209.774,-324.361 212.454,-314.11 203.967,-320.452 209.774,-324.361"/>
</g>
<!-- 53107&#45;&gt;52749 -->
<g id="edge34" class="edge"><title>53107&#45;&gt;52749</title>
<path fill="none" stroke="red" stroke-width="0.113311" d="M160.577,-364.445C160.577,-356.423 160.577,-347.479 160.577,-338.924"/>
<polygon fill="red" stroke="red" stroke-width="0.113311" points="164.077,-338.77 160.577,-328.771 157.077,-338.771 164.077,-338.77"/>
</g>
<!-- 49661&#45;&gt;53706 -->
<g id="edge6" class="edge"><title>49661&#45;&gt;53706</title>
<path fill="none" stroke="red" stroke-width="0.646931" d="M97.8837,-275.206C101.773,-265.835 106.267,-255.005 110.446,-244.936"/>
<polygon fill="red" stroke="red" stroke-width="0.646931" points="113.725,-246.165 114.326,-235.587 107.26,-243.482 113.725,-246.165"/>
</g>
</g>
</svg>
