<?xml version="1.0" encoding="UTF-8" standalone="no"?>
<!DOCTYPE svg PUBLIC "-//W3C//DTD SVG 1.1//EN"
 "http://www.w3.org/Graphics/SVG/1.1/DTD/svg11.dtd">
<!-- Generated by graphviz version 2.38.0 (20140413.2041)
 -->
<!-- Title: %3 Pages: 1 -->
<svg width="1170pt" height="103pt"
 viewBox="0.00 0.00 1169.85 103.40" xmlns="http://www.w3.org/2000/svg" xmlns:xlink="http://www.w3.org/1999/xlink">
<g id="graph0" class="graph" transform="scale(1 1) rotate(0) translate(4 99.397)">
<title>%3</title>
<polygon fill="white" stroke="none" points="-4,4 -4,-99.397 1165.85,-99.397 1165.85,4 -4,4"/>
<!-- &#45;1 -->
<g id="node1" class="node"><title>&#45;1</title>
<polygon fill="lightgray" stroke="black" points="24,-89.5477 0,-89.5477 0,-71.5477 24,-71.5477 24,-89.5477"/>
<text text-anchor="middle" x="12" y="-78.3477" font-family="Times,serif" font-size="9.00">&#45;1</text>
</g>
<!-- &#45;2 -->
<g id="node2" class="node"><title>&#45;2</title>
<polygon fill="lightgray" stroke="black" points="66,-89.5477 42,-89.5477 42,-71.5477 66,-71.5477 66,-89.5477"/>
<text text-anchor="middle" x="54" y="-78.3477" font-family="Times,serif" font-size="9.00">&#45;2</text>
</g>
<!-- &#45;3 -->
<g id="node3" class="node"><title>&#45;3</title>
<polygon fill="lightgray" stroke="black" points="108,-89.5477 84,-89.5477 84,-71.5477 108,-71.5477 108,-89.5477"/>
<text text-anchor="middle" x="96" y="-78.3477" font-family="Times,serif" font-size="9.00">&#45;3</text>
</g>
<!-- &#45;4 -->
<g id="node4" class="node"><title>&#45;4</title>
<polygon fill="lightgray" stroke="black" points="150,-89.5477 126,-89.5477 126,-71.5477 150,-71.5477 150,-89.5477"/>
<text text-anchor="middle" x="138" y="-78.3477" font-family="Times,serif" font-size="9.00">&#45;4</text>
</g>
<!-- 2 -->
<g id="node27" class="node"><title>2</title>
<ellipse fill="lightblue" stroke="black" cx="202" cy="-14.8492" rx="14.7" ry="14.7"/>
<text text-anchor="middle" x="202" y="-12.6492" font-family="Times,serif" font-size="9.00">2</text>
</g>
<!-- &#45;4&#45;&gt;2 -->
<g id="edge1" class="edge"><title>&#45;4&#45;&gt;2</title>
<path fill="none" stroke="green" stroke-width="0.458831" stroke-dasharray="1,5" d="M146.106,-71.4803C155.688,-61.9434 171.91,-45.797 184.418,-33.3485"/>
<polygon fill="green" stroke="green" stroke-width="0.458831" points="187.014,-35.7027 191.633,-26.1676 182.076,-30.7413 187.014,-35.7027"/>
</g>
<!-- &#45;5 -->
<g id="node5" class="node"><title>&#45;5</title>
<polygon fill="lightgray" stroke="black" points="376,-89.5477 352,-89.5477 352,-71.5477 376,-71.5477 376,-89.5477"/>
<text text-anchor="middle" x="364" y="-78.3477" font-family="Times,serif" font-size="9.00">&#45;5</text>
</g>
<!-- &#45;6 -->
<g id="node6" class="node"><title>&#45;6</title>
<polygon fill="lightgray" stroke="black" points="418,-89.5477 394,-89.5477 394,-71.5477 418,-71.5477 418,-89.5477"/>
<text text-anchor="middle" x="406" y="-78.3477" font-family="Times,serif" font-size="9.00">&#45;6</text>
</g>
<!-- &#45;7 -->
<g id="node7" class="node"><title>&#45;7</title>
<polygon fill="lightgray" stroke="black" points="192,-89.5477 168,-89.5477 168,-71.5477 192,-71.5477 192,-89.5477"/>
<text text-anchor="middle" x="180" y="-78.3477" font-family="Times,serif" font-size="9.00">&#45;7</text>
</g>
<!-- &#45;7&#45;&gt;2 -->
<g id="edge4" class="edge"><title>&#45;7&#45;&gt;2</title>
<path fill="none" stroke="green" stroke-width="1.32319" d="M182.786,-71.4803C185.584,-63.3809 190.028,-50.5142 193.937,-39.1941"/>
<polygon fill="green" stroke="green" stroke-width="1.32319" points="197.359,-40.0088 197.315,-29.4141 190.742,-37.7236 197.359,-40.0088"/>
</g>
<!-- &#45;8 -->
<g id="node8" class="node"><title>&#45;8</title>
<polygon fill="lightgray" stroke="black" points="460,-89.5477 436,-89.5477 436,-71.5477 460,-71.5477 460,-89.5477"/>
<text text-anchor="middle" x="448" y="-78.3477" font-family="Times,serif" font-size="9.00">&#45;8</text>
</g>
<!-- &#45;9 -->
<g id="node9" class="node"><title>&#45;9</title>
<polygon fill="lightgray" stroke="black" points="502,-89.5477 478,-89.5477 478,-71.5477 502,-71.5477 502,-89.5477"/>
<text text-anchor="middle" x="490" y="-78.3477" font-family="Times,serif" font-size="9.00">&#45;9</text>
</g>
<!-- &#45;10 -->
<g id="node10" class="node"><title>&#45;10</title>
<polygon fill="lightgray" stroke="black" points="286.5,-89.5477 257.5,-89.5477 257.5,-71.5477 286.5,-71.5477 286.5,-89.5477"/>
<text text-anchor="middle" x="272" y="-78.3477" font-family="Times,serif" font-size="9.00">&#45;10</text>
</g>
<!-- 1 -->
<g id="node26" class="node"><title>1</title>
<ellipse fill="lightblue" stroke="black" cx="295" cy="-14.8492" rx="14.7" ry="14.7"/>
<text text-anchor="middle" x="295" y="-12.6492" font-family="Times,serif" font-size="9.00">1</text>
</g>
<!-- &#45;10&#45;&gt;1 -->
<g id="edge5" class="edge"><title>&#45;10&#45;&gt;1</title>
<path fill="none" stroke="red" stroke-width="1.5707" d="M274.913,-71.4803C277.905,-63.1946 282.698,-49.92 286.852,-38.4159"/>
<polygon fill="red" stroke="red" stroke-width="1.5707" points="290.172,-39.5261 290.276,-28.9318 283.588,-37.1488 290.172,-39.5261"/>
</g>
<!-- &#45;10&#45;&gt;2 -->
<g id="edge3" class="edge"><title>&#45;10&#45;&gt;2</title>
<path fill="none" stroke="red" stroke-width="2.35034" d="M263.134,-71.4803C252.432,-61.7415 234.156,-45.1104 220.367,-32.5629"/>
<polygon fill="red" stroke="red" stroke-width="2.35034" points="222.61,-29.8718 212.858,-25.7301 217.899,-35.0491 222.61,-29.8718"/>
</g>
<!-- &#45;11 -->
<g id="node11" class="node"><title>&#45;11</title>
<polygon fill="lightgray" stroke="black" points="549.5,-89.5477 520.5,-89.5477 520.5,-71.5477 549.5,-71.5477 549.5,-89.5477"/>
<text text-anchor="middle" x="535" y="-78.3477" font-family="Times,serif" font-size="9.00">&#45;11</text>
</g>
<!-- &#45;12 -->
<g id="node12" class="node"><title>&#45;12</title>
<polygon fill="lightgray" stroke="black" points="596.5,-89.5477 567.5,-89.5477 567.5,-71.5477 596.5,-71.5477 596.5,-89.5477"/>
<text text-anchor="middle" x="582" y="-78.3477" font-family="Times,serif" font-size="9.00">&#45;12</text>
</g>
<!-- &#45;13 -->
<g id="node13" class="node"><title>&#45;13</title>
<polygon fill="lightgray" stroke="black" points="239.5,-89.5477 210.5,-89.5477 210.5,-71.5477 239.5,-71.5477 239.5,-89.5477"/>
<text text-anchor="middle" x="225" y="-78.3477" font-family="Times,serif" font-size="9.00">&#45;13</text>
</g>
<!-- &#45;13&#45;&gt;2 -->
<g id="edge2" class="edge"><title>&#45;13&#45;&gt;2</title>
<path fill="none" stroke="green" stroke-width="0.487946" d="M222.087,-71.4803C219.095,-63.1946 214.302,-49.92 210.148,-38.4159"/>
<polygon fill="green" stroke="green" stroke-width="0.487946" points="213.412,-37.1488 206.724,-28.9318 206.828,-39.5261 213.412,-37.1488"/>
</g>
<!-- &#45;14 -->
<g id="node14" class="node"><title>&#45;14</title>
<polygon fill="lightgray" stroke="black" points="333.5,-89.5477 304.5,-89.5477 304.5,-71.5477 333.5,-71.5477 333.5,-89.5477"/>
<text text-anchor="middle" x="319" y="-78.3477" font-family="Times,serif" font-size="9.00">&#45;14</text>
</g>
<!-- &#45;14&#45;&gt;1 -->
<g id="edge6" class="edge"><title>&#45;14&#45;&gt;1</title>
<path fill="none" stroke="green" stroke-width="1.47917" d="M315.96,-71.4803C312.839,-63.1946 307.837,-49.92 303.503,-38.4159"/>
<polygon fill="green" stroke="green" stroke-width="1.47917" points="306.73,-37.0556 299.929,-28.9318 300.18,-39.5237 306.73,-37.0556"/>
</g>
<!-- &#45;15 -->
<g id="node15" class="node"><title>&#45;15</title>
<polygon fill="lightgray" stroke="black" points="643.5,-89.5477 614.5,-89.5477 614.5,-71.5477 643.5,-71.5477 643.5,-89.5477"/>
<text text-anchor="middle" x="629" y="-78.3477" font-family="Times,serif" font-size="9.00">&#45;15</text>
</g>
<!-- &#45;16 -->
<g id="node16" class="node"><title>&#45;16</title>
<polygon fill="lightgray" stroke="black" points="690.5,-89.5477 661.5,-89.5477 661.5,-71.5477 690.5,-71.5477 690.5,-89.5477"/>
<text text-anchor="middle" x="676" y="-78.3477" font-family="Times,serif" font-size="9.00">&#45;16</text>
</g>
<!-- &#45;17 -->
<g id="node17" class="node"><title>&#45;17</title>
<polygon fill="lightgray" stroke="black" points="737.5,-89.5477 708.5,-89.5477 708.5,-71.5477 737.5,-71.5477 737.5,-89.5477"/>
<text text-anchor="middle" x="723" y="-78.3477" font-family="Times,serif" font-size="9.00">&#45;17</text>
</g>
<!-- &#45;18 -->
<g id="node18" class="node"><title>&#45;18</title>
<polygon fill="lightgray" stroke="black" points="784.5,-89.5477 755.5,-89.5477 755.5,-71.5477 784.5,-71.5477 784.5,-89.5477"/>
<text text-anchor="middle" x="770" y="-78.3477" font-family="Times,serif" font-size="9.00">&#45;18</text>
</g>
<!-- &#45;19 -->
<g id="node19" class="node"><title>&#45;19</title>
<polygon fill="lightgray" stroke="black" points="831.5,-89.5477 802.5,-89.5477 802.5,-71.5477 831.5,-71.5477 831.5,-89.5477"/>
<text text-anchor="middle" x="817" y="-78.3477" font-family="Times,serif" font-size="9.00">&#45;19</text>
</g>
<!-- &#45;20 -->
<g id="node20" class="node"><title>&#45;20</title>
<polygon fill="lightgray" stroke="black" points="878.5,-89.5477 849.5,-89.5477 849.5,-71.5477 878.5,-71.5477 878.5,-89.5477"/>
<text text-anchor="middle" x="864" y="-78.3477" font-family="Times,serif" font-size="9.00">&#45;20</text>
</g>
<!-- &#45;21 -->
<g id="node21" class="node"><title>&#45;21</title>
<polygon fill="lightgray" stroke="black" points="925.5,-89.5477 896.5,-89.5477 896.5,-71.5477 925.5,-71.5477 925.5,-89.5477"/>
<text text-anchor="middle" x="911" y="-78.3477" font-family="Times,serif" font-size="9.00">&#45;21</text>
</g>
<!-- &#45;22 -->
<g id="node22" class="node"><title>&#45;22</title>
<polygon fill="lightgray" stroke="black" points="972.5,-89.5477 943.5,-89.5477 943.5,-71.5477 972.5,-71.5477 972.5,-89.5477"/>
<text text-anchor="middle" x="958" y="-78.3477" font-family="Times,serif" font-size="9.00">&#45;22</text>
</g>
<!-- &#45;23 -->
<g id="node23" class="node"><title>&#45;23</title>
<polygon fill="lightgray" stroke="black" points="1019.5,-89.5477 990.5,-89.5477 990.5,-71.5477 1019.5,-71.5477 1019.5,-89.5477"/>
<text text-anchor="middle" x="1005" y="-78.3477" font-family="Times,serif" font-size="9.00">&#45;23</text>
</g>
<!-- &#45;24 -->
<g id="node24" class="node"><title>&#45;24</title>
<polygon fill="lightgray" stroke="black" points="1066.5,-89.5477 1037.5,-89.5477 1037.5,-71.5477 1066.5,-71.5477 1066.5,-89.5477"/>
<text text-anchor="middle" x="1052" y="-78.3477" font-family="Times,serif" font-size="9.00">&#45;24</text>
</g>
<!-- 0 -->
<g id="node25" class="node"><title>0</title>
<ellipse fill="lightblue" stroke="black" cx="1099" cy="-80.5477" rx="14.7" ry="14.7"/>
<text text-anchor="middle" x="1099" y="-78.3477" font-family="Times,serif" font-size="9.00">0</text>
</g>
<!-- 3 -->
<g id="node28" class="node"><title>3</title>
<ellipse fill="lightblue" stroke="black" cx="1147" cy="-80.5477" rx="14.7" ry="14.7"/>
<text text-anchor="middle" x="1147" y="-78.3477" font-family="Times,serif" font-size="9.00">3</text>
</g>
</g>
</svg>
