<?xml version="1.0" encoding="UTF-8" standalone="no"?>
<!DOCTYPE svg PUBLIC "-//W3C//DTD SVG 1.1//EN"
 "http://www.w3.org/Graphics/SVG/1.1/DTD/svg11.dtd">
<!-- Generated by graphviz version 2.38.0 (20140413.2041)
 -->
<!-- Title: %3 Pages: 1 -->
<svg width="1156pt" height="337pt"
 viewBox="0.00 0.00 1155.58 336.62" xmlns="http://www.w3.org/2000/svg" xmlns:xlink="http://www.w3.org/1999/xlink">
<g id="graph0" class="graph" transform="scale(1 1) rotate(0) translate(4 332.617)">
<title>%3</title>
<polygon fill="white" stroke="none" points="-4,4 -4,-332.617 1151.58,-332.617 1151.58,4 -4,4"/>
<!-- &#45;1 -->
<g id="node1" class="node"><title>&#45;1</title>
<polygon fill="lightgray" stroke="black" points="24,-310.04 0,-310.04 0,-292.04 24,-292.04 24,-310.04"/>
<text text-anchor="middle" x="12" y="-298.84" font-family="Times,serif" font-size="9.00">&#45;1</text>
</g>
<!-- &#45;2 -->
<g id="node2" class="node"><title>&#45;2</title>
<polygon fill="lightgray" stroke="black" points="66,-310.04 42,-310.04 42,-292.04 66,-292.04 66,-310.04"/>
<text text-anchor="middle" x="54" y="-298.84" font-family="Times,serif" font-size="9.00">&#45;2</text>
</g>
<!-- 49131 -->
<g id="node34" class="node"><title>49131</title>
<ellipse fill="white" stroke="black" cx="54" cy="-209.886" rx="27.6545" ry="27.6545"/>
<text text-anchor="middle" x="54" y="-207.686" font-family="Times,serif" font-size="9.00">49131</text>
</g>
<!-- &#45;2&#45;&gt;49131 -->
<g id="edge23" class="edge"><title>&#45;2&#45;&gt;49131</title>
<path fill="none" stroke="red" stroke-width="0.101255" stroke-dasharray="1,5" d="M54,-291.813C54,-281.841 54,-264.36 54,-248.191"/>
<polygon fill="red" stroke="red" stroke-width="0.101255" points="57.5001,-247.847 54,-237.847 50.5001,-247.847 57.5001,-247.847"/>
</g>
<!-- &#45;3 -->
<g id="node3" class="node"><title>&#45;3</title>
<polygon fill="lightgray" stroke="black" points="176,-310.04 152,-310.04 152,-292.04 176,-292.04 176,-310.04"/>
<text text-anchor="middle" x="164" y="-298.84" font-family="Times,serif" font-size="9.00">&#45;3</text>
</g>
<!-- &#45;4 -->
<g id="node4" class="node"><title>&#45;4</title>
<polygon fill="lightgray" stroke="black" points="264,-310.04 240,-310.04 240,-292.04 264,-292.04 264,-310.04"/>
<text text-anchor="middle" x="252" y="-298.84" font-family="Times,serif" font-size="9.00">&#45;4</text>
</g>
<!-- &#45;5 -->
<g id="node5" class="node"><title>&#45;5</title>
<polygon fill="lightgray" stroke="black" points="76,-127.731 52,-127.731 52,-109.731 76,-109.731 76,-127.731"/>
<text text-anchor="middle" x="64" y="-116.531" font-family="Times,serif" font-size="9.00">&#45;5</text>
</g>
<!-- 45220 -->
<g id="node29" class="node"><title>45220</title>
<ellipse fill="white" stroke="black" cx="125" cy="-27.5772" rx="27.6545" ry="27.6545"/>
<text text-anchor="middle" x="125" y="-25.3772" font-family="Times,serif" font-size="9.00">45220</text>
</g>
<!-- &#45;5&#45;&gt;45220 -->
<g id="edge12" class="edge"><title>&#45;5&#45;&gt;45220</title>
<path fill="none" stroke="red" stroke-width="0.15792" d="M69.6294,-109.504C77.3855,-98.168 91.7809,-77.1284 103.95,-59.3434"/>
<polygon fill="red" stroke="red" stroke-width="0.15792" points="106.947,-61.1603 109.706,-50.9307 101.17,-57.2074 106.947,-61.1603"/>
</g>
<!-- &#45;6 -->
<g id="node6" class="node"><title>&#45;6</title>
<polygon fill="lightgray" stroke="black" points="124,-218.886 100,-218.886 100,-200.886 124,-200.886 124,-218.886"/>
<text text-anchor="middle" x="112" y="-207.686" font-family="Times,serif" font-size="9.00">&#45;6</text>
</g>
<!-- 3 -->
<g id="node28" class="node"><title>3</title>
<ellipse fill="lightblue" stroke="black" cx="195" cy="-118.731" rx="14.7" ry="14.7"/>
<text text-anchor="middle" x="195" y="-116.531" font-family="Times,serif" font-size="9.00">3</text>
</g>
<!-- &#45;6&#45;&gt;3 -->
<g id="edge9" class="edge"><title>&#45;6&#45;&gt;3</title>
<path fill="none" stroke="green" stroke-width="0.426401" d="M119.693,-200.837C131.009,-188.974 152.774,-166.061 171,-146.309 173.478,-143.623 176.084,-140.769 178.627,-137.967"/>
<polygon fill="green" stroke="green" stroke-width="0.426401" points="181.371,-140.151 185.475,-130.384 176.176,-135.459 181.371,-140.151"/>
</g>
<!-- &#45;6&#45;&gt;45220 -->
<g id="edge28" class="edge"><title>&#45;6&#45;&gt;45220</title>
<path fill="none" stroke="red" stroke-width="0.44449" d="M112.592,-200.67C114.286,-177.184 119.224,-108.684 122.336,-65.5225"/>
<polygon fill="red" stroke="red" stroke-width="0.44449" points="125.838,-65.6282 123.066,-55.4023 118.856,-65.1247 125.838,-65.6282"/>
</g>
<!-- &#45;7 -->
<g id="node7" class="node"><title>&#45;7</title>
<polygon fill="lightgray" stroke="black" points="447,-310.04 423,-310.04 423,-292.04 447,-292.04 447,-310.04"/>
<text text-anchor="middle" x="435" y="-298.84" font-family="Times,serif" font-size="9.00">&#45;7</text>
</g>
<!-- &#45;8 -->
<g id="node8" class="node"><title>&#45;8</title>
<polygon fill="lightgray" stroke="black" points="555,-218.886 531,-218.886 531,-200.886 555,-200.886 555,-218.886"/>
<text text-anchor="middle" x="543" y="-207.686" font-family="Times,serif" font-size="9.00">&#45;8</text>
</g>
<!-- 52169 -->
<g id="node32" class="node"><title>52169</title>
<ellipse fill="white" stroke="black" cx="547" cy="-118.731" rx="27.6545" ry="27.6545"/>
<text text-anchor="middle" x="547" y="-116.531" font-family="Times,serif" font-size="9.00">52169</text>
</g>
<!-- &#45;8&#45;&gt;52169 -->
<g id="edge1" class="edge"><title>&#45;8&#45;&gt;52169</title>
<path fill="none" stroke="red" stroke-width="0.384759" d="M543.369,-200.658C543.82,-190.616 544.612,-172.957 545.342,-156.692"/>
<polygon fill="red" stroke="red" stroke-width="0.384759" points="548.856,-156.446 545.808,-146.3 541.863,-156.133 548.856,-156.446"/>
</g>
<!-- 52749 -->
<g id="node36" class="node"><title>52749</title>
<ellipse fill="white" stroke="black" cx="474" cy="-118.731" rx="27.6545" ry="27.6545"/>
<text text-anchor="middle" x="474" y="-116.531" font-family="Times,serif" font-size="9.00">52749</text>
</g>
<!-- &#45;8&#45;&gt;52749 -->
<g id="edge26" class="edge"><title>&#45;8&#45;&gt;52749</title>
<path fill="none" stroke="red" stroke-width="0.308535" d="M536.632,-200.658C527.606,-188.995 510.629,-167.06 496.625,-148.965"/>
<polygon fill="red" stroke="red" stroke-width="0.308535" points="499.328,-146.739 490.44,-140.973 493.792,-151.023 499.328,-146.739"/>
</g>
<!-- &#45;9 -->
<g id="node9" class="node"><title>&#45;9</title>
<polygon fill="lightgray" stroke="black" points="540,-310.04 516,-310.04 516,-292.04 540,-292.04 540,-310.04"/>
<text text-anchor="middle" x="528" y="-298.84" font-family="Times,serif" font-size="9.00">&#45;9</text>
</g>
<!-- &#45;10 -->
<g id="node10" class="node"><title>&#45;10</title>
<polygon fill="lightgray" stroke="black" points="260.5,-218.886 231.5,-218.886 231.5,-200.886 260.5,-200.886 260.5,-218.886"/>
<text text-anchor="middle" x="246" y="-207.686" font-family="Times,serif" font-size="9.00">&#45;10</text>
</g>
<!-- 2 -->
<g id="node27" class="node"><title>2</title>
<ellipse fill="lightblue" stroke="black" cx="332" cy="-118.731" rx="14.7" ry="14.7"/>
<text text-anchor="middle" x="332" y="-116.531" font-family="Times,serif" font-size="9.00">2</text>
</g>
<!-- &#45;10&#45;&gt;2 -->
<g id="edge3" class="edge"><title>&#45;10&#45;&gt;2</title>
<path fill="none" stroke="red" stroke-width="1.96808" d="M253.937,-200.658C267.751,-186.337 296.506,-156.527 314.996,-137.36"/>
<polygon fill="red" stroke="red" stroke-width="1.96808" points="317.564,-139.738 321.987,-130.111 312.526,-134.879 317.564,-139.738"/>
</g>
<!-- &#45;10&#45;&gt;3 -->
<g id="edge18" class="edge"><title>&#45;10&#45;&gt;3</title>
<path fill="none" stroke="red" stroke-width="0.855131" stroke-dasharray="1,5" d="M241.293,-200.658C233.573,-187.161 217.983,-159.908 207.035,-140.771"/>
<polygon fill="red" stroke="red" stroke-width="0.855131" points="209.948,-138.814 201.944,-131.871 203.872,-142.289 209.948,-138.814"/>
</g>
<!-- &#45;11 -->
<g id="node11" class="node"><title>&#45;11</title>
<polygon fill="lightgray" stroke="black" points="612.5,-310.04 583.5,-310.04 583.5,-292.04 612.5,-292.04 612.5,-310.04"/>
<text text-anchor="middle" x="598" y="-298.84" font-family="Times,serif" font-size="9.00">&#45;11</text>
</g>
<!-- &#45;12 -->
<g id="node12" class="node"><title>&#45;12</title>
<polygon fill="lightgray" stroke="black" points="672.5,-310.04 643.5,-310.04 643.5,-292.04 672.5,-292.04 672.5,-310.04"/>
<text text-anchor="middle" x="658" y="-298.84" font-family="Times,serif" font-size="9.00">&#45;12</text>
</g>
<!-- 51432 -->
<g id="node31" class="node"><title>51432</title>
<ellipse fill="white" stroke="black" cx="626" cy="-118.731" rx="27.6545" ry="27.6545"/>
<text text-anchor="middle" x="626" y="-116.531" font-family="Times,serif" font-size="9.00">51432</text>
</g>
<!-- &#45;12&#45;&gt;51432 -->
<g id="edge14" class="edge"><title>&#45;12&#45;&gt;51432</title>
<path fill="none" stroke="red" stroke-width="0.199062" d="M646.956,-291.768C633.587,-280.988 611.776,-260.742 603,-237.463 592.669,-210.059 600.628,-177.237 609.901,-153.218"/>
<polygon fill="red" stroke="red" stroke-width="0.199062" points="613.196,-154.408 613.764,-143.829 606.722,-151.745 613.196,-154.408"/>
</g>
<!-- 53788 -->
<g id="node40" class="node"><title>53788</title>
<ellipse fill="white" stroke="black" cx="733" cy="-209.886" rx="27.6545" ry="27.6545"/>
<text text-anchor="middle" x="733" y="-207.686" font-family="Times,serif" font-size="9.00">53788</text>
</g>
<!-- &#45;12&#45;&gt;53788 -->
<g id="edge11" class="edge"><title>&#45;12&#45;&gt;53788</title>
<path fill="none" stroke="green" stroke-width="0.367179" d="M664.921,-291.813C674.796,-280.075 693.423,-257.932 708.7,-239.772"/>
<polygon fill="green" stroke="green" stroke-width="0.367179" points="711.68,-241.666 715.44,-231.76 706.324,-237.16 711.68,-241.666"/>
</g>
<!-- &#45;13 -->
<g id="node13" class="node"><title>&#45;13</title>
<polygon fill="lightgray" stroke="black" points="346.5,-218.886 317.5,-218.886 317.5,-200.886 346.5,-200.886 346.5,-218.886"/>
<text text-anchor="middle" x="332" y="-207.686" font-family="Times,serif" font-size="9.00">&#45;13</text>
</g>
<!-- &#45;13&#45;&gt;2 -->
<g id="edge24" class="edge"><title>&#45;13&#45;&gt;2</title>
<path fill="none" stroke="red" stroke-width="0.813565" d="M332,-200.658C332,-187.902 332,-162.857 332,-143.99"/>
<polygon fill="red" stroke="red" stroke-width="0.813565" points="335.5,-143.735 332,-133.735 328.5,-143.735 335.5,-143.735"/>
</g>
<!-- &#45;14 -->
<g id="node14" class="node"><title>&#45;14</title>
<polygon fill="lightgray" stroke="black" points="393.5,-218.886 364.5,-218.886 364.5,-200.886 393.5,-200.886 393.5,-218.886"/>
<text text-anchor="middle" x="379" y="-207.686" font-family="Times,serif" font-size="9.00">&#45;14</text>
</g>
<!-- &#45;14&#45;&gt;2 -->
<g id="edge2" class="edge"><title>&#45;14&#45;&gt;2</title>
<path fill="none" stroke="red" stroke-width="0.319577" d="M374.663,-200.658C367.586,-187.235 353.337,-160.205 343.257,-141.085"/>
<polygon fill="red" stroke="red" stroke-width="0.319577" points="346.319,-139.389 338.56,-132.175 340.127,-142.653 346.319,-139.389"/>
</g>
<!-- 49647 -->
<g id="node37" class="node"><title>49647</title>
<ellipse fill="white" stroke="black" cx="332" cy="-27.5772" rx="27.6545" ry="27.6545"/>
<text text-anchor="middle" x="332" y="-25.3772" font-family="Times,serif" font-size="9.00">49647</text>
</g>
<!-- &#45;14&#45;&gt;49647 -->
<g id="edge5" class="edge"><title>&#45;14&#45;&gt;49647</title>
<path fill="none" stroke="red" stroke-width="0.271989" d="M377.911,-200.778C375.218,-181.515 367.609,-131.589 356,-91.1543 353.312,-81.7913 349.815,-71.8598 346.326,-62.733"/>
<polygon fill="red" stroke="red" stroke-width="0.271989" points="349.499,-61.236 342.582,-53.2102 342.984,-63.7974 349.499,-61.236"/>
</g>
<!-- &#45;15 -->
<g id="node15" class="node"><title>&#45;15</title>
<polygon fill="lightgray" stroke="black" points="719.5,-310.04 690.5,-310.04 690.5,-292.04 719.5,-292.04 719.5,-310.04"/>
<text text-anchor="middle" x="705" y="-298.84" font-family="Times,serif" font-size="9.00">&#45;15</text>
</g>
<!-- &#45;16 -->
<g id="node16" class="node"><title>&#45;16</title>
<polygon fill="lightgray" stroke="black" points="687.5,-218.886 658.5,-218.886 658.5,-200.886 687.5,-200.886 687.5,-218.886"/>
<text text-anchor="middle" x="673" y="-207.686" font-family="Times,serif" font-size="9.00">&#45;16</text>
</g>
<!-- 1 -->
<g id="node26" class="node"><title>1</title>
<ellipse fill="lightblue" stroke="black" cx="686" cy="-118.731" rx="14.7" ry="14.7"/>
<text text-anchor="middle" x="686" y="-116.531" font-family="Times,serif" font-size="9.00">1</text>
</g>
<!-- &#45;16&#45;&gt;1 -->
<g id="edge10" class="edge"><title>&#45;16&#45;&gt;1</title>
<path fill="none" stroke="red" stroke-width="5.16471" d="M674.2,-200.658C676.068,-187.842 679.746,-162.623 682.501,-143.726"/>
<polygon fill="red" stroke="red" stroke-width="5.16471" points="686.987,-144.283 683.958,-133.735 678.043,-142.979 686.987,-144.283"/>
</g>
<!-- &#45;16&#45;&gt;51432 -->
<g id="edge21" class="edge"><title>&#45;16&#45;&gt;51432</title>
<path fill="none" stroke="green" stroke-width="0.164631" d="M668.663,-200.658C662.949,-189.819 652.558,-170.109 643.462,-152.855"/>
<polygon fill="green" stroke="green" stroke-width="0.164631" points="646.339,-150.808 638.58,-143.594 640.147,-154.072 646.339,-150.808"/>
</g>
<!-- &#45;17 -->
<g id="node17" class="node"><title>&#45;17</title>
<polygon fill="lightgray" stroke="black" points="766.5,-310.04 737.5,-310.04 737.5,-292.04 766.5,-292.04 766.5,-310.04"/>
<text text-anchor="middle" x="752" y="-298.84" font-family="Times,serif" font-size="9.00">&#45;17</text>
</g>
<!-- &#45;18 -->
<g id="node18" class="node"><title>&#45;18</title>
<polygon fill="lightgray" stroke="black" points="813.5,-310.04 784.5,-310.04 784.5,-292.04 813.5,-292.04 813.5,-310.04"/>
<text text-anchor="middle" x="799" y="-298.84" font-family="Times,serif" font-size="9.00">&#45;18</text>
</g>
<!-- &#45;19 -->
<g id="node19" class="node"><title>&#45;19</title>
<polygon fill="lightgray" stroke="black" points="860.5,-310.04 831.5,-310.04 831.5,-292.04 860.5,-292.04 860.5,-310.04"/>
<text text-anchor="middle" x="846" y="-298.84" font-family="Times,serif" font-size="9.00">&#45;19</text>
</g>
<!-- &#45;20 -->
<g id="node20" class="node"><title>&#45;20</title>
<polygon fill="lightgray" stroke="black" points="907.5,-310.04 878.5,-310.04 878.5,-292.04 907.5,-292.04 907.5,-310.04"/>
<text text-anchor="middle" x="893" y="-298.84" font-family="Times,serif" font-size="9.00">&#45;20</text>
</g>
<!-- &#45;21 -->
<g id="node21" class="node"><title>&#45;21</title>
<polygon fill="lightgray" stroke="black" points="954.5,-310.04 925.5,-310.04 925.5,-292.04 954.5,-292.04 954.5,-310.04"/>
<text text-anchor="middle" x="940" y="-298.84" font-family="Times,serif" font-size="9.00">&#45;21</text>
</g>
<!-- &#45;22 -->
<g id="node22" class="node"><title>&#45;22</title>
<polygon fill="lightgray" stroke="black" points="807.5,-218.886 778.5,-218.886 778.5,-200.886 807.5,-200.886 807.5,-218.886"/>
<text text-anchor="middle" x="793" y="-207.686" font-family="Times,serif" font-size="9.00">&#45;22</text>
</g>
<!-- 49386 -->
<g id="node33" class="node"><title>49386</title>
<ellipse fill="white" stroke="black" cx="769" cy="-118.731" rx="27.6545" ry="27.6545"/>
<text text-anchor="middle" x="769" y="-116.531" font-family="Times,serif" font-size="9.00">49386</text>
</g>
<!-- &#45;22&#45;&gt;49386 -->
<g id="edge19" class="edge"><title>&#45;22&#45;&gt;49386</title>
<path fill="none" stroke="red" stroke-width="0.315849" d="M790.785,-200.658C788.018,-190.377 783.101,-172.114 778.639,-155.536"/>
<polygon fill="red" stroke="red" stroke-width="0.315849" points="781.921,-154.265 775.942,-145.519 775.162,-156.085 781.921,-154.265"/>
</g>
<!-- &#45;23 -->
<g id="node23" class="node"><title>&#45;23</title>
<polygon fill="lightgray" stroke="black" points="1001.5,-310.04 972.5,-310.04 972.5,-292.04 1001.5,-292.04 1001.5,-310.04"/>
<text text-anchor="middle" x="987" y="-298.84" font-family="Times,serif" font-size="9.00">&#45;23</text>
</g>
<!-- &#45;24 -->
<g id="node24" class="node"><title>&#45;24</title>
<polygon fill="lightgray" stroke="black" points="640.5,-218.886 611.5,-218.886 611.5,-200.886 640.5,-200.886 640.5,-218.886"/>
<text text-anchor="middle" x="626" y="-207.686" font-family="Times,serif" font-size="9.00">&#45;24</text>
</g>
<!-- &#45;24&#45;&gt;51432 -->
<g id="edge25" class="edge"><title>&#45;24&#45;&gt;51432</title>
<path fill="none" stroke="green" stroke-width="0.260945" d="M626,-200.658C626,-190.686 626,-173.205 626,-157.036"/>
<polygon fill="green" stroke="green" stroke-width="0.260945" points="629.5,-156.692 626,-146.692 622.5,-156.692 629.5,-156.692"/>
</g>
<!-- 0 -->
<g id="node25" class="node"><title>0</title>
<ellipse fill="lightblue" stroke="black" cx="147" cy="-118.731" rx="14.7" ry="14.7"/>
<text text-anchor="middle" x="147" y="-116.531" font-family="Times,serif" font-size="9.00">0</text>
</g>
<!-- 0&#45;&gt;45220 -->
<g id="edge8" class="edge"><title>0&#45;&gt;45220</title>
<path fill="none" stroke="green" stroke-width="0.129007" d="M143.659,-104.191C141.047,-93.6074 137.292,-78.3903 133.834,-64.3778"/>
<polygon fill="green" stroke="green" stroke-width="0.129007" points="137.184,-63.3412 131.39,-54.4709 130.387,-65.0183 137.184,-63.3412"/>
</g>
<!-- 2&#45;&gt;49647 -->
<g id="edge15" class="edge"><title>2&#45;&gt;49647</title>
<path fill="none" stroke="red" stroke-width="0.39187" d="M332,-103.801C332,-93.4982 332,-78.962 332,-65.4107"/>
<polygon fill="red" stroke="red" stroke-width="0.39187" points="335.5,-65.3264 332,-55.3264 328.5,-65.3264 335.5,-65.3264"/>
</g>
<!-- 3&#45;&gt;45220 -->
<g id="edge17" class="edge"><title>3&#45;&gt;45220</title>
<path fill="none" stroke="red" stroke-width="0.134891" d="M186.134,-106.44C176.673,-94.39 161.293,-74.8009 148.326,-58.2863"/>
<polygon fill="red" stroke="red" stroke-width="0.134891" points="150.738,-55.6907 141.81,-49.9868 145.233,-60.0136 150.738,-55.6907"/>
</g>
<!-- 49895 -->
<g id="node30" class="node"><title>49895</title>
<ellipse fill="white" stroke="black" cx="1047" cy="-301.04" rx="27.6545" ry="27.6545"/>
<text text-anchor="middle" x="1047" y="-298.84" font-family="Times,serif" font-size="9.00">49895</text>
</g>
<!-- 53706 -->
<g id="node35" class="node"><title>53706</title>
<ellipse fill="white" stroke="black" cx="478" cy="-209.886" rx="27.6545" ry="27.6545"/>
<text text-anchor="middle" x="478" y="-207.686" font-family="Times,serif" font-size="9.00">53706</text>
</g>
<!-- 53706&#45;&gt;52749 -->
<g id="edge7" class="edge"><title>53706&#45;&gt;52749</title>
<path fill="none" stroke="red" stroke-width="0.290864" d="M476.8,-182.137C476.44,-174.114 476.039,-165.17 475.655,-156.615"/>
<polygon fill="red" stroke="red" stroke-width="0.290864" points="479.144,-156.295 475.199,-146.462 472.151,-156.609 479.144,-156.295"/>
</g>
<!-- 45393 -->
<g id="node38" class="node"><title>45393</title>
<ellipse fill="white" stroke="black" cx="1120" cy="-301.04" rx="27.6545" ry="27.6545"/>
<text text-anchor="middle" x="1120" y="-298.84" font-family="Times,serif" font-size="9.00">45393</text>
</g>
<!-- 53107 -->
<g id="node39" class="node"><title>53107</title>
<ellipse fill="white" stroke="black" cx="186" cy="-209.886" rx="27.6545" ry="27.6545"/>
<text text-anchor="middle" x="186" y="-207.686" font-family="Times,serif" font-size="9.00">53107</text>
</g>
<!-- 53107&#45;&gt;3 -->
<g id="edge13" class="edge"><title>53107&#45;&gt;3</title>
<path fill="none" stroke="red" stroke-width="0.293303" d="M188.7,-182.137C189.937,-169.884 191.391,-155.481 192.59,-143.601"/>
<polygon fill="red" stroke="red" stroke-width="0.293303" points="196.085,-143.835 193.607,-133.534 189.12,-143.131 196.085,-143.835"/>
</g>
<!-- 53788&#45;&gt;51432 -->
<g id="edge22" class="edge"><title>53788&#45;&gt;51432</title>
<path fill="none" stroke="green" stroke-width="0.984147" d="M712.115,-191.484C695.766,-177.861 672.844,-158.763 654.76,-143.695"/>
<polygon fill="green" stroke="green" stroke-width="0.984147" points="656.755,-140.802 646.832,-137.089 652.274,-146.179 656.755,-140.802"/>
</g>
<!-- 53788&#45;&gt;49386 -->
<g id="edge20" class="edge"><title>53788&#45;&gt;49386</title>
<path fill="none" stroke="red" stroke-width="0.386101" d="M743.028,-184.051C746.78,-174.759 751.112,-164.031 755.149,-154.034"/>
<polygon fill="red" stroke="red" stroke-width="0.386101" points="758.402,-155.325 758.901,-144.742 751.911,-152.704 758.402,-155.325"/>
</g>
<!-- 49661 -->
<g id="node41" class="node"><title>49661</title>
<ellipse fill="white" stroke="black" cx="333" cy="-301.04" rx="27.6545" ry="27.6545"/>
<text text-anchor="middle" x="333" y="-298.84" font-family="Times,serif" font-size="9.00">49661</text>
</g>
<!-- 49661&#45;&gt;53706 -->
<g id="edge6" class="edge"><title>49661&#45;&gt;53706</title>
<path fill="none" stroke="green" stroke-width="0.100857" d="M356.391,-285.995C377.316,-273.391 408.793,-254.334 436,-237.463 439.369,-235.374 442.881,-233.179 446.377,-230.983"/>
<polygon fill="green" stroke="green" stroke-width="0.100857" points="448.348,-233.878 454.941,-225.583 444.615,-227.956 448.348,-233.878"/>
</g>
<!-- 49661&#45;&gt;52749 -->
<g id="edge27" class="edge"><title>49661&#45;&gt;52749</title>
<path fill="none" stroke="green" stroke-width="0.257809" stroke-dasharray="1,5" d="M354.394,-283.368C368.829,-271.495 387.768,-254.653 402,-237.463 423.948,-210.953 443.935,-177.125 457.251,-152.538"/>
<polygon fill="green" stroke="green" stroke-width="0.257809" points="460.399,-154.072 462.018,-143.602 454.223,-150.778 460.399,-154.072"/>
</g>
<!-- 49661&#45;&gt;49647 -->
<g id="edge16" class="edge"><title>49661&#45;&gt;49647</title>
<path fill="none" stroke="red" stroke-width="0.110397" d="M320.915,-276.025C315.844,-264.644 310.541,-250.675 308,-237.463 295.717,-173.608 296.159,-155.093 308,-91.1543 309.789,-81.4919 313.01,-71.3943 316.523,-62.2003"/>
<polygon fill="red" stroke="red" stroke-width="0.110397" points="319.884,-63.2242 320.396,-52.6417 313.397,-60.5957 319.884,-63.2242"/>
</g>
<!-- 49661&#45;&gt;53107 -->
<g id="edge4" class="edge"><title>49661&#45;&gt;53107</title>
<path fill="none" stroke="green" stroke-width="0.930613" d="M308.681,-287.441C285.85,-275.355 250.968,-256.221 222,-237.463 219.889,-236.096 217.736,-234.65 215.586,-233.166"/>
<polygon fill="green" stroke="green" stroke-width="0.930613" points="217.577,-230.287 207.398,-227.347 213.521,-235.993 217.577,-230.287"/>
</g>
</g>
</svg>
