<?xml version="1.0" encoding="UTF-8" standalone="no"?>
<!DOCTYPE svg PUBLIC "-//W3C//DTD SVG 1.1//EN"
 "http://www.w3.org/Graphics/SVG/1.1/DTD/svg11.dtd">
<!-- Generated by graphviz version 2.38.0 (20140413.2041)
 -->
<!-- Title: %3 Pages: 1 -->
<svg width="1148pt" height="311pt"
 viewBox="0.00 0.00 1147.58 311.16" xmlns="http://www.w3.org/2000/svg" xmlns:xlink="http://www.w3.org/1999/xlink">
<g id="graph0" class="graph" transform="scale(1 1) rotate(0) translate(4 307.161)">
<title>%3</title>
<polygon fill="white" stroke="none" points="-4,4 -4,-307.161 1143.58,-307.161 1143.58,4 -4,4"/>
<!-- &#45;1 -->
<g id="node1" class="node"><title>&#45;1</title>
<polygon fill="lightgray" stroke="black" points="24,-284.584 0,-284.584 0,-266.584 24,-266.584 24,-284.584"/>
<text text-anchor="middle" x="12" y="-273.384" font-family="Times,serif" font-size="9.00">&#45;1</text>
</g>
<!-- &#45;2 -->
<g id="node2" class="node"><title>&#45;2</title>
<polygon fill="lightgray" stroke="black" points="66,-284.584 42,-284.584 42,-266.584 66,-266.584 66,-284.584"/>
<text text-anchor="middle" x="54" y="-273.384" font-family="Times,serif" font-size="9.00">&#45;2</text>
</g>
<!-- &#45;3 -->
<g id="node3" class="node"><title>&#45;3</title>
<polygon fill="lightgray" stroke="black" points="108,-284.584 84,-284.584 84,-266.584 108,-266.584 108,-284.584"/>
<text text-anchor="middle" x="96" y="-273.384" font-family="Times,serif" font-size="9.00">&#45;3</text>
</g>
<!-- &#45;4 -->
<g id="node4" class="node"><title>&#45;4</title>
<polygon fill="lightgray" stroke="black" points="150,-284.584 126,-284.584 126,-266.584 150,-266.584 150,-284.584"/>
<text text-anchor="middle" x="138" y="-273.384" font-family="Times,serif" font-size="9.00">&#45;4</text>
</g>
<!-- &#45;5 -->
<g id="node5" class="node"><title>&#45;5</title>
<polygon fill="lightgray" stroke="black" points="192,-284.584 168,-284.584 168,-266.584 192,-266.584 192,-284.584"/>
<text text-anchor="middle" x="180" y="-273.384" font-family="Times,serif" font-size="9.00">&#45;5</text>
</g>
<!-- &#45;6 -->
<g id="node6" class="node"><title>&#45;6</title>
<polygon fill="lightgray" stroke="black" points="234,-284.584 210,-284.584 210,-266.584 234,-266.584 234,-284.584"/>
<text text-anchor="middle" x="222" y="-273.384" font-family="Times,serif" font-size="9.00">&#45;6</text>
</g>
<!-- 2 -->
<g id="node27" class="node"><title>2</title>
<ellipse fill="lightblue" stroke="black" cx="264" cy="-197.158" rx="14.7" ry="14.7"/>
<text text-anchor="middle" x="264" y="-194.958" font-family="Times,serif" font-size="9.00">2</text>
</g>
<!-- &#45;6&#45;&gt;2 -->
<g id="edge10" class="edge"><title>&#45;6&#45;&gt;2</title>
<path fill="none" stroke="green" stroke-width="0.637628" d="M226.495,-266.405C232.593,-255.308 243.709,-235.081 252.262,-219.518"/>
<polygon fill="green" stroke="green" stroke-width="0.637628" points="255.439,-221.003 257.188,-210.554 249.304,-217.632 255.439,-221.003"/>
</g>
<!-- &#45;7 -->
<g id="node7" class="node"><title>&#45;7</title>
<polygon fill="lightgray" stroke="black" points="366,-284.584 342,-284.584 342,-266.584 366,-266.584 366,-284.584"/>
<text text-anchor="middle" x="354" y="-273.384" font-family="Times,serif" font-size="9.00">&#45;7</text>
</g>
<!-- &#45;8 -->
<g id="node8" class="node"><title>&#45;8</title>
<polygon fill="lightgray" stroke="black" points="276,-284.584 252,-284.584 252,-266.584 276,-266.584 276,-284.584"/>
<text text-anchor="middle" x="264" y="-273.384" font-family="Times,serif" font-size="9.00">&#45;8</text>
</g>
<!-- &#45;8&#45;&gt;2 -->
<g id="edge1" class="edge"><title>&#45;8&#45;&gt;2</title>
<path fill="none" stroke="green" stroke-width="1.01668" d="M264,-266.405C264,-255.994 264,-237.547 264,-222.454"/>
<polygon fill="green" stroke="green" stroke-width="1.01668" points="267.5,-222.22 264,-212.22 260.5,-222.22 267.5,-222.22"/>
</g>
<!-- &#45;9 -->
<g id="node9" class="node"><title>&#45;9</title>
<polygon fill="lightgray" stroke="black" points="408,-284.584 384,-284.584 384,-266.584 408,-266.584 408,-284.584"/>
<text text-anchor="middle" x="396" y="-273.384" font-family="Times,serif" font-size="9.00">&#45;9</text>
</g>
<!-- &#45;10 -->
<g id="node10" class="node"><title>&#45;10</title>
<polygon fill="lightgray" stroke="black" points="323.5,-284.584 294.5,-284.584 294.5,-266.584 323.5,-266.584 323.5,-284.584"/>
<text text-anchor="middle" x="309" y="-273.384" font-family="Times,serif" font-size="9.00">&#45;10</text>
</g>
<!-- &#45;10&#45;&gt;2 -->
<g id="edge3" class="edge"><title>&#45;10&#45;&gt;2</title>
<path fill="none" stroke="red" stroke-width="0.930966" d="M304.184,-266.405C297.612,-255.244 285.603,-234.848 276.419,-219.25"/>
<polygon fill="red" stroke="red" stroke-width="0.930966" points="279.23,-217.125 271.14,-210.284 273.198,-220.677 279.23,-217.125"/>
</g>
<!-- &#45;11 -->
<g id="node11" class="node"><title>&#45;11</title>
<polygon fill="lightgray" stroke="black" points="455.5,-284.584 426.5,-284.584 426.5,-266.584 455.5,-266.584 455.5,-284.584"/>
<text text-anchor="middle" x="441" y="-273.384" font-family="Times,serif" font-size="9.00">&#45;11</text>
</g>
<!-- &#45;12 -->
<g id="node12" class="node"><title>&#45;12</title>
<polygon fill="lightgray" stroke="black" points="502.5,-284.584 473.5,-284.584 473.5,-266.584 502.5,-266.584 502.5,-284.584"/>
<text text-anchor="middle" x="488" y="-273.384" font-family="Times,serif" font-size="9.00">&#45;12</text>
</g>
<!-- 3 -->
<g id="node28" class="node"><title>3</title>
<ellipse fill="lightblue" stroke="black" cx="488" cy="-197.158" rx="14.7" ry="14.7"/>
<text text-anchor="middle" x="488" y="-194.958" font-family="Times,serif" font-size="9.00">3</text>
</g>
<!-- &#45;12&#45;&gt;3 -->
<g id="edge6" class="edge"><title>&#45;12&#45;&gt;3</title>
<path fill="none" stroke="red" stroke-width="0.179987" d="M488,-266.405C488,-255.994 488,-237.547 488,-222.454"/>
<polygon fill="red" stroke="red" stroke-width="0.179987" points="491.5,-222.22 488,-212.22 484.5,-222.22 491.5,-222.22"/>
</g>
<!-- &#45;13 -->
<g id="node13" class="node"><title>&#45;13</title>
<polygon fill="lightgray" stroke="black" points="596.5,-284.584 567.5,-284.584 567.5,-266.584 596.5,-266.584 596.5,-284.584"/>
<text text-anchor="middle" x="582" y="-273.384" font-family="Times,serif" font-size="9.00">&#45;13</text>
</g>
<!-- &#45;14 -->
<g id="node14" class="node"><title>&#45;14</title>
<polygon fill="lightgray" stroke="black" points="643.5,-284.584 614.5,-284.584 614.5,-266.584 643.5,-266.584 643.5,-284.584"/>
<text text-anchor="middle" x="629" y="-273.384" font-family="Times,serif" font-size="9.00">&#45;14</text>
</g>
<!-- &#45;15 -->
<g id="node15" class="node"><title>&#45;15</title>
<polygon fill="lightgray" stroke="black" points="690.5,-284.584 661.5,-284.584 661.5,-266.584 690.5,-266.584 690.5,-284.584"/>
<text text-anchor="middle" x="676" y="-273.384" font-family="Times,serif" font-size="9.00">&#45;15</text>
</g>
<!-- &#45;16 -->
<g id="node16" class="node"><title>&#45;16</title>
<polygon fill="lightgray" stroke="black" points="737.5,-284.584 708.5,-284.584 708.5,-266.584 737.5,-266.584 737.5,-284.584"/>
<text text-anchor="middle" x="723" y="-273.384" font-family="Times,serif" font-size="9.00">&#45;16</text>
</g>
<!-- &#45;17 -->
<g id="node17" class="node"><title>&#45;17</title>
<polygon fill="lightgray" stroke="black" points="784.5,-284.584 755.5,-284.584 755.5,-266.584 784.5,-266.584 784.5,-284.584"/>
<text text-anchor="middle" x="770" y="-273.384" font-family="Times,serif" font-size="9.00">&#45;17</text>
</g>
<!-- &#45;18 -->
<g id="node18" class="node"><title>&#45;18</title>
<polygon fill="lightgray" stroke="black" points="549.5,-284.584 520.5,-284.584 520.5,-266.584 549.5,-266.584 549.5,-284.584"/>
<text text-anchor="middle" x="535" y="-273.384" font-family="Times,serif" font-size="9.00">&#45;18</text>
</g>
<!-- 1 -->
<g id="node26" class="node"><title>1</title>
<ellipse fill="lightblue" stroke="black" cx="536" cy="-197.158" rx="14.7" ry="14.7"/>
<text text-anchor="middle" x="536" y="-194.958" font-family="Times,serif" font-size="9.00">1</text>
</g>
<!-- &#45;18&#45;&gt;1 -->
<g id="edge2" class="edge"><title>&#45;18&#45;&gt;1</title>
<path fill="none" stroke="red" stroke-width="0.645586" d="M535.107,-266.405C535.243,-255.994 535.485,-237.547 535.682,-222.454"/>
<polygon fill="red" stroke="red" stroke-width="0.645586" points="539.185,-222.265 535.816,-212.22 532.185,-222.174 539.185,-222.265"/>
</g>
<!-- &#45;18&#45;&gt;3 -->
<g id="edge7" class="edge"><title>&#45;18&#45;&gt;3</title>
<path fill="none" stroke="red" stroke-width="0.314709" d="M529.97,-266.405C523.042,-255.139 510.326,-234.463 500.701,-218.81"/>
<polygon fill="red" stroke="red" stroke-width="0.314709" points="503.677,-216.968 495.457,-210.284 497.714,-220.635 503.677,-216.968"/>
</g>
<!-- &#45;19 -->
<g id="node19" class="node"><title>&#45;19</title>
<polygon fill="lightgray" stroke="black" points="831.5,-284.584 802.5,-284.584 802.5,-266.584 831.5,-266.584 831.5,-284.584"/>
<text text-anchor="middle" x="817" y="-273.384" font-family="Times,serif" font-size="9.00">&#45;19</text>
</g>
<!-- &#45;20 -->
<g id="node20" class="node"><title>&#45;20</title>
<polygon fill="lightgray" stroke="black" points="878.5,-284.584 849.5,-284.584 849.5,-266.584 878.5,-266.584 878.5,-284.584"/>
<text text-anchor="middle" x="864" y="-273.384" font-family="Times,serif" font-size="9.00">&#45;20</text>
</g>
<!-- &#45;21 -->
<g id="node21" class="node"><title>&#45;21</title>
<polygon fill="lightgray" stroke="black" points="925.5,-284.584 896.5,-284.584 896.5,-266.584 925.5,-266.584 925.5,-284.584"/>
<text text-anchor="middle" x="911" y="-273.384" font-family="Times,serif" font-size="9.00">&#45;21</text>
</g>
<!-- &#45;22 -->
<g id="node22" class="node"><title>&#45;22</title>
<polygon fill="lightgray" stroke="black" points="972.5,-284.584 943.5,-284.584 943.5,-266.584 972.5,-266.584 972.5,-284.584"/>
<text text-anchor="middle" x="958" y="-273.384" font-family="Times,serif" font-size="9.00">&#45;22</text>
</g>
<!-- &#45;23 -->
<g id="node23" class="node"><title>&#45;23</title>
<polygon fill="lightgray" stroke="black" points="1019.5,-284.584 990.5,-284.584 990.5,-266.584 1019.5,-266.584 1019.5,-284.584"/>
<text text-anchor="middle" x="1005" y="-273.384" font-family="Times,serif" font-size="9.00">&#45;23</text>
</g>
<!-- &#45;24 -->
<g id="node24" class="node"><title>&#45;24</title>
<polygon fill="lightgray" stroke="black" points="1066.5,-284.584 1037.5,-284.584 1037.5,-266.584 1066.5,-266.584 1066.5,-284.584"/>
<text text-anchor="middle" x="1052" y="-273.384" font-family="Times,serif" font-size="9.00">&#45;24</text>
</g>
<!-- 0 -->
<g id="node25" class="node"><title>0</title>
<ellipse fill="lightblue" stroke="black" cx="1090" cy="-197.158" rx="14.7" ry="14.7"/>
<text text-anchor="middle" x="1090" y="-194.958" font-family="Times,serif" font-size="9.00">0</text>
</g>
<!-- 21717 -->
<g id="node31" class="node"><title>21717</title>
<ellipse fill="white" stroke="black" cx="1084" cy="-118.731" rx="27.6545" ry="27.6545"/>
<text text-anchor="middle" x="1084" y="-116.531" font-family="Times,serif" font-size="9.00">21717</text>
</g>
<!-- 0&#45;&gt;21717 -->
<g id="edge4" class="edge"><title>0&#45;&gt;21717</title>
<path fill="none" stroke="red" stroke-width="0.242493" d="M1088.9,-182.14C1088.33,-174.876 1087.6,-165.631 1086.89,-156.496"/>
<polygon fill="red" stroke="red" stroke-width="0.242493" points="1090.36,-156.036 1086.09,-146.341 1083.38,-156.584 1090.36,-156.036"/>
</g>
<!-- 20930 -->
<g id="node29" class="node"><title>20930</title>
<ellipse fill="white" stroke="black" cx="1112" cy="-27.5772" rx="27.6545" ry="27.6545"/>
<text text-anchor="middle" x="1112" y="-25.3772" font-family="Times,serif" font-size="9.00">20930</text>
</g>
<!-- 21455 -->
<g id="node30" class="node"><title>21455</title>
<ellipse fill="white" stroke="black" cx="1112" cy="-275.584" rx="27.6545" ry="27.6545"/>
<text text-anchor="middle" x="1112" y="-273.384" font-family="Times,serif" font-size="9.00">21455</text>
</g>
<!-- 21455&#45;&gt;0 -->
<g id="edge8" class="edge"><title>21455&#45;&gt;0</title>
<path fill="none" stroke="green" stroke-width="0.178065" d="M1104.55,-248.71C1102,-239.843 1099.16,-229.984 1096.67,-221.344"/>
<polygon fill="green" stroke="green" stroke-width="0.178065" points="1099.99,-220.199 1093.86,-211.558 1093.26,-222.136 1099.99,-220.199"/>
</g>
<!-- 21455&#45;&gt;20930 -->
<g id="edge5" class="edge"><title>21455&#45;&gt;20930</title>
<path fill="none" stroke="green" stroke-width="0.463128" stroke-dasharray="1,5" d="M1115.29,-248.135C1119.28,-212.463 1124.99,-146.968 1121,-91.1543 1120.39,-82.6706 1119.33,-73.589 1118.14,-65.0489"/>
<polygon fill="green" stroke="green" stroke-width="0.463128" points="1121.58,-64.3573 1116.65,-54.9771 1114.65,-65.3816 1121.58,-64.3573"/>
</g>
<!-- 21717&#45;&gt;20930 -->
<g id="edge9" class="edge"><title>21717&#45;&gt;20930</title>
<path fill="none" stroke="red" stroke-width="0.132364" d="M1092.1,-91.9444C1094.88,-83.0893 1098.04,-73.0233 1101.01,-63.5625"/>
<polygon fill="red" stroke="red" stroke-width="0.132364" points="1104.36,-64.5877 1104.02,-53.9985 1097.68,-62.4903 1104.36,-64.5877"/>
</g>
</g>
</svg>
