<?xml version="1.0" encoding="UTF-8" standalone="no"?>
<!DOCTYPE svg PUBLIC "-//W3C//DTD SVG 1.1//EN"
 "http://www.w3.org/Graphics/SVG/1.1/DTD/svg11.dtd">
<!-- Generated by graphviz version 2.38.0 (20140413.2041)
 -->
<!-- Title: %3 Pages: 1 -->
<svg width="1046pt" height="701pt"
 viewBox="0.00 0.00 1046.08 701.23" xmlns="http://www.w3.org/2000/svg" xmlns:xlink="http://www.w3.org/1999/xlink">
<g id="graph0" class="graph" transform="scale(1 1) rotate(0) translate(4 697.235)">
<title>%3</title>
<polygon fill="white" stroke="none" points="-4,4 -4,-697.235 1042.08,-697.235 1042.08,4 -4,4"/>
<!-- &#45;1 -->
<g id="node1" class="node"><title>&#45;1</title>
<polygon fill="lightgray" stroke="black" points="146.577,-674.657 122.577,-674.657 122.577,-656.657 146.577,-656.657 146.577,-674.657"/>
<text text-anchor="middle" x="134.577" y="-663.457" font-family="Times,serif" font-size="9.00">&#45;1</text>
</g>
<!-- &#45;2 -->
<g id="node2" class="node"><title>&#45;2</title>
<polygon fill="lightgray" stroke="black" points="243.577,-127.731 219.577,-127.731 219.577,-109.731 243.577,-109.731 243.577,-127.731"/>
<text text-anchor="middle" x="231.577" y="-116.531" font-family="Times,serif" font-size="9.00">&#45;2</text>
</g>
<!-- 49131 -->
<g id="node43" class="node"><title>49131</title>
<ellipse fill="white" stroke="black" cx="231.577" cy="-27.5772" rx="27.6545" ry="27.6545"/>
<text text-anchor="middle" x="231.577" y="-25.3772" font-family="Times,serif" font-size="9.00">49131</text>
</g>
<!-- &#45;2&#45;&gt;49131 -->
<g id="edge21" class="edge"><title>&#45;2&#45;&gt;49131</title>
<path fill="none" stroke="green" stroke-width="0.42124" d="M231.577,-109.504C231.577,-99.5319 231.577,-82.051 231.577,-65.8819"/>
<polygon fill="green" stroke="green" stroke-width="0.42124" points="235.077,-65.538 231.577,-55.5381 228.077,-65.5381 235.077,-65.538"/>
</g>
<!-- &#45;3 -->
<g id="node3" class="node"><title>&#45;3</title>
<polygon fill="lightgray" stroke="black" points="425.577,-583.503 401.577,-583.503 401.577,-565.503 425.577,-565.503 425.577,-583.503"/>
<text text-anchor="middle" x="413.577" y="-572.303" font-family="Times,serif" font-size="9.00">&#45;3</text>
</g>
<!-- 43013 -->
<g id="node30" class="node"><title>43013</title>
<ellipse fill="white" stroke="black" cx="274.577" cy="-483.349" rx="27.6545" ry="27.6545"/>
<text text-anchor="middle" x="274.577" y="-481.149" font-family="Times,serif" font-size="9.00">43013</text>
</g>
<!-- &#45;3&#45;&gt;43013 -->
<g id="edge35" class="edge"><title>&#45;3&#45;&gt;43013</title>
<path fill="none" stroke="green" stroke-width="0.184868" d="M408.445,-565.325C404.589,-559.652 398.901,-552.197 392.577,-546.926 367.574,-526.086 334.514,-509.286 309.75,-498.361"/>
<polygon fill="green" stroke="green" stroke-width="0.184868" points="310.934,-495.061 300.364,-494.325 308.168,-501.491 310.934,-495.061"/>
</g>
<!-- &#45;4 -->
<g id="node4" class="node"><title>&#45;4</title>
<polygon fill="lightgray" stroke="black" points="612.577,-674.657 588.577,-674.657 588.577,-656.657 612.577,-656.657 612.577,-674.657"/>
<text text-anchor="middle" x="600.577" y="-663.457" font-family="Times,serif" font-size="9.00">&#45;4</text>
</g>
<!-- &#45;5 -->
<g id="node5" class="node"><title>&#45;5</title>
<polygon fill="lightgray" stroke="black" points="570.577,-674.657 546.577,-674.657 546.577,-656.657 570.577,-656.657 570.577,-674.657"/>
<text text-anchor="middle" x="558.577" y="-663.457" font-family="Times,serif" font-size="9.00">&#45;5</text>
</g>
<!-- 50025 -->
<g id="node41" class="node"><title>50025</title>
<ellipse fill="white" stroke="black" cx="544.577" cy="-574.503" rx="27.6545" ry="27.6545"/>
<text text-anchor="middle" x="544.577" y="-572.303" font-family="Times,serif" font-size="9.00">50025</text>
</g>
<!-- &#45;5&#45;&gt;50025 -->
<g id="edge15" class="edge"><title>&#45;5&#45;&gt;50025</title>
<path fill="none" stroke="green" stroke-width="0.359791" d="M557.285,-656.43C555.693,-646.292 552.882,-628.392 550.308,-612"/>
<polygon fill="green" stroke="green" stroke-width="0.359791" points="553.758,-611.407 548.749,-602.071 546.843,-612.493 553.758,-611.407"/>
</g>
<!-- &#45;6 -->
<g id="node6" class="node"><title>&#45;6</title>
<polygon fill="lightgray" stroke="black" points="412.577,-674.657 388.577,-674.657 388.577,-656.657 412.577,-656.657 412.577,-674.657"/>
<text text-anchor="middle" x="400.577" y="-663.457" font-family="Times,serif" font-size="9.00">&#45;6</text>
</g>
<!-- 3 -->
<g id="node28" class="node"><title>3</title>
<ellipse fill="lightblue" stroke="black" cx="458.577" cy="-574.503" rx="14.7" ry="14.7"/>
<text text-anchor="middle" x="458.577" y="-572.303" font-family="Times,serif" font-size="9.00">3</text>
</g>
<!-- &#45;6&#45;&gt;3 -->
<g id="edge6" class="edge"><title>&#45;6&#45;&gt;3</title>
<path fill="none" stroke="green" stroke-width="0.126451" d="M405.93,-656.43C414.799,-642.797 432.797,-615.13 445.264,-595.967"/>
<polygon fill="green" stroke="green" stroke-width="0.126451" points="448.356,-597.633 450.875,-587.342 442.488,-593.816 448.356,-597.633"/>
</g>
<!-- 45393 -->
<g id="node38" class="node"><title>45393</title>
<ellipse fill="white" stroke="black" cx="355.577" cy="-574.503" rx="27.6545" ry="27.6545"/>
<text text-anchor="middle" x="355.577" y="-572.303" font-family="Times,serif" font-size="9.00">45393</text>
</g>
<!-- &#45;6&#45;&gt;45393 -->
<g id="edge32" class="edge"><title>&#45;6&#45;&gt;45393</title>
<path fill="none" stroke="green" stroke-width="0.107429" stroke-dasharray="1,5" d="M396.424,-656.43C390.954,-645.591 381.005,-625.881 372.296,-608.627"/>
<polygon fill="green" stroke="green" stroke-width="0.107429" points="375.252,-606.716 367.622,-599.366 369.003,-609.87 375.252,-606.716"/>
</g>
<!-- &#45;7 -->
<g id="node7" class="node"><title>&#45;7</title>
<polygon fill="lightgray" stroke="black" points="654.577,-674.657 630.577,-674.657 630.577,-656.657 654.577,-656.657 654.577,-674.657"/>
<text text-anchor="middle" x="642.577" y="-663.457" font-family="Times,serif" font-size="9.00">&#45;7</text>
</g>
<!-- &#45;8 -->
<g id="node8" class="node"><title>&#45;8</title>
<polygon fill="lightgray" stroke="black" points="113.577,-492.349 89.5772,-492.349 89.5772,-474.349 113.577,-474.349 113.577,-492.349"/>
<text text-anchor="middle" x="101.577" y="-481.149" font-family="Times,serif" font-size="9.00">&#45;8</text>
</g>
<!-- 50695 -->
<g id="node32" class="node"><title>50695</title>
<ellipse fill="white" stroke="black" cx="27.5772" cy="-392.194" rx="27.6545" ry="27.6545"/>
<text text-anchor="middle" x="27.5772" y="-389.994" font-family="Times,serif" font-size="9.00">50695</text>
</g>
<!-- &#45;8&#45;&gt;50695 -->
<g id="edge27" class="edge"><title>&#45;8&#45;&gt;50695</title>
<path fill="none" stroke="red" stroke-width="0.124744" d="M94.7481,-474.121C85.0053,-462.383 66.6267,-440.241 51.5535,-422.081"/>
<polygon fill="red" stroke="red" stroke-width="0.124744" points="53.9835,-419.528 44.9035,-414.069 48.5972,-423.999 53.9835,-419.528"/>
</g>
<!-- 49647 -->
<g id="node45" class="node"><title>49647</title>
<ellipse fill="white" stroke="black" cx="261.577" cy="-209.886" rx="27.6545" ry="27.6545"/>
<text text-anchor="middle" x="261.577" y="-207.686" font-family="Times,serif" font-size="9.00">49647</text>
</g>
<!-- &#45;8&#45;&gt;49647 -->
<g id="edge8" class="edge"><title>&#45;8&#45;&gt;49647</title>
<path fill="none" stroke="red" stroke-width="0.129296" stroke-dasharray="1,5" d="M104.093,-474.333C110.364,-454.854 127.766,-403.759 149.577,-364.617 175.436,-318.212 213.024,-269.421 237.388,-239.568"/>
<polygon fill="red" stroke="red" stroke-width="0.129296" points="240.237,-241.614 243.889,-231.668 234.832,-237.166 240.237,-241.614"/>
</g>
<!-- &#45;9 -->
<g id="node9" class="node"><title>&#45;9</title>
<polygon fill="lightgray" stroke="black" points="528.577,-674.657 504.577,-674.657 504.577,-656.657 528.577,-656.657 528.577,-674.657"/>
<text text-anchor="middle" x="516.577" y="-663.457" font-family="Times,serif" font-size="9.00">&#45;9</text>
</g>
<!-- 48006 -->
<g id="node31" class="node"><title>48006</title>
<ellipse fill="white" stroke="black" cx="351.577" cy="-301.04" rx="27.6545" ry="27.6545"/>
<text text-anchor="middle" x="351.577" y="-298.84" font-family="Times,serif" font-size="9.00">48006</text>
</g>
<!-- &#45;9&#45;&gt;48006 -->
<g id="edge14" class="edge"><title>&#45;9&#45;&gt;48006</title>
<path fill="none" stroke="red" stroke-width="0.119973" d="M522.398,-656.372C526.394,-650.928 531.97,-643.783 537.577,-638.08 555.291,-620.062 570.757,-624.913 581.577,-602.08 627.441,-505.297 619.881,-436.599 540.577,-364.617 488.851,-317.667 450.972,-357.962 387.577,-328.617 385.295,-327.561 383.014,-326.346 380.771,-325.031"/>
<polygon fill="red" stroke="red" stroke-width="0.119973" points="382.673,-322.093 372.381,-319.577 378.858,-327.962 382.673,-322.093"/>
</g>
<!-- &#45;9&#45;&gt;45393 -->
<g id="edge28" class="edge"><title>&#45;9&#45;&gt;45393</title>
<path fill="none" stroke="green" stroke-width="0.267111" d="M511.839,-656.423C508.095,-650.574 502.378,-642.927 495.577,-638.08 456.086,-609.937 435.6,-624.455 392.577,-602.08 390.244,-600.867 387.893,-599.52 385.568,-598.096"/>
<polygon fill="green" stroke="green" stroke-width="0.267111" points="387.097,-594.912 376.821,-592.331 383.244,-600.756 387.097,-594.912"/>
</g>
<!-- &#45;10 -->
<g id="node10" class="node"><title>&#45;10</title>
<polygon fill="lightgray" stroke="black" points="702.077,-674.657 673.077,-674.657 673.077,-656.657 702.077,-656.657 702.077,-674.657"/>
<text text-anchor="middle" x="687.577" y="-663.457" font-family="Times,serif" font-size="9.00">&#45;10</text>
</g>
<!-- 2 -->
<g id="node27" class="node"><title>2</title>
<ellipse fill="lightblue" stroke="black" cx="740.577" cy="-574.503" rx="14.7" ry="14.7"/>
<text text-anchor="middle" x="740.577" y="-572.303" font-family="Times,serif" font-size="9.00">2</text>
</g>
<!-- &#45;10&#45;&gt;2 -->
<g id="edge2" class="edge"><title>&#45;10&#45;&gt;2</title>
<path fill="none" stroke="red" stroke-width="1.83782" d="M692.468,-656.43C700.529,-642.871 716.841,-615.431 728.225,-596.281"/>
<polygon fill="red" stroke="red" stroke-width="1.83782" points="731.259,-598.027 733.36,-587.643 725.242,-594.45 731.259,-598.027"/>
</g>
<!-- 45220 -->
<g id="node35" class="node"><title>45220</title>
<ellipse fill="white" stroke="black" cx="680.577" cy="-574.503" rx="27.6545" ry="27.6545"/>
<text text-anchor="middle" x="680.577" y="-572.303" font-family="Times,serif" font-size="9.00">45220</text>
</g>
<!-- &#45;10&#45;&gt;45220 -->
<g id="edge10" class="edge"><title>&#45;10&#45;&gt;45220</title>
<path fill="none" stroke="green" stroke-width="0.164113" d="M686.931,-656.43C686.143,-646.387 684.756,-628.729 683.479,-612.464"/>
<polygon fill="green" stroke="green" stroke-width="0.164113" points="686.935,-611.767 682.663,-602.071 679.957,-612.315 686.935,-611.767"/>
</g>
<!-- &#45;11 -->
<g id="node11" class="node"><title>&#45;11</title>
<polygon fill="lightgray" stroke="black" points="194.077,-674.657 165.077,-674.657 165.077,-656.657 194.077,-656.657 194.077,-674.657"/>
<text text-anchor="middle" x="179.577" y="-663.457" font-family="Times,serif" font-size="9.00">&#45;11</text>
</g>
<!-- 49536 -->
<g id="node29" class="node"><title>49536</title>
<ellipse fill="white" stroke="black" cx="123.577" cy="-574.503" rx="27.6545" ry="27.6545"/>
<text text-anchor="middle" x="123.577" y="-572.303" font-family="Times,serif" font-size="9.00">49536</text>
</g>
<!-- &#45;11&#45;&gt;49536 -->
<g id="edge18" class="edge"><title>&#45;11&#45;&gt;49536</title>
<path fill="none" stroke="red" stroke-width="0.743892" stroke-dasharray="1,5" d="M174.409,-656.43C167.4,-645.27 154.483,-624.707 143.425,-607.102"/>
<polygon fill="red" stroke="red" stroke-width="0.743892" points="146.136,-604.838 137.853,-598.231 140.208,-608.561 146.136,-604.838"/>
</g>
<!-- 42819 -->
<g id="node37" class="node"><title>42819</title>
<ellipse fill="white" stroke="black" cx="186.577" cy="-392.194" rx="27.6545" ry="27.6545"/>
<text text-anchor="middle" x="186.577" y="-389.994" font-family="Times,serif" font-size="9.00">42819</text>
</g>
<!-- &#45;11&#45;&gt;42819 -->
<g id="edge9" class="edge"><title>&#45;11&#45;&gt;42819</title>
<path fill="none" stroke="green" stroke-width="0.458246" d="M179.787,-656.533C180.651,-623.023 183.97,-494.289 185.626,-430.069"/>
<polygon fill="green" stroke="green" stroke-width="0.458246" points="189.128,-430.058 185.887,-419.971 182.13,-429.878 189.128,-430.058"/>
</g>
<!-- &#45;11&#45;&gt;45393 -->
<g id="edge13" class="edge"><title>&#45;11&#45;&gt;45393</title>
<path fill="none" stroke="green" stroke-width="0.651951" d="M194.395,-659.253C220.519,-649.461 276.116,-627.437 319.577,-602.08 321.75,-600.813 323.948,-599.441 326.132,-598.011"/>
<polygon fill="green" stroke="green" stroke-width="0.651951" points="328.15,-600.871 334.391,-592.309 324.174,-595.11 328.15,-600.871"/>
</g>
<!-- &#45;12 -->
<g id="node12" class="node"><title>&#45;12</title>
<polygon fill="lightgray" stroke="black" points="850.077,-674.657 821.077,-674.657 821.077,-656.657 850.077,-656.657 850.077,-674.657"/>
<text text-anchor="middle" x="835.577" y="-663.457" font-family="Times,serif" font-size="9.00">&#45;12</text>
</g>
<!-- &#45;13 -->
<g id="node13" class="node"><title>&#45;13</title>
<polygon fill="lightgray" stroke="black" points="383.077,-492.349 354.077,-492.349 354.077,-474.349 383.077,-474.349 383.077,-492.349"/>
<text text-anchor="middle" x="368.577" y="-481.149" font-family="Times,serif" font-size="9.00">&#45;13</text>
</g>
<!-- 50042 -->
<g id="node46" class="node"><title>50042</title>
<ellipse fill="white" stroke="black" cx="332.577" cy="-392.194" rx="27.6545" ry="27.6545"/>
<text text-anchor="middle" x="332.577" y="-389.994" font-family="Times,serif" font-size="9.00">50042</text>
</g>
<!-- &#45;13&#45;&gt;50042 -->
<g id="edge24" class="edge"><title>&#45;13&#45;&gt;50042</title>
<path fill="none" stroke="green" stroke-width="0.134152" d="M365.255,-474.121C361.006,-463.599 353.381,-444.716 346.565,-427.836"/>
<polygon fill="green" stroke="green" stroke-width="0.134152" points="349.667,-426.169 342.677,-418.207 343.176,-428.79 349.667,-426.169"/>
</g>
<!-- 48127 -->
<g id="node49" class="node"><title>48127</title>
<ellipse fill="white" stroke="black" cx="405.577" cy="-392.194" rx="27.6545" ry="27.6545"/>
<text text-anchor="middle" x="405.577" y="-389.994" font-family="Times,serif" font-size="9.00">48127</text>
</g>
<!-- &#45;13&#45;&gt;48127 -->
<g id="edge36" class="edge"><title>&#45;13&#45;&gt;48127</title>
<path fill="none" stroke="red" stroke-width="0.450277" d="M371.992,-474.121C376.388,-463.527 384.303,-444.457 391.344,-427.489"/>
<polygon fill="red" stroke="red" stroke-width="0.450277" points="394.756,-428.4 395.357,-417.822 388.291,-425.716 394.756,-428.4"/>
</g>
<!-- &#45;14 -->
<g id="node14" class="node"><title>&#45;14</title>
<polygon fill="lightgray" stroke="black" points="756.077,-674.657 727.077,-674.657 727.077,-656.657 756.077,-656.657 756.077,-674.657"/>
<text text-anchor="middle" x="741.577" y="-663.457" font-family="Times,serif" font-size="9.00">&#45;14</text>
</g>
<!-- 1 -->
<g id="node26" class="node"><title>1</title>
<ellipse fill="lightblue" stroke="black" cx="788.577" cy="-574.503" rx="14.7" ry="14.7"/>
<text text-anchor="middle" x="788.577" y="-572.303" font-family="Times,serif" font-size="9.00">1</text>
</g>
<!-- &#45;14&#45;&gt;1 -->
<g id="edge45" class="edge"><title>&#45;14&#45;&gt;1</title>
<path fill="none" stroke="red" stroke-width="0.491269" d="M745.915,-656.43C752.991,-643.007 767.24,-615.977 777.32,-596.857"/>
<polygon fill="red" stroke="red" stroke-width="0.491269" points="780.45,-598.425 782.017,-587.947 774.258,-595.16 780.45,-598.425"/>
</g>
<!-- &#45;14&#45;&gt;2 -->
<g id="edge3" class="edge"><title>&#45;14&#45;&gt;2</title>
<path fill="none" stroke="red" stroke-width="1.54198" d="M741.485,-656.43C741.342,-643.673 741.061,-618.629 740.849,-599.762"/>
<polygon fill="red" stroke="red" stroke-width="1.54198" points="744.346,-599.467 740.734,-589.507 737.347,-599.546 744.346,-599.467"/>
</g>
<!-- &#45;15 -->
<g id="node15" class="node"><title>&#45;15</title>
<polygon fill="lightgray" stroke="black" points="297.077,-674.657 268.077,-674.657 268.077,-656.657 297.077,-656.657 297.077,-674.657"/>
<text text-anchor="middle" x="282.577" y="-663.457" font-family="Times,serif" font-size="9.00">&#45;15</text>
</g>
<!-- 51595 -->
<g id="node34" class="node"><title>51595</title>
<ellipse fill="white" stroke="black" cx="282.577" cy="-574.503" rx="27.6545" ry="27.6545"/>
<text text-anchor="middle" x="282.577" y="-572.303" font-family="Times,serif" font-size="9.00">51595</text>
</g>
<!-- &#45;15&#45;&gt;51595 -->
<g id="edge5" class="edge"><title>&#45;15&#45;&gt;51595</title>
<path fill="none" stroke="green" stroke-width="0.33916" d="M282.577,-656.43C282.577,-646.458 282.577,-628.977 282.577,-612.808"/>
<polygon fill="green" stroke="green" stroke-width="0.33916" points="286.077,-612.464 282.577,-602.464 279.077,-612.464 286.077,-612.464"/>
</g>
<!-- &#45;16 -->
<g id="node16" class="node"><title>&#45;16</title>
<polygon fill="lightgray" stroke="black" points="803.077,-674.657 774.077,-674.657 774.077,-656.657 803.077,-656.657 803.077,-674.657"/>
<text text-anchor="middle" x="788.577" y="-663.457" font-family="Times,serif" font-size="9.00">&#45;16</text>
</g>
<!-- &#45;16&#45;&gt;1 -->
<g id="edge30" class="edge"><title>&#45;16&#45;&gt;1</title>
<path fill="none" stroke="red" stroke-width="3.21636" d="M788.577,-656.43C788.577,-643.673 788.577,-618.629 788.577,-599.762"/>
<polygon fill="red" stroke="red" stroke-width="3.21636" points="792.077,-599.507 788.577,-589.507 785.077,-599.507 792.077,-599.507"/>
</g>
<!-- &#45;17 -->
<g id="node17" class="node"><title>&#45;17</title>
<polygon fill="lightgray" stroke="black" points="370.077,-674.657 341.077,-674.657 341.077,-656.657 370.077,-656.657 370.077,-674.657"/>
<text text-anchor="middle" x="355.577" y="-663.457" font-family="Times,serif" font-size="9.00">&#45;17</text>
</g>
<!-- &#45;17&#45;&gt;45393 -->
<g id="edge46" class="edge"><title>&#45;17&#45;&gt;45393</title>
<path fill="none" stroke="red" stroke-width="0.212863" d="M355.577,-656.43C355.577,-646.458 355.577,-628.977 355.577,-612.808"/>
<polygon fill="red" stroke="red" stroke-width="0.212863" points="359.077,-612.464 355.577,-602.464 352.077,-612.464 359.077,-612.464"/>
</g>
<!-- &#45;18 -->
<g id="node18" class="node"><title>&#45;18</title>
<polygon fill="lightgray" stroke="black" points="897.077,-674.657 868.077,-674.657 868.077,-656.657 897.077,-656.657 897.077,-674.657"/>
<text text-anchor="middle" x="882.577" y="-663.457" font-family="Times,serif" font-size="9.00">&#45;18</text>
</g>
<!-- &#45;19 -->
<g id="node19" class="node"><title>&#45;19</title>
<polygon fill="lightgray" stroke="black" points="237.077,-583.503 208.077,-583.503 208.077,-565.503 237.077,-565.503 237.077,-583.503"/>
<text text-anchor="middle" x="222.577" y="-572.303" font-family="Times,serif" font-size="9.00">&#45;19</text>
</g>
<!-- &#45;19&#45;&gt;43013 -->
<g id="edge29" class="edge"><title>&#45;19&#45;&gt;43013</title>
<path fill="none" stroke="green" stroke-width="0.212983" d="M227.376,-565.276C233.842,-554.19 245.721,-533.823 255.944,-516.296"/>
<polygon fill="green" stroke="green" stroke-width="0.212983" points="259.086,-517.855 261.101,-507.453 253.04,-514.328 259.086,-517.855"/>
</g>
<!-- &#45;20 -->
<g id="node20" class="node"><title>&#45;20</title>
<polygon fill="lightgray" stroke="black" points="944.077,-674.657 915.077,-674.657 915.077,-656.657 944.077,-656.657 944.077,-674.657"/>
<text text-anchor="middle" x="929.577" y="-663.457" font-family="Times,serif" font-size="9.00">&#45;20</text>
</g>
<!-- &#45;21 -->
<g id="node21" class="node"><title>&#45;21</title>
<polygon fill="lightgray" stroke="black" points="42.0772,-492.349 13.0772,-492.349 13.0772,-474.349 42.0772,-474.349 42.0772,-492.349"/>
<text text-anchor="middle" x="27.5772" y="-481.149" font-family="Times,serif" font-size="9.00">&#45;21</text>
</g>
<!-- &#45;21&#45;&gt;50695 -->
<g id="edge26" class="edge"><title>&#45;21&#45;&gt;50695</title>
<path fill="none" stroke="red" stroke-width="0.846308" stroke-dasharray="1,5" d="M27.5772,-474.121C27.5772,-464.149 27.5772,-446.668 27.5772,-430.499"/>
<polygon fill="red" stroke="red" stroke-width="0.846308" points="31.0773,-430.155 27.5772,-420.155 24.0773,-430.155 31.0773,-430.155"/>
</g>
<!-- &#45;22 -->
<g id="node22" class="node"><title>&#45;22</title>
<polygon fill="lightgray" stroke="black" points="991.077,-674.657 962.077,-674.657 962.077,-656.657 991.077,-656.657 991.077,-674.657"/>
<text text-anchor="middle" x="976.577" y="-663.457" font-family="Times,serif" font-size="9.00">&#45;22</text>
</g>
<!-- &#45;23 -->
<g id="node23" class="node"><title>&#45;23</title>
<polygon fill="lightgray" stroke="black" points="1038.08,-674.657 1009.08,-674.657 1009.08,-656.657 1038.08,-656.657 1038.08,-674.657"/>
<text text-anchor="middle" x="1023.58" y="-663.457" font-family="Times,serif" font-size="9.00">&#45;23</text>
</g>
<!-- &#45;24 -->
<g id="node24" class="node"><title>&#45;24</title>
<polygon fill="lightgray" stroke="black" points="102.077,-401.194 73.0772,-401.194 73.0772,-383.194 102.077,-383.194 102.077,-401.194"/>
<text text-anchor="middle" x="87.5772" y="-389.994" font-family="Times,serif" font-size="9.00">&#45;24</text>
</g>
<!-- 42216 -->
<g id="node40" class="node"><title>42216</title>
<ellipse fill="white" stroke="black" cx="83.5772" cy="-301.04" rx="27.6545" ry="27.6545"/>
<text text-anchor="middle" x="83.5772" y="-298.84" font-family="Times,serif" font-size="9.00">42216</text>
</g>
<!-- &#45;24&#45;&gt;42216 -->
<g id="edge40" class="edge"><title>&#45;24&#45;&gt;42216</title>
<path fill="none" stroke="red" stroke-width="0.846753" stroke-dasharray="1,5" d="M87.208,-382.967C86.7575,-372.924 85.9652,-355.266 85.2355,-339.001"/>
<polygon fill="red" stroke="red" stroke-width="0.846753" points="88.714,-338.441 84.7692,-328.608 81.721,-338.755 88.714,-338.441"/>
</g>
<!-- 0 -->
<g id="node25" class="node"><title>0</title>
<ellipse fill="lightblue" stroke="black" cx="83.5772" cy="-209.886" rx="14.7" ry="14.7"/>
<text text-anchor="middle" x="83.5772" y="-207.686" font-family="Times,serif" font-size="9.00">0</text>
</g>
<!-- 44719 -->
<g id="node36" class="node"><title>44719</title>
<ellipse fill="white" stroke="black" cx="534.577" cy="-483.349" rx="27.6545" ry="27.6545"/>
<text text-anchor="middle" x="534.577" y="-481.149" font-family="Times,serif" font-size="9.00">44719</text>
</g>
<!-- 3&#45;&gt;44719 -->
<g id="edge43" class="edge"><title>3&#45;&gt;44719</title>
<path fill="none" stroke="red" stroke-width="0.172342" stroke-dasharray="1,5" d="M467.896,-562.571C478.388,-550.264 495.853,-529.776 510.277,-512.855"/>
<polygon fill="red" stroke="red" stroke-width="0.172342" points="513.246,-514.767 517.07,-504.887 507.919,-510.226 513.246,-514.767"/>
</g>
<!-- 43013&#45;&gt;42819 -->
<g id="edge17" class="edge"><title>43013&#45;&gt;42819</title>
<path fill="none" stroke="red" stroke-width="0.237342" d="M255.482,-463.004C243.028,-450.386 226.605,-433.747 212.916,-419.878"/>
<polygon fill="red" stroke="red" stroke-width="0.237342" points="215.15,-417.16 205.635,-412.502 210.169,-422.078 215.15,-417.16"/>
</g>
<!-- 49274 -->
<g id="node47" class="node"><title>49274</title>
<ellipse fill="white" stroke="black" cx="259.577" cy="-392.194" rx="27.6545" ry="27.6545"/>
<text text-anchor="middle" x="259.577" y="-389.994" font-family="Times,serif" font-size="9.00">49274</text>
</g>
<!-- 43013&#45;&gt;49274 -->
<g id="edge22" class="edge"><title>43013&#45;&gt;49274</title>
<path fill="none" stroke="red" stroke-width="0.212732" stroke-dasharray="1,5" d="M270.158,-456.082C268.766,-447.812 267.204,-438.525 265.715,-429.678"/>
<polygon fill="red" stroke="red" stroke-width="0.212732" points="269.128,-428.863 264.017,-419.582 262.225,-430.024 269.128,-428.863"/>
</g>
<!-- 48006&#45;&gt;49647 -->
<g id="edge34" class="edge"><title>48006&#45;&gt;49647</title>
<path fill="none" stroke="red" stroke-width="0.33092" d="M332.49,-281.133C319.572,-268.336 302.332,-251.258 288.085,-237.145"/>
<polygon fill="red" stroke="red" stroke-width="0.33092" points="290.514,-234.624 280.947,-230.073 285.588,-239.597 290.514,-234.624"/>
</g>
<!-- 50695&#45;&gt;42216 -->
<g id="edge16" class="edge"><title>50695&#45;&gt;42216</title>
<path fill="none" stroke="red" stroke-width="0.338856" d="M41.9986,-368.235C48.5959,-357.732 56.5203,-345.116 63.6734,-333.728"/>
<polygon fill="red" stroke="red" stroke-width="0.338856" points="66.8494,-335.252 69.2046,-324.922 60.9218,-331.528 66.8494,-335.252"/>
</g>
<!-- 50695&#45;&gt;49131 -->
<g id="edge33" class="edge"><title>50695&#45;&gt;49131</title>
<path fill="none" stroke="green" stroke-width="0.131999" d="M27.1229,-364.498C27.4017,-323.467 31.8653,-243.26 59.5772,-182.309 88.395,-118.924 157.396,-70.7306 198.713,-46.3274"/>
<polygon fill="green" stroke="green" stroke-width="0.131999" points="200.675,-49.2359 207.583,-41.2025 197.173,-43.1748 200.675,-49.2359"/>
</g>
<!-- 50824 -->
<g id="node33" class="node"><title>50824</title>
<ellipse fill="white" stroke="black" cx="289.577" cy="-118.731" rx="27.6545" ry="27.6545"/>
<text text-anchor="middle" x="289.577" y="-116.531" font-family="Times,serif" font-size="9.00">50824</text>
</g>
<!-- 50824&#45;&gt;49131 -->
<g id="edge20" class="edge"><title>50824&#45;&gt;49131</title>
<path fill="none" stroke="red" stroke-width="0.94382" d="M274.941,-95.2341C267.935,-84.4642 259.432,-71.394 251.818,-59.6902"/>
<polygon fill="red" stroke="red" stroke-width="0.94382" points="254.595,-57.5411 246.208,-51.0674 248.728,-61.3583 254.595,-57.5411"/>
</g>
<!-- 51595&#45;&gt;43013 -->
<g id="edge19" class="edge"><title>51595&#45;&gt;43013</title>
<path fill="none" stroke="green" stroke-width="0.388346" d="M280.177,-546.754C279.457,-538.732 278.654,-529.787 277.887,-521.232"/>
<polygon fill="green" stroke="green" stroke-width="0.388346" points="281.356,-520.726 276.976,-511.079 274.384,-521.352 281.356,-520.726"/>
</g>
<!-- 44719&#45;&gt;48006 -->
<g id="edge11" class="edge"><title>44719&#45;&gt;48006</title>
<path fill="none" stroke="red" stroke-width="0.132146" d="M537.868,-455.527C539.536,-429.148 537.627,-389.339 515.577,-364.617 476.242,-320.514 440.659,-354.591 387.577,-328.617 385.318,-327.512 383.054,-326.261 380.824,-324.919"/>
<polygon fill="red" stroke="red" stroke-width="0.132146" points="382.738,-321.989 372.462,-319.408 378.886,-327.833 382.738,-321.989"/>
</g>
<!-- 44719&#45;&gt;50824 -->
<g id="edge23" class="edge"><title>44719&#45;&gt;50824</title>
<path fill="none" stroke="green" stroke-width="0.197927" d="M541.614,-456.653C547.006,-432.182 551.807,-394.723 540.577,-364.617 499.98,-255.787 380.478,-173.154 322.234,-138.119"/>
<polygon fill="green" stroke="green" stroke-width="0.197927" points="323.821,-134.992 313.433,-132.908 320.255,-141.015 323.821,-134.992"/>
</g>
<!-- 44719&#45;&gt;48127 -->
<g id="edge7" class="edge"><title>44719&#45;&gt;48127</title>
<path fill="none" stroke="red" stroke-width="0.47662" d="M511.838,-467.448C492.892,-454.938 465.275,-436.48 441.577,-419.772 439.522,-418.322 437.41,-416.815 435.29,-415.286"/>
<polygon fill="red" stroke="red" stroke-width="0.47662" points="437.312,-412.429 427.168,-409.37 433.19,-418.087 437.312,-412.429"/>
</g>
<!-- 45393&#45;&gt;43013 -->
<g id="edge1" class="edge"><title>45393&#45;&gt;43013</title>
<path fill="none" stroke="red" stroke-width="0.253265" d="M337.197,-553.273C326.116,-541.076 311.847,-525.371 299.73,-512.034"/>
<polygon fill="red" stroke="red" stroke-width="0.253265" points="302.2,-509.547 292.885,-504.499 297.019,-514.254 302.2,-509.547"/>
</g>
<!-- 49895 -->
<g id="node39" class="node"><title>49895</title>
<ellipse fill="white" stroke="black" cx="478.577" cy="-392.194" rx="27.6545" ry="27.6545"/>
<text text-anchor="middle" x="478.577" y="-389.994" font-family="Times,serif" font-size="9.00">49895</text>
</g>
<!-- 49895&#45;&gt;48006 -->
<g id="edge4" class="edge"><title>49895&#45;&gt;48006</title>
<path fill="none" stroke="green" stroke-width="0.440576" stroke-dasharray="1,5" d="M457.018,-374.973C452.296,-371.506 447.297,-367.9 442.577,-364.617 418.593,-347.935 411.561,-345.3 387.577,-328.617 385.512,-327.181 383.394,-325.683 381.269,-324.162"/>
<polygon fill="green" stroke="green" stroke-width="0.440576" points="383.286,-321.301 373.136,-318.261 379.175,-326.967 383.286,-321.301"/>
</g>
<!-- 42216&#45;&gt;0 -->
<g id="edge39" class="edge"><title>42216&#45;&gt;0</title>
<path fill="none" stroke="red" stroke-width="0.48513" d="M83.5772,-273.291C83.5772,-261.117 83.5772,-246.82 83.5772,-234.984"/>
<polygon fill="red" stroke="red" stroke-width="0.48513" points="87.0773,-234.937 83.5772,-224.937 80.0773,-234.937 87.0773,-234.937"/>
</g>
<!-- 42216&#45;&gt;49647 -->
<g id="edge25" class="edge"><title>42216&#45;&gt;49647</title>
<path fill="none" stroke="green" stroke-width="0.405109" d="M106.354,-284.856C112.497,-280.974 119.208,-276.923 125.577,-273.463 159.182,-255.204 199.089,-237.26 226.95,-225.302"/>
<polygon fill="green" stroke="green" stroke-width="0.405109" points="228.444,-228.47 236.273,-221.331 225.701,-222.03 228.444,-228.47"/>
</g>
<!-- 50025&#45;&gt;44719 -->
<g id="edge38" class="edge"><title>50025&#45;&gt;44719</title>
<path fill="none" stroke="red" stroke-width="0.406153" stroke-dasharray="1,5" d="M541.577,-546.754C540.659,-538.57 539.633,-529.426 538.656,-520.715"/>
<polygon fill="red" stroke="red" stroke-width="0.406153" points="542.134,-520.319 537.541,-510.772 535.177,-521.1 542.134,-520.319"/>
</g>
<!-- 49386 -->
<g id="node42" class="node"><title>49386</title>
<ellipse fill="white" stroke="black" cx="173.577" cy="-118.731" rx="27.6545" ry="27.6545"/>
<text text-anchor="middle" x="173.577" y="-116.531" font-family="Times,serif" font-size="9.00">49386</text>
</g>
<!-- 51432 -->
<g id="node44" class="node"><title>51432</title>
<ellipse fill="white" stroke="black" cx="424.577" cy="-301.04" rx="27.6545" ry="27.6545"/>
<text text-anchor="middle" x="424.577" y="-298.84" font-family="Times,serif" font-size="9.00">51432</text>
</g>
<!-- 51432&#45;&gt;49647 -->
<g id="edge42" class="edge"><title>51432&#45;&gt;49647</title>
<path fill="none" stroke="red" stroke-width="0.123069" d="M403.308,-283.374C398.567,-279.934 393.488,-276.453 388.577,-273.463 358.418,-255.102 322.118,-237.643 296.064,-225.856"/>
<polygon fill="red" stroke="red" stroke-width="0.123069" points="297.172,-222.517 286.614,-221.625 294.312,-228.906 297.172,-222.517"/>
</g>
<!-- 49647&#45;&gt;50824 -->
<g id="edge41" class="edge"><title>49647&#45;&gt;50824</title>
<path fill="none" stroke="red" stroke-width="0.323465" d="M269.676,-183.099C272.457,-174.244 275.618,-164.178 278.59,-154.717"/>
<polygon fill="red" stroke="red" stroke-width="0.323465" points="281.936,-155.742 281.593,-145.153 275.258,-153.645 281.936,-155.742"/>
</g>
<!-- 49647&#45;&gt;49386 -->
<g id="edge31" class="edge"><title>49647&#45;&gt;49386</title>
<path fill="none" stroke="green" stroke-width="0.315436" d="M242.482,-189.541C230.028,-176.923 213.605,-160.284 199.916,-146.415"/>
<polygon fill="green" stroke="green" stroke-width="0.315436" points="202.15,-143.697 192.635,-139.039 197.169,-148.615 202.15,-143.697"/>
</g>
<!-- 49274&#45;&gt;48006 -->
<g id="edge44" class="edge"><title>49274&#45;&gt;48006</title>
<path fill="none" stroke="red" stroke-width="0.884036" d="M279.088,-372.287C292.383,-359.403 310.157,-342.179 324.777,-328.011"/>
<polygon fill="red" stroke="red" stroke-width="0.884036" points="327.349,-330.393 332.094,-320.92 322.477,-325.366 327.349,-330.393"/>
</g>
<!-- 49661 -->
<g id="node48" class="node"><title>49661</title>
<ellipse fill="white" stroke="black" cx="458.577" cy="-665.657" rx="27.6545" ry="27.6545"/>
<text text-anchor="middle" x="458.577" y="-663.457" font-family="Times,serif" font-size="9.00">49661</text>
</g>
<!-- 49661&#45;&gt;3 -->
<g id="edge12" class="edge"><title>49661&#45;&gt;3</title>
<path fill="none" stroke="red" stroke-width="0.430352" d="M458.577,-637.908C458.577,-625.735 458.577,-611.437 458.577,-599.601"/>
<polygon fill="red" stroke="red" stroke-width="0.430352" points="462.077,-599.555 458.577,-589.555 455.077,-599.555 462.077,-599.555"/>
</g>
<!-- 48127&#45;&gt;42216 -->
<g id="edge37" class="edge"><title>48127&#45;&gt;42216</title>
<path fill="none" stroke="green" stroke-width="0.903413" d="M384.801,-373.595C380.03,-370.213 374.813,-366.991 369.577,-364.617 285.861,-326.661 177.699,-311.103 121.407,-305.239"/>
<polygon fill="green" stroke="green" stroke-width="0.903413" points="121.487,-301.73 111.19,-304.223 120.794,-308.696 121.487,-301.73"/>
</g>
</g>
</svg>
