<?xml version="1.0" encoding="UTF-8" standalone="no"?>
<!DOCTYPE svg PUBLIC "-//W3C//DTD SVG 1.1//EN"
 "http://www.w3.org/Graphics/SVG/1.1/DTD/svg11.dtd">
<!-- Generated by graphviz version 2.38.0 (20140413.2041)
 -->
<!-- Title: %3 Pages: 1 -->
<svg width="1171pt" height="103pt"
 viewBox="0.00 0.00 1170.85 103.40" xmlns="http://www.w3.org/2000/svg" xmlns:xlink="http://www.w3.org/1999/xlink">
<g id="graph0" class="graph" transform="scale(1 1) rotate(0) translate(4 99.397)">
<title>%3</title>
<polygon fill="white" stroke="none" points="-4,4 -4,-99.397 1166.85,-99.397 1166.85,4 -4,4"/>
<!-- &#45;1 -->
<g id="node1" class="node"><title>&#45;1</title>
<polygon fill="lightgray" stroke="black" points="24,-89.5477 0,-89.5477 0,-71.5477 24,-71.5477 24,-89.5477"/>
<text text-anchor="middle" x="12" y="-78.3477" font-family="Times,serif" font-size="9.00">&#45;1</text>
</g>
<!-- &#45;2 -->
<g id="node2" class="node"><title>&#45;2</title>
<polygon fill="lightgray" stroke="black" points="66,-89.5477 42,-89.5477 42,-71.5477 66,-71.5477 66,-89.5477"/>
<text text-anchor="middle" x="54" y="-78.3477" font-family="Times,serif" font-size="9.00">&#45;2</text>
</g>
<!-- 2 -->
<g id="node27" class="node"><title>2</title>
<ellipse fill="lightblue" stroke="black" cx="117" cy="-14.8492" rx="14.7" ry="14.7"/>
<text text-anchor="middle" x="117" y="-12.6492" font-family="Times,serif" font-size="9.00">2</text>
</g>
<!-- &#45;2&#45;&gt;2 -->
<g id="edge6" class="edge"><title>&#45;2&#45;&gt;2</title>
<path fill="none" stroke="green" stroke-width="0.461831" d="M61.979,-71.4803C71.4113,-61.9434 87.3806,-45.797 99.6926,-33.3485"/>
<polygon fill="green" stroke="green" stroke-width="0.461831" points="102.251,-35.7388 106.795,-26.1676 97.2743,-30.8164 102.251,-35.7388"/>
</g>
<!-- &#45;3 -->
<g id="node3" class="node"><title>&#45;3</title>
<polygon fill="lightgray" stroke="black" points="330,-89.5477 306,-89.5477 306,-71.5477 330,-71.5477 330,-89.5477"/>
<text text-anchor="middle" x="318" y="-78.3477" font-family="Times,serif" font-size="9.00">&#45;3</text>
</g>
<!-- &#45;4 -->
<g id="node4" class="node"><title>&#45;4</title>
<polygon fill="lightgray" stroke="black" points="108,-89.5477 84,-89.5477 84,-71.5477 108,-71.5477 108,-89.5477"/>
<text text-anchor="middle" x="96" y="-78.3477" font-family="Times,serif" font-size="9.00">&#45;4</text>
</g>
<!-- &#45;4&#45;&gt;2 -->
<g id="edge1" class="edge"><title>&#45;4&#45;&gt;2</title>
<path fill="none" stroke="red" stroke-width="0.554242" d="M98.6597,-71.4803C101.33,-63.3809 105.572,-50.5142 109.304,-39.1941"/>
<polygon fill="red" stroke="red" stroke-width="0.554242" points="112.721,-40.0072 112.528,-29.4141 106.073,-37.8154 112.721,-40.0072"/>
</g>
<!-- &#45;5 -->
<g id="node5" class="node"><title>&#45;5</title>
<polygon fill="lightgray" stroke="black" points="240,-89.5477 216,-89.5477 216,-71.5477 240,-71.5477 240,-89.5477"/>
<text text-anchor="middle" x="228" y="-78.3477" font-family="Times,serif" font-size="9.00">&#45;5</text>
</g>
<!-- 1 -->
<g id="node26" class="node"><title>1</title>
<ellipse fill="lightblue" stroke="black" cx="228" cy="-14.8492" rx="14.7" ry="14.7"/>
<text text-anchor="middle" x="228" y="-12.6492" font-family="Times,serif" font-size="9.00">1</text>
</g>
<!-- &#45;5&#45;&gt;1 -->
<g id="edge3" class="edge"><title>&#45;5&#45;&gt;1</title>
<path fill="none" stroke="green" stroke-width="0.164365" d="M228,-71.4803C228,-63.565 228,-51.0967 228,-39.9685"/>
<polygon fill="green" stroke="green" stroke-width="0.164365" points="231.5,-39.902 228,-29.9021 224.5,-39.9021 231.5,-39.902"/>
</g>
<!-- &#45;6 -->
<g id="node6" class="node"><title>&#45;6</title>
<polygon fill="lightgray" stroke="black" points="372,-89.5477 348,-89.5477 348,-71.5477 372,-71.5477 372,-89.5477"/>
<text text-anchor="middle" x="360" y="-78.3477" font-family="Times,serif" font-size="9.00">&#45;6</text>
</g>
<!-- &#45;7 -->
<g id="node7" class="node"><title>&#45;7</title>
<polygon fill="lightgray" stroke="black" points="150,-89.5477 126,-89.5477 126,-71.5477 150,-71.5477 150,-89.5477"/>
<text text-anchor="middle" x="138" y="-78.3477" font-family="Times,serif" font-size="9.00">&#45;7</text>
</g>
<!-- &#45;7&#45;&gt;2 -->
<g id="edge4" class="edge"><title>&#45;7&#45;&gt;2</title>
<path fill="none" stroke="green" stroke-width="0.876091" d="M135.34,-71.4803C132.67,-63.3809 128.428,-50.5142 124.696,-39.1941"/>
<polygon fill="green" stroke="green" stroke-width="0.876091" points="127.927,-37.8154 121.472,-29.4141 121.279,-40.0072 127.927,-37.8154"/>
</g>
<!-- &#45;8 -->
<g id="node8" class="node"><title>&#45;8</title>
<polygon fill="lightgray" stroke="black" points="414,-89.5477 390,-89.5477 390,-71.5477 414,-71.5477 414,-89.5477"/>
<text text-anchor="middle" x="402" y="-78.3477" font-family="Times,serif" font-size="9.00">&#45;8</text>
</g>
<!-- &#45;9 -->
<g id="node9" class="node"><title>&#45;9</title>
<polygon fill="lightgray" stroke="black" points="456,-89.5477 432,-89.5477 432,-71.5477 456,-71.5477 456,-89.5477"/>
<text text-anchor="middle" x="444" y="-78.3477" font-family="Times,serif" font-size="9.00">&#45;9</text>
</g>
<!-- &#45;10 -->
<g id="node10" class="node"><title>&#45;10</title>
<polygon fill="lightgray" stroke="black" points="197.5,-89.5477 168.5,-89.5477 168.5,-71.5477 197.5,-71.5477 197.5,-89.5477"/>
<text text-anchor="middle" x="183" y="-78.3477" font-family="Times,serif" font-size="9.00">&#45;10</text>
</g>
<!-- &#45;10&#45;&gt;1 -->
<g id="edge5" class="edge"><title>&#45;10&#45;&gt;1</title>
<path fill="none" stroke="red" stroke-width="1.60658" d="M188.699,-71.4803C195.018,-62.5366 205.442,-47.78 213.968,-35.7118"/>
<polygon fill="red" stroke="red" stroke-width="1.60658" points="216.843,-37.7079 219.754,-27.5209 211.126,-33.6689 216.843,-37.7079"/>
</g>
<!-- &#45;10&#45;&gt;2 -->
<g id="edge2" class="edge"><title>&#45;10&#45;&gt;2</title>
<path fill="none" stroke="red" stroke-width="2.24631" d="M174.641,-71.4803C164.645,-61.8325 147.64,-45.4206 134.683,-32.9158"/>
<polygon fill="red" stroke="red" stroke-width="2.24631" points="136.864,-30.1562 127.238,-25.7301 132.003,-35.193 136.864,-30.1562"/>
</g>
<!-- &#45;11 -->
<g id="node11" class="node"><title>&#45;11</title>
<polygon fill="lightgray" stroke="black" points="503.5,-89.5477 474.5,-89.5477 474.5,-71.5477 503.5,-71.5477 503.5,-89.5477"/>
<text text-anchor="middle" x="489" y="-78.3477" font-family="Times,serif" font-size="9.00">&#45;11</text>
</g>
<!-- &#45;12 -->
<g id="node12" class="node"><title>&#45;12</title>
<polygon fill="lightgray" stroke="black" points="550.5,-89.5477 521.5,-89.5477 521.5,-71.5477 550.5,-71.5477 550.5,-89.5477"/>
<text text-anchor="middle" x="536" y="-78.3477" font-family="Times,serif" font-size="9.00">&#45;12</text>
</g>
<!-- &#45;13 -->
<g id="node13" class="node"><title>&#45;13</title>
<polygon fill="lightgray" stroke="black" points="597.5,-89.5477 568.5,-89.5477 568.5,-71.5477 597.5,-71.5477 597.5,-89.5477"/>
<text text-anchor="middle" x="583" y="-78.3477" font-family="Times,serif" font-size="9.00">&#45;13</text>
</g>
<!-- &#45;14 -->
<g id="node14" class="node"><title>&#45;14</title>
<polygon fill="lightgray" stroke="black" points="287.5,-89.5477 258.5,-89.5477 258.5,-71.5477 287.5,-71.5477 287.5,-89.5477"/>
<text text-anchor="middle" x="273" y="-78.3477" font-family="Times,serif" font-size="9.00">&#45;14</text>
</g>
<!-- &#45;14&#45;&gt;1 -->
<g id="edge7" class="edge"><title>&#45;14&#45;&gt;1</title>
<path fill="none" stroke="green" stroke-width="1.54695" d="M267.301,-71.4803C260.982,-62.5366 250.558,-47.78 242.032,-35.7118"/>
<polygon fill="green" stroke="green" stroke-width="1.54695" points="244.874,-33.6689 236.246,-27.5209 239.157,-37.7079 244.874,-33.6689"/>
</g>
<!-- &#45;15 -->
<g id="node15" class="node"><title>&#45;15</title>
<polygon fill="lightgray" stroke="black" points="644.5,-89.5477 615.5,-89.5477 615.5,-71.5477 644.5,-71.5477 644.5,-89.5477"/>
<text text-anchor="middle" x="630" y="-78.3477" font-family="Times,serif" font-size="9.00">&#45;15</text>
</g>
<!-- &#45;16 -->
<g id="node16" class="node"><title>&#45;16</title>
<polygon fill="lightgray" stroke="black" points="691.5,-89.5477 662.5,-89.5477 662.5,-71.5477 691.5,-71.5477 691.5,-89.5477"/>
<text text-anchor="middle" x="677" y="-78.3477" font-family="Times,serif" font-size="9.00">&#45;16</text>
</g>
<!-- &#45;17 -->
<g id="node17" class="node"><title>&#45;17</title>
<polygon fill="lightgray" stroke="black" points="738.5,-89.5477 709.5,-89.5477 709.5,-71.5477 738.5,-71.5477 738.5,-89.5477"/>
<text text-anchor="middle" x="724" y="-78.3477" font-family="Times,serif" font-size="9.00">&#45;17</text>
</g>
<!-- &#45;18 -->
<g id="node18" class="node"><title>&#45;18</title>
<polygon fill="lightgray" stroke="black" points="785.5,-89.5477 756.5,-89.5477 756.5,-71.5477 785.5,-71.5477 785.5,-89.5477"/>
<text text-anchor="middle" x="771" y="-78.3477" font-family="Times,serif" font-size="9.00">&#45;18</text>
</g>
<!-- &#45;19 -->
<g id="node19" class="node"><title>&#45;19</title>
<polygon fill="lightgray" stroke="black" points="832.5,-89.5477 803.5,-89.5477 803.5,-71.5477 832.5,-71.5477 832.5,-89.5477"/>
<text text-anchor="middle" x="818" y="-78.3477" font-family="Times,serif" font-size="9.00">&#45;19</text>
</g>
<!-- &#45;20 -->
<g id="node20" class="node"><title>&#45;20</title>
<polygon fill="lightgray" stroke="black" points="879.5,-89.5477 850.5,-89.5477 850.5,-71.5477 879.5,-71.5477 879.5,-89.5477"/>
<text text-anchor="middle" x="865" y="-78.3477" font-family="Times,serif" font-size="9.00">&#45;20</text>
</g>
<!-- &#45;21 -->
<g id="node21" class="node"><title>&#45;21</title>
<polygon fill="lightgray" stroke="black" points="926.5,-89.5477 897.5,-89.5477 897.5,-71.5477 926.5,-71.5477 926.5,-89.5477"/>
<text text-anchor="middle" x="912" y="-78.3477" font-family="Times,serif" font-size="9.00">&#45;21</text>
</g>
<!-- &#45;22 -->
<g id="node22" class="node"><title>&#45;22</title>
<polygon fill="lightgray" stroke="black" points="973.5,-89.5477 944.5,-89.5477 944.5,-71.5477 973.5,-71.5477 973.5,-89.5477"/>
<text text-anchor="middle" x="959" y="-78.3477" font-family="Times,serif" font-size="9.00">&#45;22</text>
</g>
<!-- &#45;23 -->
<g id="node23" class="node"><title>&#45;23</title>
<polygon fill="lightgray" stroke="black" points="1020.5,-89.5477 991.5,-89.5477 991.5,-71.5477 1020.5,-71.5477 1020.5,-89.5477"/>
<text text-anchor="middle" x="1006" y="-78.3477" font-family="Times,serif" font-size="9.00">&#45;23</text>
</g>
<!-- &#45;24 -->
<g id="node24" class="node"><title>&#45;24</title>
<polygon fill="lightgray" stroke="black" points="1067.5,-89.5477 1038.5,-89.5477 1038.5,-71.5477 1067.5,-71.5477 1067.5,-89.5477"/>
<text text-anchor="middle" x="1053" y="-78.3477" font-family="Times,serif" font-size="9.00">&#45;24</text>
</g>
<!-- 0 -->
<g id="node25" class="node"><title>0</title>
<ellipse fill="lightblue" stroke="black" cx="1100" cy="-80.5477" rx="14.7" ry="14.7"/>
<text text-anchor="middle" x="1100" y="-78.3477" font-family="Times,serif" font-size="9.00">0</text>
</g>
<!-- 3 -->
<g id="node28" class="node"><title>3</title>
<ellipse fill="lightblue" stroke="black" cx="1148" cy="-80.5477" rx="14.7" ry="14.7"/>
<text text-anchor="middle" x="1148" y="-78.3477" font-family="Times,serif" font-size="9.00">3</text>
</g>
</g>
</svg>
