<?xml version="1.0" encoding="UTF-8" standalone="no"?>
<!DOCTYPE svg PUBLIC "-//W3C//DTD SVG 1.1//EN"
 "http://www.w3.org/Graphics/SVG/1.1/DTD/svg11.dtd">
<!-- Generated by graphviz version 2.38.0 (20140413.2041)
 -->
<!-- Title: %3 Pages: 1 -->
<svg width="1169pt" height="103pt"
 viewBox="0.00 0.00 1168.85 103.40" xmlns="http://www.w3.org/2000/svg" xmlns:xlink="http://www.w3.org/1999/xlink">
<g id="graph0" class="graph" transform="scale(1 1) rotate(0) translate(4 99.397)">
<title>%3</title>
<polygon fill="white" stroke="none" points="-4,4 -4,-99.397 1164.85,-99.397 1164.85,4 -4,4"/>
<!-- &#45;1 -->
<g id="node1" class="node"><title>&#45;1</title>
<polygon fill="lightgray" stroke="black" points="24,-89.5477 0,-89.5477 0,-71.5477 24,-71.5477 24,-89.5477"/>
<text text-anchor="middle" x="12" y="-78.3477" font-family="Times,serif" font-size="9.00">&#45;1</text>
</g>
<!-- &#45;2 -->
<g id="node2" class="node"><title>&#45;2</title>
<polygon fill="lightgray" stroke="black" points="66,-89.5477 42,-89.5477 42,-71.5477 66,-71.5477 66,-89.5477"/>
<text text-anchor="middle" x="54" y="-78.3477" font-family="Times,serif" font-size="9.00">&#45;2</text>
</g>
<!-- &#45;3 -->
<g id="node3" class="node"><title>&#45;3</title>
<polygon fill="lightgray" stroke="black" points="108,-89.5477 84,-89.5477 84,-71.5477 108,-71.5477 108,-89.5477"/>
<text text-anchor="middle" x="96" y="-78.3477" font-family="Times,serif" font-size="9.00">&#45;3</text>
</g>
<!-- &#45;4 -->
<g id="node4" class="node"><title>&#45;4</title>
<polygon fill="lightgray" stroke="black" points="150,-89.5477 126,-89.5477 126,-71.5477 150,-71.5477 150,-89.5477"/>
<text text-anchor="middle" x="138" y="-78.3477" font-family="Times,serif" font-size="9.00">&#45;4</text>
</g>
<!-- &#45;5 -->
<g id="node5" class="node"><title>&#45;5</title>
<polygon fill="lightgray" stroke="black" points="192,-89.5477 168,-89.5477 168,-71.5477 192,-71.5477 192,-89.5477"/>
<text text-anchor="middle" x="180" y="-78.3477" font-family="Times,serif" font-size="9.00">&#45;5</text>
</g>
<!-- &#45;6 -->
<g id="node6" class="node"><title>&#45;6</title>
<polygon fill="lightgray" stroke="black" points="234,-89.5477 210,-89.5477 210,-71.5477 234,-71.5477 234,-89.5477"/>
<text text-anchor="middle" x="222" y="-78.3477" font-family="Times,serif" font-size="9.00">&#45;6</text>
</g>
<!-- &#45;7 -->
<g id="node7" class="node"><title>&#45;7</title>
<polygon fill="lightgray" stroke="black" points="276,-89.5477 252,-89.5477 252,-71.5477 276,-71.5477 276,-89.5477"/>
<text text-anchor="middle" x="264" y="-78.3477" font-family="Times,serif" font-size="9.00">&#45;7</text>
</g>
<!-- &#45;8 -->
<g id="node8" class="node"><title>&#45;8</title>
<polygon fill="lightgray" stroke="black" points="318,-89.5477 294,-89.5477 294,-71.5477 318,-71.5477 318,-89.5477"/>
<text text-anchor="middle" x="306" y="-78.3477" font-family="Times,serif" font-size="9.00">&#45;8</text>
</g>
<!-- &#45;9 -->
<g id="node9" class="node"><title>&#45;9</title>
<polygon fill="lightgray" stroke="black" points="360,-89.5477 336,-89.5477 336,-71.5477 360,-71.5477 360,-89.5477"/>
<text text-anchor="middle" x="348" y="-78.3477" font-family="Times,serif" font-size="9.00">&#45;9</text>
</g>
<!-- &#45;10 -->
<g id="node10" class="node"><title>&#45;10</title>
<polygon fill="lightgray" stroke="black" points="407.5,-89.5477 378.5,-89.5477 378.5,-71.5477 407.5,-71.5477 407.5,-89.5477"/>
<text text-anchor="middle" x="393" y="-78.3477" font-family="Times,serif" font-size="9.00">&#45;10</text>
</g>
<!-- 0 -->
<g id="node25" class="node"><title>0</title>
<ellipse fill="lightblue" stroke="black" cx="393" cy="-14.8492" rx="14.7" ry="14.7"/>
<text text-anchor="middle" x="393" y="-12.6492" font-family="Times,serif" font-size="9.00">0</text>
</g>
<!-- &#45;10&#45;&gt;0 -->
<g id="edge1" class="edge"><title>&#45;10&#45;&gt;0</title>
<path fill="none" stroke="green" stroke-width="0.15052" d="M393,-71.4803C393,-63.565 393,-51.0967 393,-39.9685"/>
<polygon fill="green" stroke="green" stroke-width="0.15052" points="396.5,-39.902 393,-29.9021 389.5,-39.9021 396.5,-39.902"/>
</g>
<!-- &#45;11 -->
<g id="node11" class="node"><title>&#45;11</title>
<polygon fill="lightgray" stroke="black" points="454.5,-89.5477 425.5,-89.5477 425.5,-71.5477 454.5,-71.5477 454.5,-89.5477"/>
<text text-anchor="middle" x="440" y="-78.3477" font-family="Times,serif" font-size="9.00">&#45;11</text>
</g>
<!-- &#45;12 -->
<g id="node12" class="node"><title>&#45;12</title>
<polygon fill="lightgray" stroke="black" points="501.5,-89.5477 472.5,-89.5477 472.5,-71.5477 501.5,-71.5477 501.5,-89.5477"/>
<text text-anchor="middle" x="487" y="-78.3477" font-family="Times,serif" font-size="9.00">&#45;12</text>
</g>
<!-- &#45;13 -->
<g id="node13" class="node"><title>&#45;13</title>
<polygon fill="lightgray" stroke="black" points="548.5,-89.5477 519.5,-89.5477 519.5,-71.5477 548.5,-71.5477 548.5,-89.5477"/>
<text text-anchor="middle" x="534" y="-78.3477" font-family="Times,serif" font-size="9.00">&#45;13</text>
</g>
<!-- 3 -->
<g id="node28" class="node"><title>3</title>
<ellipse fill="lightblue" stroke="black" cx="534" cy="-14.8492" rx="14.7" ry="14.7"/>
<text text-anchor="middle" x="534" y="-12.6492" font-family="Times,serif" font-size="9.00">3</text>
</g>
<!-- &#45;13&#45;&gt;3 -->
<g id="edge2" class="edge"><title>&#45;13&#45;&gt;3</title>
<path fill="none" stroke="green" stroke-width="0.142807" d="M534,-71.4803C534,-63.565 534,-51.0967 534,-39.9685"/>
<polygon fill="green" stroke="green" stroke-width="0.142807" points="537.5,-39.902 534,-29.9021 530.5,-39.9021 537.5,-39.902"/>
</g>
<!-- &#45;14 -->
<g id="node14" class="node"><title>&#45;14</title>
<polygon fill="lightgray" stroke="black" points="595.5,-89.5477 566.5,-89.5477 566.5,-71.5477 595.5,-71.5477 595.5,-89.5477"/>
<text text-anchor="middle" x="581" y="-78.3477" font-family="Times,serif" font-size="9.00">&#45;14</text>
</g>
<!-- &#45;15 -->
<g id="node15" class="node"><title>&#45;15</title>
<polygon fill="lightgray" stroke="black" points="642.5,-89.5477 613.5,-89.5477 613.5,-71.5477 642.5,-71.5477 642.5,-89.5477"/>
<text text-anchor="middle" x="628" y="-78.3477" font-family="Times,serif" font-size="9.00">&#45;15</text>
</g>
<!-- &#45;16 -->
<g id="node16" class="node"><title>&#45;16</title>
<polygon fill="lightgray" stroke="black" points="689.5,-89.5477 660.5,-89.5477 660.5,-71.5477 689.5,-71.5477 689.5,-89.5477"/>
<text text-anchor="middle" x="675" y="-78.3477" font-family="Times,serif" font-size="9.00">&#45;16</text>
</g>
<!-- &#45;17 -->
<g id="node17" class="node"><title>&#45;17</title>
<polygon fill="lightgray" stroke="black" points="736.5,-89.5477 707.5,-89.5477 707.5,-71.5477 736.5,-71.5477 736.5,-89.5477"/>
<text text-anchor="middle" x="722" y="-78.3477" font-family="Times,serif" font-size="9.00">&#45;17</text>
</g>
<!-- &#45;18 -->
<g id="node18" class="node"><title>&#45;18</title>
<polygon fill="lightgray" stroke="black" points="783.5,-89.5477 754.5,-89.5477 754.5,-71.5477 783.5,-71.5477 783.5,-89.5477"/>
<text text-anchor="middle" x="769" y="-78.3477" font-family="Times,serif" font-size="9.00">&#45;18</text>
</g>
<!-- &#45;19 -->
<g id="node19" class="node"><title>&#45;19</title>
<polygon fill="lightgray" stroke="black" points="830.5,-89.5477 801.5,-89.5477 801.5,-71.5477 830.5,-71.5477 830.5,-89.5477"/>
<text text-anchor="middle" x="816" y="-78.3477" font-family="Times,serif" font-size="9.00">&#45;19</text>
</g>
<!-- &#45;20 -->
<g id="node20" class="node"><title>&#45;20</title>
<polygon fill="lightgray" stroke="black" points="877.5,-89.5477 848.5,-89.5477 848.5,-71.5477 877.5,-71.5477 877.5,-89.5477"/>
<text text-anchor="middle" x="863" y="-78.3477" font-family="Times,serif" font-size="9.00">&#45;20</text>
</g>
<!-- &#45;21 -->
<g id="node21" class="node"><title>&#45;21</title>
<polygon fill="lightgray" stroke="black" points="924.5,-89.5477 895.5,-89.5477 895.5,-71.5477 924.5,-71.5477 924.5,-89.5477"/>
<text text-anchor="middle" x="910" y="-78.3477" font-family="Times,serif" font-size="9.00">&#45;21</text>
</g>
<!-- &#45;22 -->
<g id="node22" class="node"><title>&#45;22</title>
<polygon fill="lightgray" stroke="black" points="971.5,-89.5477 942.5,-89.5477 942.5,-71.5477 971.5,-71.5477 971.5,-89.5477"/>
<text text-anchor="middle" x="957" y="-78.3477" font-family="Times,serif" font-size="9.00">&#45;22</text>
</g>
<!-- &#45;23 -->
<g id="node23" class="node"><title>&#45;23</title>
<polygon fill="lightgray" stroke="black" points="1018.5,-89.5477 989.5,-89.5477 989.5,-71.5477 1018.5,-71.5477 1018.5,-89.5477"/>
<text text-anchor="middle" x="1004" y="-78.3477" font-family="Times,serif" font-size="9.00">&#45;23</text>
</g>
<!-- &#45;24 -->
<g id="node24" class="node"><title>&#45;24</title>
<polygon fill="lightgray" stroke="black" points="1065.5,-89.5477 1036.5,-89.5477 1036.5,-71.5477 1065.5,-71.5477 1065.5,-89.5477"/>
<text text-anchor="middle" x="1051" y="-78.3477" font-family="Times,serif" font-size="9.00">&#45;24</text>
</g>
<!-- 1 -->
<g id="node26" class="node"><title>1</title>
<ellipse fill="lightblue" stroke="black" cx="1098" cy="-80.5477" rx="14.7" ry="14.7"/>
<text text-anchor="middle" x="1098" y="-78.3477" font-family="Times,serif" font-size="9.00">1</text>
</g>
<!-- 2 -->
<g id="node27" class="node"><title>2</title>
<ellipse fill="lightblue" stroke="black" cx="1146" cy="-80.5477" rx="14.7" ry="14.7"/>
<text text-anchor="middle" x="1146" y="-78.3477" font-family="Times,serif" font-size="9.00">2</text>
</g>
</g>
</svg>
