<?xml version="1.0" encoding="UTF-8" standalone="no"?>
<!DOCTYPE svg PUBLIC "-//W3C//DTD SVG 1.1//EN"
 "http://www.w3.org/Graphics/SVG/1.1/DTD/svg11.dtd">
<!-- Generated by graphviz version 2.38.0 (20140413.2041)
 -->
<!-- Title: %3 Pages: 1 -->
<svg width="1172pt" height="311pt"
 viewBox="0.00 0.00 1171.85 311.16" xmlns="http://www.w3.org/2000/svg" xmlns:xlink="http://www.w3.org/1999/xlink">
<g id="graph0" class="graph" transform="scale(1 1) rotate(0) translate(4 307.161)">
<title>%3</title>
<polygon fill="white" stroke="none" points="-4,4 -4,-307.161 1167.85,-307.161 1167.85,4 -4,4"/>
<!-- &#45;1 -->
<g id="node1" class="node"><title>&#45;1</title>
<polygon fill="lightgray" stroke="black" points="24,-297.312 0,-297.312 0,-279.312 24,-279.312 24,-297.312"/>
<text text-anchor="middle" x="12" y="-286.112" font-family="Times,serif" font-size="9.00">&#45;1</text>
</g>
<!-- &#45;2 -->
<g id="node2" class="node"><title>&#45;2</title>
<polygon fill="lightgray" stroke="black" points="66,-297.312 42,-297.312 42,-279.312 66,-279.312 66,-297.312"/>
<text text-anchor="middle" x="54" y="-286.112" font-family="Times,serif" font-size="9.00">&#45;2</text>
</g>
<!-- &#45;3 -->
<g id="node3" class="node"><title>&#45;3</title>
<polygon fill="lightgray" stroke="black" points="108,-297.312 84,-297.312 84,-279.312 108,-279.312 108,-297.312"/>
<text text-anchor="middle" x="96" y="-286.112" font-family="Times,serif" font-size="9.00">&#45;3</text>
</g>
<!-- 18264 -->
<g id="node33" class="node"><title>18264</title>
<ellipse fill="white" stroke="black" cx="119" cy="-209.886" rx="27.6545" ry="27.6545"/>
<text text-anchor="middle" x="119" y="-207.686" font-family="Times,serif" font-size="9.00">18264</text>
</g>
<!-- &#45;3&#45;&gt;18264 -->
<g id="edge6" class="edge"><title>&#45;3&#45;&gt;18264</title>
<path fill="none" stroke="green" stroke-width="0.221337" stroke-dasharray="1,5" d="M98.4614,-279.133C100.857,-271.172 104.667,-258.514 108.358,-246.248"/>
<polygon fill="green" stroke="green" stroke-width="0.221337" points="111.733,-247.178 111.263,-236.594 105.03,-245.161 111.733,-247.178"/>
</g>
<!-- &#45;4 -->
<g id="node4" class="node"><title>&#45;4</title>
<polygon fill="lightgray" stroke="black" points="198,-297.312 174,-297.312 174,-279.312 198,-279.312 198,-297.312"/>
<text text-anchor="middle" x="186" y="-286.112" font-family="Times,serif" font-size="9.00">&#45;4</text>
</g>
<!-- &#45;5 -->
<g id="node5" class="node"><title>&#45;5</title>
<polygon fill="lightgray" stroke="black" points="240,-297.312 216,-297.312 216,-279.312 240,-279.312 240,-297.312"/>
<text text-anchor="middle" x="228" y="-286.112" font-family="Times,serif" font-size="9.00">&#45;5</text>
</g>
<!-- &#45;6 -->
<g id="node6" class="node"><title>&#45;6</title>
<polygon fill="lightgray" stroke="black" points="282,-297.312 258,-297.312 258,-279.312 282,-279.312 282,-297.312"/>
<text text-anchor="middle" x="270" y="-286.112" font-family="Times,serif" font-size="9.00">&#45;6</text>
</g>
<!-- 18451 -->
<g id="node32" class="node"><title>18451</title>
<ellipse fill="white" stroke="black" cx="270" cy="-209.886" rx="27.6545" ry="27.6545"/>
<text text-anchor="middle" x="270" y="-207.686" font-family="Times,serif" font-size="9.00">18451</text>
</g>
<!-- &#45;6&#45;&gt;18451 -->
<g id="edge10" class="edge"><title>&#45;6&#45;&gt;18451</title>
<path fill="none" stroke="red" stroke-width="0.348238" stroke-dasharray="1,5" d="M270,-279.133C270,-271.509 270,-259.575 270,-247.805"/>
<polygon fill="red" stroke="red" stroke-width="0.348238" points="273.5,-247.616 270,-237.616 266.5,-247.616 273.5,-247.616"/>
</g>
<!-- &#45;7 -->
<g id="node7" class="node"><title>&#45;7</title>
<polygon fill="lightgray" stroke="black" points="475,-297.312 451,-297.312 451,-279.312 475,-279.312 475,-297.312"/>
<text text-anchor="middle" x="463" y="-286.112" font-family="Times,serif" font-size="9.00">&#45;7</text>
</g>
<!-- &#45;8 -->
<g id="node8" class="node"><title>&#45;8</title>
<polygon fill="lightgray" stroke="black" points="340,-218.886 316,-218.886 316,-200.886 340,-200.886 340,-218.886"/>
<text text-anchor="middle" x="328" y="-207.686" font-family="Times,serif" font-size="9.00">&#45;8</text>
</g>
<!-- 2 -->
<g id="node27" class="node"><title>2</title>
<ellipse fill="lightblue" stroke="black" cx="396" cy="-118.731" rx="14.7" ry="14.7"/>
<text text-anchor="middle" x="396" y="-116.531" font-family="Times,serif" font-size="9.00">2</text>
</g>
<!-- &#45;8&#45;&gt;2 -->
<g id="edge5" class="edge"><title>&#45;8&#45;&gt;2</title>
<path fill="none" stroke="green" stroke-width="0.737263" d="M334.275,-200.658C344.882,-186.752 366.626,-158.243 381.263,-139.053"/>
<polygon fill="green" stroke="green" stroke-width="0.737263" points="384.141,-141.052 387.422,-130.978 378.575,-136.806 384.141,-141.052"/>
</g>
<!-- &#45;9 -->
<g id="node9" class="node"><title>&#45;9</title>
<polygon fill="lightgray" stroke="black" points="552,-297.312 528,-297.312 528,-279.312 552,-279.312 552,-297.312"/>
<text text-anchor="middle" x="540" y="-286.112" font-family="Times,serif" font-size="9.00">&#45;9</text>
</g>
<!-- 1 -->
<g id="node26" class="node"><title>1</title>
<ellipse fill="lightblue" stroke="black" cx="540" cy="-209.886" rx="14.7" ry="14.7"/>
<text text-anchor="middle" x="540" y="-207.686" font-family="Times,serif" font-size="9.00">1</text>
</g>
<!-- &#45;9&#45;&gt;1 -->
<g id="edge7" class="edge"><title>&#45;9&#45;&gt;1</title>
<path fill="none" stroke="red" stroke-width="0.275192" d="M540,-279.133C540,-268.722 540,-250.275 540,-235.182"/>
<polygon fill="red" stroke="red" stroke-width="0.275192" points="543.5,-234.948 540,-224.948 536.5,-234.948 543.5,-234.948"/>
</g>
<!-- &#45;10 -->
<g id="node10" class="node"><title>&#45;10</title>
<polygon fill="lightgray" stroke="black" points="387.5,-218.886 358.5,-218.886 358.5,-200.886 387.5,-200.886 387.5,-218.886"/>
<text text-anchor="middle" x="373" y="-207.686" font-family="Times,serif" font-size="9.00">&#45;10</text>
</g>
<!-- &#45;10&#45;&gt;2 -->
<g id="edge2" class="edge"><title>&#45;10&#45;&gt;2</title>
<path fill="none" stroke="red" stroke-width="0.624133" d="M375.123,-200.658C378.463,-187.71 385.07,-162.101 389.96,-143.143"/>
<polygon fill="red" stroke="red" stroke-width="0.624133" points="393.36,-143.975 392.469,-133.418 386.582,-142.226 393.36,-143.975"/>
</g>
<!-- &#45;11 -->
<g id="node11" class="node"><title>&#45;11</title>
<polygon fill="lightgray" stroke="black" points="599.5,-297.312 570.5,-297.312 570.5,-279.312 599.5,-279.312 599.5,-297.312"/>
<text text-anchor="middle" x="585" y="-286.112" font-family="Times,serif" font-size="9.00">&#45;11</text>
</g>
<!-- &#45;12 -->
<g id="node12" class="node"><title>&#45;12</title>
<polygon fill="lightgray" stroke="black" points="646.5,-297.312 617.5,-297.312 617.5,-279.312 646.5,-279.312 646.5,-297.312"/>
<text text-anchor="middle" x="632" y="-286.112" font-family="Times,serif" font-size="9.00">&#45;12</text>
</g>
<!-- &#45;13 -->
<g id="node13" class="node"><title>&#45;13</title>
<polygon fill="lightgray" stroke="black" points="693.5,-297.312 664.5,-297.312 664.5,-279.312 693.5,-279.312 693.5,-297.312"/>
<text text-anchor="middle" x="679" y="-286.112" font-family="Times,serif" font-size="9.00">&#45;13</text>
</g>
<!-- &#45;14 -->
<g id="node14" class="node"><title>&#45;14</title>
<polygon fill="lightgray" stroke="black" points="740.5,-297.312 711.5,-297.312 711.5,-279.312 740.5,-279.312 740.5,-297.312"/>
<text text-anchor="middle" x="726" y="-286.112" font-family="Times,serif" font-size="9.00">&#45;14</text>
</g>
<!-- &#45;15 -->
<g id="node15" class="node"><title>&#45;15</title>
<polygon fill="lightgray" stroke="black" points="434.5,-218.886 405.5,-218.886 405.5,-200.886 434.5,-200.886 434.5,-218.886"/>
<text text-anchor="middle" x="420" y="-207.686" font-family="Times,serif" font-size="9.00">&#45;15</text>
</g>
<!-- &#45;15&#45;&gt;2 -->
<g id="edge3" class="edge"><title>&#45;15&#45;&gt;2</title>
<path fill="none" stroke="green" stroke-width="0.232002" d="M417.785,-200.658C414.3,-187.71 407.406,-162.101 402.302,-143.143"/>
<polygon fill="green" stroke="green" stroke-width="0.232002" points="405.663,-142.164 399.684,-133.418 398.904,-143.984 405.663,-142.164"/>
</g>
<!-- &#45;16 -->
<g id="node16" class="node"><title>&#45;16</title>
<polygon fill="lightgray" stroke="black" points="787.5,-297.312 758.5,-297.312 758.5,-279.312 787.5,-279.312 787.5,-297.312"/>
<text text-anchor="middle" x="773" y="-286.112" font-family="Times,serif" font-size="9.00">&#45;16</text>
</g>
<!-- &#45;17 -->
<g id="node17" class="node"><title>&#45;17</title>
<polygon fill="lightgray" stroke="black" points="363.5,-297.312 334.5,-297.312 334.5,-279.312 363.5,-279.312 363.5,-297.312"/>
<text text-anchor="middle" x="349" y="-286.112" font-family="Times,serif" font-size="9.00">&#45;17</text>
</g>
<!-- 18247 -->
<g id="node30" class="node"><title>18247</title>
<ellipse fill="white" stroke="black" cx="480" cy="-209.886" rx="27.6545" ry="27.6545"/>
<text text-anchor="middle" x="480" y="-207.686" font-family="Times,serif" font-size="9.00">18247</text>
</g>
<!-- &#45;17&#45;&gt;18247 -->
<g id="edge12" class="edge"><title>&#45;17&#45;&gt;18247</title>
<path fill="none" stroke="red" stroke-width="0.330113" d="M363.672,-280.302C382.463,-271.152 415.844,-254.309 443,-237.463 445.235,-236.077 447.513,-234.602 449.786,-233.086"/>
<polygon fill="red" stroke="red" stroke-width="0.330113" points="452.179,-235.687 458.422,-227.127 448.204,-229.925 452.179,-235.687"/>
</g>
<!-- &#45;17&#45;&gt;18451 -->
<g id="edge8" class="edge"><title>&#45;17&#45;&gt;18451</title>
<path fill="none" stroke="red" stroke-width="0.105389" d="M340.546,-279.133C330.147,-269.073 311.993,-251.511 296.705,-236.721"/>
<polygon fill="red" stroke="red" stroke-width="0.105389" points="299.098,-234.166 289.477,-229.729 294.231,-239.197 299.098,-234.166"/>
</g>
<!-- &#45;18 -->
<g id="node18" class="node"><title>&#45;18</title>
<polygon fill="lightgray" stroke="black" points="834.5,-297.312 805.5,-297.312 805.5,-279.312 834.5,-279.312 834.5,-297.312"/>
<text text-anchor="middle" x="820" y="-286.112" font-family="Times,serif" font-size="9.00">&#45;18</text>
</g>
<!-- &#45;19 -->
<g id="node19" class="node"><title>&#45;19</title>
<polygon fill="lightgray" stroke="black" points="881.5,-297.312 852.5,-297.312 852.5,-279.312 881.5,-279.312 881.5,-297.312"/>
<text text-anchor="middle" x="867" y="-286.112" font-family="Times,serif" font-size="9.00">&#45;19</text>
</g>
<!-- &#45;20 -->
<g id="node20" class="node"><title>&#45;20</title>
<polygon fill="lightgray" stroke="black" points="928.5,-297.312 899.5,-297.312 899.5,-279.312 928.5,-279.312 928.5,-297.312"/>
<text text-anchor="middle" x="914" y="-286.112" font-family="Times,serif" font-size="9.00">&#45;20</text>
</g>
<!-- &#45;21 -->
<g id="node21" class="node"><title>&#45;21</title>
<polygon fill="lightgray" stroke="black" points="975.5,-297.312 946.5,-297.312 946.5,-279.312 975.5,-279.312 975.5,-297.312"/>
<text text-anchor="middle" x="961" y="-286.112" font-family="Times,serif" font-size="9.00">&#45;21</text>
</g>
<!-- &#45;22 -->
<g id="node22" class="node"><title>&#45;22</title>
<polygon fill="lightgray" stroke="black" points="1022.5,-297.312 993.5,-297.312 993.5,-279.312 1022.5,-279.312 1022.5,-297.312"/>
<text text-anchor="middle" x="1008" y="-286.112" font-family="Times,serif" font-size="9.00">&#45;22</text>
</g>
<!-- &#45;23 -->
<g id="node23" class="node"><title>&#45;23</title>
<polygon fill="lightgray" stroke="black" points="1069.5,-297.312 1040.5,-297.312 1040.5,-279.312 1069.5,-279.312 1069.5,-297.312"/>
<text text-anchor="middle" x="1055" y="-286.112" font-family="Times,serif" font-size="9.00">&#45;23</text>
</g>
<!-- &#45;24 -->
<g id="node24" class="node"><title>&#45;24</title>
<polygon fill="lightgray" stroke="black" points="1116.5,-297.312 1087.5,-297.312 1087.5,-279.312 1116.5,-279.312 1116.5,-297.312"/>
<text text-anchor="middle" x="1102" y="-286.112" font-family="Times,serif" font-size="9.00">&#45;24</text>
</g>
<!-- 0 -->
<g id="node25" class="node"><title>0</title>
<ellipse fill="lightblue" stroke="black" cx="1149" cy="-288.312" rx="14.7" ry="14.7"/>
<text text-anchor="middle" x="1149" y="-286.112" font-family="Times,serif" font-size="9.00">0</text>
</g>
<!-- 3 -->
<g id="node28" class="node"><title>3</title>
<ellipse fill="lightblue" stroke="black" cx="141" cy="-288.312" rx="14.7" ry="14.7"/>
<text text-anchor="middle" x="141" y="-286.112" font-family="Times,serif" font-size="9.00">3</text>
</g>
<!-- 3&#45;&gt;18264 -->
<g id="edge1" class="edge"><title>3&#45;&gt;18264</title>
<path fill="none" stroke="red" stroke-width="0.263653" stroke-dasharray="1,5" d="M137.067,-273.649C134.865,-266.001 132.009,-256.078 129.22,-246.388"/>
<polygon fill="red" stroke="red" stroke-width="0.263653" points="132.497,-245.122 126.368,-236.481 125.771,-247.059 132.497,-245.122"/>
</g>
<!-- 18561 -->
<g id="node29" class="node"><title>18561</title>
<ellipse fill="white" stroke="black" cx="480" cy="-27.5772" rx="27.6545" ry="27.6545"/>
<text text-anchor="middle" x="480" y="-25.3772" font-family="Times,serif" font-size="9.00">18561</text>
</g>
<!-- 18247&#45;&gt;2 -->
<g id="edge11" class="edge"><title>18247&#45;&gt;2</title>
<path fill="none" stroke="red" stroke-width="0.895535" d="M461.358,-189.1C446.839,-173.69 426.861,-152.486 412.826,-137.59"/>
<polygon fill="red" stroke="red" stroke-width="0.895535" points="415.118,-134.918 405.713,-130.04 410.023,-139.719 415.118,-134.918"/>
</g>
<!-- 18571 -->
<g id="node31" class="node"><title>18571</title>
<ellipse fill="white" stroke="black" cx="480" cy="-118.731" rx="27.6545" ry="27.6545"/>
<text text-anchor="middle" x="480" y="-116.531" font-family="Times,serif" font-size="9.00">18571</text>
</g>
<!-- 18247&#45;&gt;18571 -->
<g id="edge9" class="edge"><title>18247&#45;&gt;18571</title>
<path fill="none" stroke="red" stroke-width="0.396097" d="M480,-182.137C480,-174.114 480,-165.17 480,-156.615"/>
<polygon fill="red" stroke="red" stroke-width="0.396097" points="483.5,-156.462 480,-146.462 476.5,-156.462 483.5,-156.462"/>
</g>
<!-- 18571&#45;&gt;18561 -->
<g id="edge4" class="edge"><title>18571&#45;&gt;18561</title>
<path fill="none" stroke="green" stroke-width="0.176822" d="M480,-90.9823C480,-82.96 480,-74.0155 480,-65.4608"/>
<polygon fill="green" stroke="green" stroke-width="0.176822" points="483.5,-65.3075 480,-55.3075 476.5,-65.3076 483.5,-65.3075"/>
</g>
</g>
</svg>
