<?xml version="1.0" encoding="UTF-8" standalone="no"?>
<!DOCTYPE svg PUBLIC "-//W3C//DTD SVG 1.1//EN"
 "http://www.w3.org/Graphics/SVG/1.1/DTD/svg11.dtd">
<!-- Generated by graphviz version 2.38.0 (20140413.2041)
 -->
<!-- Title: %3 Pages: 1 -->
<svg width="1265pt" height="38pt"
 viewBox="0.00 0.00 1264.85 37.70" xmlns="http://www.w3.org/2000/svg" xmlns:xlink="http://www.w3.org/1999/xlink">
<g id="graph0" class="graph" transform="scale(1 1) rotate(0) translate(4 33.6985)">
<title>%3</title>
<polygon fill="white" stroke="none" points="-4,4 -4,-33.6985 1260.85,-33.6985 1260.85,4 -4,4"/>
<!-- &#45;1 -->
<g id="node1" class="node"><title>&#45;1</title>
<polygon fill="lightgray" stroke="black" points="24,-23.8492 0,-23.8492 0,-5.84924 24,-5.84924 24,-23.8492"/>
<text text-anchor="middle" x="12" y="-12.6492" font-family="Times,serif" font-size="9.00">&#45;1</text>
</g>
<!-- &#45;2 -->
<g id="node2" class="node"><title>&#45;2</title>
<polygon fill="lightgray" stroke="black" points="66,-23.8492 42,-23.8492 42,-5.84924 66,-5.84924 66,-23.8492"/>
<text text-anchor="middle" x="54" y="-12.6492" font-family="Times,serif" font-size="9.00">&#45;2</text>
</g>
<!-- &#45;3 -->
<g id="node3" class="node"><title>&#45;3</title>
<polygon fill="lightgray" stroke="black" points="108,-23.8492 84,-23.8492 84,-5.84924 108,-5.84924 108,-23.8492"/>
<text text-anchor="middle" x="96" y="-12.6492" font-family="Times,serif" font-size="9.00">&#45;3</text>
</g>
<!-- &#45;4 -->
<g id="node4" class="node"><title>&#45;4</title>
<polygon fill="lightgray" stroke="black" points="150,-23.8492 126,-23.8492 126,-5.84924 150,-5.84924 150,-23.8492"/>
<text text-anchor="middle" x="138" y="-12.6492" font-family="Times,serif" font-size="9.00">&#45;4</text>
</g>
<!-- &#45;5 -->
<g id="node5" class="node"><title>&#45;5</title>
<polygon fill="lightgray" stroke="black" points="192,-23.8492 168,-23.8492 168,-5.84924 192,-5.84924 192,-23.8492"/>
<text text-anchor="middle" x="180" y="-12.6492" font-family="Times,serif" font-size="9.00">&#45;5</text>
</g>
<!-- &#45;6 -->
<g id="node6" class="node"><title>&#45;6</title>
<polygon fill="lightgray" stroke="black" points="234,-23.8492 210,-23.8492 210,-5.84924 234,-5.84924 234,-23.8492"/>
<text text-anchor="middle" x="222" y="-12.6492" font-family="Times,serif" font-size="9.00">&#45;6</text>
</g>
<!-- &#45;7 -->
<g id="node7" class="node"><title>&#45;7</title>
<polygon fill="lightgray" stroke="black" points="276,-23.8492 252,-23.8492 252,-5.84924 276,-5.84924 276,-23.8492"/>
<text text-anchor="middle" x="264" y="-12.6492" font-family="Times,serif" font-size="9.00">&#45;7</text>
</g>
<!-- &#45;8 -->
<g id="node8" class="node"><title>&#45;8</title>
<polygon fill="lightgray" stroke="black" points="318,-23.8492 294,-23.8492 294,-5.84924 318,-5.84924 318,-23.8492"/>
<text text-anchor="middle" x="306" y="-12.6492" font-family="Times,serif" font-size="9.00">&#45;8</text>
</g>
<!-- &#45;9 -->
<g id="node9" class="node"><title>&#45;9</title>
<polygon fill="lightgray" stroke="black" points="360,-23.8492 336,-23.8492 336,-5.84924 360,-5.84924 360,-23.8492"/>
<text text-anchor="middle" x="348" y="-12.6492" font-family="Times,serif" font-size="9.00">&#45;9</text>
</g>
<!-- &#45;10 -->
<g id="node10" class="node"><title>&#45;10</title>
<polygon fill="lightgray" stroke="black" points="407.5,-23.8492 378.5,-23.8492 378.5,-5.84924 407.5,-5.84924 407.5,-23.8492"/>
<text text-anchor="middle" x="393" y="-12.6492" font-family="Times,serif" font-size="9.00">&#45;10</text>
</g>
<!-- &#45;11 -->
<g id="node11" class="node"><title>&#45;11</title>
<polygon fill="lightgray" stroke="black" points="454.5,-23.8492 425.5,-23.8492 425.5,-5.84924 454.5,-5.84924 454.5,-23.8492"/>
<text text-anchor="middle" x="440" y="-12.6492" font-family="Times,serif" font-size="9.00">&#45;11</text>
</g>
<!-- &#45;12 -->
<g id="node12" class="node"><title>&#45;12</title>
<polygon fill="lightgray" stroke="black" points="501.5,-23.8492 472.5,-23.8492 472.5,-5.84924 501.5,-5.84924 501.5,-23.8492"/>
<text text-anchor="middle" x="487" y="-12.6492" font-family="Times,serif" font-size="9.00">&#45;12</text>
</g>
<!-- &#45;13 -->
<g id="node13" class="node"><title>&#45;13</title>
<polygon fill="lightgray" stroke="black" points="548.5,-23.8492 519.5,-23.8492 519.5,-5.84924 548.5,-5.84924 548.5,-23.8492"/>
<text text-anchor="middle" x="534" y="-12.6492" font-family="Times,serif" font-size="9.00">&#45;13</text>
</g>
<!-- &#45;14 -->
<g id="node14" class="node"><title>&#45;14</title>
<polygon fill="lightgray" stroke="black" points="595.5,-23.8492 566.5,-23.8492 566.5,-5.84924 595.5,-5.84924 595.5,-23.8492"/>
<text text-anchor="middle" x="581" y="-12.6492" font-family="Times,serif" font-size="9.00">&#45;14</text>
</g>
<!-- &#45;15 -->
<g id="node15" class="node"><title>&#45;15</title>
<polygon fill="lightgray" stroke="black" points="642.5,-23.8492 613.5,-23.8492 613.5,-5.84924 642.5,-5.84924 642.5,-23.8492"/>
<text text-anchor="middle" x="628" y="-12.6492" font-family="Times,serif" font-size="9.00">&#45;15</text>
</g>
<!-- &#45;16 -->
<g id="node16" class="node"><title>&#45;16</title>
<polygon fill="lightgray" stroke="black" points="689.5,-23.8492 660.5,-23.8492 660.5,-5.84924 689.5,-5.84924 689.5,-23.8492"/>
<text text-anchor="middle" x="675" y="-12.6492" font-family="Times,serif" font-size="9.00">&#45;16</text>
</g>
<!-- &#45;17 -->
<g id="node17" class="node"><title>&#45;17</title>
<polygon fill="lightgray" stroke="black" points="736.5,-23.8492 707.5,-23.8492 707.5,-5.84924 736.5,-5.84924 736.5,-23.8492"/>
<text text-anchor="middle" x="722" y="-12.6492" font-family="Times,serif" font-size="9.00">&#45;17</text>
</g>
<!-- &#45;18 -->
<g id="node18" class="node"><title>&#45;18</title>
<polygon fill="lightgray" stroke="black" points="783.5,-23.8492 754.5,-23.8492 754.5,-5.84924 783.5,-5.84924 783.5,-23.8492"/>
<text text-anchor="middle" x="769" y="-12.6492" font-family="Times,serif" font-size="9.00">&#45;18</text>
</g>
<!-- &#45;19 -->
<g id="node19" class="node"><title>&#45;19</title>
<polygon fill="lightgray" stroke="black" points="830.5,-23.8492 801.5,-23.8492 801.5,-5.84924 830.5,-5.84924 830.5,-23.8492"/>
<text text-anchor="middle" x="816" y="-12.6492" font-family="Times,serif" font-size="9.00">&#45;19</text>
</g>
<!-- &#45;20 -->
<g id="node20" class="node"><title>&#45;20</title>
<polygon fill="lightgray" stroke="black" points="877.5,-23.8492 848.5,-23.8492 848.5,-5.84924 877.5,-5.84924 877.5,-23.8492"/>
<text text-anchor="middle" x="863" y="-12.6492" font-family="Times,serif" font-size="9.00">&#45;20</text>
</g>
<!-- &#45;21 -->
<g id="node21" class="node"><title>&#45;21</title>
<polygon fill="lightgray" stroke="black" points="924.5,-23.8492 895.5,-23.8492 895.5,-5.84924 924.5,-5.84924 924.5,-23.8492"/>
<text text-anchor="middle" x="910" y="-12.6492" font-family="Times,serif" font-size="9.00">&#45;21</text>
</g>
<!-- &#45;22 -->
<g id="node22" class="node"><title>&#45;22</title>
<polygon fill="lightgray" stroke="black" points="971.5,-23.8492 942.5,-23.8492 942.5,-5.84924 971.5,-5.84924 971.5,-23.8492"/>
<text text-anchor="middle" x="957" y="-12.6492" font-family="Times,serif" font-size="9.00">&#45;22</text>
</g>
<!-- &#45;23 -->
<g id="node23" class="node"><title>&#45;23</title>
<polygon fill="lightgray" stroke="black" points="1018.5,-23.8492 989.5,-23.8492 989.5,-5.84924 1018.5,-5.84924 1018.5,-23.8492"/>
<text text-anchor="middle" x="1004" y="-12.6492" font-family="Times,serif" font-size="9.00">&#45;23</text>
</g>
<!-- &#45;24 -->
<g id="node24" class="node"><title>&#45;24</title>
<polygon fill="lightgray" stroke="black" points="1065.5,-23.8492 1036.5,-23.8492 1036.5,-5.84924 1065.5,-5.84924 1065.5,-23.8492"/>
<text text-anchor="middle" x="1051" y="-12.6492" font-family="Times,serif" font-size="9.00">&#45;24</text>
</g>
<!-- 0 -->
<g id="node25" class="node"><title>0</title>
<ellipse fill="lightblue" stroke="black" cx="1098" cy="-14.8492" rx="14.7" ry="14.7"/>
<text text-anchor="middle" x="1098" y="-12.6492" font-family="Times,serif" font-size="9.00">0</text>
</g>
<!-- 1 -->
<g id="node26" class="node"><title>1</title>
<ellipse fill="lightblue" stroke="black" cx="1146" cy="-14.8492" rx="14.7" ry="14.7"/>
<text text-anchor="middle" x="1146" y="-12.6492" font-family="Times,serif" font-size="9.00">1</text>
</g>
<!-- 2 -->
<g id="node27" class="node"><title>2</title>
<ellipse fill="lightblue" stroke="black" cx="1194" cy="-14.8492" rx="14.7" ry="14.7"/>
<text text-anchor="middle" x="1194" y="-12.6492" font-family="Times,serif" font-size="9.00">2</text>
</g>
<!-- 3 -->
<g id="node28" class="node"><title>3</title>
<ellipse fill="lightblue" stroke="black" cx="1242" cy="-14.8492" rx="14.7" ry="14.7"/>
<text text-anchor="middle" x="1242" y="-12.6492" font-family="Times,serif" font-size="9.00">3</text>
</g>
</g>
</svg>
