<?xml version="1.0" encoding="UTF-8" standalone="no"?>
<!DOCTYPE svg PUBLIC "-//W3C//DTD SVG 1.1//EN"
 "http://www.w3.org/Graphics/SVG/1.1/DTD/svg11.dtd">
<!-- Generated by graphviz version 2.38.0 (20140413.2041)
 -->
<!-- Title: %3 Pages: 1 -->
<svg width="1196pt" height="337pt"
 viewBox="0.00 0.00 1195.58 336.62" xmlns="http://www.w3.org/2000/svg" xmlns:xlink="http://www.w3.org/1999/xlink">
<g id="graph0" class="graph" transform="scale(1 1) rotate(0) translate(4 332.617)">
<title>%3</title>
<polygon fill="white" stroke="none" points="-4,4 -4,-332.617 1191.58,-332.617 1191.58,4 -4,4"/>
<!-- &#45;1 -->
<g id="node1" class="node"><title>&#45;1</title>
<polygon fill="lightgray" stroke="black" points="24,-310.04 0,-310.04 0,-292.04 24,-292.04 24,-310.04"/>
<text text-anchor="middle" x="12" y="-298.84" font-family="Times,serif" font-size="9.00">&#45;1</text>
</g>
<!-- &#45;2 -->
<g id="node2" class="node"><title>&#45;2</title>
<polygon fill="lightgray" stroke="black" points="66,-310.04 42,-310.04 42,-292.04 66,-292.04 66,-310.04"/>
<text text-anchor="middle" x="54" y="-298.84" font-family="Times,serif" font-size="9.00">&#45;2</text>
</g>
<!-- 1 -->
<g id="node26" class="node"><title>1</title>
<ellipse fill="lightblue" stroke="black" cx="54" cy="-209.886" rx="14.7" ry="14.7"/>
<text text-anchor="middle" x="54" y="-207.686" font-family="Times,serif" font-size="9.00">1</text>
</g>
<!-- &#45;2&#45;&gt;1 -->
<g id="edge1" class="edge"><title>&#45;2&#45;&gt;1</title>
<path fill="none" stroke="red" stroke-width="0.281421" d="M54,-291.813C54,-279.056 54,-254.012 54,-235.145"/>
<polygon fill="red" stroke="red" stroke-width="0.281421" points="57.5001,-234.89 54,-224.89 50.5001,-234.89 57.5001,-234.89"/>
</g>
<!-- &#45;3 -->
<g id="node3" class="node"><title>&#45;3</title>
<polygon fill="lightgray" stroke="black" points="108,-310.04 84,-310.04 84,-292.04 108,-292.04 108,-310.04"/>
<text text-anchor="middle" x="96" y="-298.84" font-family="Times,serif" font-size="9.00">&#45;3</text>
</g>
<!-- &#45;4 -->
<g id="node4" class="node"><title>&#45;4</title>
<polygon fill="lightgray" stroke="black" points="150,-310.04 126,-310.04 126,-292.04 150,-292.04 150,-310.04"/>
<text text-anchor="middle" x="138" y="-298.84" font-family="Times,serif" font-size="9.00">&#45;4</text>
</g>
<!-- &#45;5 -->
<g id="node5" class="node"><title>&#45;5</title>
<polygon fill="lightgray" stroke="black" points="192,-310.04 168,-310.04 168,-292.04 192,-292.04 192,-310.04"/>
<text text-anchor="middle" x="180" y="-298.84" font-family="Times,serif" font-size="9.00">&#45;5</text>
</g>
<!-- &#45;6 -->
<g id="node6" class="node"><title>&#45;6</title>
<polygon fill="lightgray" stroke="black" points="234,-310.04 210,-310.04 210,-292.04 234,-292.04 234,-310.04"/>
<text text-anchor="middle" x="222" y="-298.84" font-family="Times,serif" font-size="9.00">&#45;6</text>
</g>
<!-- 2 -->
<g id="node27" class="node"><title>2</title>
<ellipse fill="lightblue" stroke="black" cx="264" cy="-209.886" rx="14.7" ry="14.7"/>
<text text-anchor="middle" x="264" y="-207.686" font-family="Times,serif" font-size="9.00">2</text>
</g>
<!-- &#45;6&#45;&gt;2 -->
<g id="edge5" class="edge"><title>&#45;6&#45;&gt;2</title>
<path fill="none" stroke="green" stroke-width="0.847923" d="M225.876,-291.813C232.136,-278.524 244.678,-251.901 253.668,-232.817"/>
<polygon fill="green" stroke="green" stroke-width="0.847923" points="256.898,-234.174 257.994,-223.636 250.566,-231.191 256.898,-234.174"/>
</g>
<!-- &#45;7 -->
<g id="node7" class="node"><title>&#45;7</title>
<polygon fill="lightgray" stroke="black" points="366,-310.04 342,-310.04 342,-292.04 366,-292.04 366,-310.04"/>
<text text-anchor="middle" x="354" y="-298.84" font-family="Times,serif" font-size="9.00">&#45;7</text>
</g>
<!-- &#45;8 -->
<g id="node8" class="node"><title>&#45;8</title>
<polygon fill="lightgray" stroke="black" points="276,-310.04 252,-310.04 252,-292.04 276,-292.04 276,-310.04"/>
<text text-anchor="middle" x="264" y="-298.84" font-family="Times,serif" font-size="9.00">&#45;8</text>
</g>
<!-- &#45;8&#45;&gt;2 -->
<g id="edge3" class="edge"><title>&#45;8&#45;&gt;2</title>
<path fill="none" stroke="green" stroke-width="1.63061" d="M264,-291.813C264,-279.056 264,-254.012 264,-235.145"/>
<polygon fill="green" stroke="green" stroke-width="1.63061" points="267.5,-234.89 264,-224.89 260.5,-234.89 267.5,-234.89"/>
</g>
<!-- &#45;9 -->
<g id="node9" class="node"><title>&#45;9</title>
<polygon fill="lightgray" stroke="black" points="408,-310.04 384,-310.04 384,-292.04 408,-292.04 408,-310.04"/>
<text text-anchor="middle" x="396" y="-298.84" font-family="Times,serif" font-size="9.00">&#45;9</text>
</g>
<!-- &#45;10 -->
<g id="node10" class="node"><title>&#45;10</title>
<polygon fill="lightgray" stroke="black" points="323.5,-310.04 294.5,-310.04 294.5,-292.04 323.5,-292.04 323.5,-310.04"/>
<text text-anchor="middle" x="309" y="-298.84" font-family="Times,serif" font-size="9.00">&#45;10</text>
</g>
<!-- &#45;10&#45;&gt;2 -->
<g id="edge2" class="edge"><title>&#45;10&#45;&gt;2</title>
<path fill="none" stroke="red" stroke-width="1.48439" d="M304.847,-291.813C298.14,-278.524 284.702,-251.901 275.07,-232.817"/>
<polygon fill="red" stroke="red" stroke-width="1.48439" points="278.066,-230.986 270.435,-223.636 271.817,-234.14 278.066,-230.986"/>
</g>
<!-- &#45;11 -->
<g id="node11" class="node"><title>&#45;11</title>
<polygon fill="lightgray" stroke="black" points="455.5,-310.04 426.5,-310.04 426.5,-292.04 455.5,-292.04 455.5,-310.04"/>
<text text-anchor="middle" x="441" y="-298.84" font-family="Times,serif" font-size="9.00">&#45;11</text>
</g>
<!-- &#45;12 -->
<g id="node12" class="node"><title>&#45;12</title>
<polygon fill="lightgray" stroke="black" points="502.5,-310.04 473.5,-310.04 473.5,-292.04 502.5,-292.04 502.5,-310.04"/>
<text text-anchor="middle" x="488" y="-298.84" font-family="Times,serif" font-size="9.00">&#45;12</text>
</g>
<!-- &#45;13 -->
<g id="node13" class="node"><title>&#45;13</title>
<polygon fill="lightgray" stroke="black" points="549.5,-310.04 520.5,-310.04 520.5,-292.04 549.5,-292.04 549.5,-310.04"/>
<text text-anchor="middle" x="535" y="-298.84" font-family="Times,serif" font-size="9.00">&#45;13</text>
</g>
<!-- &#45;14 -->
<g id="node14" class="node"><title>&#45;14</title>
<polygon fill="lightgray" stroke="black" points="596.5,-310.04 567.5,-310.04 567.5,-292.04 596.5,-292.04 596.5,-310.04"/>
<text text-anchor="middle" x="582" y="-298.84" font-family="Times,serif" font-size="9.00">&#45;14</text>
</g>
<!-- &#45;15 -->
<g id="node15" class="node"><title>&#45;15</title>
<polygon fill="lightgray" stroke="black" points="643.5,-310.04 614.5,-310.04 614.5,-292.04 643.5,-292.04 643.5,-310.04"/>
<text text-anchor="middle" x="629" y="-298.84" font-family="Times,serif" font-size="9.00">&#45;15</text>
</g>
<!-- &#45;16 -->
<g id="node16" class="node"><title>&#45;16</title>
<polygon fill="lightgray" stroke="black" points="690.5,-310.04 661.5,-310.04 661.5,-292.04 690.5,-292.04 690.5,-310.04"/>
<text text-anchor="middle" x="676" y="-298.84" font-family="Times,serif" font-size="9.00">&#45;16</text>
</g>
<!-- 21107 -->
<g id="node31" class="node"><title>21107</title>
<ellipse fill="white" stroke="black" cx="648" cy="-209.886" rx="27.6545" ry="27.6545"/>
<text text-anchor="middle" x="648" y="-207.686" font-family="Times,serif" font-size="9.00">21107</text>
</g>
<!-- &#45;16&#45;&gt;21107 -->
<g id="edge4" class="edge"><title>&#45;16&#45;&gt;21107</title>
<path fill="none" stroke="green" stroke-width="0.195082" d="M673.416,-291.813C670.134,-281.362 664.262,-262.666 658.989,-245.874"/>
<polygon fill="green" stroke="green" stroke-width="0.195082" points="662.312,-244.777 655.977,-236.285 655.634,-246.874 662.312,-244.777"/>
</g>
<!-- 18451 -->
<g id="node32" class="node"><title>18451</title>
<ellipse fill="white" stroke="black" cx="704" cy="-118.731" rx="27.6545" ry="27.6545"/>
<text text-anchor="middle" x="704" y="-116.531" font-family="Times,serif" font-size="9.00">18451</text>
</g>
<!-- &#45;16&#45;&gt;18451 -->
<g id="edge7" class="edge"><title>&#45;16&#45;&gt;18451</title>
<path fill="none" stroke="red" stroke-width="0.433273" d="M677.276,-291.824C680.933,-268.275 691.618,-199.467 698.317,-156.326"/>
<polygon fill="red" stroke="red" stroke-width="0.433273" points="701.811,-156.637 699.887,-146.219 694.894,-155.563 701.811,-156.637"/>
</g>
<!-- &#45;17 -->
<g id="node17" class="node"><title>&#45;17</title>
<polygon fill="lightgray" stroke="black" points="737.5,-310.04 708.5,-310.04 708.5,-292.04 737.5,-292.04 737.5,-310.04"/>
<text text-anchor="middle" x="723" y="-298.84" font-family="Times,serif" font-size="9.00">&#45;17</text>
</g>
<!-- &#45;18 -->
<g id="node18" class="node"><title>&#45;18</title>
<polygon fill="lightgray" stroke="black" points="784.5,-310.04 755.5,-310.04 755.5,-292.04 784.5,-292.04 784.5,-310.04"/>
<text text-anchor="middle" x="770" y="-298.84" font-family="Times,serif" font-size="9.00">&#45;18</text>
</g>
<!-- &#45;19 -->
<g id="node19" class="node"><title>&#45;19</title>
<polygon fill="lightgray" stroke="black" points="831.5,-310.04 802.5,-310.04 802.5,-292.04 831.5,-292.04 831.5,-310.04"/>
<text text-anchor="middle" x="817" y="-298.84" font-family="Times,serif" font-size="9.00">&#45;19</text>
</g>
<!-- &#45;20 -->
<g id="node20" class="node"><title>&#45;20</title>
<polygon fill="lightgray" stroke="black" points="878.5,-310.04 849.5,-310.04 849.5,-292.04 878.5,-292.04 878.5,-310.04"/>
<text text-anchor="middle" x="864" y="-298.84" font-family="Times,serif" font-size="9.00">&#45;20</text>
</g>
<!-- &#45;21 -->
<g id="node21" class="node"><title>&#45;21</title>
<polygon fill="lightgray" stroke="black" points="925.5,-310.04 896.5,-310.04 896.5,-292.04 925.5,-292.04 925.5,-310.04"/>
<text text-anchor="middle" x="911" y="-298.84" font-family="Times,serif" font-size="9.00">&#45;21</text>
</g>
<!-- &#45;22 -->
<g id="node22" class="node"><title>&#45;22</title>
<polygon fill="lightgray" stroke="black" points="761.5,-218.886 732.5,-218.886 732.5,-200.886 761.5,-200.886 761.5,-218.886"/>
<text text-anchor="middle" x="747" y="-207.686" font-family="Times,serif" font-size="9.00">&#45;22</text>
</g>
<!-- &#45;22&#45;&gt;18451 -->
<g id="edge6" class="edge"><title>&#45;22&#45;&gt;18451</title>
<path fill="none" stroke="green" stroke-width="0.887242" d="M743.032,-200.658C737.839,-189.892 728.425,-170.373 720.144,-153.203"/>
<polygon fill="green" stroke="green" stroke-width="0.887242" points="723.19,-151.462 715.693,-143.976 716.885,-154.503 723.19,-151.462"/>
</g>
<!-- &#45;23 -->
<g id="node23" class="node"><title>&#45;23</title>
<polygon fill="lightgray" stroke="black" points="972.5,-310.04 943.5,-310.04 943.5,-292.04 972.5,-292.04 972.5,-310.04"/>
<text text-anchor="middle" x="958" y="-298.84" font-family="Times,serif" font-size="9.00">&#45;23</text>
</g>
<!-- &#45;24 -->
<g id="node24" class="node"><title>&#45;24</title>
<polygon fill="lightgray" stroke="black" points="1019.5,-310.04 990.5,-310.04 990.5,-292.04 1019.5,-292.04 1019.5,-310.04"/>
<text text-anchor="middle" x="1005" y="-298.84" font-family="Times,serif" font-size="9.00">&#45;24</text>
</g>
<!-- 0 -->
<g id="node25" class="node"><title>0</title>
<ellipse fill="lightblue" stroke="black" cx="1052" cy="-301.04" rx="14.7" ry="14.7"/>
<text text-anchor="middle" x="1052" y="-298.84" font-family="Times,serif" font-size="9.00">0</text>
</g>
<!-- 3 -->
<g id="node28" class="node"><title>3</title>
<ellipse fill="lightblue" stroke="black" cx="1100" cy="-301.04" rx="14.7" ry="14.7"/>
<text text-anchor="middle" x="1100" y="-298.84" font-family="Times,serif" font-size="9.00">3</text>
</g>
<!-- 20930 -->
<g id="node29" class="node"><title>20930</title>
<ellipse fill="white" stroke="black" cx="704" cy="-27.5772" rx="27.6545" ry="27.6545"/>
<text text-anchor="middle" x="704" y="-25.3772" font-family="Times,serif" font-size="9.00">20930</text>
</g>
<!-- 20594 -->
<g id="node30" class="node"><title>20594</title>
<ellipse fill="white" stroke="black" cx="1160" cy="-301.04" rx="27.6545" ry="27.6545"/>
<text text-anchor="middle" x="1160" y="-298.84" font-family="Times,serif" font-size="9.00">20594</text>
</g>
<!-- 21107&#45;&gt;18451 -->
<g id="edge9" class="edge"><title>21107&#45;&gt;18451</title>
<path fill="none" stroke="red" stroke-width="0.163692" d="M662.421,-185.926C669.019,-175.423 676.943,-162.807 684.096,-151.419"/>
<polygon fill="red" stroke="red" stroke-width="0.163692" points="687.272,-152.943 689.627,-142.613 681.345,-149.22 687.272,-152.943"/>
</g>
<!-- 18451&#45;&gt;20930 -->
<g id="edge8" class="edge"><title>18451&#45;&gt;20930</title>
<path fill="none" stroke="green" stroke-width="0.25163" d="M704,-90.9823C704,-82.96 704,-74.0155 704,-65.4608"/>
<polygon fill="green" stroke="green" stroke-width="0.25163" points="707.5,-65.3075 704,-55.3075 700.5,-65.3076 707.5,-65.3075"/>
</g>
</g>
</svg>
