<?xml version="1.0" encoding="UTF-8" standalone="no"?>
<!DOCTYPE svg PUBLIC "-//W3C//DTD SVG 1.1//EN"
 "http://www.w3.org/Graphics/SVG/1.1/DTD/svg11.dtd">
<!-- Generated by graphviz version 2.38.0 (20140413.2041)
 -->
<!-- Title: %3 Pages: 1 -->
<svg width="1506pt" height="428pt"
 viewBox="0.00 0.00 1505.58 427.77" xmlns="http://www.w3.org/2000/svg" xmlns:xlink="http://www.w3.org/1999/xlink">
<g id="graph0" class="graph" transform="scale(1 1) rotate(0) translate(4 423.772)">
<title>%3</title>
<polygon fill="white" stroke="none" points="-4,4 -4,-423.772 1501.58,-423.772 1501.58,4 -4,4"/>
<!-- &#45;1 -->
<g id="node1" class="node"><title>&#45;1</title>
<polygon fill="lightgray" stroke="black" points="24,-401.194 0,-401.194 0,-383.194 24,-383.194 24,-401.194"/>
<text text-anchor="middle" x="12" y="-389.994" font-family="Times,serif" font-size="9.00">&#45;1</text>
</g>
<!-- &#45;2 -->
<g id="node2" class="node"><title>&#45;2</title>
<polygon fill="lightgray" stroke="black" points="66,-401.194 42,-401.194 42,-383.194 66,-383.194 66,-401.194"/>
<text text-anchor="middle" x="54" y="-389.994" font-family="Times,serif" font-size="9.00">&#45;2</text>
</g>
<!-- 44719 -->
<g id="node33" class="node"><title>44719</title>
<ellipse fill="white" stroke="black" cx="54" cy="-301.04" rx="27.6545" ry="27.6545"/>
<text text-anchor="middle" x="54" y="-298.84" font-family="Times,serif" font-size="9.00">44719</text>
</g>
<!-- &#45;2&#45;&gt;44719 -->
<g id="edge19" class="edge"><title>&#45;2&#45;&gt;44719</title>
<path fill="none" stroke="red" stroke-width="0.142223" stroke-dasharray="1,5" d="M54,-382.967C54,-372.995 54,-355.514 54,-339.345"/>
<polygon fill="red" stroke="red" stroke-width="0.142223" points="57.5001,-339.001 54,-329.001 50.5001,-339.001 57.5001,-339.001"/>
</g>
<!-- &#45;3 -->
<g id="node3" class="node"><title>&#45;3</title>
<polygon fill="lightgray" stroke="black" points="184,-401.194 160,-401.194 160,-383.194 184,-383.194 184,-401.194"/>
<text text-anchor="middle" x="172" y="-389.994" font-family="Times,serif" font-size="9.00">&#45;3</text>
</g>
<!-- &#45;4 -->
<g id="node4" class="node"><title>&#45;4</title>
<polygon fill="lightgray" stroke="black" points="528,-401.194 504,-401.194 504,-383.194 528,-383.194 528,-401.194"/>
<text text-anchor="middle" x="516" y="-389.994" font-family="Times,serif" font-size="9.00">&#45;4</text>
</g>
<!-- &#45;5 -->
<g id="node5" class="node"><title>&#45;5</title>
<polygon fill="lightgray" stroke="black" points="721,-401.194 697,-401.194 697,-383.194 721,-383.194 721,-401.194"/>
<text text-anchor="middle" x="709" y="-389.994" font-family="Times,serif" font-size="9.00">&#45;5</text>
</g>
<!-- &#45;6 -->
<g id="node6" class="node"><title>&#45;6</title>
<polygon fill="lightgray" stroke="black" points="197,-218.886 173,-218.886 173,-200.886 197,-200.886 197,-218.886"/>
<text text-anchor="middle" x="185" y="-207.686" font-family="Times,serif" font-size="9.00">&#45;6</text>
</g>
<!-- 3 -->
<g id="node28" class="node"><title>3</title>
<ellipse fill="lightblue" stroke="black" cx="156" cy="-118.731" rx="14.7" ry="14.7"/>
<text text-anchor="middle" x="156" y="-116.531" font-family="Times,serif" font-size="9.00">3</text>
</g>
<!-- &#45;6&#45;&gt;3 -->
<g id="edge8" class="edge"><title>&#45;6&#45;&gt;3</title>
<path fill="none" stroke="green" stroke-width="0.239466" d="M182.324,-200.658C178.088,-187.637 169.688,-161.813 163.512,-142.824"/>
<polygon fill="green" stroke="green" stroke-width="0.239466" points="166.771,-141.53 160.349,-133.103 160.114,-143.695 166.771,-141.53"/>
</g>
<!-- 48127 -->
<g id="node46" class="node"><title>48127</title>
<ellipse fill="white" stroke="black" cx="327" cy="-118.731" rx="27.6545" ry="27.6545"/>
<text text-anchor="middle" x="327" y="-116.531" font-family="Times,serif" font-size="9.00">48127</text>
</g>
<!-- &#45;6&#45;&gt;48127 -->
<g id="edge24" class="edge"><title>&#45;6&#45;&gt;48127</title>
<path fill="none" stroke="green" stroke-width="0.200001" stroke-dasharray="1,5" d="M190.116,-200.687C193.964,-195.005 199.649,-187.547 206,-182.309 231.885,-160.959 266.242,-144.053 291.731,-133.223"/>
<polygon fill="green" stroke="green" stroke-width="0.200001" points="293.129,-136.433 301.03,-129.374 290.452,-129.965 293.129,-136.433"/>
</g>
<!-- &#45;7 -->
<g id="node7" class="node"><title>&#45;7</title>
<polygon fill="lightgray" stroke="black" points="881,-401.194 857,-401.194 857,-383.194 881,-383.194 881,-401.194"/>
<text text-anchor="middle" x="869" y="-389.994" font-family="Times,serif" font-size="9.00">&#45;7</text>
</g>
<!-- &#45;8 -->
<g id="node8" class="node"><title>&#45;8</title>
<polygon fill="lightgray" stroke="black" points="451,-310.04 427,-310.04 427,-292.04 451,-292.04 451,-310.04"/>
<text text-anchor="middle" x="439" y="-298.84" font-family="Times,serif" font-size="9.00">&#45;8</text>
</g>
<!-- 49510 -->
<g id="node39" class="node"><title>49510</title>
<ellipse fill="white" stroke="black" cx="587" cy="-209.886" rx="27.6545" ry="27.6545"/>
<text text-anchor="middle" x="587" y="-207.686" font-family="Times,serif" font-size="9.00">49510</text>
</g>
<!-- &#45;8&#45;&gt;49510 -->
<g id="edge6" class="edge"><title>&#45;8&#45;&gt;49510</title>
<path fill="none" stroke="green" stroke-width="0.565521" d="M451.245,-293.704C471.975,-282.852 515.13,-259.721 550,-237.463 552.217,-236.048 554.482,-234.552 556.745,-233.021"/>
<polygon fill="green" stroke="green" stroke-width="0.565521" points="559.149,-235.612 565.361,-227.03 555.153,-229.865 559.149,-235.612"/>
</g>
<!-- 49647 -->
<g id="node43" class="node"><title>49647</title>
<ellipse fill="white" stroke="black" cx="467" cy="-209.886" rx="27.6545" ry="27.6545"/>
<text text-anchor="middle" x="467" y="-207.686" font-family="Times,serif" font-size="9.00">49647</text>
</g>
<!-- &#45;8&#45;&gt;49647 -->
<g id="edge10" class="edge"><title>&#45;8&#45;&gt;49647</title>
<path fill="none" stroke="green" stroke-width="0.344344" d="M441.584,-291.813C444.866,-281.362 450.738,-262.666 456.011,-245.874"/>
<polygon fill="green" stroke="green" stroke-width="0.344344" points="459.366,-246.874 459.023,-236.285 452.688,-244.777 459.366,-246.874"/>
</g>
<!-- 49274 -->
<g id="node45" class="node"><title>49274</title>
<ellipse fill="white" stroke="black" cx="355" cy="-209.886" rx="27.6545" ry="27.6545"/>
<text text-anchor="middle" x="355" y="-207.686" font-family="Times,serif" font-size="9.00">49274</text>
</g>
<!-- &#45;8&#45;&gt;49274 -->
<g id="edge17" class="edge"><title>&#45;8&#45;&gt;49274</title>
<path fill="none" stroke="green" stroke-width="0.157858" d="M431.248,-291.813C419.876,-279.742 398.138,-256.671 380.774,-238.241"/>
<polygon fill="green" stroke="green" stroke-width="0.157858" points="383.047,-235.55 373.642,-230.672 377.952,-240.351 383.047,-235.55"/>
</g>
<!-- &#45;8&#45;&gt;48127 -->
<g id="edge27" class="edge"><title>&#45;8&#45;&gt;48127</title>
<path fill="none" stroke="green" stroke-width="0.117629" stroke-dasharray="1,5" d="M436.997,-291.758C431.878,-271.688 416.934,-219.38 392,-182.309 382.247,-167.808 368.65,-154.062 356.412,-143.166"/>
<polygon fill="green" stroke="green" stroke-width="0.117629" points="358.476,-140.324 348.62,-136.438 353.901,-145.623 358.476,-140.324"/>
</g>
<!-- &#45;9 -->
<g id="node9" class="node"><title>&#45;9</title>
<polygon fill="lightgray" stroke="black" points="839,-401.194 815,-401.194 815,-383.194 839,-383.194 839,-401.194"/>
<text text-anchor="middle" x="827" y="-389.994" font-family="Times,serif" font-size="9.00">&#45;9</text>
</g>
<!-- 45393 -->
<g id="node38" class="node"><title>45393</title>
<ellipse fill="white" stroke="black" cx="827" cy="-301.04" rx="27.6545" ry="27.6545"/>
<text text-anchor="middle" x="827" y="-298.84" font-family="Times,serif" font-size="9.00">45393</text>
</g>
<!-- &#45;9&#45;&gt;45393 -->
<g id="edge5" class="edge"><title>&#45;9&#45;&gt;45393</title>
<path fill="none" stroke="red" stroke-width="0.22287" d="M827,-382.967C827,-372.995 827,-355.514 827,-339.345"/>
<polygon fill="red" stroke="red" stroke-width="0.22287" points="830.5,-339.001 827,-329.001 823.5,-339.001 830.5,-339.001"/>
</g>
<!-- &#45;10 -->
<g id="node10" class="node"><title>&#45;10</title>
<polygon fill="lightgray" stroke="black" points="708.5,-218.886 679.5,-218.886 679.5,-200.886 708.5,-200.886 708.5,-218.886"/>
<text text-anchor="middle" x="694" y="-207.686" font-family="Times,serif" font-size="9.00">&#45;10</text>
</g>
<!-- 2 -->
<g id="node27" class="node"><title>2</title>
<ellipse fill="lightblue" stroke="black" cx="593" cy="-118.731" rx="14.7" ry="14.7"/>
<text text-anchor="middle" x="593" y="-116.531" font-family="Times,serif" font-size="9.00">2</text>
</g>
<!-- &#45;10&#45;&gt;2 -->
<g id="edge3" class="edge"><title>&#45;10&#45;&gt;2</title>
<path fill="none" stroke="red" stroke-width="1.75626" d="M687.221,-200.62C682.6,-195.183 676.215,-188.041 670,-182.309 650.658,-164.47 643.305,-163.043 623,-146.309 619.11,-143.103 615.02,-139.584 611.154,-136.185"/>
<polygon fill="red" stroke="red" stroke-width="1.75626" points="613.464,-133.555 603.669,-129.516 608.807,-138.782 613.464,-133.555"/>
</g>
<!-- 45220 -->
<g id="node32" class="node"><title>45220</title>
<ellipse fill="white" stroke="black" cx="754" cy="-118.731" rx="27.6545" ry="27.6545"/>
<text text-anchor="middle" x="754" y="-116.531" font-family="Times,serif" font-size="9.00">45220</text>
</g>
<!-- &#45;10&#45;&gt;45220 -->
<g id="edge30" class="edge"><title>&#45;10&#45;&gt;45220</title>
<path fill="none" stroke="green" stroke-width="0.762232" d="M699.537,-200.658C707.166,-189.322 721.325,-168.283 733.295,-150.498"/>
<polygon fill="green" stroke="green" stroke-width="0.762232" points="736.277,-152.335 738.956,-142.085 730.469,-148.427 736.277,-152.335"/>
</g>
<!-- &#45;11 -->
<g id="node11" class="node"><title>&#45;11</title>
<polygon fill="lightgray" stroke="black" points="928.5,-401.194 899.5,-401.194 899.5,-383.194 928.5,-383.194 928.5,-401.194"/>
<text text-anchor="middle" x="914" y="-389.994" font-family="Times,serif" font-size="9.00">&#45;11</text>
</g>
<!-- &#45;12 -->
<g id="node12" class="node"><title>&#45;12</title>
<polygon fill="lightgray" stroke="black" points="975.5,-401.194 946.5,-401.194 946.5,-383.194 975.5,-383.194 975.5,-401.194"/>
<text text-anchor="middle" x="961" y="-389.994" font-family="Times,serif" font-size="9.00">&#45;12</text>
</g>
<!-- &#45;13 -->
<g id="node13" class="node"><title>&#45;13</title>
<polygon fill="lightgray" stroke="black" points="768.5,-310.04 739.5,-310.04 739.5,-292.04 768.5,-292.04 768.5,-310.04"/>
<text text-anchor="middle" x="754" y="-298.84" font-family="Times,serif" font-size="9.00">&#45;13</text>
</g>
<!-- 49131 -->
<g id="node42" class="node"><title>49131</title>
<ellipse fill="white" stroke="black" cx="754" cy="-209.886" rx="27.6545" ry="27.6545"/>
<text text-anchor="middle" x="754" y="-207.686" font-family="Times,serif" font-size="9.00">49131</text>
</g>
<!-- &#45;13&#45;&gt;49131 -->
<g id="edge16" class="edge"><title>&#45;13&#45;&gt;49131</title>
<path fill="none" stroke="red" stroke-width="0.284663" d="M754,-291.813C754,-281.841 754,-264.36 754,-248.191"/>
<polygon fill="red" stroke="red" stroke-width="0.284663" points="757.5,-247.847 754,-237.847 750.5,-247.847 757.5,-247.847"/>
</g>
<!-- &#45;14 -->
<g id="node14" class="node"><title>&#45;14</title>
<polygon fill="lightgray" stroke="black" points="541.5,-218.886 512.5,-218.886 512.5,-200.886 541.5,-200.886 541.5,-218.886"/>
<text text-anchor="middle" x="527" y="-207.686" font-family="Times,serif" font-size="9.00">&#45;14</text>
</g>
<!-- 0 -->
<g id="node25" class="node"><title>0</title>
<ellipse fill="lightblue" stroke="black" cx="527" cy="-118.731" rx="14.7" ry="14.7"/>
<text text-anchor="middle" x="527" y="-116.531" font-family="Times,serif" font-size="9.00">0</text>
</g>
<!-- &#45;14&#45;&gt;0 -->
<g id="edge18" class="edge"><title>&#45;14&#45;&gt;0</title>
<path fill="none" stroke="red" stroke-width="0.127444" stroke-dasharray="1,5" d="M527,-200.658C527,-187.902 527,-162.857 527,-143.99"/>
<polygon fill="red" stroke="red" stroke-width="0.127444" points="530.5,-143.735 527,-133.735 523.5,-143.735 530.5,-143.735"/>
</g>
<!-- &#45;14&#45;&gt;2 -->
<g id="edge20" class="edge"><title>&#45;14&#45;&gt;2</title>
<path fill="none" stroke="red" stroke-width="1.19143" d="M533.091,-200.658C543.33,-186.827 564.264,-158.549 578.467,-139.363"/>
<polygon fill="red" stroke="red" stroke-width="1.19143" points="581.319,-141.392 584.456,-131.273 575.693,-137.227 581.319,-141.392"/>
</g>
<!-- &#45;15 -->
<g id="node15" class="node"><title>&#45;15</title>
<polygon fill="lightgray" stroke="black" points="1022.5,-401.194 993.5,-401.194 993.5,-383.194 1022.5,-383.194 1022.5,-401.194"/>
<text text-anchor="middle" x="1008" y="-389.994" font-family="Times,serif" font-size="9.00">&#45;15</text>
</g>
<!-- 43013 -->
<g id="node30" class="node"><title>43013</title>
<ellipse fill="white" stroke="black" cx="1008" cy="-301.04" rx="27.6545" ry="27.6545"/>
<text text-anchor="middle" x="1008" y="-298.84" font-family="Times,serif" font-size="9.00">43013</text>
</g>
<!-- &#45;15&#45;&gt;43013 -->
<g id="edge15" class="edge"><title>&#45;15&#45;&gt;43013</title>
<path fill="none" stroke="red" stroke-width="0.314952" d="M1008,-382.967C1008,-372.995 1008,-355.514 1008,-339.345"/>
<polygon fill="red" stroke="red" stroke-width="0.314952" points="1011.5,-339.001 1008,-329.001 1004.5,-339.001 1011.5,-339.001"/>
</g>
<!-- &#45;16 -->
<g id="node16" class="node"><title>&#45;16</title>
<polygon fill="lightgray" stroke="black" points="661.5,-218.886 632.5,-218.886 632.5,-200.886 661.5,-200.886 661.5,-218.886"/>
<text text-anchor="middle" x="647" y="-207.686" font-family="Times,serif" font-size="9.00">&#45;16</text>
</g>
<!-- 1 -->
<g id="node26" class="node"><title>1</title>
<ellipse fill="lightblue" stroke="black" cx="647" cy="-118.731" rx="14.7" ry="14.7"/>
<text text-anchor="middle" x="647" y="-116.531" font-family="Times,serif" font-size="9.00">1</text>
</g>
<!-- &#45;16&#45;&gt;1 -->
<g id="edge12" class="edge"><title>&#45;16&#45;&gt;1</title>
<path fill="none" stroke="red" stroke-width="1.9284" d="M647,-200.658C647,-187.902 647,-162.857 647,-143.99"/>
<polygon fill="red" stroke="red" stroke-width="1.9284" points="650.5,-143.735 647,-133.735 643.5,-143.735 650.5,-143.735"/>
</g>
<!-- &#45;16&#45;&gt;2 -->
<g id="edge23" class="edge"><title>&#45;16&#45;&gt;2</title>
<path fill="none" stroke="green" stroke-width="0.306868" stroke-dasharray="1,5" d="M642.017,-200.658C633.804,-187.1 617.184,-159.659 605.585,-140.509"/>
<polygon fill="green" stroke="green" stroke-width="0.306868" points="608.527,-138.611 600.353,-131.871 602.54,-142.238 608.527,-138.611"/>
</g>
<!-- &#45;17 -->
<g id="node17" class="node"><title>&#45;17</title>
<polygon fill="lightgray" stroke="black" points="285.5,-310.04 256.5,-310.04 256.5,-292.04 285.5,-292.04 285.5,-310.04"/>
<text text-anchor="middle" x="271" y="-298.84" font-family="Times,serif" font-size="9.00">&#45;17</text>
</g>
<!-- 42819 -->
<g id="node37" class="node"><title>42819</title>
<ellipse fill="white" stroke="black" cx="243" cy="-209.886" rx="27.6545" ry="27.6545"/>
<text text-anchor="middle" x="243" y="-207.686" font-family="Times,serif" font-size="9.00">42819</text>
</g>
<!-- &#45;17&#45;&gt;42819 -->
<g id="edge21" class="edge"><title>&#45;17&#45;&gt;42819</title>
<path fill="none" stroke="green" stroke-width="0.465099" d="M268.416,-291.813C265.134,-281.362 259.262,-262.666 253.989,-245.874"/>
<polygon fill="green" stroke="green" stroke-width="0.465099" points="257.312,-244.777 250.977,-236.285 250.634,-246.874 257.312,-244.777"/>
</g>
<!-- &#45;17&#45;&gt;48127 -->
<g id="edge9" class="edge"><title>&#45;17&#45;&gt;48127</title>
<path fill="none" stroke="green" stroke-width="0.341619" stroke-dasharray="1,5" d="M273.552,-291.824C280.94,-268.034 302.675,-198.053 316.043,-155.009"/>
<polygon fill="green" stroke="green" stroke-width="0.341619" points="319.462,-155.802 319.086,-145.214 312.777,-153.726 319.462,-155.802"/>
</g>
<!-- &#45;18 -->
<g id="node18" class="node"><title>&#45;18</title>
<polygon fill="lightgray" stroke="black" points="1069.5,-401.194 1040.5,-401.194 1040.5,-383.194 1069.5,-383.194 1069.5,-401.194"/>
<text text-anchor="middle" x="1055" y="-389.994" font-family="Times,serif" font-size="9.00">&#45;18</text>
</g>
<!-- &#45;19 -->
<g id="node19" class="node"><title>&#45;19</title>
<polygon fill="lightgray" stroke="black" points="1116.5,-401.194 1087.5,-401.194 1087.5,-383.194 1116.5,-383.194 1116.5,-401.194"/>
<text text-anchor="middle" x="1102" y="-389.994" font-family="Times,serif" font-size="9.00">&#45;19</text>
</g>
<!-- &#45;20 -->
<g id="node20" class="node"><title>&#45;20</title>
<polygon fill="lightgray" stroke="black" points="1163.5,-401.194 1134.5,-401.194 1134.5,-383.194 1163.5,-383.194 1163.5,-401.194"/>
<text text-anchor="middle" x="1149" y="-389.994" font-family="Times,serif" font-size="9.00">&#45;20</text>
</g>
<!-- &#45;21 -->
<g id="node21" class="node"><title>&#45;21</title>
<polygon fill="lightgray" stroke="black" points="1210.5,-401.194 1181.5,-401.194 1181.5,-383.194 1210.5,-383.194 1210.5,-401.194"/>
<text text-anchor="middle" x="1196" y="-389.994" font-family="Times,serif" font-size="9.00">&#45;21</text>
</g>
<!-- &#45;22 -->
<g id="node22" class="node"><title>&#45;22</title>
<polygon fill="lightgray" stroke="black" points="1257.5,-401.194 1228.5,-401.194 1228.5,-383.194 1257.5,-383.194 1257.5,-401.194"/>
<text text-anchor="middle" x="1243" y="-389.994" font-family="Times,serif" font-size="9.00">&#45;22</text>
</g>
<!-- &#45;23 -->
<g id="node23" class="node"><title>&#45;23</title>
<polygon fill="lightgray" stroke="black" points="1304.5,-401.194 1275.5,-401.194 1275.5,-383.194 1304.5,-383.194 1304.5,-401.194"/>
<text text-anchor="middle" x="1290" y="-389.994" font-family="Times,serif" font-size="9.00">&#45;23</text>
</g>
<!-- &#45;24 -->
<g id="node24" class="node"><title>&#45;24</title>
<polygon fill="lightgray" stroke="black" points="1351.5,-401.194 1322.5,-401.194 1322.5,-383.194 1351.5,-383.194 1351.5,-401.194"/>
<text text-anchor="middle" x="1337" y="-389.994" font-family="Times,serif" font-size="9.00">&#45;24</text>
</g>
<!-- 49536 -->
<g id="node29" class="node"><title>49536</title>
<ellipse fill="white" stroke="black" cx="1337" cy="-301.04" rx="27.6545" ry="27.6545"/>
<text text-anchor="middle" x="1337" y="-298.84" font-family="Times,serif" font-size="9.00">49536</text>
</g>
<!-- &#45;24&#45;&gt;49536 -->
<g id="edge22" class="edge"><title>&#45;24&#45;&gt;49536</title>
<path fill="none" stroke="green" stroke-width="0.187719" d="M1337,-382.967C1337,-372.995 1337,-355.514 1337,-339.345"/>
<polygon fill="green" stroke="green" stroke-width="0.187719" points="1340.5,-339.001 1337,-329.001 1333.5,-339.001 1340.5,-339.001"/>
</g>
<!-- 47544 -->
<g id="node34" class="node"><title>47544</title>
<ellipse fill="white" stroke="black" cx="156" cy="-27.5772" rx="27.6545" ry="27.6545"/>
<text text-anchor="middle" x="156" y="-25.3772" font-family="Times,serif" font-size="9.00">47544</text>
</g>
<!-- 3&#45;&gt;47544 -->
<g id="edge2" class="edge"><title>3&#45;&gt;47544</title>
<path fill="none" stroke="red" stroke-width="1.00483" d="M156,-103.801C156,-93.4982 156,-78.962 156,-65.4107"/>
<polygon fill="red" stroke="red" stroke-width="1.00483" points="159.5,-65.3264 156,-55.3264 152.5,-65.3264 159.5,-65.3264"/>
</g>
<!-- 48006 -->
<g id="node31" class="node"><title>48006</title>
<ellipse fill="white" stroke="black" cx="127" cy="-301.04" rx="27.6545" ry="27.6545"/>
<text text-anchor="middle" x="127" y="-298.84" font-family="Times,serif" font-size="9.00">48006</text>
</g>
<!-- 49386 -->
<g id="node41" class="node"><title>49386</title>
<ellipse fill="white" stroke="black" cx="127" cy="-209.886" rx="27.6545" ry="27.6545"/>
<text text-anchor="middle" x="127" y="-207.686" font-family="Times,serif" font-size="9.00">49386</text>
</g>
<!-- 48006&#45;&gt;49386 -->
<g id="edge7" class="edge"><title>48006&#45;&gt;49386</title>
<path fill="none" stroke="green" stroke-width="0.381259" d="M127,-273.291C127,-265.269 127,-256.324 127,-247.769"/>
<polygon fill="green" stroke="green" stroke-width="0.381259" points="130.5,-247.616 127,-237.616 123.5,-247.616 130.5,-247.616"/>
</g>
<!-- 43581 -->
<g id="node35" class="node"><title>43581</title>
<ellipse fill="white" stroke="black" cx="827" cy="-118.731" rx="27.6545" ry="27.6545"/>
<text text-anchor="middle" x="827" y="-116.531" font-family="Times,serif" font-size="9.00">43581</text>
</g>
<!-- 49347 -->
<g id="node36" class="node"><title>49347</title>
<ellipse fill="white" stroke="black" cx="1397" cy="-392.194" rx="27.6545" ry="27.6545"/>
<text text-anchor="middle" x="1397" y="-389.994" font-family="Times,serif" font-size="9.00">49347</text>
</g>
<!-- 42819&#45;&gt;48127 -->
<g id="edge13" class="edge"><title>42819&#45;&gt;48127</title>
<path fill="none" stroke="green" stroke-width="0.263078" d="M261.642,-189.1C273.279,-176.749 288.423,-160.676 301.203,-147.112"/>
<polygon fill="green" stroke="green" stroke-width="0.263078" points="304.1,-149.141 308.41,-139.462 299.005,-144.341 304.1,-149.141"/>
</g>
<!-- 47474 -->
<g id="node44" class="node"><title>47474</title>
<ellipse fill="white" stroke="black" cx="827" cy="-209.886" rx="27.6545" ry="27.6545"/>
<text text-anchor="middle" x="827" y="-207.686" font-family="Times,serif" font-size="9.00">47474</text>
</g>
<!-- 45393&#45;&gt;47474 -->
<g id="edge1" class="edge"><title>45393&#45;&gt;47474</title>
<path fill="none" stroke="green" stroke-width="0.728304" stroke-dasharray="1,5" d="M827,-273.291C827,-265.269 827,-256.324 827,-247.769"/>
<polygon fill="green" stroke="green" stroke-width="0.728304" points="830.5,-247.616 827,-237.616 823.5,-247.616 830.5,-247.616"/>
</g>
<!-- 49510&#45;&gt;2 -->
<g id="edge26" class="edge"><title>49510&#45;&gt;2</title>
<path fill="none" stroke="green" stroke-width="0.814819" d="M588.8,-182.137C589.619,-169.963 590.582,-155.666 591.378,-143.829"/>
<polygon fill="green" stroke="green" stroke-width="0.814819" points="594.875,-143.995 592.054,-133.783 587.891,-143.525 594.875,-143.995"/>
</g>
<!-- 42216 -->
<g id="node40" class="node"><title>42216</title>
<ellipse fill="white" stroke="black" cx="1470" cy="-392.194" rx="27.6545" ry="27.6545"/>
<text text-anchor="middle" x="1470" y="-389.994" font-family="Times,serif" font-size="9.00">42216</text>
</g>
<!-- 49386&#45;&gt;3 -->
<g id="edge29" class="edge"><title>49386&#45;&gt;3</title>
<path fill="none" stroke="green" stroke-width="0.233747" d="M135.388,-183.099C139.544,-170.322 144.52,-155.025 148.541,-142.662"/>
<polygon fill="green" stroke="green" stroke-width="0.233747" points="151.891,-143.679 151.656,-133.086 145.234,-141.513 151.891,-143.679"/>
</g>
<!-- 49131&#45;&gt;45220 -->
<g id="edge4" class="edge"><title>49131&#45;&gt;45220</title>
<path fill="none" stroke="red" stroke-width="0.762501" d="M754,-182.137C754,-174.114 754,-165.17 754,-156.615"/>
<polygon fill="red" stroke="red" stroke-width="0.762501" points="757.5,-156.462 754,-146.462 750.5,-156.462 757.5,-156.462"/>
</g>
<!-- 49647&#45;&gt;48127 -->
<g id="edge28" class="edge"><title>49647&#45;&gt;48127</title>
<path fill="none" stroke="green" stroke-width="0.199076" d="M444.195,-194.363C421.046,-179.621 385.006,-156.671 359.003,-140.112"/>
<polygon fill="green" stroke="green" stroke-width="0.199076" points="360.577,-136.964 350.262,-134.545 356.817,-142.869 360.577,-136.964"/>
</g>
<!-- 47474&#45;&gt;45220 -->
<g id="edge11" class="edge"><title>47474&#45;&gt;45220</title>
<path fill="none" stroke="red" stroke-width="0.114483" d="M809.7,-187.757C800.154,-176.099 788.159,-161.45 777.747,-148.734"/>
<polygon fill="red" stroke="red" stroke-width="0.114483" points="780.219,-146.228 771.176,-140.708 774.803,-150.663 780.219,-146.228"/>
</g>
<!-- 47474&#45;&gt;43581 -->
<g id="edge25" class="edge"><title>47474&#45;&gt;43581</title>
<path fill="none" stroke="red" stroke-width="0.130382" stroke-dasharray="1,5" d="M827,-182.137C827,-174.114 827,-165.17 827,-156.615"/>
<polygon fill="red" stroke="red" stroke-width="0.130382" points="830.5,-156.462 827,-146.462 823.5,-156.462 830.5,-156.462"/>
</g>
<!-- 49274&#45;&gt;48127 -->
<g id="edge14" class="edge"><title>49274&#45;&gt;48127</title>
<path fill="none" stroke="red" stroke-width="0.576736" d="M346.901,-183.099C344.12,-174.244 340.959,-164.178 337.988,-154.717"/>
<polygon fill="red" stroke="red" stroke-width="0.576736" points="341.319,-153.645 334.984,-145.153 334.641,-155.742 341.319,-153.645"/>
</g>
</g>
</svg>
