<?xml version="1.0" encoding="UTF-8" standalone="no"?>
<!DOCTYPE svg PUBLIC "-//W3C//DTD SVG 1.1//EN"
 "http://www.w3.org/Graphics/SVG/1.1/DTD/svg11.dtd">
<!-- Generated by graphviz version 2.38.0 (20140413.2041)
 -->
<!-- Title: %3 Pages: 1 -->
<svg width="1170pt" height="311pt"
 viewBox="0.00 0.00 1169.85 311.16" xmlns="http://www.w3.org/2000/svg" xmlns:xlink="http://www.w3.org/1999/xlink">
<g id="graph0" class="graph" transform="scale(1 1) rotate(0) translate(4 307.161)">
<title>%3</title>
<polygon fill="white" stroke="none" points="-4,4 -4,-307.161 1165.85,-307.161 1165.85,4 -4,4"/>
<!-- &#45;1 -->
<g id="node1" class="node"><title>&#45;1</title>
<polygon fill="lightgray" stroke="black" points="24,-297.312 0,-297.312 0,-279.312 24,-279.312 24,-297.312"/>
<text text-anchor="middle" x="12" y="-286.112" font-family="Times,serif" font-size="9.00">&#45;1</text>
</g>
<!-- &#45;2 -->
<g id="node2" class="node"><title>&#45;2</title>
<polygon fill="lightgray" stroke="black" points="66,-297.312 42,-297.312 42,-279.312 66,-279.312 66,-297.312"/>
<text text-anchor="middle" x="54" y="-286.112" font-family="Times,serif" font-size="9.00">&#45;2</text>
</g>
<!-- 1 -->
<g id="node26" class="node"><title>1</title>
<ellipse fill="lightblue" stroke="black" cx="54" cy="-209.886" rx="14.7" ry="14.7"/>
<text text-anchor="middle" x="54" y="-207.686" font-family="Times,serif" font-size="9.00">1</text>
</g>
<!-- &#45;2&#45;&gt;1 -->
<g id="edge1" class="edge"><title>&#45;2&#45;&gt;1</title>
<path fill="none" stroke="red" stroke-width="0.648477" d="M54,-279.133C54,-268.722 54,-250.275 54,-235.182"/>
<polygon fill="red" stroke="red" stroke-width="0.648477" points="57.5001,-234.948 54,-224.948 50.5001,-234.948 57.5001,-234.948"/>
</g>
<!-- &#45;3 -->
<g id="node3" class="node"><title>&#45;3</title>
<polygon fill="lightgray" stroke="black" points="108,-297.312 84,-297.312 84,-279.312 108,-279.312 108,-297.312"/>
<text text-anchor="middle" x="96" y="-286.112" font-family="Times,serif" font-size="9.00">&#45;3</text>
</g>
<!-- &#45;4 -->
<g id="node4" class="node"><title>&#45;4</title>
<polygon fill="lightgray" stroke="black" points="150,-297.312 126,-297.312 126,-279.312 150,-279.312 150,-297.312"/>
<text text-anchor="middle" x="138" y="-286.112" font-family="Times,serif" font-size="9.00">&#45;4</text>
</g>
<!-- &#45;5 -->
<g id="node5" class="node"><title>&#45;5</title>
<polygon fill="lightgray" stroke="black" points="192,-297.312 168,-297.312 168,-279.312 192,-279.312 192,-297.312"/>
<text text-anchor="middle" x="180" y="-286.112" font-family="Times,serif" font-size="9.00">&#45;5</text>
</g>
<!-- &#45;6 -->
<g id="node6" class="node"><title>&#45;6</title>
<polygon fill="lightgray" stroke="black" points="234,-297.312 210,-297.312 210,-279.312 234,-279.312 234,-297.312"/>
<text text-anchor="middle" x="222" y="-286.112" font-family="Times,serif" font-size="9.00">&#45;6</text>
</g>
<!-- 2 -->
<g id="node27" class="node"><title>2</title>
<ellipse fill="lightblue" stroke="black" cx="264" cy="-209.886" rx="14.7" ry="14.7"/>
<text text-anchor="middle" x="264" y="-207.686" font-family="Times,serif" font-size="9.00">2</text>
</g>
<!-- &#45;6&#45;&gt;2 -->
<g id="edge7" class="edge"><title>&#45;6&#45;&gt;2</title>
<path fill="none" stroke="green" stroke-width="0.934387" d="M226.495,-279.133C232.593,-268.036 243.709,-247.809 252.262,-232.246"/>
<polygon fill="green" stroke="green" stroke-width="0.934387" points="255.439,-233.731 257.188,-223.282 249.304,-230.36 255.439,-233.731"/>
</g>
<!-- &#45;7 -->
<g id="node7" class="node"><title>&#45;7</title>
<polygon fill="lightgray" stroke="black" points="366,-297.312 342,-297.312 342,-279.312 366,-279.312 366,-297.312"/>
<text text-anchor="middle" x="354" y="-286.112" font-family="Times,serif" font-size="9.00">&#45;7</text>
</g>
<!-- &#45;8 -->
<g id="node8" class="node"><title>&#45;8</title>
<polygon fill="lightgray" stroke="black" points="276,-297.312 252,-297.312 252,-279.312 276,-279.312 276,-297.312"/>
<text text-anchor="middle" x="264" y="-286.112" font-family="Times,serif" font-size="9.00">&#45;8</text>
</g>
<!-- &#45;8&#45;&gt;2 -->
<g id="edge3" class="edge"><title>&#45;8&#45;&gt;2</title>
<path fill="none" stroke="green" stroke-width="1.35581" d="M264,-279.133C264,-268.722 264,-250.275 264,-235.182"/>
<polygon fill="green" stroke="green" stroke-width="1.35581" points="267.5,-234.948 264,-224.948 260.5,-234.948 267.5,-234.948"/>
</g>
<!-- &#45;9 -->
<g id="node9" class="node"><title>&#45;9</title>
<polygon fill="lightgray" stroke="black" points="408,-297.312 384,-297.312 384,-279.312 408,-279.312 408,-297.312"/>
<text text-anchor="middle" x="396" y="-286.112" font-family="Times,serif" font-size="9.00">&#45;9</text>
</g>
<!-- &#45;10 -->
<g id="node10" class="node"><title>&#45;10</title>
<polygon fill="lightgray" stroke="black" points="323.5,-297.312 294.5,-297.312 294.5,-279.312 323.5,-279.312 323.5,-297.312"/>
<text text-anchor="middle" x="309" y="-286.112" font-family="Times,serif" font-size="9.00">&#45;10</text>
</g>
<!-- &#45;10&#45;&gt;2 -->
<g id="edge2" class="edge"><title>&#45;10&#45;&gt;2</title>
<path fill="none" stroke="red" stroke-width="1.25696" d="M304.184,-279.133C297.612,-267.972 285.603,-247.576 276.419,-231.978"/>
<polygon fill="red" stroke="red" stroke-width="1.25696" points="279.23,-229.853 271.14,-223.012 273.198,-233.405 279.23,-229.853"/>
</g>
<!-- &#45;11 -->
<g id="node11" class="node"><title>&#45;11</title>
<polygon fill="lightgray" stroke="black" points="455.5,-297.312 426.5,-297.312 426.5,-279.312 455.5,-279.312 455.5,-297.312"/>
<text text-anchor="middle" x="441" y="-286.112" font-family="Times,serif" font-size="9.00">&#45;11</text>
</g>
<!-- &#45;12 -->
<g id="node12" class="node"><title>&#45;12</title>
<polygon fill="lightgray" stroke="black" points="502.5,-297.312 473.5,-297.312 473.5,-279.312 502.5,-279.312 502.5,-297.312"/>
<text text-anchor="middle" x="488" y="-286.112" font-family="Times,serif" font-size="9.00">&#45;12</text>
</g>
<!-- &#45;13 -->
<g id="node13" class="node"><title>&#45;13</title>
<polygon fill="lightgray" stroke="black" points="549.5,-297.312 520.5,-297.312 520.5,-279.312 549.5,-279.312 549.5,-297.312"/>
<text text-anchor="middle" x="535" y="-286.112" font-family="Times,serif" font-size="9.00">&#45;13</text>
</g>
<!-- &#45;14 -->
<g id="node14" class="node"><title>&#45;14</title>
<polygon fill="lightgray" stroke="black" points="596.5,-297.312 567.5,-297.312 567.5,-279.312 596.5,-279.312 596.5,-297.312"/>
<text text-anchor="middle" x="582" y="-286.112" font-family="Times,serif" font-size="9.00">&#45;14</text>
</g>
<!-- &#45;15 -->
<g id="node15" class="node"><title>&#45;15</title>
<polygon fill="lightgray" stroke="black" points="643.5,-297.312 614.5,-297.312 614.5,-279.312 643.5,-279.312 643.5,-297.312"/>
<text text-anchor="middle" x="629" y="-286.112" font-family="Times,serif" font-size="9.00">&#45;15</text>
</g>
<!-- &#45;16 -->
<g id="node16" class="node"><title>&#45;16</title>
<polygon fill="lightgray" stroke="black" points="690.5,-297.312 661.5,-297.312 661.5,-279.312 690.5,-279.312 690.5,-297.312"/>
<text text-anchor="middle" x="676" y="-286.112" font-family="Times,serif" font-size="9.00">&#45;16</text>
</g>
<!-- &#45;17 -->
<g id="node17" class="node"><title>&#45;17</title>
<polygon fill="lightgray" stroke="black" points="737.5,-297.312 708.5,-297.312 708.5,-279.312 737.5,-279.312 737.5,-297.312"/>
<text text-anchor="middle" x="723" y="-286.112" font-family="Times,serif" font-size="9.00">&#45;17</text>
</g>
<!-- &#45;18 -->
<g id="node18" class="node"><title>&#45;18</title>
<polygon fill="lightgray" stroke="black" points="784.5,-297.312 755.5,-297.312 755.5,-279.312 784.5,-279.312 784.5,-297.312"/>
<text text-anchor="middle" x="770" y="-286.112" font-family="Times,serif" font-size="9.00">&#45;18</text>
</g>
<!-- &#45;19 -->
<g id="node19" class="node"><title>&#45;19</title>
<polygon fill="lightgray" stroke="black" points="831.5,-297.312 802.5,-297.312 802.5,-279.312 831.5,-279.312 831.5,-297.312"/>
<text text-anchor="middle" x="817" y="-286.112" font-family="Times,serif" font-size="9.00">&#45;19</text>
</g>
<!-- &#45;20 -->
<g id="node20" class="node"><title>&#45;20</title>
<polygon fill="lightgray" stroke="black" points="878.5,-297.312 849.5,-297.312 849.5,-279.312 878.5,-279.312 878.5,-297.312"/>
<text text-anchor="middle" x="864" y="-286.112" font-family="Times,serif" font-size="9.00">&#45;20</text>
</g>
<!-- &#45;21 -->
<g id="node21" class="node"><title>&#45;21</title>
<polygon fill="lightgray" stroke="black" points="925.5,-297.312 896.5,-297.312 896.5,-279.312 925.5,-279.312 925.5,-297.312"/>
<text text-anchor="middle" x="911" y="-286.112" font-family="Times,serif" font-size="9.00">&#45;21</text>
</g>
<!-- &#45;22 -->
<g id="node22" class="node"><title>&#45;22</title>
<polygon fill="lightgray" stroke="black" points="972.5,-297.312 943.5,-297.312 943.5,-279.312 972.5,-279.312 972.5,-297.312"/>
<text text-anchor="middle" x="958" y="-286.112" font-family="Times,serif" font-size="9.00">&#45;22</text>
</g>
<!-- 18451 -->
<g id="node31" class="node"><title>18451</title>
<ellipse fill="white" stroke="black" cx="958" cy="-209.886" rx="27.6545" ry="27.6545"/>
<text text-anchor="middle" x="958" y="-207.686" font-family="Times,serif" font-size="9.00">18451</text>
</g>
<!-- &#45;22&#45;&gt;18451 -->
<g id="edge5" class="edge"><title>&#45;22&#45;&gt;18451</title>
<path fill="none" stroke="red" stroke-width="0.358405" d="M958,-279.133C958,-271.509 958,-259.575 958,-247.805"/>
<polygon fill="red" stroke="red" stroke-width="0.358405" points="961.5,-247.616 958,-237.616 954.5,-247.616 961.5,-247.616"/>
</g>
<!-- &#45;23 -->
<g id="node23" class="node"><title>&#45;23</title>
<polygon fill="lightgray" stroke="black" points="1019.5,-297.312 990.5,-297.312 990.5,-279.312 1019.5,-279.312 1019.5,-297.312"/>
<text text-anchor="middle" x="1005" y="-286.112" font-family="Times,serif" font-size="9.00">&#45;23</text>
</g>
<!-- &#45;24 -->
<g id="node24" class="node"><title>&#45;24</title>
<polygon fill="lightgray" stroke="black" points="1066.5,-297.312 1037.5,-297.312 1037.5,-279.312 1066.5,-279.312 1066.5,-297.312"/>
<text text-anchor="middle" x="1052" y="-286.112" font-family="Times,serif" font-size="9.00">&#45;24</text>
</g>
<!-- 0 -->
<g id="node25" class="node"><title>0</title>
<ellipse fill="lightblue" stroke="black" cx="1099" cy="-288.312" rx="14.7" ry="14.7"/>
<text text-anchor="middle" x="1099" y="-286.112" font-family="Times,serif" font-size="9.00">0</text>
</g>
<!-- 3 -->
<g id="node28" class="node"><title>3</title>
<ellipse fill="lightblue" stroke="black" cx="1147" cy="-288.312" rx="14.7" ry="14.7"/>
<text text-anchor="middle" x="1147" y="-286.112" font-family="Times,serif" font-size="9.00">3</text>
</g>
<!-- 20930 -->
<g id="node29" class="node"><title>20930</title>
<ellipse fill="white" stroke="black" cx="958" cy="-118.731" rx="27.6545" ry="27.6545"/>
<text text-anchor="middle" x="958" y="-116.531" font-family="Times,serif" font-size="9.00">20930</text>
</g>
<!-- 20594 -->
<g id="node30" class="node"><title>20594</title>
<ellipse fill="white" stroke="black" cx="958" cy="-27.5772" rx="27.6545" ry="27.6545"/>
<text text-anchor="middle" x="958" y="-25.3772" font-family="Times,serif" font-size="9.00">20594</text>
</g>
<!-- 20930&#45;&gt;20594 -->
<g id="edge4" class="edge"><title>20930&#45;&gt;20594</title>
<path fill="none" stroke="red" stroke-width="0.195352" d="M958,-90.9823C958,-82.96 958,-74.0155 958,-65.4608"/>
<polygon fill="red" stroke="red" stroke-width="0.195352" points="961.5,-65.3075 958,-55.3075 954.5,-65.3076 961.5,-65.3075"/>
</g>
<!-- 18451&#45;&gt;20930 -->
<g id="edge6" class="edge"><title>18451&#45;&gt;20930</title>
<path fill="none" stroke="red" stroke-width="0.138081" d="M958,-182.137C958,-174.114 958,-165.17 958,-156.615"/>
<polygon fill="red" stroke="red" stroke-width="0.138081" points="961.5,-156.462 958,-146.462 954.5,-156.462 961.5,-156.462"/>
</g>
</g>
</svg>
