<?xml version="1.0" encoding="UTF-8" standalone="no"?>
<!DOCTYPE svg PUBLIC "-//W3C//DTD SVG 1.1//EN"
 "http://www.w3.org/Graphics/SVG/1.1/DTD/svg11.dtd">
<!-- Generated by graphviz version 2.38.0 (20140413.2041)
 -->
<!-- Title: %3 Pages: 1 -->
<svg width="1681pt" height="228pt"
 viewBox="0.00 0.00 1681.21 228.49" xmlns="http://www.w3.org/2000/svg" xmlns:xlink="http://www.w3.org/1999/xlink">
<g id="graph0" class="graph" transform="scale(1 1) rotate(0) translate(4 224.492)">
<title>%3</title>
<polygon fill="white" stroke="none" points="-4,4 -4,-224.492 1677.21,-224.492 1677.21,4 -4,4"/>
<!-- &#45;1 -->
<g id="node1" class="node"><title>&#45;1</title>
<polygon fill="lightgray" stroke="black" points="24,-204.744 0,-204.744 0,-186.744 24,-186.744 24,-204.744"/>
<text text-anchor="middle" x="12" y="-193.544" font-family="Times,serif" font-size="9.00">&#45;1</text>
</g>
<!-- &#45;2 -->
<g id="node2" class="node"><title>&#45;2</title>
<polygon fill="lightgray" stroke="black" points="66,-204.744 42,-204.744 42,-186.744 66,-186.744 66,-204.744"/>
<text text-anchor="middle" x="54" y="-193.544" font-family="Times,serif" font-size="9.00">&#45;2</text>
</g>
<!-- 2773 -->
<g id="node35" class="node"><title>2773</title>
<ellipse fill="white" stroke="black" cx="54" cy="-110.246" rx="25" ry="25"/>
<text text-anchor="middle" x="54" y="-108.046" font-family="Times,serif" font-size="9.00">2773</text>
</g>
<!-- &#45;2&#45;&gt;2773 -->
<g id="edge2" class="edge"><title>&#45;2&#45;&gt;2773</title>
<path fill="none" stroke="red" stroke-width="0.193108" d="M54,-186.738C54,-177.186 54,-160.597 54,-145.398"/>
<polygon fill="red" stroke="red" stroke-width="0.193108" points="57.5001,-145.201 54,-135.201 50.5001,-145.201 57.5001,-145.201"/>
</g>
<!-- &#45;3 -->
<g id="node3" class="node"><title>&#45;3</title>
<polygon fill="lightgray" stroke="black" points="108,-204.744 84,-204.744 84,-186.744 108,-186.744 108,-204.744"/>
<text text-anchor="middle" x="96" y="-193.544" font-family="Times,serif" font-size="9.00">&#45;3</text>
</g>
<!-- &#45;4 -->
<g id="node4" class="node"><title>&#45;4</title>
<polygon fill="lightgray" stroke="black" points="150,-204.744 126,-204.744 126,-186.744 150,-186.744 150,-204.744"/>
<text text-anchor="middle" x="138" y="-193.544" font-family="Times,serif" font-size="9.00">&#45;4</text>
</g>
<!-- &#45;5 -->
<g id="node5" class="node"><title>&#45;5</title>
<polygon fill="lightgray" stroke="black" points="192,-204.744 168,-204.744 168,-186.744 192,-186.744 192,-204.744"/>
<text text-anchor="middle" x="180" y="-193.544" font-family="Times,serif" font-size="9.00">&#45;5</text>
</g>
<!-- &#45;6 -->
<g id="node6" class="node"><title>&#45;6</title>
<polygon fill="lightgray" stroke="black" points="234,-204.744 210,-204.744 210,-186.744 234,-186.744 234,-204.744"/>
<text text-anchor="middle" x="222" y="-193.544" font-family="Times,serif" font-size="9.00">&#45;6</text>
</g>
<!-- 0 -->
<g id="node25" class="node"><title>0</title>
<ellipse fill="lightblue" stroke="black" cx="267" cy="-110.246" rx="14.7" ry="14.7"/>
<text text-anchor="middle" x="267" y="-108.046" font-family="Times,serif" font-size="9.00">0</text>
</g>
<!-- &#45;6&#45;&gt;0 -->
<g id="edge5" class="edge"><title>&#45;6&#45;&gt;0</title>
<path fill="none" stroke="red" stroke-width="2.23927" d="M226.315,-186.738C232.96,-174.408 245.925,-150.351 255.44,-132.696"/>
<polygon fill="red" stroke="red" stroke-width="2.23927" points="258.646,-134.124 260.309,-123.661 252.484,-130.803 258.646,-134.124"/>
</g>
<!-- &#45;7 -->
<g id="node7" class="node"><title>&#45;7</title>
<polygon fill="lightgray" stroke="black" points="371,-204.744 347,-204.744 347,-186.744 371,-186.744 371,-204.744"/>
<text text-anchor="middle" x="359" y="-193.544" font-family="Times,serif" font-size="9.00">&#45;7</text>
</g>
<!-- &#45;8 -->
<g id="node8" class="node"><title>&#45;8</title>
<polygon fill="lightgray" stroke="black" points="413,-204.744 389,-204.744 389,-186.744 413,-186.744 413,-204.744"/>
<text text-anchor="middle" x="401" y="-193.544" font-family="Times,serif" font-size="9.00">&#45;8</text>
</g>
<!-- &#45;9 -->
<g id="node9" class="node"><title>&#45;9</title>
<polygon fill="lightgray" stroke="black" points="455,-204.744 431,-204.744 431,-186.744 455,-186.744 455,-204.744"/>
<text text-anchor="middle" x="443" y="-193.544" font-family="Times,serif" font-size="9.00">&#45;9</text>
</g>
<!-- &#45;10 -->
<g id="node10" class="node"><title>&#45;10</title>
<polygon fill="lightgray" stroke="black" points="281.5,-204.744 252.5,-204.744 252.5,-186.744 281.5,-186.744 281.5,-204.744"/>
<text text-anchor="middle" x="267" y="-193.544" font-family="Times,serif" font-size="9.00">&#45;10</text>
</g>
<!-- &#45;10&#45;&gt;0 -->
<g id="edge7" class="edge"><title>&#45;10&#45;&gt;0</title>
<path fill="none" stroke="green" stroke-width="0.999272" d="M267,-186.738C267,-174.974 267,-152.536 267,-135.167"/>
<polygon fill="green" stroke="green" stroke-width="0.999272" points="270.5,-135.148 267,-125.148 263.5,-135.148 270.5,-135.148"/>
</g>
<!-- &#45;11 -->
<g id="node11" class="node"><title>&#45;11</title>
<polygon fill="lightgray" stroke="black" points="328.5,-204.744 299.5,-204.744 299.5,-186.744 328.5,-186.744 328.5,-204.744"/>
<text text-anchor="middle" x="314" y="-193.544" font-family="Times,serif" font-size="9.00">&#45;11</text>
</g>
<!-- &#45;11&#45;&gt;0 -->
<g id="edge3" class="edge"><title>&#45;11&#45;&gt;0</title>
<path fill="none" stroke="red" stroke-width="0.222294" d="M309.493,-186.738C302.553,-174.408 289.012,-150.351 279.074,-132.696"/>
<polygon fill="red" stroke="red" stroke-width="0.222294" points="281.943,-130.658 273.988,-123.661 275.843,-134.092 281.943,-130.658"/>
</g>
<!-- &#45;12 -->
<g id="node12" class="node"><title>&#45;12</title>
<polygon fill="lightgray" stroke="black" points="502.5,-204.744 473.5,-204.744 473.5,-186.744 502.5,-186.744 502.5,-204.744"/>
<text text-anchor="middle" x="488" y="-193.544" font-family="Times,serif" font-size="9.00">&#45;12</text>
</g>
<!-- &#45;13 -->
<g id="node13" class="node"><title>&#45;13</title>
<polygon fill="lightgray" stroke="black" points="549.5,-204.744 520.5,-204.744 520.5,-186.744 549.5,-186.744 549.5,-204.744"/>
<text text-anchor="middle" x="535" y="-193.544" font-family="Times,serif" font-size="9.00">&#45;13</text>
</g>
<!-- &#45;14 -->
<g id="node14" class="node"><title>&#45;14</title>
<polygon fill="lightgray" stroke="black" points="596.5,-204.744 567.5,-204.744 567.5,-186.744 596.5,-186.744 596.5,-204.744"/>
<text text-anchor="middle" x="582" y="-193.544" font-family="Times,serif" font-size="9.00">&#45;14</text>
</g>
<!-- &#45;15 -->
<g id="node15" class="node"><title>&#45;15</title>
<polygon fill="lightgray" stroke="black" points="643.5,-204.744 614.5,-204.744 614.5,-186.744 643.5,-186.744 643.5,-204.744"/>
<text text-anchor="middle" x="629" y="-193.544" font-family="Times,serif" font-size="9.00">&#45;15</text>
</g>
<!-- &#45;16 -->
<g id="node16" class="node"><title>&#45;16</title>
<polygon fill="lightgray" stroke="black" points="690.5,-204.744 661.5,-204.744 661.5,-186.744 690.5,-186.744 690.5,-204.744"/>
<text text-anchor="middle" x="676" y="-193.544" font-family="Times,serif" font-size="9.00">&#45;16</text>
</g>
<!-- &#45;17 -->
<g id="node17" class="node"><title>&#45;17</title>
<polygon fill="lightgray" stroke="black" points="737.5,-204.744 708.5,-204.744 708.5,-186.744 737.5,-186.744 737.5,-204.744"/>
<text text-anchor="middle" x="723" y="-193.544" font-family="Times,serif" font-size="9.00">&#45;17</text>
</g>
<!-- &#45;18 -->
<g id="node18" class="node"><title>&#45;18</title>
<polygon fill="lightgray" stroke="black" points="784.5,-204.744 755.5,-204.744 755.5,-186.744 784.5,-186.744 784.5,-204.744"/>
<text text-anchor="middle" x="770" y="-193.544" font-family="Times,serif" font-size="9.00">&#45;18</text>
</g>
<!-- &#45;19 -->
<g id="node19" class="node"><title>&#45;19</title>
<polygon fill="lightgray" stroke="black" points="831.5,-204.744 802.5,-204.744 802.5,-186.744 831.5,-186.744 831.5,-204.744"/>
<text text-anchor="middle" x="817" y="-193.544" font-family="Times,serif" font-size="9.00">&#45;19</text>
</g>
<!-- &#45;20 -->
<g id="node20" class="node"><title>&#45;20</title>
<polygon fill="lightgray" stroke="black" points="878.5,-204.744 849.5,-204.744 849.5,-186.744 878.5,-186.744 878.5,-204.744"/>
<text text-anchor="middle" x="864" y="-193.544" font-family="Times,serif" font-size="9.00">&#45;20</text>
</g>
<!-- &#45;21 -->
<g id="node21" class="node"><title>&#45;21</title>
<polygon fill="lightgray" stroke="black" points="925.5,-204.744 896.5,-204.744 896.5,-186.744 925.5,-186.744 925.5,-204.744"/>
<text text-anchor="middle" x="911" y="-193.544" font-family="Times,serif" font-size="9.00">&#45;21</text>
</g>
<!-- 2414 -->
<g id="node34" class="node"><title>2414</title>
<ellipse fill="white" stroke="black" cx="911" cy="-110.246" rx="25" ry="25"/>
<text text-anchor="middle" x="911" y="-108.046" font-family="Times,serif" font-size="9.00">2414</text>
</g>
<!-- &#45;21&#45;&gt;2414 -->
<g id="edge1" class="edge"><title>&#45;21&#45;&gt;2414</title>
<path fill="none" stroke="green" stroke-width="0.169309" d="M911,-186.738C911,-177.186 911,-160.597 911,-145.398"/>
<polygon fill="green" stroke="green" stroke-width="0.169309" points="914.5,-145.201 911,-135.201 907.5,-145.201 914.5,-145.201"/>
</g>
<!-- &#45;22 -->
<g id="node22" class="node"><title>&#45;22</title>
<polygon fill="lightgray" stroke="black" points="972.5,-204.744 943.5,-204.744 943.5,-186.744 972.5,-186.744 972.5,-204.744"/>
<text text-anchor="middle" x="958" y="-193.544" font-family="Times,serif" font-size="9.00">&#45;22</text>
</g>
<!-- &#45;23 -->
<g id="node23" class="node"><title>&#45;23</title>
<polygon fill="lightgray" stroke="black" points="1019.5,-204.744 990.5,-204.744 990.5,-186.744 1019.5,-186.744 1019.5,-204.744"/>
<text text-anchor="middle" x="1005" y="-193.544" font-family="Times,serif" font-size="9.00">&#45;23</text>
</g>
<!-- &#45;24 -->
<g id="node24" class="node"><title>&#45;24</title>
<polygon fill="lightgray" stroke="black" points="1066.5,-204.744 1037.5,-204.744 1037.5,-186.744 1066.5,-186.744 1066.5,-204.744"/>
<text text-anchor="middle" x="1052" y="-193.544" font-family="Times,serif" font-size="9.00">&#45;24</text>
</g>
<!-- 1 -->
<g id="node26" class="node"><title>1</title>
<ellipse fill="lightblue" stroke="black" cx="1099" cy="-195.744" rx="14.7" ry="14.7"/>
<text text-anchor="middle" x="1099" y="-193.544" font-family="Times,serif" font-size="9.00">1</text>
</g>
<!-- 2 -->
<g id="node27" class="node"><title>2</title>
<ellipse fill="lightblue" stroke="black" cx="1147" cy="-195.744" rx="14.7" ry="14.7"/>
<text text-anchor="middle" x="1147" y="-193.544" font-family="Times,serif" font-size="9.00">2</text>
</g>
<!-- 2210 -->
<g id="node30" class="node"><title>2210</title>
<ellipse fill="white" stroke="black" cx="1147" cy="-110.246" rx="25" ry="25"/>
<text text-anchor="middle" x="1147" y="-108.046" font-family="Times,serif" font-size="9.00">2210</text>
</g>
<!-- 2&#45;&gt;2210 -->
<g id="edge6" class="edge"><title>2&#45;&gt;2210</title>
<path fill="none" stroke="red" stroke-width="0.168097" d="M1147,-180.579C1147,-170.91 1147,-157.668 1147,-145.347"/>
<polygon fill="red" stroke="red" stroke-width="0.168097" points="1150.5,-145.311 1147,-135.311 1143.5,-145.311 1150.5,-145.311"/>
</g>
<!-- 3 -->
<g id="node28" class="node"><title>3</title>
<ellipse fill="lightblue" stroke="black" cx="1195" cy="-195.744" rx="14.7" ry="14.7"/>
<text text-anchor="middle" x="1195" y="-193.544" font-family="Times,serif" font-size="9.00">3</text>
</g>
<!-- 2980 -->
<g id="node29" class="node"><title>2980</title>
<ellipse fill="white" stroke="black" cx="911" cy="-24.7487" rx="25" ry="25"/>
<text text-anchor="middle" x="911" y="-22.5487" font-family="Times,serif" font-size="9.00">2980</text>
</g>
<!-- 2760 -->
<g id="node31" class="node"><title>2760</title>
<ellipse fill="white" stroke="black" cx="1253" cy="-195.744" rx="25" ry="25"/>
<text text-anchor="middle" x="1253" y="-193.544" font-family="Times,serif" font-size="9.00">2760</text>
</g>
<!-- 2058 -->
<g id="node32" class="node"><title>2058</title>
<ellipse fill="white" stroke="black" cx="1320" cy="-195.744" rx="25" ry="25"/>
<text text-anchor="middle" x="1320" y="-193.544" font-family="Times,serif" font-size="9.00">2058</text>
</g>
<!-- 2893 -->
<g id="node33" class="node"><title>2893</title>
<ellipse fill="white" stroke="black" cx="1387" cy="-195.744" rx="25" ry="25"/>
<text text-anchor="middle" x="1387" y="-193.544" font-family="Times,serif" font-size="9.00">2893</text>
</g>
<!-- 2414&#45;&gt;2980 -->
<g id="edge4" class="edge"><title>2414&#45;&gt;2980</title>
<path fill="none" stroke="green" stroke-width="0.48124" d="M911,-85.0953C911,-77.1512 911,-68.1667 911,-59.6364"/>
<polygon fill="green" stroke="green" stroke-width="0.48124" points="914.5,-59.557 911,-49.557 907.5,-59.5571 914.5,-59.557"/>
</g>
<!-- 2617 -->
<g id="node36" class="node"><title>2617</title>
<ellipse fill="white" stroke="black" cx="1454" cy="-195.744" rx="25" ry="25"/>
<text text-anchor="middle" x="1454" y="-193.544" font-family="Times,serif" font-size="9.00">2617</text>
</g>
<!-- 2201 -->
<g id="node37" class="node"><title>2201</title>
<ellipse fill="white" stroke="black" cx="1521" cy="-195.744" rx="25" ry="25"/>
<text text-anchor="middle" x="1521" y="-193.544" font-family="Times,serif" font-size="9.00">2201</text>
</g>
<!-- 1881 -->
<g id="node38" class="node"><title>1881</title>
<ellipse fill="white" stroke="black" cx="1588" cy="-195.744" rx="25" ry="25"/>
<text text-anchor="middle" x="1588" y="-193.544" font-family="Times,serif" font-size="9.00">1881</text>
</g>
<!-- 541 -->
<g id="node39" class="node"><title>541</title>
<ellipse fill="white" stroke="black" cx="1652" cy="-195.744" rx="21.4286" ry="21.4286"/>
<text text-anchor="middle" x="1652" y="-193.544" font-family="Times,serif" font-size="9.00">541</text>
</g>
</g>
</svg>
